<?xml version="1.0" encoding="UTF-8"?> <!-- Generator: Adobe Illustrator 23.0.1, SVG Export Plug-In . SVG Version: 6.00 Build 0) --> <svg xmlns="http://www.w3.org/2000/svg" xmlns:xlink="http://www.w3.org/1999/xlink" id="Layer_1" x="0px" y="0px" viewBox="0 0 287.9 86.4" style="enable-background:new 0 0 287.9 86.4;" xml:space="preserve"> <style type="text/css"> .st0{fill:#536BB3;} .st1{fill:#8F9FCE;} .st2{fill:#2846A0;} </style> <title>customer-logo-trafalgar</title> <g> <path class="st0" d="M235.3,40.1c0,0,39.9-13.2,49.3-18l-123.2-2.7c0,0,54.4,5.7,87.2,7.9C244.5,31.8,240.1,36.1,235.3,40.1"></path> <path class="st1" d="M284.6,22.1L284.6,22.1c0,0-125.4-16.9-152.8-21.1c0,0,62.3,14.6,84.1,19.6L284.6,22.1z"></path> <path class="st2" d="M12.8,76.4c-2.9,0-5.2-0.3-6.8-0.8c-1.6-0.4-2.9-1.3-3.9-2.7c-1-1.5-1.6-3.2-1.7-5C0.1,65.3,0,62.6,0,60 c0-2.6,0.1-5.3,0.4-7.9c0.1-1.8,0.7-3.5,1.7-5C3,45.8,4.4,44.8,6,44.4c1.7-0.5,4-0.8,6.8-0.8c1,0,2,0,3,0.1c1,0.1,1.8,0.1,2.6,0.2 c0.9,0.1,1.7,0.2,2.4,0.3l-0.1,6.4c-0.6,0-1.3-0.1-2-0.2c-0.6,0-1.4-0.1-2.2-0.1c-0.8,0-1.7,0-2.6,0c-1,0-1.9,0.1-2.8,0.4 c-0.7,0.2-1.2,0.7-1.5,1.4C9.2,53,9,54,9,55.1C8.9,56.3,8.9,58,8.9,60s0,3.7,0.1,4.9c0,1,0.2,2,0.6,2.9c0.3,0.6,0.8,1.2,1.5,1.4 c0.9,0.3,1.8,0.4,2.8,0.4c0.9,0,1.8,0,2.6,0c0.7,0,1.5,0,2.2-0.1c0.7,0,1.4-0.1,2-0.2l0.1,6.4c-0.7,0.1-1.5,0.2-2.4,0.4 c-0.7,0.1-1.6,0.1-2.6,0.2C14.8,76.2,13.9,76.3,12.8,76.4"></path> <path class="st2" d="M27.3,44.3h6.6l0.8,2.4l0.9-0.7c0.5-0.4,1.1-0.7,1.6-1c0.7-0.4,1.5-0.7,2.3-0.9c0.9-0.3,1.9-0.4,2.9-0.4 c0.4,0,0.8,0,1.1,0s0.6,0,0.9,0.1c0.3,0,0.6,0,0.9,0l-0.1,6.8c-0.3,0-0.6,0-0.9,0c-0.3,0-0.6,0-1,0s-0.7,0-1.2,0 c-1.4,0-2.9,0.2-4.2,0.7c-0.7,0.3-1.4,0.6-2,1v23.5h-8.5L27.3,44.3L27.3,44.3z"></path> <path class="st2" d="M47.5,65.8c0-1.3,0.1-2.7,0.5-4c0.3-1.1,0.8-2.1,1.7-2.9s2-1.4,3.1-1.7c1.6-0.4,3.3-0.6,4.9-0.6 c1.2,0,2.5,0,3.8,0.2c1,0.1,1.9,0.2,2.7,0.3v-1.8c0-0.8,0-1.6-0.2-2.4c-0.1-0.6-0.4-1.1-0.8-1.5c-0.5-0.4-1.1-0.6-1.7-0.7 c-1-0.1-2-0.2-3-0.2c-2,0-3.7,0-5.2,0.1L50,50.8v-6.5c1.2-0.1,2.3-0.2,3.5-0.3c1-0.1,2.1-0.1,3.2-0.2c1.1,0,2.2-0.1,3.2-0.1 c2.2,0,4.4,0.2,6.6,0.7c1.5,0.4,2.8,1.2,3.9,2.3c0.9,1.1,1.6,2.4,1.8,3.8c0.3,1.8,0.5,3.6,0.5,5.4v20h-6.6L65.3,74 c-0.2,0.1-0.6,0.3-1.1,0.6c-0.6,0.3-1.3,0.6-1.9,0.9c-0.9,0.3-1.8,0.6-2.7,0.8c-1.1,0.2-2.2,0.4-3.3,0.4s-2.2-0.1-3.3-0.5 c-1-0.3-2-0.8-2.8-1.5c-0.9-0.8-1.5-1.8-1.9-2.9c-0.6-1.5-0.8-3-0.7-4.6L47.5,65.8L47.5,65.8z M55.6,65.9c0,1.6,0.3,2.7,0.9,3.3 c0.6,0.6,1.7,0.9,3.4,0.9c0.9,0,1.8-0.1,2.8-0.4c0.6-0.2,1.2-0.4,1.8-0.6v-7.2c-0.4-0.1-1.1-0.2-1.8-0.2c-0.8,0-1.7-0.1-2.7-0.1 c-1.6,0-2.7,0.3-3.3,0.8c-0.6,0.6-0.9,1.6-0.9,3L55.6,65.9z"></path> <path class="st2" d="M87.5,76.4c-1.5,0-3-0.2-4.4-0.8c-1.2-0.5-2.1-1.3-2.8-2.4c-0.7-1.3-1.2-2.7-1.4-4.2c-0.3-2-0.5-4.1-0.4-6.1 v-5.5c0-2,0.1-4.1,0.5-6.1c0.2-1.5,0.7-3,1.5-4.2c0.7-1.1,1.7-1.9,2.8-2.5c1.4-0.6,2.9-0.9,4.4-0.8c1,0,2,0.1,3,0.3 c0.8,0.1,1.7,0.4,2.4,0.6c0.7,0.2,1.3,0.5,1.8,0.7c0.3,0.1,0.6,0.3,1,0.4V34.7h8.4V76h-6.6L97,73.9c-0.2,0.1-0.6,0.2-1.2,0.5 c-0.6,0.3-1.3,0.6-2.1,0.9c-0.9,0.3-1.8,0.6-2.8,0.8C89.8,76.3,88.6,76.4,87.5,76.4 M91,69.6c1,0,1.9-0.1,2.9-0.3 c0.6-0.1,1.2-0.3,1.8-0.6V51.3c-0.6-0.2-1.2-0.4-1.8-0.6C93,50.5,92,50.4,91,50.4c-0.6,0-1.4,0-2,0.2s-1.1,0.6-1.3,1.1 c-0.4,0.7-0.6,1.6-0.7,2.4c-0.1,1.4-0.2,2.8-0.2,4.2v3.4c0,1.4,0,2.8,0.2,4.1c0.1,0.8,0.3,1.6,0.7,2.4c0.3,0.5,0.7,0.9,1.3,1.1 C89.7,69.6,90.4,69.7,91,69.6"></path> <rect x="111.5" y="34.5" class="st2" width="8.3" height="41.3"></rect> <path class="st2" d="M166.8,85.5h-8.3V44.3h6.6l0.7,1.9c0.2-0.1,0.6-0.2,1.1-0.5c0.6-0.3,1.2-0.6,2-0.8c0.9-0.3,1.8-0.6,2.8-0.8 c1.1-0.2,2.2-0.4,3.4-0.4c1.6,0,3.1,0.2,4.6,0.8c1.2,0.6,2.1,1.4,2.8,2.5c0.7,1.3,1.2,2.7,1.4,4.2c0.3,2,0.4,4,0.4,6v5.5 c0,2-0.1,4-0.4,6c-0.2,1.5-0.6,2.9-1.4,4.2c-0.6,1.1-1.6,2-2.8,2.5c-1.4,0.6-3,0.9-4.6,0.8c-1,0-2-0.1-3-0.3 c-0.8-0.1-1.7-0.4-2.4-0.6c-0.6-0.2-1.2-0.4-1.8-0.6l-1-0.5L166.8,85.5z M166.8,68.7c0.6,0.2,1.2,0.4,1.8,0.6c1,0.2,1.9,0.3,3,0.3 c0.7,0,1.4-0.1,2.2-0.3c0.6-0.2,1.1-0.6,1.3-1.1c0.4-0.7,0.6-1.6,0.7-2.4c0.1-1.4,0.2-2.8,0.2-4.2v-3.4c0-1.4,0-2.8-0.2-4.2 c-0.1-0.8-0.3-1.7-0.7-2.4c-0.3-0.5-0.8-0.9-1.3-1.1c-0.7-0.2-1.4-0.3-2.2-0.3c-1,0-2,0.1-2.9,0.4c-0.9,0.2-1.5,0.4-1.8,0.6 L166.8,68.7z"></path> <path class="st2" d="M203.4,76.4c-2.8,0-5-0.3-6.7-0.9c-1.6-0.5-3-1.5-4-2.9c-1.1-1.5-1.7-3.3-2-5.1c-0.4-2.5-0.6-5-0.5-7.5 c0-2.5,0.1-5.1,0.5-7.6c0.2-1.8,0.9-3.6,2-5.1c1-1.3,2.4-2.3,4-2.8c1.7-0.6,4-0.9,6.7-0.9c2.3,0,4.6,0.2,6.7,0.9 c1.6,0.5,3,1.5,4.1,2.8c1.1,1.5,1.7,3.2,1.9,5.1c0.4,2.5,0.6,5,0.5,7.6c0,2.5-0.1,5-0.5,7.5c-0.2,1.8-0.9,3.6-1.9,5.1 c-1,1.3-2.4,2.4-4.1,2.9C207.9,76.2,205.6,76.4,203.4,76.4 M203.4,69.6c0.9,0,1.8-0.1,2.7-0.3c0.6-0.2,1.2-0.7,1.5-1.3 c0.4-0.9,0.6-1.9,0.7-2.9c0.1-1.3,0.1-3,0.1-5s0-3.7-0.1-5c0-1-0.3-2-0.7-2.9c-0.3-0.6-0.9-1.2-1.5-1.3c-0.9-0.2-1.8-0.4-2.7-0.3 c-0.9,0-1.8,0.1-2.7,0.3c-0.6,0.2-1.2,0.7-1.5,1.3c-0.4,0.9-0.6,1.9-0.6,2.9c-0.1,1.2-0.1,2.9-0.1,5c0,2.1,0,3.8,0.1,5 c0,1,0.2,2,0.6,2.9c0.3,0.6,0.8,1.1,1.5,1.3C201.6,69.6,202.4,69.7,203.4,69.6"></path> <polygon class="st2" points="222.4,50.7 230.7,44.3 230.7,75.8 222.4,75.8 "></polygon> <path class="st2" d="M237.3,44.3h6.6l0.7,2c0.2-0.1,0.6-0.3,1.2-0.6c0.6-0.3,1.3-0.6,2.1-0.9c0.9-0.3,1.9-0.6,2.9-0.8 c1.1-0.2,2.2-0.4,3.3-0.4c1.5,0,3,0.2,4.5,0.8c1.2,0.5,2.1,1.4,2.8,2.4c0.7,1.2,1.2,2.6,1.4,4.1c0.3,1.8,0.4,3.7,0.4,5.6v19.2h-8.3 V57.2c0-1.2,0-2.4-0.2-3.6c-0.1-0.7-0.3-1.5-0.7-2.1c-0.3-0.5-0.8-0.8-1.3-1c-0.7-0.2-1.4-0.3-2.1-0.3c-1,0-2,0.1-2.9,0.4 c-0.6,0.1-1.2,0.4-1.8,0.6v24.4h-8.3L237.3,44.3L237.3,44.3z"></path> <path class="st2" d="M287.8,69.2l-1.7,0.2c-1.2,0.1-2.3,0.2-3.4,0.2c-0.5,0-0.9,0-1.4-0.1c-0.4-0.1-0.7-0.3-0.9-0.6 c-0.2-0.4-0.4-0.9-0.5-1.3c-0.1-0.8-0.1-1.5-0.1-2.3V50.6l0,0v-6.4l0,0V38h-6l-1.5,6.2h-4.6v6.3h3.7v14.4c0,1.8,0.1,3.5,0.3,5.2 c0.1,1.2,0.6,2.5,1.3,3.6c0.6,0.9,1.6,1.6,2.7,2c1.4,0.5,2.9,0.7,4.4,0.6c1,0,1.9,0,2.9-0.1c1-0.1,1.8-0.2,2.5-0.3 c0.9-0.1,1.7-0.3,2.4-0.4L287.8,69.2z"></path> <polygon class="st2" points="287.5,44.3 279.9,44.3 283.8,50.6 287.5,50.6 "></polygon> <path class="st2" d="M151.4,51.6c-0.3-1.6-1-3.1-2-4.4c-1-1.2-2.3-2.1-3.8-2.7c-1.9-0.6-4-0.9-6-0.9c-2.1,0-4.3,0.3-6.3,1 c-1.6,0.6-3,1.6-4.1,3c-1.1,1.5-1.8,3.2-2.2,5.1c-0.5,2.4-0.7,4.9-0.6,7.3c0,2.5,0.2,5,0.7,7.5c0.4,1.8,1.2,3.6,2.3,5.1 c1.1,1.3,2.5,2.3,4.1,2.9c1.9,0.6,4,0.9,6,0.9c1.7,0,3.2,0,4.6-0.2c1.4-0.1,2.7-0.3,3.7-0.4c1.2-0.1,2.3-0.3,3.4-0.6l-0.1-6.2 c-0.9,0.1-1.9,0.2-3,0.4c-0.9,0.1-2,0.1-3.3,0.2c-1.2,0-2.6,0.1-4,0.1c-1,0-2-0.1-3-0.3c-0.7-0.2-1.4-0.6-1.9-1.1 c-0.5-0.6-0.9-1.3-1.1-2.1c-0.3-1.1-0.4-2.1-0.4-3.2l0,0l-0.2-4.8l0,0c0-1.4,0.1-2.9,0.3-4.2c0.1-0.9,0.5-1.7,0.9-2.4 c0.4-0.6,1-1,1.7-1.1c0.8-0.2,1.6-0.3,2.4-0.3c0.7,0,1.4,0,2.2,0.2c0.6,0.1,1.1,0.5,1.5,0.9c0.5,0.6,0.7,1.2,0.9,1.9 c0.2,1.1,0.3,2.2,0.3,3.2v0.9c0,0.3,0,0.6,0,0.9h-10.1l4.1,4.8h13.2c0-0.5,0.1-1,0.1-1.5s0.1-1,0.1-1.7s0-1.3,0-2.1 C152,55.6,151.8,53.6,151.4,51.6"></path> </g> </svg> 