<?xml version="1.0" encoding="UTF-8"?> <svg xmlns="http://www.w3.org/2000/svg" viewBox="0 0 287.93 28.66"><defs><style>.cls-1{fill:#536bb3;}</style></defs><title>customer-logo-trafalgar</title><g id="Layer_2" data-name="Layer 2"><g id="Layer_1-2" data-name="Layer 1"><path class="cls-1" d="M12.85,6.73V27.9h-7V6.73H0v-6H18.65v6Z"></path><path class="cls-1" d="M52.27,27.9H43.49L36.76,17.46V27.9H29.7V.76h11a10.88,10.88,0,0,1,4,.66,7.68,7.68,0,0,1,2.79,1.82A7.91,7.91,0,0,1,49.09,5.9a9.34,9.34,0,0,1,.55,3.24,8,8,0,0,1-1.49,5,7.59,7.59,0,0,1-4.41,2.61Zm-15.51-15h1.33a5.1,5.1,0,0,0,3.2-.87,2.93,2.93,0,0,0,1.12-2.48,2.93,2.93,0,0,0-1.12-2.48,5.1,5.1,0,0,0-3.2-.87H36.76Z"></path><path class="cls-1" d="M79.78,23.18H69.7L68.08,27.9H60.55L70.88.76h7.71L88.92,27.9H81.4ZM77.9,17.82l-3.16-9-3.17,9Z"></path><path class="cls-1" d="M115.49,6.73H107v4.54h7.74v6H107V27.9H99.93V.76h15.56Z"></path><path class="cls-1" d="M143.13,23.18H133.06l-1.62,4.72h-7.53L134.24.76H142L152.28,27.9h-7.53Zm-1.87-5.36-3.17-9-3.16,9Z"></path><path class="cls-1" d="M170.35.76V21.92h8.46v6H163.29V.76Z"></path><path class="cls-1" d="M203.18,12.71h14a38.74,38.74,0,0,1-.18,3.92,13.92,13.92,0,0,1-.72,3.28,13.22,13.22,0,0,1-2,3.76,12.25,12.25,0,0,1-3.05,2.74,14.17,14.17,0,0,1-3.83,1.67,16.61,16.61,0,0,1-4.39.58,15.33,15.33,0,0,1-5.78-1.05,12.86,12.86,0,0,1-4.48-2.93,13.29,13.29,0,0,1-2.92-4.54,15.7,15.7,0,0,1-1-5.85,16,16,0,0,1,1-5.81A12.82,12.82,0,0,1,192.69,4,13.33,13.33,0,0,1,197.24,1a16.31,16.31,0,0,1,5.94-1,14.65,14.65,0,0,1,7.45,1.84,12.71,12.71,0,0,1,5.08,5.68L209,10.3a6.78,6.78,0,0,0-2.43-3.21,6,6,0,0,0-3.4-1,7,7,0,0,0-2.88.59,6.22,6.22,0,0,0-2.21,1.7,8.17,8.17,0,0,0-1.44,2.64,10.74,10.74,0,0,0-.52,3.46,10.9,10.9,0,0,0,.45,3.2,7.2,7.2,0,0,0,1.35,2.56,6,6,0,0,0,2.23,1.67,7.47,7.47,0,0,0,3.09.6,8.4,8.4,0,0,0,2-.24,5.39,5.39,0,0,0,1.75-.75,4.32,4.32,0,0,0,1.27-1.35,5.41,5.41,0,0,0,.69-2h-5.8Z"></path><path class="cls-1" d="M245.19,23.18H235.12L233.5,27.9H226L236.3.76H244L254.34,27.9h-7.53Zm-1.87-5.36-3.17-9-3.16,9Z"></path><path class="cls-1" d="M287.93,27.9h-8.79l-6.73-10.44V27.9h-7.06V.76h11a10.81,10.81,0,0,1,4,.66,7.68,7.68,0,0,1,2.79,1.82,7.6,7.6,0,0,1,1.66,2.66,9.35,9.35,0,0,1,.56,3.24,8,8,0,0,1-1.5,5,7.53,7.53,0,0,1-4.41,2.61Zm-15.52-15h1.33A5.15,5.15,0,0,0,277,12a3,3,0,0,0,1.11-2.48A3,3,0,0,0,277,7.06a5.15,5.15,0,0,0-3.21-.87h-1.33Z"></path></g></g></svg> 