<?xml version="1.0" encoding="UTF-8"?> <svg xmlns="http://www.w3.org/2000/svg" viewBox="0 0 154.87 84.93"><defs><style>.cls-1{fill:#2846a0;}</style></defs><title>customer-logo-mirvac</title><g id="Layer_2" data-name="Layer 2"><g id="Layer_1-2" data-name="Layer 1"><path class="cls-1" d="M39.07,50.38c-.16-1.81-.35-3.55-.46-5.3a77.11,77.11,0,0,1,.12-11.87,38.07,38.07,0,0,1,2.71-11.76,26.45,26.45,0,0,1,9.71-11.38c2.66-1.82,5.49-3.41,8.27-5,2.63-1.54,5.38-2.88,7.76-5,0,.25,0,.42,0,.58q0,15.87,0,31.73a2,2,0,0,1-.32,1,19.34,19.34,0,0,1-5.19,5.21,78.55,78.55,0,0,1-13.56,7.85c-2.74,1.29-5.53,2.46-8.3,3.68C39.62,50.19,39.39,50.26,39.07,50.38Z"></path><path class="cls-1" d="M98.19,50v-.7q0-15.63,0-31.24a1,1,0,0,1,.53-1Q111.87,8.73,125,.37l.61-.36c0,.28,0,.49,0,.7q0,15.75,0,31.49a.89.89,0,0,1-.46.88q-13.29,8.3-26.57,16.62A4.7,4.7,0,0,1,98.19,50Z"></path><path class="cls-1" d="M69,0l.63.39L96,17.07a.85.85,0,0,1,.5.8q0,15.84,0,31.67v.4c-.2-.11-.36-.17-.49-.26Q82.68,41.37,69.4,33.06a.82.82,0,0,1-.43-.78Q69,16.44,69,.61C69,.44,69,.26,69,0Z"></path><path class="cls-1" d="M127.45,0l.56.32,26.37,16.72a.92.92,0,0,1,.49.87q0,15.7,0,31.42v.58c-.24-.13-.41-.21-.57-.31q-13.2-8.26-26.42-16.53a.88.88,0,0,1-.46-.87q0-15.81,0-31.61C127.42.44,127.43.26,127.45,0Z"></path><path class="cls-1" d="M16.94,58a8.62,8.62,0,0,1,5.91-1.79,40.22,40.22,0,0,1,4.79.13c3.55.44,5.6,2.55,6.08,6.11a20.6,20.6,0,0,1,.19,2.72c0,5.92,0,11.84,0,17.77,0,1.07-.11,1.17-1.19,1.17H31a.7.7,0,0,1-.76-.75c0-.21,0-.41,0-.61,0-5.82,0-11.65,0-17.47a11.6,11.6,0,0,0-.46-3,3.53,3.53,0,0,0-3.4-2.72,33.47,33.47,0,0,0-4.48.08,3,3,0,0,0-2.94,2.93,14.68,14.68,0,0,0-.12,1.87q0,9.28,0,18.57c0,1-.15,1.14-1.17,1.14H16c-.62,0-.83-.22-.86-.84,0-.2,0-.41,0-.61q0-9,0-18.07a12.86,12.86,0,0,0-.21-2.41,2.8,2.8,0,0,0-2.63-2.54,36.6,36.6,0,0,0-5.13,0A3.14,3.14,0,0,0,4.26,62a12.21,12.21,0,0,0-.57,3.44c-.06,5.82,0,11.64,0,17.47,0,1.19-.08,1.27-1.27,1.27H.81a.71.71,0,0,1-.8-.77c0-.12,0-.25,0-.37,0-6,0-12,0-18a16.28,16.28,0,0,1,.37-3.42,6.12,6.12,0,0,1,5.37-5.13,25.05,25.05,0,0,1,8.15.1A6.14,6.14,0,0,1,16.94,58Z"></path><path class="cls-1" d="M110.91,71.15c0,2.67,0,5.34,0,8,0,.5,0,1-.08,1.51a3.23,3.23,0,0,1-2.6,3.12,38.08,38.08,0,0,1-5.28,1,21.83,21.83,0,0,1-8.47-.64,7.28,7.28,0,0,1-5.66-7.32,17.09,17.09,0,0,1,.19-3.2,5.44,5.44,0,0,1,4.73-4.85c2.83-.56,5.68-1,8.53-1.47,1.51-.26,3-.47,4.55-.74.17,0,.43-.26.43-.39,0-1.23,0-2.47-.09-3.7a2.43,2.43,0,0,0-1.58-2.12,10.45,10.45,0,0,0-4.46-.63,44.1,44.1,0,0,0-9.7,1.4c-.9.21-1,.17-1.15-.75L90,59c-.16-.84-.08-1.06.77-1.27,1.39-.34,2.79-.68,4.2-.9a36.24,36.24,0,0,1,8.7-.51,16.12,16.12,0,0,1,3.09.54c2.77.8,4.07,2.52,4.12,5.48s0,5.91,0,8.86Zm-3.67-1.31a3.73,3.73,0,0,0-.5,0c-1.74.27-3.47.54-5.21.83-2,.34-4.1.68-6.14,1.08a3,3,0,0,0-2.59,2.41,9.48,9.48,0,0,0-.14,3c.31,2.3,1.9,3.51,4,4a18.71,18.71,0,0,0,10.17-.38c.41-.13.45-.37.45-.72,0-3.24,0-6.47,0-9.71C107.27,70.23,107.26,70.05,107.24,69.84Z"></path><path class="cls-1" d="M75.83,81.15l.27-.84Q79.42,69,82.75,57.71c.26-.88.29-.9,1.22-.91h1.64c1.14,0,1.27.18.94,1.31l-1.77,6Q82,73.54,79.24,82.92c-.33,1.09-.49,1.22-1.61,1.22h-4c-.82,0-1.08-.19-1.31-1Q68.59,70.57,64.88,58c-.26-.89-.06-1.15.85-1.16.64,0,1.29,0,1.94,0a.9.9,0,0,1,1,.77C70,62,71.27,66.33,72.55,70.71l2.91,9.87c.06.19.13.37.19.55Z"></path><path class="cls-1" d="M118.49,70.63c.26,2.08.38,4.19.81,6.23.65,3,2.39,4.52,5.47,4.63a57.94,57.94,0,0,0,6.71-.3c1.49-.11,3-.38,4.44-.6.4-.06.63.07.71.45.12.54.24,1.07.33,1.61.14.76,0,1.06-.8,1.21a31,31,0,0,1-3.82.6c-2.58.2-5.17.37-7.75.38a12,12,0,0,1-3.56-.61,7.76,7.76,0,0,1-5.35-6.14,28.07,28.07,0,0,1-.67-4.73,33.3,33.3,0,0,1,.65-10.25c1-4.12,3.62-6.3,7.85-6.75a33.42,33.42,0,0,1,8.87.57c1.07.18,2.14.42,3.19.69.76.2.85.41.72,1.19-.09.52-.17,1-.27,1.55s-.29.73-.93.61c-2.12-.39-4.24-.81-6.37-1.15a14,14,0,0,0-5.25,0,5.11,5.11,0,0,0-3.87,3.4,19.12,19.12,0,0,0-.92,6c0,.47,0,.93,0,1.4Z"></path><path class="cls-1" d="M49.14,72c0-3.58,0-7.16,0-10.74a3.5,3.5,0,0,1,2.51-3.64,23,23,0,0,1,5.89-1.33c1-.1,1.94-.11,2.91-.13.71,0,.89.16.91.88s0,1.29,0,1.94-.19.8-.79.79a25.27,25.27,0,0,0-6.6.73c-1.17.3-1.17.28-1.17,1.49V82.9c0,1.14-.11,1.24-1.26,1.24-.48,0-1,0-1.45,0-.74,0-.94-.2-.94-.94q0-3.57,0-7.16V72Z"></path><path class="cls-1" d="M43.14,70.32V82.88c0,1.12-.14,1.26-1.25,1.26H40.26a.73.73,0,0,1-.8-.79c0-.16,0-.32,0-.49V58.54c0-1,0-1,1-1.34l1.78-.6c.58-.19.83,0,.92.56a5,5,0,0,1,0,.67Z"></path></g></g></svg> 