<?xml version="1.0" encoding="UTF-8"?> <svg xmlns="http://www.w3.org/2000/svg" viewBox="0 0 276.51 69.17"><defs><style>.cls-1{fill:#536bb3;}</style></defs><title>customer-logo-uniworld</title><g id="Layer_2" data-name="Layer 2"><g id="Layer_1-2" data-name="Layer 1"><path class="cls-1" d="M35.29,0,33.85,0h-.29L33.4,0a34.57,34.57,0,0,0,1.17,69.12l.23,0A34.64,34.64,0,0,0,69.15,34.58,34.75,34.75,0,0,0,35.3,0ZM57.43,57.44A32.36,32.36,0,0,1,2.18,34.57,32.41,32.41,0,0,1,33.62,2.21h.93A32.37,32.37,0,0,1,57.44,57.44Z"></path><path class="cls-1" d="M77.7,25.89a.55.55,0,0,1,.55-.55H85c3.4,0,6.21,2.34,6.21,5.37,0,2.22-2,3.83-3.34,4.55,1.54.64,3.87,2.05,3.87,4.7,0,3.24-2.85,5.57-6.29,5.57H78.27a.54.54,0,0,1-.53-.54V25.89h0Zm6.75,7.64a2.05,2.05,0,0,0,2-2.07,2,2,0,0,0-2-2H82.21v4Zm.38,7.88a2.1,2.1,0,0,0,2.08-2.11,2.32,2.32,0,0,0-2.37-2H82.21v4.13Zm14.74-5.6-6.38-9.63a.53.53,0,0,1,.46-.84H97.4a.61.61,0,0,1,.46.26l4,5.91,4-5.9a.54.54,0,0,1,.46-.26h3.76a.53.53,0,0,1,.46.82l-6.47,9.62V45a.57.57,0,0,1-.56.55h-3.42a.55.55,0,0,1-.55-.53V35.81h0Zm19.74-9.92a.57.57,0,0,1,.54-.55h3.53a.54.54,0,0,1,.53.55V37.57a3.53,3.53,0,0,0,3.53,3.63,3.56,3.56,0,0,0,3.61-3.63V25.89a.54.54,0,0,1,.53-.55h3.55a.58.58,0,0,1,.55.55V37.8a8.23,8.23,0,0,1-16.45,0V25.89h.08Zm21.61-.32a.54.54,0,0,1,.56-.51h.72l11.5,11.07h0V25.89a.55.55,0,0,1,.54-.55h3.46a.57.57,0,0,1,.55.55V45.3a.54.54,0,0,1-.55.52h-.46a.73.73,0,0,1-.37-.15L145.49,34.21h0V45a.56.56,0,0,1-.56.54h-3.42a.57.57,0,0,1-.55-.56l0-19.39,0,0Zm22.89.32a.57.57,0,0,1,.54-.55h3.47a.57.57,0,0,1,.54.55V45a.57.57,0,0,1-.56.55h-3.45a.56.56,0,0,1-.56-.53V25.9h0Zm8.3.14a.5.5,0,0,1,.52-.69H176a.58.58,0,0,1,.52.41L179,35.52h.11l4.46-10.15a.56.56,0,0,1,.5-.31h.51a.5.5,0,0,1,.5.31l4.47,10.15h.12l2.48-9.78a.57.57,0,0,1,.52-.39H196a.51.51,0,0,1,.52.7l-5.44,19.37a.55.55,0,0,1-.52.4h-.46a.59.59,0,0,1-.49-.31l-5.28-11.8h-.08L179,45.5a.58.58,0,0,1-.49.32h-.45a.56.56,0,0,1-.52-.4L172.13,26v0Zm37.07-1a10.39,10.39,0,1,1-10.37,10.41,10.35,10.35,0,0,1,10.37-10.41m0,16.15a5.77,5.77,0,1,0-5.73-5.74,5.77,5.77,0,0,0,5.73,5.74m14.45-15.32a.55.55,0,0,1,.55-.55h8.63a6.27,6.27,0,0,1,6.28,6.23,6.35,6.35,0,0,1-4.27,5.8l3.94,7.32a.54.54,0,0,1-.5.83h-3.83a.49.49,0,0,1-.46-.26l-3.84-7.63h-2V45a.58.58,0,0,1-.55.55h-3.42a.54.54,0,0,1-.54-.53V25.88h0Zm8.8,8.07a2.31,2.31,0,0,0,2.19-2.31,2.2,2.2,0,0,0-2.18-2.19h-4.27V34h4.26Zm11.1-8.07a.55.55,0,0,1,.55-.55h3.44a.56.56,0,0,1,.54.55v15.4h6.86a.54.54,0,0,1,.55.54V45a.54.54,0,0,1-.55.55H244.07a.55.55,0,0,1-.55-.55V25.88h0Zm15.3,0a.55.55,0,0,1,.53-.55h7a10.09,10.09,0,1,1,0,20.18h-7a.54.54,0,0,1-.53-.53V25.88Zm7.28,15.37a5.63,5.63,0,0,0,5.62-5.86,5.61,5.61,0,0,0-5.62-5.82h-2.77V41.25ZM50.68,39.84a16.35,16.35,0,0,1-32.69,0V16.16a1.13,1.13,0,0,1,1.1-1.08h7.05a1.09,1.09,0,0,1,1.09,1.09V39.39a7.11,7.11,0,1,0,14.22,0V16.17a1.09,1.09,0,0,1,1.09-1.09h7.05a1.13,1.13,0,0,1,1.09,1.09V39.85h0Z"></path></g></g></svg> 