<?xml version="1.0" encoding="UTF-8"?> <svg xmlns="http://www.w3.org/2000/svg" viewBox="0 0 127.84 61.9"><defs><style>.cls-1{fill:#90a0ce;}.cls-2{fill:#fefefe;}.cls-3{fill:#2846a0;}.cls-4{fill:#015593;}</style></defs><title>customer-logo-BCF</title><g id="Layer_2" data-name="Layer 2"><g id="Layer_1-2" data-name="Layer 1"><path class="cls-1" d="M127.84,15.63c-1,1.32-1.8,2.74-2.69,4.13a52.08,52.08,0,0,0-7.37,17.87,44.23,44.23,0,0,0-.92,7.95c0,.85,0,1.7,0,2.55a.58.58,0,0,1-.34.57,94.82,94.82,0,0,1-14.88,6.92,102.76,102.76,0,0,1-20.86,5.14,116.91,116.91,0,0,1-11.81,1.05c-2.71.1-5.42.12-8.12,0A104.31,104.31,0,0,1,18.73,52c-2.13-1-4.19-2.17-6.26-3.3-.38-.21-.35-.51-.37-.83a53,53,0,0,0-.9-8A52.64,52.64,0,0,0,3.09,20.75c-1-1.51-2.06-3-3.09-4.5v-.2c.23.05.39-.12.57-.21C4,14.07,7.38,12.27,10.91,10.73a125,125,0,0,1,28-8.47A138.42,138.42,0,0,1,58.78.1,11.6,11.6,0,0,0,60.64,0H70c.08.18.24.09.36.1,1.47.08,2.94.13,4.41.24A143.47,143.47,0,0,1,90.11,2.28a129.74,129.74,0,0,1,21.62,5.9,140.86,140.86,0,0,1,16.11,7.34ZM64.48,3.22c-4.11,0-8.22.16-12.32.5A136.74,136.74,0,0,0,36.32,6,117.42,117.42,0,0,0,5.51,16.85c-.9.47-.9.46-.33,1.29a58.61,58.61,0,0,1,7.71,15.62,51.83,51.83,0,0,1,2.27,12.35.69.69,0,0,0,.41.64Q17.93,48,20.34,49.2a100.4,100.4,0,0,0,33.29,8.92,109,109,0,0,0,16.95.36,117.64,117.64,0,0,0,11.84-1.26,99.08,99.08,0,0,0,19.36-5.14,86,86,0,0,0,11.41-5.28.69.69,0,0,0,.43-.67c0-1,.08-1.91.14-2.86a50.92,50.92,0,0,1,3.32-14.71,58.91,58.91,0,0,1,5.86-11.35c.21-.33.24-.49-.17-.68-.87-.39-1.71-.85-2.57-1.26A123.35,123.35,0,0,0,81.26,4.18,130.61,130.61,0,0,0,64.48,3.22Z"></path><path class="cls-2" d="M64.48,3.22a130.61,130.61,0,0,1,16.78,1A123.35,123.35,0,0,1,120.2,15.27c.86.41,1.7.87,2.57,1.26.41.19.38.35.17.68a58.91,58.91,0,0,0-5.86,11.35,50.92,50.92,0,0,0-3.32,14.71c-.06.95-.12,1.9-.14,2.86a.69.69,0,0,1-.43.67,86,86,0,0,1-11.41,5.28,99.08,99.08,0,0,1-19.36,5.14,117.64,117.64,0,0,1-11.84,1.26,109,109,0,0,1-16.95-.36A100.4,100.4,0,0,1,20.34,49.2Q17.93,48,15.57,46.75a.69.69,0,0,1-.41-.64,51.83,51.83,0,0,0-2.27-12.35A58.61,58.61,0,0,0,5.18,18.14c-.57-.83-.57-.82.33-1.29A117.42,117.42,0,0,1,36.32,6a136.74,136.74,0,0,1,15.84-2.3C56.26,3.38,60.37,3.19,64.48,3.22ZM7.82,18.16l.23.37a59.15,59.15,0,0,1,7.3,15.91,49.15,49.15,0,0,1,1.84,10,1.19,1.19,0,0,0,.73,1.1,90.42,90.42,0,0,0,14.67,6.1,103.43,103.43,0,0,0,23.69,4.52,93.25,93.25,0,0,0,10,.28c2.31-.08,4.61-.16,6.91-.34a107.19,107.19,0,0,0,11.57-1.57,97.52,97.52,0,0,0,16.68-4.71,85.89,85.89,0,0,0,9.62-4.37.64.64,0,0,0,.41-.68,12.22,12.22,0,0,1,.08-1.35,51.05,51.05,0,0,1,2-11.11,58.39,58.39,0,0,1,6.29-14.23c.16-.27.25-.41-.14-.59-2.75-1.31-5.53-2.54-8.36-3.64a125.18,125.18,0,0,0-30.79-7.5q-6.12-.72-12.29-.89-4.11-.11-8.22,0c-3.93.14-7.85.42-11.77.87C44.62,6.75,41,7.31,37.4,8a120.12,120.12,0,0,0-23.28,7.18C12,16.13,9.89,17.09,7.82,18.16Z"></path><path class="cls-3" d="M7.82,18.16c2.07-1.07,4.17-2,6.3-2.94A120.12,120.12,0,0,1,37.4,8c3.59-.73,7.22-1.29,10.86-1.7,3.92-.45,7.84-.73,11.77-.87q4.11-.13,8.22,0,6.16.18,12.29.89a125.18,125.18,0,0,1,30.79,7.5c2.83,1.1,5.61,2.33,8.36,3.64.39.18.3.32.14.59a58.39,58.39,0,0,0-6.29,14.23,51.05,51.05,0,0,0-2,11.11,12.22,12.22,0,0,0-.08,1.35.64.64,0,0,1-.41.68,85.89,85.89,0,0,1-9.62,4.37,97.52,97.52,0,0,1-16.68,4.71,107.19,107.19,0,0,1-11.57,1.57c-2.3.18-4.6.26-6.91.34a93.25,93.25,0,0,1-10-.28,103.43,103.43,0,0,1-23.69-4.52,90.42,90.42,0,0,1-14.67-6.1,1.19,1.19,0,0,1-.73-1.1,49.15,49.15,0,0,0-1.84-10,59.15,59.15,0,0,0-7.3-15.91Zm72.93,23.5c-.39-1.35-.77-2.66-1.12-4-.09-.31-.18-.37-.5-.32a26.05,26.05,0,0,1-6.11.35,10.92,10.92,0,0,1-6.31-2.52A6.18,6.18,0,0,1,64.3,31a8.07,8.07,0,0,1,2.82-7c2.4-2.18,5.37-2.93,8.5-3.22a27.63,27.63,0,0,1,8.26.6c.19,0,.36.09.53-.1,1-1.16,2.1-2.3,3.15-3.45a.76.76,0,0,0-.14-.13L87,17.59a23.54,23.54,0,0,0-6.92-1.54,35.39,35.39,0,0,0-7.63.19A30.15,30.15,0,0,0,62,19.41a16.54,16.54,0,0,0-6.57,5.84,10.18,10.18,0,0,0-1.51,7.81,10.09,10.09,0,0,0,4.38,6,21.34,21.34,0,0,0,11,3.45,41.51,41.51,0,0,0,7.64-.21A36.36,36.36,0,0,0,80.75,41.66ZM45.41,29.24l.46-.16c.59-.15,1.18-.27,1.76-.44a9.77,9.77,0,0,0,4-2,3.08,3.08,0,0,0-.44-5.17,8.47,8.47,0,0,0-2.69-1.07,21.8,21.8,0,0,0-5-.38H30.11c-.23,0-.48-.08-.57.28q-.27,1-.6,2c-.07.25,0,.3.23.3h1.2c.61,0,.61,0,.44.56L27,36.1c-.16.53-.18,1.22-.53,1.54s-1.06.07-1.61.1h-.11a.38.38,0,0,0-.48.33c-.16.66-.34,1.31-.56,2-.11.33,0,.34.29.34,5.69-.07,11.38.19,17.07-.16a19.86,19.86,0,0,0,7.38-1.76,6.79,6.79,0,0,0,2.93-2.34,3.08,3.08,0,0,0-.05-3.69,5.61,5.61,0,0,0-1.65-1.49A14.31,14.31,0,0,0,45.41,29.24Zm52.73,3.1c1.42,0,2.84,0,4.27,0a.46.46,0,0,0,.56-.43c.13-.59.31-1.18.49-1.75.13-.37.09-.49-.35-.49-2.78,0-5.56,0-8.34,0-.39,0-.5-.05-.37-.47.61-2,1.21-4,1.79-6.08.1-.35.28-.42.62-.42h8.28c.35,0,.53-.07.62-.44a16.56,16.56,0,0,1,.52-1.79c.14-.4,0-.48-.38-.48q-8.14,0-16.3,0a.55.55,0,0,0-.64.48c-.81,2.8-1.62,5.59-2.46,8.37-.29,1,0,.76-1,.79a8.18,8.18,0,0,1-1,0c-.26,0-.37.09-.43.33-.2.7-.4,1.4-.61,2.09-.07.23,0,.32.22.31.44,0,.87,0,1.3,0s.47.11.36.49c-.7,2.32-1.36,4.65-2.07,7-.15.49,0,.54.42.54q3.47,0,6.93,0a.62.62,0,0,0,.72-.52c.68-2.36,1.39-4.72,2.08-7.08a.51.51,0,0,1,.61-.44C95.36,32.35,96.75,32.34,98.14,32.34Zm5,10.13c-.28-.6-.54-1.13-.77-1.67-.12-.29-.34-.25-.56-.24s-.19.24-.19.39c0,.83,0,1.67,0,2.5,0,.24.06.34.32.33s.34-.06.33-.32c0-.42,0-.84,0-1.26h.08l.79,1.66.79-1.67a5.76,5.76,0,0,1,.08,1.16c0,.21-.07.44.31.45s.33-.19.33-.43c0-.78,0-1.56,0-2.34,0-.16.14-.41-.17-.46s-.49,0-.61.32C103.63,41.39,103.38,41.89,103.11,42.47Zm-3.69,0c0,.29,0,.59,0,.88s0,.43.34.42.31-.18.31-.4c0-.48,0-1,0-1.45s0-.85.67-.74c.24.05.28-.1.28-.31s0-.33-.27-.33q-1,0-2,0c-.24,0-.28.12-.28.32s0,.38.28.32c.69-.15.71.28.67.77A4.51,4.51,0,0,0,99.42,42.48Z"></path><path class="cls-2" d="M80.75,41.66a36.36,36.36,0,0,1-3.85.64,41.51,41.51,0,0,1-7.64.21,21.34,21.34,0,0,1-11-3.45,10.09,10.09,0,0,1-4.38-6,10.18,10.18,0,0,1,1.51-7.81A16.54,16.54,0,0,1,62,19.41a30.15,30.15,0,0,1,10.54-3.17,35.39,35.39,0,0,1,7.63-.19A23.54,23.54,0,0,1,87,17.59l.38.17a.76.76,0,0,1,.14.13c-1,1.15-2.11,2.29-3.15,3.45-.17.19-.34.14-.53.1a27.63,27.63,0,0,0-8.26-.6c-3.13.29-6.1,1-8.5,3.22a8.07,8.07,0,0,0-2.82,7,6.18,6.18,0,0,0,2.41,4.17A10.92,10.92,0,0,0,73,37.71a26.05,26.05,0,0,0,6.11-.35c.32,0,.41,0,.5.32C80,39,80.36,40.31,80.75,41.66Z"></path><path class="cls-2" d="M45.41,29.24a14.31,14.31,0,0,1,4.27,1.68,5.61,5.61,0,0,1,1.65,1.49,3.08,3.08,0,0,1,.05,3.69,6.79,6.79,0,0,1-2.93,2.34,19.86,19.86,0,0,1-7.38,1.76c-5.69.35-11.38.09-17.07.16-.25,0-.4,0-.29-.34.22-.64.4-1.29.56-2a.38.38,0,0,1,.48-.33h.11c.55,0,1.25.23,1.61-.1s.37-1,.53-1.54l3.81-12.89c.17-.56.17-.56-.44-.56h-1.2c-.23,0-.3,0-.23-.3q.33-1,.6-2c.09-.36.34-.28.57-.28H43.54a21.8,21.8,0,0,1,5,.38,8.47,8.47,0,0,1,2.69,1.07,3.08,3.08,0,0,1,.44,5.17,9.77,9.77,0,0,1-4,2c-.58.17-1.17.29-1.76.44Zm-6.74,1.6c-.62,0-1.16,0-1.7,0a.33.33,0,0,0-.4.29c-.64,2.22-1.29,4.45-2,6.67-.08.28,0,.37.28.36,1,0,2,0,3,0a7.89,7.89,0,0,0,4.36-1.49,3.09,3.09,0,0,0-1.41-5.68A12.82,12.82,0,0,0,38.67,30.84Zm-1.37-2.2a28.4,28.4,0,0,0,3.72-.1,5.68,5.68,0,0,0,3.62-1.64,2.73,2.73,0,0,0,.6-2.85,2.34,2.34,0,0,0-2.08-1.55,25.93,25.93,0,0,0-3.74-.12.3.3,0,0,0-.34.24C38.5,24.61,37.91,26.6,37.3,28.64Z"></path><path class="cls-2" d="M98.14,32.34c-1.39,0-2.78,0-4.17,0a.51.51,0,0,0-.61.44c-.69,2.36-1.4,4.72-2.08,7.08a.62.62,0,0,1-.72.52q-3.47,0-6.93,0c-.43,0-.57,0-.42-.54.71-2.32,1.37-4.65,2.07-7,.11-.38.09-.53-.36-.49s-.86,0-1.3,0c-.24,0-.29-.08-.22-.31.21-.69.41-1.39.61-2.09.06-.24.17-.35.43-.33a8.18,8.18,0,0,0,1,0c1,0,.73.17,1-.79.84-2.78,1.65-5.57,2.46-8.37a.55.55,0,0,1,.64-.48q8.15,0,16.3,0c.41,0,.52.08.38.48a16.56,16.56,0,0,0-.52,1.79c-.09.37-.27.45-.62.44H96.81c-.34,0-.52.07-.62.42-.58,2-1.18,4.06-1.79,6.08-.13.42,0,.47.37.47,2.78,0,5.56,0,8.34,0,.44,0,.48.12.35.49-.18.57-.36,1.16-.49,1.75a.46.46,0,0,1-.56.43C101,32.33,99.56,32.34,98.14,32.34Z"></path><path class="cls-2" d="M103.11,42.47c.27-.58.52-1.08.71-1.59.12-.33.34-.36.61-.32s.17.3.17.46c0,.78,0,1.56,0,2.34,0,.24,0,.43-.33.43s-.31-.24-.31-.45a5.76,5.76,0,0,0-.08-1.16l-.79,1.67-.79-1.66h-.08c0,.42,0,.84,0,1.26,0,.26-.09.32-.33.32s-.32-.09-.32-.33c0-.83,0-1.67,0-2.5,0-.15-.1-.38.19-.39s.44-.05.56.24C102.57,41.34,102.83,41.87,103.11,42.47Z"></path><path class="cls-2" d="M99.42,42.48a4.51,4.51,0,0,1,0-.52c0-.49,0-.92-.67-.77-.25.06-.28-.12-.28-.32s0-.32.28-.32q1,0,2,0c.26,0,.26.15.27.33s0,.36-.28.31c-.63-.11-.71.22-.67.74s0,1,0,1.45c0,.22,0,.4-.31.4s-.35-.17-.34-.42S99.42,42.77,99.42,42.48Z"></path><path class="cls-4" d="M38.67,30.84a12.82,12.82,0,0,1,2.2.1,3.09,3.09,0,0,1,1.41,5.68,7.89,7.89,0,0,1-4.36,1.49c-1,.08-2,0-3,0-.29,0-.36-.08-.28-.36.66-2.22,1.31-4.45,2-6.67a.33.33,0,0,1,.4-.29C37.51,30.85,38.05,30.84,38.67,30.84Z"></path><path class="cls-4" d="M37.3,28.64c.61-2,1.2-4,1.78-6a.3.3,0,0,1,.34-.24,25.93,25.93,0,0,1,3.74.12,2.34,2.34,0,0,1,2.08,1.55,2.73,2.73,0,0,1-.6,2.85A5.68,5.68,0,0,1,41,28.54,28.4,28.4,0,0,1,37.3,28.64Z"></path></g></g></svg> 