<?xml version="1.0" encoding="UTF-8"?> <svg xmlns="http://www.w3.org/2000/svg" viewBox="0 0 189.12 59.6"><defs><style>.cls-1{fill:#8999cb;}.cls-2{fill:#2846a0;}.cls-3{fill:#536bb3;}</style></defs><title>customer-logo-redland</title><g id="Layer_2" data-name="Layer 2"><g id="Layer_1-2" data-name="Layer 1"><path class="cls-1" d="M7.09,19.46c-1.29.31-2.58.6-3.86.95C1,21,.41,20.39,1,18.07c1.57-.77.13-1.25-.17-1.84l-.09-.45c-.19-1.6,1.45-2.87.82-4.54C2,10.13,3.12,10,4,9.56c2.78-.41,5.53-1.11,8.39-.81.75.07,1.2-.48,1.58-1l.79-.61A37.54,37.54,0,0,1,38.36,0a35,35,0,0,1,21,7.63,4.27,4.27,0,0,0,3,1.06,23.13,23.13,0,0,1,8,1.21c1.23.4,1.24,1.43,1.69,2.45,1,2.13-.93,4.47.84,6.38.34.37.15,1-.29,1.42a1.91,1.91,0,0,1-2.08.33,23.18,23.18,0,0,0-11.08-1.22,13.82,13.82,0,0,0-4,1.34c-2.48,1.31-3.21,3.21-2.23,5.83a8,8,0,0,0,.9,1.81c4.79,7,3.9,13.84-.81,20.5L51.7,50.37a31.18,31.18,0,0,1-7.12,3.78,2.86,2.86,0,0,0-1.82.43l-.91.12c-9.3.85-17.89-.21-23.66-8.82l0,0-1.54-4.79c-.12-2.86-.41-5.73.49-8.54,1-1.75,2-3.48,2.94-5.27,1.68-3.29.6-5.69-3-6.94C13.83,18.66,10.47,18.92,7.09,19.46ZM54,40.14a7.44,7.44,0,0,0,.08-5l-.18-.91a11.52,11.52,0,0,0-1.67-3.39c-2.34-3.54-3.14-7.19-.91-11.1l2.77-2.17,1.32-.53A25.41,25.41,0,0,1,69,16.67c1,.27,2.32,0,2.59-1.21s-.62-2.09-1.85-2.41c-3.52-.92-7.06-1.48-10.69-.64-5.22,1.2-10.32,4-15.86,1.3a8.67,8.67,0,0,0-4.44-1.58c-3.8-.85-7.08.78-10.42,2.15-2.89,1.15-5.71.29-8.54-.32A23,23,0,0,0,4,13c-1.12.32-1.92.76-2.16,1.93s.6,1.71,1.6,1.86a7.42,7.42,0,0,0,3.21-.57L9.09,16a20.56,20.56,0,0,1,12.07,2.56c1.74,1.57,2.17,3.69,2.49,5.86l-.2,2.18L21.88,30.2a1.9,1.9,0,0,0-.81,1.37l-.46.91c-1.72,2.2-1.54,4.71-1.14,7.25a12.45,12.45,0,0,0,7.78,10.45A23.71,23.71,0,0,0,46.81,50,12,12,0,0,0,54,40.14ZM25.18,11.6a1.86,1.86,0,0,0,1.4-.23c1.63,0,3-.87,4.47-1.42,3.48-1.33,7.1-2.15,10.48-.27C47.58,13,53.21,11.05,59,9,47-1.91,24.57-1.24,14.41,9.23,18.1,9.91,21.47,11.47,25.18,11.6Z"></path><path class="cls-1" d="M2.81,25c-1,.26-2.25.8-2.71-.55S.87,22.52,1.9,22A24.46,24.46,0,0,1,7.07,20.6a20.23,20.23,0,0,1,9.89.72c3.07,1.6,3.56,3.55,1.57,6.25-.51-1.16-.9-2.39-2.14-3-2.16-1.68-4.61-1.3-7.06-1-.74.08-1.48.2-2.23.23-2,.08-2.81,1-3,3A26.67,26.67,0,0,0,5.73,39c5.83,14.79,22.79,21.65,37.11,19a24.91,24.91,0,0,0,10.78-3.76,3.06,3.06,0,0,0,1.64-.87c7.37-4.32,12.25-10.43,13.68-19L69.25,33a13.84,13.84,0,0,0,.19-2.21c-.15-2.28.92-5.66-1.32-6.51-3.67-1.39-7.88-1.89-11.53.85-.16.12-.22.37-.33.56-.76.56-.77,1.48-1.08,2.26-2-3.61-1.27-5.76,2.73-7,5.06-1.52,10-.51,14.72,1.44a1.61,1.61,0,0,1,1.16,1.94c-.29,1-1.17,1-2,.81l-1.55-.38a34.08,34.08,0,0,1,0,9.52C67.92,46.26,57.71,56.13,45,58.63c-1.92.37-3.85.62-5.78.92C29.82,60,21.27,57.64,14,51.71,5.66,45,1.89,36.23,3.26,25.46,3.53,24.9,3.37,24.76,2.81,25Z"></path><path class="cls-2" d="M91.52,23.72a81,81,0,0,1,5,7.75c.59,1,.8,1.46-.76,1.6-2.58.23-4.32-.38-5.46-3-1-2.25-2-4.62-4.62-6.58,0,3-.1,5.52,0,8,.1,2-1.21,1.5-2.23,1.48s-2.31.54-2.29-1.44c.08-6.46,0-12.92,0-19.38,0-1.09.37-1.43,1.43-1.4,2.1.06,4.21,0,6.31,0,3.94,0,6.29,1.72,7,5C96.68,19.29,95.18,22,91.52,23.72ZM85.6,17.24c.4,1.24-1,3.38,2,3.15,2.61-.2,3.68-.83,3.73-2.82s-1.21-3-4-3.18S86,16.19,85.6,17.24Z"></path><path class="cls-2" d="M128.11,21.47c.17,3.05-.34,6.75.31,10.4.18,1-.19,1.2-1,1.15a27.45,27.45,0,0,0-6.26.33c-2.85.45-5.13-1.1-6.22-3.81-1.42-3.54-1.35-7.07.89-10.29a6,6,0,0,1,6.53-2.51c1.33.28,1.53-.09,1.48-1.25a40.74,40.74,0,0,1,0-4.28c0-.69-.42-2.06,1-1.67,1.18.34,3.34-.73,3.33,1.84C128.1,14.54,128.11,17.69,128.11,21.47Zm-4.21,3.47a18.75,18.75,0,0,1,0-2.25,2.09,2.09,0,0,0-2-2.65,2.37,2.37,0,0,0-2.75,2.06,11.78,11.78,0,0,0-.07,5.78,2.36,2.36,0,0,0,2.82,1.94,2,2,0,0,0,2-2.42C123.85,26.59,123.9,25.76,123.9,24.94Z"></path><path class="cls-2" d="M183.14,17.06c0-2-.08-3.82,0-5.61,0-.69-.71-2.21.9-1.9,1.23.23,3.38-.64,3.3,2.1-.13,4.66,0,9.31,0,14a28.54,28.54,0,0,0,.3,5.84c.24,1.13,0,1.74-1.29,1.56a16.37,16.37,0,0,0-5.57.31,5.61,5.61,0,0,1-6-2.66A10.9,10.9,0,0,1,175,19.36C176.78,16.84,179.28,16.11,183.14,17.06Zm0,7.81a18.58,18.58,0,0,1,0-2.24,2,2,0,0,0-1.8-2.56A2.34,2.34,0,0,0,178.54,22a11.81,11.81,0,0,0-.12,6,2.34,2.34,0,0,0,2.87,1.88c1.48-.18,2-1,1.9-2.48C183.12,26.52,183.18,25.69,183.18,24.87Z"></path><path class="cls-2" d="M153.57,24.68c.14,2.1-.56,4.27,1,6.28.77,1-.87,1.67-1.4,2.48s-1.19.15-1.47-.23c-.9-1.21-1.65-.76-2.74-.19a6.12,6.12,0,0,1-6.78-.6c-1.53-1.11-2.08-4-1.24-6,1.26-3,4-3.28,6.76-3.48.55,0,1.47.54,1.63-.56a2.18,2.18,0,0,0-.55-2.09,1.7,1.7,0,0,0-1.69-.35,7.44,7.44,0,0,0-2.53.87c-1.75,1.29-2.37.27-3.08-1.14-.38-.77-.39-1.22.4-1.61,2.46-1.22,5-2.11,7.79-1.64,2.56.43,3.77,1.83,3.91,4.45C153.63,22.12,153.57,23.4,153.57,24.68Zm-4.36,2.83c-.11-.35.66-1.64-1-1.53-1.42.11-3,.11-3,2.16,0,1.26.33,2.39,1.76,2.34S149.55,29.68,149.21,27.51Z"></path><path class="cls-2" d="M107,26.25c-1,0-2.11.07-3.16,0-1.74-.14-1.65.85-1.28,2,.7,2.15,3.32,2.76,5.94,1.41.68-.35,1.21-1.12,2,0s.89,1.94-.57,2.72c-4,2.09-8.76,1.25-10.92-2.05-2.54-3.87-1.67-10.2,1.74-12.72a6.8,6.8,0,0,1,10.27,3C112.78,25.32,112.12,26.25,107,26.25Zm-2-3c.56-.82,2.26.74,2.2-1.28a2.29,2.29,0,0,0-2.36-2.47,2.26,2.26,0,0,0-2.38,2.64C102.53,23.93,104.1,22.56,105,23.28Z"></path><path class="cls-2" d="M170.28,26c0,1.88-.06,3.76,0,5.63S169.1,33,168.16,33s-2.2.55-2.14-1.32c.1-3.08,0-6.16,0-9.24,0-1,.15-2.39-1.43-2.25-1.41.12-2.94.5-3,2.41,0,2.93-.13,5.87,0,8.79.11,1.86-1,1.67-2.11,1.63s-2.21.41-2.22-1.52c0-4.42.42-8.86-.32-13.27-.25-1.48,1.08-1.22,1.78-1.45s1.8-1.13,2.18.37c.26,1.06.63.94,1.32.44a7,7,0,0,1,3.34-1.22,3.82,3.82,0,0,1,4.53,3.57c.15,2,0,4,0,6.08Z"></path><path class="cls-2" d="M136.29,19.76c0,2.56,0,5.12,0,7.67,0,1.28-.38,2.74,1.52,3.32.51.15.81,1.28.61,2s-1,.58-1.54.64c-3,.3-4.8-.92-4.9-3.87-.21-6.09-.31-12.19-.18-18.28.05-2.11,2.35-1.33,3.6-1.7s.81,1,.82,1.61c.06,2.86,0,5.72,0,8.58Z"></path><path class="cls-3" d="M157.34,45.29c0,1.35,0,2.69,0,4,0,.82-.18,1.27-1.13,1.23s-.92-.55-.92-1.2c0-2.48,0-5,0-7.45,0-.56-.22-1.32.71-1.35.7,0,1.5-.31,1.94.65a13.66,13.66,0,0,0,2.49,3.87c0-1.06,0-2.12,0-3.18,0-.69-.11-1.37,1-1.39s1,.6,1,1.32c0,2.41,0,4.81,0,7.22,0,.59.34,1.44-.79,1.5-.8,0-1.44,0-1.81-.91-.6-1.5-1.31-3-2-4.44Z"></path><path class="cls-3" d="M139.89,45.52c0,3.25-1.56,5.08-4.35,5.11s-4.31-1.85-4.31-5.11,1.81-5.31,4.33-5.28S139.89,42.42,139.89,45.52Zm-6.46,0h.13a12.16,12.16,0,0,0,0,1.35c.12,1.11.48,2.14,1.78,2.22s1.94-1,2.12-2.15a7.79,7.79,0,0,0-.15-3.56,1.75,1.75,0,0,0-1.73-1.47,1.71,1.71,0,0,0-1.79,1.4C133.61,44.05,133.55,44.8,133.43,45.53Z"></path><path class="cls-3" d="M150.85,44.91c0,.6,0,1.2,0,1.8,0,2.87-1,4-3.59,4s-3.66-1.11-3.7-3.93c0-1.43-.05-2.85,0-4.28,0-.77-.51-1.93,1-2s1,1.13,1.09,1.89c.06,1.57,0,3.15,0,4.73,0,1,.33,1.8,1.52,1.74a1.54,1.54,0,0,0,1.58-1.78c0-1.73,0-3.45,0-5.18,0-.63-.2-1.38.91-1.41s1.12.7,1.11,1.47Z"></path><path class="cls-3" d="M168.55,45.46c0,3,.54,3.52,3.64,3.33a.92.92,0,0,1,1,.63c.23.6-.32.77-.72.93a4.85,4.85,0,0,1-2.87.25c-2.63-.54-4-3.67-3.14-7a4.27,4.27,0,0,1,5.57-3.14c.46.15,1.18.12,1,.89a1,1,0,0,1-1.15.77C169.09,42.06,168.57,42.63,168.55,45.46Z"></path><path class="cls-3" d="M105.31,40.53c3.06-1.11,3,1.83,4.11,3.24.92-.65,1.1-1.74,1.59-2.64a1.31,1.31,0,0,1,1.89-.63c.82.47,0,1.08-.21,1.51-1.2,2.33-2.62,4.56-2.17,7.38.15.92-.4,1.11-1.22,1.09-1.09,0-1-.79-.9-1.41C108.83,45.7,106.68,43.36,105.31,40.53Z"></path><path class="cls-3" d="M123.63,45.64c0,2.83.72,3.47,3.62,3.18a.92.92,0,0,1,1.07.53c.33.63-.23.76-.6,1a4.32,4.32,0,0,1-5.54-1.59,6,6,0,0,1,.15-6.61,3.87,3.87,0,0,1,4.53-1.67c.52.14,1.38,0,1.26.92s-.72.78-1.5.68C124.45,41.75,123.6,42.85,123.63,45.64Z"></path><path class="cls-3" d="M86.15,50.88,84.8,50.7,83.08,50h0a6.8,6.8,0,0,1-1.5-5.89A4.1,4.1,0,0,1,87,40.59c.52.12,1.41-.17,1.21.82s-.84.78-1.58.59a1.89,1.89,0,0,0-2.45,1.08,6.14,6.14,0,0,0,.11,5,2,2,0,0,0,2.52,1c.69-.22,1.37-.58,1.6.39s-.67.82-1.18,1C86.86,50.65,86.5,50.76,86.15,50.88Z"></path><path class="cls-3" d="M101.18,47.36c0,.44,0,.89-.12,1.33-.12.76.51,2-1.1,1.86s-.94-1.25-1-2c-.08-1.5,0-3,0-4.5,0-1-.07-1.82-1.41-1.64-.71.1-1.09-.13-1.1-1s.53-1.08,1.29-1.07c1.57,0,3.15,0,4.72,0,.56,0,1.34-.16,1.2.82-.08.59-.22,1.14-1,1.24-.55.07-1.71-.57-1.46.9Z"></path><path class="cls-3" d="M183.63,45.58V42c0-.75-.15-1.51,1.06-1.47s1,.83,1,1.56c0,1.58.1,3.17,0,4.73s.33,2.23,2,2c.53-.07,1.46-.43,1.45.77,0,1-.7.92-1.39,1C183.63,50.79,183.63,50.8,183.63,45.58Z"></path><path class="cls-3" d="M93.36,50.63c-1.17,0-1.92-.18-1.82-1.72.16-2.38,0-4.77,0-7.16,0-.66-.13-1.4.94-1.38s1.26.47,1.26,1.39c0,2.33,0,4.66.08,7C93.62,49.35,94.17,50.17,93.36,50.63Z"></path><path class="cls-3" d="M179.11,45.71c0,1.28,0,2.56,0,3.83,0,.81-.36,1-1.09,1s-1.13-.19-1.12-1q0-3.95,0-7.9c0-.9.37-1.16,1.21-1.15s1,.43,1,1.14C179.1,43,179.11,44.36,179.11,45.71Z"></path><path class="cls-1" d="M33.26,42.87c.85-2,.69-4.19.94-6.3l2.68.62,1.8,1.19,1.46,2.22A13.26,13.26,0,0,1,40.37,45c-.26.79-.66,1.21-1.61,1a9.51,9.51,0,0,0-3.53-.27C32.28,46,32.28,46,33.26,42.87Z"></path><path class="cls-1" d="M41.28,37.92a8.65,8.65,0,0,0,.64-4.52c1.59-.9,2.48.33,3.3,1.26a3.4,3.4,0,0,1,.5,3.59C45.5,38.86,41.78,38.54,41.28,37.92Z"></path><path class="cls-1" d="M31.59,36.08c.16,1.75,0,3.07-2.4,2.4a5.51,5.51,0,0,0-2.18.31l.68-4.46c.1-.44.2-.88.29-1.32C29.71,33.41,31.14,34.17,31.59,36.08Z"></path></g></g></svg> 