<?xml version="1.0" encoding="UTF-8"?> <svg xmlns="http://www.w3.org/2000/svg" viewBox="0 0 134.18 40.45"><defs><style>.cls-1{fill:#2846a0;}</style></defs><title>customer-logo-contiki</title><g id="Layer_2" data-name="Layer 2"><g id="Layer_1-2" data-name="Layer 1"><path class="cls-1" d="M29.54,40.45c-.69-.16-1.38-.3-2.06-.48a12.55,12.55,0,0,1-8.73-6.88,2.89,2.89,0,0,0-.28-.38v2.58c0,1.05,0,2.1,0,3.15a1.07,1.07,0,0,1-.5.78A12.58,12.58,0,0,1,.22,29.75c-.87-5.53.8-10.24,5.62-13.37A12.39,12.39,0,0,1,17.71,15.3a1,1,0,0,1,.77,1.16c-.05,1.73,0,3.47,0,5.26,2.85-5.43,7.53-7.66,13.41-7.52s10.4,2.73,12.94,8.35V15.12h8.22V17.8l.16.14c2.2-2.9,5.18-3.72,8.58-3.36s5.87,2.29,7.29,5.75V15.1h3.77V7.81h8.28v7.26h5.76v7.21H81.19v17.2H72.92V22.37H69.35V39.49H61.18v-1c0-4.31,0-8.62-.06-12.93,0-2.23-1-3.61-2.85-4a4,4,0,0,0-5,3.34,10.09,10.09,0,0,0-.14,1.64q0,6,0,12v1H44.9V31.84A36.66,36.66,0,0,1,43,35.12a13.07,13.07,0,0,1-9,5.16,6.29,6.29,0,0,0-.62.17ZM8.61,27.36a5.52,5.52,0,0,0,3,5.22,5.83,5.83,0,0,0,6.12-.39.71.71,0,0,0,.38-.94A14.59,14.59,0,0,1,18,23.41a1,1,0,0,0-.34-.84,5.81,5.81,0,0,0-6.18-.39A5.55,5.55,0,0,0,8.61,27.36Zm28.13.12a5.49,5.49,0,0,0-5-5.73,5.42,5.42,0,0,0-5.48,5.09,5.49,5.49,0,0,0,5,6A5.43,5.43,0,0,0,36.74,27.48Z"></path><path class="cls-1" d="M106.63,0V23.56c1.33-1.27,2.65-2.5,3.93-3.78s2.81-2.89,4.23-4.32a1.38,1.38,0,0,1,.85-.36c5.78,0,11.55,0,17.32,0a4.14,4.14,0,0,1,.45,0V39.47c-.21,0-.42.06-.63.06-5.55,0-11.1,0-16.65,0a1.72,1.72,0,0,1-1.08-.57c-2.61-2.85-5.19-5.73-7.79-8.6l-.6-.64v9.78H98.37V1.08c0-.36,0-.72,0-1.08Zm8.19,26.37,10.3,11V16.41Z"></path><path class="cls-1" d="M87.94,15.12h8.12V39.46H87.94Z"></path><path class="cls-1" d="M92.05.83a4.77,4.77,0,0,1,4.8,4.85A4.85,4.85,0,0,1,92,10.57,4.91,4.91,0,0,1,87.1,5.64,4.84,4.84,0,0,1,92.05.83Z"></path><path class="cls-1" d="M134.18,5.72a4.87,4.87,0,1,1-9.73,0,4.8,4.8,0,0,1,4.9-4.85A4.75,4.75,0,0,1,134.18,5.72Z"></path></g></g></svg> 