<?xml version="1.0" encoding="UTF-8"?> <svg xmlns="http://www.w3.org/2000/svg" viewBox="0 0 192.26 38.34"><defs><style>.cls-1{fill:#8f9fce;}.cls-2{fill:#2846a0;}</style></defs><title>customer-logo-subway</title><g id="Layer_2" data-name="Layer 2"><g id="Layer_1-2" data-name="Layer 1"><path class="cls-1" d="M31.42,25.66c0,4.75-2.7,7.59-7.08,8.5a27.78,27.78,0,0,1-4.57.26L9.25,34.35v4L0,30.69,9.25,23v4l11.82.09c1.11,0,1.58-.63,1.58-1.3,0-1.21-1.15-1.62-4.48-3.19-5.36-2.54-9.56-4.38-9.56-10.24,0-4.55,3.29-7.71,8.11-8.34a33.23,33.23,0,0,1,4-.15l9.16.15v7.33l-11.09-.19a1.28,1.28,0,0,0-1.44,1.25c0,.94.77,1.33,3.91,2.8C27.8,18.38,31.42,20,31.42,25.66Zm17.34-.59c0,1.36-1.17,2.46-3.4,2.46S42,26.42,42,25.07V4H33V25.78c0,4.82,4,9.36,12.32,9.36,7.91,0,12.32-4.5,12.32-9.36V4H48.76Zm36.75.14c0,6-4,9.27-10,9.27h-15V4H75c6.45,0,9.75,3.61,9.75,8.34a7,7,0,0,1-3.39,6A7.44,7.44,0,0,1,85.51,25.21ZM69.36,16.12H73.5c1.57,0,2.28-1.14,2.28-2.73s-.73-2.73-2.28-2.73H69.36Zm7.09,8.69c0-1.82-.84-2.89-2.52-2.89H69.36v5.79h4.57C75.64,27.71,76.45,26.56,76.45,24.81Z"></path><path class="cls-2" d="M115.41,4h8.91V25.51c0,5-3.53,9.49-11,9.49a11.75,11.75,0,0,1-7.46-2.38A11.22,11.22,0,0,1,98.74,35c-8,0-11.22-4.52-11.22-9.49V4h8.91V25.31c0,.87.49,2,2.5,2s2.54-1,2.54-2V4h8.9V25.31c0,.9.48,2,2.52,2s2.52-1,2.52-2Zm47.21,12V4h-8.83V16.87c0,4.25,2.91,7.48,7.79,8.8v8.82h9V25.67c5-1.35,7.71-4.56,7.71-8.8V12.16a.65.65,0,0,1,.74-.72h4V15.3l9.25-7.65L183,0V3.83h-6.14c-5.2,0-7.39,3-7.39,7.36V16c0,1.15-.78,2.49-3.43,2.49S162.62,17.14,162.62,16Zm-11-3.28V34.49h-8.88V25.66H136v8.83h-8.88V12.71c0-5.47,4.48-9.58,12.25-9.58S151.59,7.21,151.59,12.71Zm-8.88,6V13.23c0-1.45-1-2.49-3.37-2.49s-3.37,1-3.37,2.49v5.44Z"></path><path class="cls-2" d="M176.19,32.62c0-.28-.22-.43-.51-.44h-.81v1.58h.31v-.59h.37c.2,0,.31.1.31.29v.3h.31v-.41a.3.3,0,0,0-.24-.31v0A.39.39,0,0,0,176.19,32.62Zm-.6.3h-.41v-.48h.41c.15,0,.27.07.27.24A.24.24,0,0,1,175.59,32.92Zm-.11-1.54A1.63,1.63,0,1,0,177.11,33,1.63,1.63,0,0,0,175.48,31.38Zm0,3A1.34,1.34,0,1,1,176.82,33,1.34,1.34,0,0,1,175.48,34.34Z"></path></g></g></svg> 