<?xml version="1.0" encoding="UTF-8"?> <svg xmlns="http://www.w3.org/2000/svg" viewBox="0 0 109.13 129.61"><defs><style>.cls-1{fill:#8999cb;}.cls-2{fill:#2846a0;}.cls-3{fill:#536bb3;}</style></defs><title>customer-logo-brisbane city</title><g id="Layer_2" data-name="Layer 2"><g id="Layer_1-2" data-name="Layer 1"><path class="cls-1" d="M61.1,55.63q0,8.1,0,16.19c0,.2-.06.53-.16.56a.93.93,0,0,1-.63-.14c-.73-.4-1.46-.82-2.18-1.25-1-.56-1.91-1.15-2.88-1.68a1,1,0,0,0-.81-.07c-.67.33-1.28.77-1.93,1.14s-1.36.75-2,1.13c-.45.26-.88.54-1.33.79-.13.07-.35.17-.44.12a.65.65,0,0,1-.24-.44c0-.34,0-.68,0-1q0-8.92,0-17.85,0-6.7,0-13.42a3.38,3.38,0,0,1,0-.55.48.48,0,0,1,.55-.43h8.58c1,0,1.9,0,2.86.07.55,0,.62.08.62.66V55.63Zm-1.21-4.55a5.09,5.09,0,0,0-5.11-5.28,5.22,5.22,0,1,0,0,10.44A5.08,5.08,0,0,0,59.89,51.08Z"></path><path class="cls-1" d="M19.94,92.68c-5.75,0-11.5,0-17.25,0a2.42,2.42,0,0,1-1.93-.88,2.24,2.24,0,0,1,.61-3.46A3.09,3.09,0,0,1,3,88H37.07a2.76,2.76,0,0,1,2.15.86,2.11,2.11,0,0,1,.52,1.65,2.35,2.35,0,0,1-2.41,2.2C31.53,92.66,25.73,92.68,19.94,92.68Z"></path><path class="cls-1" d="M37.19,84.85a1.52,1.52,0,0,1,.93-1.64c1.22-.71,2.43-1.45,3.66-2.16.95-.54,1.92-1,2.87-1.59.66-.38,1.29-.8,2-1.19s1.39-.76,2.08-1.15,1.26-.74,1.89-1.11,1.4-.8,2.09-1.21c.41-.24.83-.45,1.22-.72a1.36,1.36,0,0,1,1.77,0c.65.44,1.36.8,2.05,1.2l2,1.15,2,1.19,2.09,1.21L65.88,80l1.89,1.1,2.1,1.21c.63.37,1.28.72,1.87,1.14a1.64,1.64,0,0,1,.57,2c-.75,1.25-1.36,1.34-2.3,1a12.07,12.07,0,0,1-1.92-1.06l-2.17-1.25L64,83l-2.07-1.16L60,80.72l-2.14-1.23-2-1.14c-.31-.18-.6-.38-.91-.54a.48.48,0,0,0-.39,0c-.87.49-1.73,1-2.6,1.51-.7.4-1.42.77-2.12,1.17s-1.28.77-1.92,1.15-1.32.75-2,1.13-1.44.86-2.17,1.27-1.33.74-2,1.12-1.29.68-1.89,1.09a1.63,1.63,0,0,1-1.78.14A1.37,1.37,0,0,1,37.19,84.85Z"></path><path class="cls-2" d="M55.73,121.4a2.23,2.23,0,0,0-.09.45c0,2.28,0,4.55,0,6.82,0,.66-.12.76-.8.75h-1.2a.48.48,0,0,1-.55-.53c0-.31,0-.62,0-.93v-9.72a5.24,5.24,0,0,1,0-.56.47.47,0,0,1,.51-.47c.8,0,1.6,0,2.4,0,.6,0,.72.61,1,1,.48.76.89,1.56,1.32,2.34l1.1,2.1c.32.61.63,1.22,1,1.82,0,.08.15.11.23.16a1.07,1.07,0,0,0,.14-.36c0-.56,0-1.13,0-1.7,0-1.47,0-3,0-4.42,0-.78.16-.94,1-1h1c.53,0,.75.21.77.75,0,.26,0,.52,0,.78v9.64c0,.94-.1,1-1,1a11.36,11.36,0,0,0-1.43,0,1.09,1.09,0,0,1-1.11-.59c-.4-.66-.73-1.37-1.1-2-.24-.43-.5-.84-.74-1.26s-.41-.74-.61-1.12l-1.49-2.92S55.86,121.46,55.73,121.4Z"></path><path class="cls-1" d="M80.38,92.67c-2.79,0-5.57,0-8.35,0a2.65,2.65,0,0,1-2.37-2.47A2.79,2.79,0,0,1,72,88c5.37,0,10.73,0,16.1,0,.29,0,.58,0,.87,0s.58.13.58.54c0,1.2,0,2.39,0,3.59,0,.52-.32.55-.71.55-2.81,0-5.62,0-8.43,0Z"></path><path class="cls-2" d="M6.71,123a5,5,0,0,1,.84.43,3.21,3.21,0,0,1,1,3.55,3.15,3.15,0,0,1-1.13,1.5,4.72,4.72,0,0,1-3,.9H.82c-.64,0-.81-.15-.81-.78Q0,123.32,0,118c0-.59.19-.77.79-.77,1.21,0,2.43-.06,3.64,0a4.58,4.58,0,0,1,2.65.75,2.45,2.45,0,0,1,1.06,1.84c0,.26,0,.52,0,.78a2.23,2.23,0,0,1-.93,1.94C7.05,122.69,6.89,122.85,6.71,123ZM4,126.89c1.1,0,1.1,0,1.67-.41a1,1,0,0,0-.16-1.74,4.79,4.79,0,0,0-2.43-.3c-.29,0-.38.19-.38.46,0,.54-.05,1.07,0,1.6,0,.14.24.34.4.38A4.6,4.6,0,0,0,4,126.89Zm-1.31-6.11a2.56,2.56,0,0,0,0,.68c0,.17.24.43.37.43a10.05,10.05,0,0,0,1.82-.1.81.81,0,0,0,.68-.82c0-.42,0-.82-.52-1a5.55,5.55,0,0,0-1.27-.28C2.7,119.68,2.7,119.71,2.69,120.78Z"></path><path class="cls-1" d="M55.56,18.33H49.8c-.26,0-.53.06-.78,0a.68.68,0,0,1-.42-.21c-.05-.08,0-.28.09-.41.25-.49.52-1,.78-1.48l.75-1.45c.18-.36.36-.7.53-1.06.37-.8.72-1.61,1.11-2.4S52.69,9.78,53.09,9s.73-1.54,1.1-2.31A4.14,4.14,0,0,1,54.58,6a.38.38,0,0,1,.29-.15c.09,0,.16.16.21.26.27.56.53,1.12.79,1.68.17.34.35.67.51,1,.37.8.73,1.6,1.11,2.4.22.45.48.88.71,1.32s.38.73.55,1.1c.37.8.72,1.61,1.1,2.4.25.52.54,1,.82,1.53s.22.81-.46.81H55.56Z"></path><path class="cls-2" d="M38.78,123.09a1.88,1.88,0,0,1,1.52,1,3.08,3.08,0,0,1,.48,2.73,3.3,3.3,0,0,1-1.65,2,5.42,5.42,0,0,1-2,.55c-1.37.09-2.76,0-4.15.05a.53.53,0,0,1-.61-.54c0-.2,0-.4,0-.6v-10a3.05,3.05,0,0,1,.06-.6.56.56,0,0,1,.63-.47c.82,0,1.63,0,2.44,0a19.89,19.89,0,0,1,3.1.37,2.19,2.19,0,0,1,1.62,1.6,3.24,3.24,0,0,1,.1,2,3,3,0,0,1-1.06,1.5Zm-3.85,2.54h0c0,.27,0,.55,0,.82s.12.48.45.47.89,0,1.34,0a1.72,1.72,0,0,0,1.15-.38c.43-.3.34-.75.32-1.17a.62.62,0,0,0-.57-.67c-.77-.11-1.53-.23-2.31-.29-.11,0-.31.24-.35.41A3.73,3.73,0,0,0,34.93,125.63Zm0-4.94a3.27,3.27,0,0,0,0,.83c0,.17.25.44.39.44.55,0,1.1-.08,1.65-.12.38,0,.63-.19.67-.61.09-.86,0-1.1-.47-1.27a4.11,4.11,0,0,0-1.24-.23C35,119.7,35,119.72,34.92,120.69Z"></path><path class="cls-2" d="M9.78,123.33v-5.12c0-.95.08-1,1-1,.72,0,1.45,0,2.16,0a21.51,21.51,0,0,1,3,.36,2.71,2.71,0,0,1,1.59,1.24,4.37,4.37,0,0,1,.38,3.51,2.47,2.47,0,0,1-1.12,1.52c-.08.05-.16.09-.24.15-.69.5-.67.5-.18,1.2a10.2,10.2,0,0,1,.61,1.07l1.36,2.53c.17.32,0,.6-.34.61a15.89,15.89,0,0,1-2.07,0c-.56,0-.69-.6-.91-1-.29-.56-.55-1.14-.82-1.71a10.41,10.41,0,0,1-.59-1.38c-.12-.46-.42-.59-.89-.65s-.38.28-.38.55c0,1.09,0,2.18,0,3.27,0,.88-.07.94-.95.94h-.88c-.62,0-.75-.1-.76-.75v-5.34Zm2.58-2.41a5,5,0,0,0,0,.87c0,.15.2.4.31.4a12.66,12.66,0,0,0,1.74-.07,1.23,1.23,0,0,0,1-.89,1,1,0,0,0-.75-1.3,3,3,0,0,0-1.11-.2C12.37,119.7,12.36,119.72,12.36,120.92Z"></path><path class="cls-2" d="M65.15,123.33c0-1.71,0-3.41,0-5.12,0-.85.17-1,1-1,1.87,0,3.75,0,5.62,0,.67,0,.81.12.82.8,0,.46,0,.92,0,1.38s-.15.62-.64.62h-3.6c-.46,0-.57.11-.55.57,0,.12,0,.25,0,.37,0,.89,0,.88.87.88h2.9c.62,0,.74.14.76.77,0,.35,0,.7,0,1.06,0,.67-.24,1-.92,1l-3.17,0c-.29,0-.46.1-.47.38a11.09,11.09,0,0,0,0,1.29c0,.3.21.39.51.39,1.23,0,2.45-.05,3.68-.05.75,0,1,.22,1,1,0,.36,0,.73,0,1.1,0,.57-.19.75-.76.76H66c-.68,0-.86-.16-.86-.84,0-1.75,0-3.5,0-5.25Z"></path><path class="cls-2" d="M50.91,129.42h-.37c-.92,0-.92,0-1.27-.87-.15-.38-.28-.76-.42-1.15a.8.8,0,0,0-.79-.58H45.2a.8.8,0,0,0-.77.62c-.19.52-.37,1-.54,1.55a.55.55,0,0,1-.57.44H41.56c-.49,0-.57-.19-.39-.64.26-.65.46-1.32.71-2s.47-1.12.7-1.68.41-1,.61-1.52c.29-.76.6-1.52.89-2.29.22-.6.38-1.22.62-1.81s.61-1.35.93-2c0-.08.11-.2.18-.2a4.83,4.83,0,0,1,1.56,0c.3.09.56.54.72.88.32.67.57,1.37.84,2.07.16.4.32.82.47,1.23.21.58.41,1.18.63,1.76s.49,1.17.73,1.76l.63,1.56c.29.7.56,1.4.87,2.09.2.46,0,.81-.47.82-.29,0-.59,0-.88,0Zm-4.31-5.09h.32c.56,0,.66-.11.55-.66a2.68,2.68,0,0,0-.1-.35l-.43-1.2c0-.08,0-.19-.12-.24a.46.46,0,0,0-.29-.17c-.06,0-.16.14-.19.23-.17.43-.32.88-.48,1.32C45.54,124.18,45.64,124.32,46.6,124.33Z"></path><path class="cls-1" d="M56.49,96.46c0,2.69,0,5.38,0,8.07a1.81,1.81,0,0,1-2.39,1.78A2,2,0,0,1,53,104.56c0-.26,0-.52,0-.78q0-7.61,0-15.22a3,3,0,0,1,.35-1.4,1.74,1.74,0,0,1,3.16,1Z"></path><path class="cls-1" d="M46.61,96.42c0,2.74,0,5.47,0,8.21a1.76,1.76,0,1,1-3.51-.08c0-.31,0-.61,0-.92q0-7.51,0-15a2.06,2.06,0,0,1,.68-1.78,1.76,1.76,0,0,1,1.87-.19,1.52,1.52,0,0,1,1,1.45c0,2.41,0,4.82,0,7.24v1.1Z"></path><path class="cls-1" d="M57.93,96.42c0-2.69,0-5.38,0-8.07a1.74,1.74,0,0,1,2.37-1.78,1.94,1.94,0,0,1,1,.91,2.71,2.71,0,0,1,.21,1.21q0,7.73,0,15.45a2.15,2.15,0,0,1-.72,1.9,1.71,1.71,0,0,1-1.77.19,1.52,1.52,0,0,1-1-1.37c0-1.06,0-2.13,0-3.19Z"></path><path class="cls-1" d="M66.37,96.42v8.2a1.77,1.77,0,1,1-3.53,0c0-.34,0-.68,0-1,0-5,0-10,0-15.07a2.74,2.74,0,0,1,.42-1.42,1.72,1.72,0,0,1,2-.52,1.83,1.83,0,0,1,1.07,1.63Z"></path><path class="cls-1" d="M51.59,96.41c0,2.63,0,5.26,0,7.88a1.94,1.94,0,0,1-.73,1.75,2,2,0,0,1-1.91.13,1.88,1.88,0,0,1-.89-1.57c0-5.45,0-10.91,0-16.36a1.76,1.76,0,0,1,2.44-1.67,1.92,1.92,0,0,1,1.09,1.87v8Z"></path><path class="cls-1" d="M100.76,88.05c1.95,0,3.9,0,5.85,0a2.31,2.31,0,0,1-.08,4.61c-3.93,0-7.87,0-11.8,0-.52,0-.62-.1-.62-.62,0-1.15,0-2.3,0-3.45,0-.41.15-.6.56-.6h6.09Z"></path><path class="cls-1" d="M8.78,103.86c0,2.37,0,4.73,0,7.1a2,2,0,0,1-1,1.81,1.94,1.94,0,0,1-2.07-.39,1.58,1.58,0,0,1-.52-1.18c0-4.87,0-9.75,0-14.62a1.72,1.72,0,0,1,1.66-1.83,1.75,1.75,0,0,1,1.89,1.82c0,1.84,0,3.69,0,5.54v1.75Z"></path><path class="cls-1" d="M105.47,103.94c0-2.43,0-4.85,0-7.28a1.7,1.7,0,0,1,1.8-1.76A1.65,1.65,0,0,1,109,96.67q0,7.26,0,14.52a1.72,1.72,0,0,1-2.57,1.62,1.52,1.52,0,0,1-1-1.49C105.48,108.86,105.47,106.4,105.47,103.94Z"></path><path class="cls-1" d="M3.8,103.83v7.38a1.77,1.77,0,0,1-1.16,1.65,1.86,1.86,0,0,1-2-.64A3.29,3.29,0,0,1,.3,110.8q0-7,0-14.1a1.73,1.73,0,0,1,1.44-1.93c.68-.24,2.09.56,2.07,1.46,0,2.53,0,5.07,0,7.6Z"></path><path class="cls-1" d="M13.68,103.85v7.37a1.7,1.7,0,0,1-1.44,1.69,1.68,1.68,0,0,1-2-1.42c0-.3-.07-.61-.07-.91q0-6.81,0-13.6a4.54,4.54,0,0,1,.15-1.09,1.68,1.68,0,0,1,2-1.07,1.71,1.71,0,0,1,1.36,1.84C13.64,99.06,13.68,101.45,13.68,103.85Z"></path><path class="cls-1" d="M104.07,104v7a1.88,1.88,0,0,1-.52,1.51,1.85,1.85,0,0,1-2,.34,1.51,1.51,0,0,1-1-1.54V96.55A1.45,1.45,0,0,1,101.66,95c1.25-.27,1.84.06,2.24.78a3,3,0,0,1,.16,1.36C104.08,99.42,104.07,101.73,104.07,104Z"></path><path class="cls-1" d="M95.59,103.87c0-2.42,0-4.85,0-7.28a1.69,1.69,0,0,1,1.84-1.71,1.65,1.65,0,0,1,1.7,1.73v14.61a1.67,1.67,0,0,1-1.18,1.69,1.87,1.87,0,0,1-2.25-1,1.72,1.72,0,0,1-.09-.68Q95.59,107.56,95.59,103.87Z"></path><path class="cls-2" d="M27.67,117c.29,0,.58,0,.87,0a4,4,0,0,1,2.33,1.06.49.49,0,0,1,0,.47c-.38.54-.78,1.06-1.21,1.56a.64.64,0,0,1-.53,0c-.51-.17-.94-.65-1.53-.51a2.6,2.6,0,0,0-1.06.46,1,1,0,0,0,.49,1.65,24.47,24.47,0,0,1,2.49,1A3.28,3.28,0,0,1,31.11,126a3.7,3.7,0,0,1-2,3.08,5.42,5.42,0,0,1-3.85.3,5,5,0,0,1-1.75-1c-.29-.21-.18-.57,0-.84.32-.43.66-.85,1-1.27a.51.51,0,0,1,.86,0,2.06,2.06,0,0,0,1.94.7,1.41,1.41,0,0,0,.72-.33,1,1,0,0,0-.43-1.81,15,15,0,0,1-2.44-1,3,3,0,0,1-1.67-2.57,3.78,3.78,0,0,1,.93-2.79,10.32,10.32,0,0,1,1.22-.93A2.94,2.94,0,0,1,27.67,117Z"></path><path class="cls-2" d="M75.71,123a4.51,4.51,0,0,1,.55-2.66,6,6,0,0,1,2-2.37,5.89,5.89,0,0,1,4.53-.81,4.06,4.06,0,0,1,2.38,1.53.44.44,0,0,1-.08.39c-.44.43-.9.84-1.35,1.26a.53.53,0,0,1-.81,0,2.27,2.27,0,0,0-1.57-.66,2.52,2.52,0,0,0-2.13,1.07,4.23,4.23,0,0,0-.64,3.9,3.59,3.59,0,0,0,1.6,2.14,2.63,2.63,0,0,0,2.11,0c.27-.2.53-.41.79-.62a.6.6,0,0,1,.9,0c.36.33.75.63,1.14.93a.58.58,0,0,1,.09.88,4.21,4.21,0,0,1-3,1.63,9.51,9.51,0,0,1-2.51-.17,4.89,4.89,0,0,1-2.55-1.7A6.37,6.37,0,0,1,75.71,123Z"></path><path class="cls-2" d="M102.6,126.54a9.07,9.07,0,0,1,0-1.38,3.59,3.59,0,0,0-.84-2.45c-.4-.62-.74-1.29-1.12-1.93l-1.18-2a9.12,9.12,0,0,1-.53-1c-.18-.43,0-.67.51-.64s1,0,1.51,0a1.28,1.28,0,0,1,1.27.83c.23.55.53,1.06.79,1.58s.43.9.66,1.35c.06.11.15.27.24.28a.42.42,0,0,0,.32-.2c.39-.73.77-1.46,1.15-2.19a7.4,7.4,0,0,1,.6-1.11,1.12,1.12,0,0,1,1.17-.55,9.64,9.64,0,0,0,1.52,0c.44,0,.55.16.34.54-.46.84-1,1.66-1.44,2.49-.33.57-.67,1.12-1,1.69s-.8,1.41-1.16,2.13a1.73,1.73,0,0,0-.14.75c0,1.22,0,2.43,0,3.65,0,.82-.16,1-1,1h-1.06a.58.58,0,0,1-.65-.66v-2.21Z"></path><path class="cls-2" d="M92.7,124.53v-4c0-.51-.13-.79-.73-.66a5.7,5.7,0,0,1-1.65,0c-.2,0-.5-.29-.51-.47a10.69,10.69,0,0,1,0-1.79c0-.31.26-.46.59-.46l7.14,0c.69,0,.82.09.89.77a9.83,9.83,0,0,1,0,1.33.57.57,0,0,1-.63.58l-1.85,0c-.59,0-.64,0-.64.66v7.7c0,.14,0,.28,0,.42,0,.59-.2.74-.8.73H93.39c-.54,0-.67-.1-.68-.64,0-1.41,0-2.82,0-4.24Z"></path><path class="cls-1" d="M54.78,20.34h5.58c.65,0,.73.09.75.75s0,1.57,0,2.35c0,.3-.12.47-.42.5H49.81c-.27,0-.55,0-.83,0s-.55-.14-.54-.52c0-.84,0-1.69,0-2.53,0-.5.16-.61.66-.61Z"></path><path class="cls-1" d="M69.68,100.59c0-1.36,0-2.71,0-4.06a1.64,1.64,0,0,1,1.25-1.62,1.58,1.58,0,0,1,1.82.5,2.57,2.57,0,0,1,.48,1.35c.05,2.53,0,5.07,0,7.61a2,2,0,0,1-.75,1.69,1.87,1.87,0,0,1-2.09,0,2,2,0,0,1-.74-1.65c0-1.26,0-2.52,0-3.78Z"></path><path class="cls-1" d="M79.56,100.57c0-1.31,0-2.61,0-3.92a1.88,1.88,0,0,1,1.31-1.78,1.69,1.69,0,0,1,2.06,1,3.88,3.88,0,0,1,.2,1.17c0,2.35,0,4.7,0,7a2.24,2.24,0,0,1-.77,2,2,2,0,0,1-2,0,2,2,0,0,1-.78-1.72c0-1.26,0-2.52,0-3.78Z"></path><path class="cls-1" d="M34.87,100.64c0,1.29,0,2.58,0,3.87a1.74,1.74,0,0,1-3.31.9A3.41,3.41,0,0,1,31.3,104c0-2.28,0-4.57,0-6.86a4.43,4.43,0,0,1,.22-1.3,1.48,1.48,0,0,1,1.39-1,1.66,1.66,0,0,1,1.51.6,2,2,0,0,1,.45,1.4v3.82Z"></path><path class="cls-1" d="M25,100.67c0,1.28,0,2.56,0,3.83a1.8,1.8,0,0,1-2.42,1.77,1.58,1.58,0,0,1-.9-.89,6.74,6.74,0,0,1-.25-1.95c0-2.05,0-4.09,0-6.14A6,6,0,0,1,21.61,96,1.46,1.46,0,0,1,23,94.83a1.66,1.66,0,0,1,1.6.6A1.91,1.91,0,0,1,25,96.75Z"></path><path class="cls-1" d="M61.45,31.31c0,1.15,0,2.3,0,3.46a4.35,4.35,0,0,1-.22,1.39,1.61,1.61,0,0,1-2.32.8,1.86,1.86,0,0,1-1-1.78c.05-2.66.06-5.31,0-8a2,2,0,0,1,1.89-1.7,2,2,0,0,1,1.65,2C61.46,28.76,61.45,30,61.45,31.31Z"></path><path class="cls-1" d="M56.66,31.33c0,1.27,0,2.55,0,3.82a1.85,1.85,0,0,1-.72,1.7,1.76,1.76,0,0,1-2.69-1,5.65,5.65,0,0,1-.07-1q0-3.34,0-6.69c0-.41,0-.82.06-1.24a1.87,1.87,0,0,1,2.29-1.24,2,2,0,0,1,1.15,2C56.65,28.84,56.66,30.08,56.66,31.33Z"></path><path class="cls-1" d="M88,100.66c0,1.35,0,2.7,0,4a1.8,1.8,0,0,1-1.64,1.65,1.69,1.69,0,0,1-1.87-1.83c0-2.61,0-5.22,0-7.83a1.76,1.76,0,0,1,2.73-1.61A1.49,1.49,0,0,1,88,96.46v4.2Z"></path><path class="cls-1" d="M36.27,100.56c0-1.33,0-2.65,0-4a1.76,1.76,0,1,1,3.51,0c0,.58,0,1.16,0,1.75,0,2,0,4,0,6a2,2,0,0,1-.63,1.7,2,2,0,0,1-1.9.21,1.89,1.89,0,0,1-1-1.65C36.3,103.23,36.27,101.89,36.27,100.56Z"></path><path class="cls-1" d="M26.39,100.56c0-1.3,0-2.61,0-3.92a1.69,1.69,0,0,1,1.8-1.82,1.67,1.67,0,0,1,1.71,1.8c.05,1,0,2.09,0,3.13,0,1.54,0,3.08,0,4.61a1.77,1.77,0,0,1-2.47,1.88,1.83,1.83,0,0,1-1.05-1.62C26.42,103.27,26.39,101.92,26.39,100.56Z"></path><path class="cls-1" d="M78.16,100.54v4.1A2,2,0,0,1,77,106.29a1.82,1.82,0,0,1-2-.61,2.51,2.51,0,0,1-.32-1.23c0-2.61,0-5.22,0-7.83a1.75,1.75,0,0,1,2.75-1.52,1.48,1.48,0,0,1,.75,1.34c0,1.37,0,2.73,0,4.1Z"></path><path class="cls-1" d="M16.51,100.57c0-1.31,0-2.61,0-3.92a1.74,1.74,0,0,1,1.75-1.84A1.69,1.69,0,0,1,20,96.65c0,2.37,0,4.74,0,7.11a6.9,6.9,0,0,1-.1,1.28c-.19,1-.93,1.44-2.06,1.3a1.88,1.88,0,0,1-1.35-1.76c0-1.33,0-2.67,0-4Z"></path><path class="cls-1" d="M48.46,31.36c0-1.29,0-2.58,0-3.87a1.78,1.78,0,0,1,1.38-1.92,1.71,1.71,0,0,1,2,1.29c.06,2.19.06,4.37.07,6.55,0,.69,0,1.38,0,2.07a1.57,1.57,0,0,1-1.59,1.66,1.67,1.67,0,0,1-1.81-1.62c0-1.39,0-2.77,0-4.16Z"></path><path class="cls-2" d="M86.11,123.31c0-1.72,0-3.44,0-5.16,0-.8.14-.93.94-.94l.92,0a.66.66,0,0,1,.8.67,6.77,6.77,0,0,1,0,.78v9.68c0,.15,0,.31,0,.46a.6.6,0,0,1-.68.64H86.85c-.57,0-.73-.17-.74-.75,0-1.11,0-2.21,0-3.32v-2Z"></path><path class="cls-2" d="M22.16,123.31v5.21c0,.75-.14.89-.89.9H20.4c-.77,0-.94-.16-.94-.91V118.05c0-.65.22-.85.87-.84h1c.63,0,.81.19.81.84,0,1.75,0,3.5,0,5.25Z"></path><path class="cls-1" d="M56.58,1.92a1.72,1.72,0,0,1-1.84,1.9,2,2,0,0,1-2-1.84,2.21,2.21,0,0,1,2-2A1.88,1.88,0,0,1,56.58,1.92Z"></path><path class="cls-1" d="M55.46,48.58v.7c0,.61.17.8.73,1.08a15.71,15.71,0,0,1,1.76,1c.26.18.51.44.2.81s-.58.49-1,.21A21.8,21.8,0,0,0,55,51.27a1.3,1.3,0,0,1-.88-1.39c0-.61,0-1.22,0-1.84,0-.15,0-.31,0-.46,0-.36.18-.62.58-.64a.77.77,0,0,1,.75.68c0,.32,0,.64,0,1Z"></path><path class="cls-3" d="M89.12,108.24a2.77,2.77,0,0,1-.5,0H17.45v.09a3.56,3.56,0,0,0,1.08.14h0a1.68,1.68,0,0,1-.55,0,.87.87,0,0,0-.85.18l-.06.07a17,17,0,0,0-.1,2.14,4.43,4.43,0,0,1,0,1.26,2.34,2.34,0,0,0,1.38.18H93.06c.45,0,.62-.2.58-.63a4.72,4.72,0,0,1,0-.65v.06a4.1,4.1,0,0,0,.06.78c0,.09,0,.17.17.17q0-9.37,0-18.76a1,1,0,0,1,.08-.62c.09-.09.3,0,.33-.17A29.28,29.28,0,0,1,94.21,88c0-.19-.21-.25-.36-.33s-.18-.21-.22-.36a5.79,5.79,0,0,1,0-1.5v-12c0-1.24,0-2.47,0-3.71,0-.24-.12-.53.14-.73a.35.35,0,0,0,.19-.19c.23-.37.24-.37.59,0,.33.48.73.91,1,1.41a.26.26,0,0,0,.27,0,.7.7,0,0,0,0-.55v-.09a.53.53,0,0,1,0-.46v-.27c-.11-.17,0-.38-.09-.55V68.5a1.51,1.51,0,0,0-.22-.28.3.3,0,0,1-.07-.37.25.25,0,0,1,.38-.09.68.68,0,0,0,.3.28,6.77,6.77,0,0,1,1.56,1.15,11.27,11.27,0,0,1,1.72,2.06c.38-.08.21-.34.19-.55v-.09c-.13-.36,0-.75-.09-1.11a.27.27,0,0,1,0-.09c-.11-.13,0-.32-.1-.46h0a2.88,2.88,0,0,1-.27-.92v-.09c-.13-.23,0-.5-.09-.73l-.1-.46a1.4,1.4,0,0,1-.27-.64h0c-.11-.14,0-.33-.09-.46l-.09-.28a1.53,1.53,0,0,1-.28-.46L98,64.46c-.07-.13-.21-.25-.08-.4a.44.44,0,0,1,.55-.16h.27a4.68,4.68,0,0,1,1.47.37h0c.14.11.32,0,.46.09h.18a2,2,0,0,1,1.1.37c.14.12.3.08.46.09a1.18,1.18,0,0,1,.83.37l.83.37c.16,0,.35.13.27-.19s-.61-.54-.55-1c-.1-.18-.26-.3-.37-.47-.17-.39-.61-.62-.64-1.09a1.07,1.07,0,0,1-.28-.28,3.62,3.62,0,0,1-.73-1,.83.83,0,0,1-.28-.28l-1-1.2c-.16-.17-.41-.27-.45-.54l-.36-.28a.72.72,0,0,0-.37-.36h-.09a1.27,1.27,0,0,1-.41-.42c-.16-.27-.1-.43.21-.49a2.25,2.25,0,0,0,.93-.08,39.6,39.6,0,0,1,4.22,0l.15,0a2.13,2.13,0,0,1,1,.31c.12.1.27,0,.4.07s.49,0,.73.07c.08.09.2.08.29.14l.18.1c.19.07.41.19.37-.19a4.3,4.3,0,0,0-.83-.82l-.36-.37a.36.36,0,0,0-.28-.19,3.84,3.84,0,0,1-.45-.37l-.19-.09a5.32,5.32,0,0,1-.46-.37l-.18-.08a1.6,1.6,0,0,1-.55-.38.36.36,0,0,0-.28-.08,1.22,1.22,0,0,1-.64-.37c-.11-.11-.24-.08-.37-.09s-.51-.13-.7-.33l-.24-.1c-.15,0-.31,0-.46-.07l-.13,0a5.53,5.53,0,0,1-1.5-.34.32.32,0,0,0-.14,0,4.35,4.35,0,0,1-.8-.05H97.33c-.15,0-.3,0-.37-.16s0-.29.14-.36.17,0,.23-.08a9.36,9.36,0,0,1,1.65-1c.15-.1.32-.18.46-.28a1,1,0,0,1,.55-.18c.19-.1.35-.22.53-.32s.34,0,.49-.13h.18s.11,0,.16-.08a1.6,1.6,0,0,1,.64-.24c.15,0,.31,0,.46,0s.59.06.46-.4l-.13-.05a2,2,0,0,1-.53-.09,1.53,1.53,0,0,1-.52-.13,4.67,4.67,0,0,1-.76-.17l-.15,0a11.64,11.64,0,0,1-1.32,0h-1a7.18,7.18,0,0,1-1.13,0l-.14,0a5.63,5.63,0,0,0-.59.14l-.12,0a1.58,1.58,0,0,1-.7.18,9.63,9.63,0,0,0-1.63.67c-.15.06-.28.23-.45.1s-.16-.27-.09-.45a.72.72,0,0,0,0-.41,7.49,7.49,0,0,1,0-1.64c0-1,.35-1.86.41-2.8,0-.67.48-1.21.55-1.86,0-.11.13-.21.2-.3a1.43,1.43,0,0,0,.2-.36c0-.11.08-.21,0-.29a.23.23,0,0,0-.3,0c-.63.6-1.35,1.08-1.94,1.73A11,11,0,0,0,91,47.71,4,4,0,0,0,90.4,49a7.63,7.63,0,0,1-.47,1.42c-.11.35-.38.37-.62.07a2.24,2.24,0,0,0-.33-.43,18.32,18.32,0,0,0-3.37-2.55,7.59,7.59,0,0,0-2.26-.88c-.63-.1-1.24-.31-1.88-.35-.12,0-.25-.06-.32.08s0,.22.13.31.1.11.16.16a24.64,24.64,0,0,1,2.69,2.62,16.63,16.63,0,0,1,1.49,1.84c.53.74.87,1.58,1.36,2.35a.64.64,0,0,1,0,.69c-.16.24-.39.09-.58,0a2,2,0,0,0-.53-.13,10.82,10.82,0,0,0-3.63.32.86.86,0,0,1-.27.05,5.55,5.55,0,0,0-2.07.64,4.81,4.81,0,0,0-1,.47c-.81.51-1.53,1.14-2.31,1.7-.13.09-.26.2-.17.37s.26.11.41.1c1.06-.09,2.12-.22,3.18-.3a18.84,18.84,0,0,1,2.6.19c.22.05.45,0,.67.07l.12.05a.78.78,0,0,1,.47.16l.12.05a5.42,5.42,0,0,1,1.41.64c.13.09.25.17.22.36s-.18.18-.31.23-.4,0-.57.15c-.66.48-1.43.75-2.12,1.19s-1.3.89-2,1.3-1,.86-1.51,1.17a.28.28,0,0,0,0,.09,1.4,1.4,0,0,1-.36.28l-.1.18a1.78,1.78,0,0,1-.45.37l-.09.09c-.08.33-.42.46-.56.73s-.22.22-.09.36.23.07.33,0a9.35,9.35,0,0,1,2.06-.73,7.78,7.78,0,0,1,2.43-.68,2.42,2.42,0,0,0,.75-.18,3.93,3.93,0,0,1,1.8-.16c.6.06.62.12.4.68a.65.65,0,0,1-.13.43c-.48.61-.74,1.35-1.21,2v.07a1.74,1.74,0,0,1-.18.84A11.58,11.58,0,0,0,83,69.77c-.05.18-.21.44,0,.55s.29-.21.48-.26h0a13.31,13.31,0,0,1,1.92-2,2.41,2.41,0,0,1,.41-.37,1,1,0,0,0,.48-.28.42.42,0,0,1,.34-.23l.3-.11c.11-.07.23-.2.36-.13s.08.27.06.41A6.74,6.74,0,0,0,87.1,69c0,.13,0,.29.13.35s.21-.09.29-.16a.84.84,0,0,0,.15-.18,3.12,3.12,0,0,1,1.23-1c.26-.14.47-.1.55.23,0,.12,0,.3.24.25s.17.07.15.16a8.47,8.47,0,0,0,0,1.51q0,7.41,0,14.82c0,.76-.09,1.52-.05,2.28a.31.31,0,0,1-.24.34.3.3,0,0,0-.13.2c.07,1.29,0,2.58,0,3.87a3.77,3.77,0,0,0,0,1,8.12,8.12,0,0,1,.09,1.84c.23,0,.22-.17.23-.32s0-.42,0-.64c0,4.56,0,9.12,0,13.67,0-.21,0-.43,0-.64C89.85,106.55,90,108.3,89.12,108.24Z"></path><rect class="cls-3" x="89.51" y="67.4" width="4.61" height="44.85"></rect></g></g></svg> 