<?xml version="1.0" encoding="UTF-8"?> <svg xmlns="http://www.w3.org/2000/svg" viewBox="0 0 182.1 80.57"><defs><style>.cls-1{fill:#8f9fce;}.cls-2{fill:#2846a0;}</style></defs><title>customer-logo-cua</title><g id="Layer_2" data-name="Layer 2"><g id="Layer_1-2" data-name="Layer 1"><path class="cls-1" d="M85.14,79.62a1.94,1.94,0,0,1-.77-.05c-.55-.28-.77-.19-.77.47s-.47.53-.86.53c-1.55,0-3.13.1-4.36-1.15-.14-.15-.29-.17-.36,0-.23.75-.68.41-1.15.29a13.58,13.58,0,0,1-2.61-.57,8.11,8.11,0,0,0-3.24-1,5.19,5.19,0,0,1-2.27-.66,14.59,14.59,0,0,1-3.62-1.91c-.07-.07-.13-.23-.17-.22-1.23.28-1.76-1.17-2.57-1.19s-.81-.33-1.08-.71c-.07-.1-.23-.23-.31-.21-1,.35-1.1-.42-1.31-1-.09-.25,0-.59-.5-.19s-.79-.14-1-.34a27.56,27.56,0,0,1-2.23-2.09.69.69,0,0,1-.24-.89c.26-.72-.56-.55-.92-.75-.14-.38-1.16-.25-.59-1-.12,0-.23.17-.37.06-1-1.36-2.14-2.65-3.15-4a10.57,10.57,0,0,1-1.76-4.32c-.09-.41-.38-.57-.55-.83-.58-.88-.49-1.95-.92-2.87-.27-.59-.91-1.11-.6-1.9.2-.13.09-.26,0-.39a2,2,0,0,1-.65-2.4c.28-.85-.23-1.57-.47-2.28-.39-1.16-.31-2.35-.58-3.5-.13-.55.29-.54.66-.54.2,0,.4,0,.41-.3s-.18-.21-.34-.27c-.67-.25-1.22-.57-.52-1.36,0-.05.09-.15.07-.17-.86-.91.06-2.16-.62-3.1-.09-.13-.24-.27-.15-.43.63-1.06-.15-1.93-.37-2.87-.06-.27-.19-.64-.07-.83.67-1,.07-2.13.27-3.19s0-2,.21-3c.11-.48.81-.7.59-1.33-.09-.27.28-.7-.4-.76-.33,0-.5-.63-.19-.86,1-.73.6-1.73.42-2.52a6.77,6.77,0,0,1,.23-2.23c0-.15.09-.31,0-.45A4.08,4.08,0,0,0,44.87,19c-.13-.16-.18-.42-.06-.5.46-.34-.07-.33-.14-.47a1.89,1.89,0,0,1,2.55-1.64,1,1,0,0,1,.67,1.22c-.27,2,.12,4.06,0,6.09,0,.12,0,.35,0,.36-1.54.56-.26,1.41-.21,2.11,0,.39.19.77-.17,1.07s-.32.3-.08.53a.42.42,0,0,1,.08.54c-1,1.38-.52,3-.55,4.47a2.16,2.16,0,0,0,.44,1.48c.08.09.16.26.12.35-.5,1.27.07,2.48.15,3.72a2.35,2.35,0,0,1-.38,1.15c-.3.56-.2.73.78.69-.72.35-1.15.45-.61.94,1,.87.72,2.15.85,3.26a23.79,23.79,0,0,1,0,3.27c0,.77.48,1.39.5,2.14a21.46,21.46,0,0,0,1.57,6.39c.44,1.25,1.07,2.53,1.63,3.77a9.52,9.52,0,0,0,1.23,2.18,12.31,12.31,0,0,1,1.56,2.12,2.29,2.29,0,0,1,.45,1.12c0,.31.58.56.88.84,1.12,1,2.05,2.2,3.19,3.18a6.85,6.85,0,0,0,2.82,1.93,2.41,2.41,0,0,1,1.52,1c.1.14.33.34.46.31,1.14-.25,1.39.41,1.34,1.48.59-.83,1-.8,1.81-.37,1.07.59,2.4.68,3.28,1.69.16.17.37,0,.56,0,.42,0,.85-.1,1.07.41s1-.37.94.09c-.06.78.45.68.74.6a10.27,10.27,0,0,1,4.88.29,55.22,55.22,0,0,0,5.55.49,4.67,4.67,0,0,0,2.48-.52c1.08-.56,2.36-.14,3.48-.7a2.17,2.17,0,0,1,2.11-.32c.21.11.38-.19.57-.29,1.24-.65,2.29-1.63,3.59-2.19a1.9,1.9,0,0,0,.87-.69A1.69,1.69,0,0,1,99.1,72c.19-1.35,1.31-2,1.91-3a1.7,1.7,0,0,1,.24,1c.12-.3-.24-.64,0-1a1.42,1.42,0,0,1,.7-1.31,4.11,4.11,0,0,0,1-2.16c.64-.29.8.4,1.21.58a1.46,1.46,0,0,1-.63-1c0-1,.84-.35,1.21-.68,0-.28-.69-.48-.24-.84s.29.53.71.37c.14-.31-.15-.57-.2-.87s-.15-.44.13-.46c.45,0,.54-.13.2-.46,1.06-.33,0-1.7,1-2.09a.88.88,0,0,0,.17-1c-.34-.71.1-1,.67-1.18.65.12.38.89.81,1.16-.32,1.15-.26,1.25.94,1.77.12.25.68.13.53.55s-.43,0-.66,0-.47-.07-.59.2a.63.63,0,0,0,.12.64c.16.19.33.38.49.55,0,.07-.06.12-.07.12-1,.17-1.52.6-.86,1.65a.6.6,0,0,1,0,.35c-1.06.21-.65,1.18-.86,1.78a5.07,5.07,0,0,1-1.45,1.89c-.38.37-.69-.23-1-.46-.13-.1,0-.55-.35-.36s-.63.38-.51.74.32-.07.49-.06a.56.56,0,0,1,.31.14c-.17.68.56,1.5-.17,2s-.94,1.11-1.6,1.49a1.2,1.2,0,0,0-.51.76c-.18.9-1.17,1.12-1.5,1.9a.5.5,0,0,1-.66.24.45.45,0,0,0-.59.21,1.46,1.46,0,0,1-2,.9.3.3,0,0,1-.11-.25v-.37c0,.12,0,.25,0,.37a.41.41,0,0,1-.09.26c0,.59.21,1.44-.94,1-.22-.08-.39.1-.57.27A6.32,6.32,0,0,1,92,79.22a10.84,10.84,0,0,1-2.66-.41.72.72,0,0,0-.84.79c-.57.64-1.2.32-1.84.15-.23-.06-.91-.67-.62.36.06.24-.37.26-.62.28a.56.56,0,0,1-.45-.2C84.78,79.92,85.35,79.91,85.14,79.62Z"></path><path class="cls-1" d="M108.22,27.49c-.67-.43-1.13-.9-.23-1.55a.57.57,0,0,0,.15-.7,4.17,4.17,0,0,1,.62-3.68c.08-.11.17-.25,0-.33-.8-.55-.3-1.23-.21-1.87a2.42,2.42,0,0,1,.77-.79h0c.07-.08.13-.07.18,0s.36.35.58.22,0-.41,0-.62c0-.36-.53-.55-.28-1,.38-.73.51-1.74,1.73-1.1.06-.72-.59-1.08-.58-1.7,0-.16-.08-.32.14-.39a.25.25,0,0,1,.31.16c.45,1,.77.21.84-.14a6.24,6.24,0,0,1,1.29-2.34c.09-.12.14-.3.26-.38.68-.47.82-.86.51-1.58-.12-.29.14-.4.25-.58s.34-.15.47,0c.4.47.92.39,1.43.34,0-.55-.58-.08-.75-.38,0-.38,0-.84.63-.66.33.1.32-.23.48-.36.36-.3.55-1.09,1.29-.22.23.27,1.36,0,2-.3.29-.12.7-.26.36-.78-.17-.27.2-.33.38-.43a.39.39,0,0,1,.58.14c.12.17,0,.46.26.58.29-.11.15-.38.2-.58.09-.37-.3-1.21.69-.7,0,0,.2-.06.23-.13.31-.76.8-.32,1.25-.19s.74.44.91-.21c-.13-.23.11-.3.19-.44s.2-.41.47-.16.17.49.47.61c0-.51.3-1,.07-1.48.44-.12.53.31.81.35,0-.89.92-1,1.27-1.71.27.6.49,1,.18,1.61,1.24-.89,2.43-1.94,4.27-1,.14-.08,0-.43,0-.73s0-.7.47-.71,0,.52.3.65.44-.91.63,0c.08.37.38,0,.57.08.5.08,1.15-.28,1.45.7.23-.76.12-1.66,1.15-1.28-.14-.58.44-.64.7-.92s.45-1.23,1.07-.63c.47.46.12,1.11-.54,1.54.63.29,1.24,1,1.75.44s-.51-.61-.68-1a2,2,0,0,1,2.44,1c.26.36.41.46.67,0s.57-.44,1.12-.13,1.1,1.32,1.94.42c.58.67,1.56-.88,2.06.37a1.52,1.52,0,0,0,.69-.18c.79-.53,1-.18.87.57,0,.16,0,.32,0,.85.55-1.82,1.42-.09,2-.72.07.39-.37.37-.3.65s.42.06.62,0c.72-.27,1.41-.61,1.6.63.08.45.39.15.6-.08a1.81,1.81,0,0,1,2.66.52c.28-1,.69-.7,1.12-.19a.22.22,0,0,1,0,.36c-.51.26-.37.43.07.56a2.82,2.82,0,0,1,1.29,1.33,2.2,2.2,0,0,0,.54,1.1c.25.33.73.64,1,0,.1-.23.25-.39.5-.37s.29.33.35.52a3.76,3.76,0,0,1,.11.76c0,.54.08,1.07.78.44.1-.09.16-.14.32-.07.4.19.41.17.46-.34h0c.41-.07.55.17.66.52a1.94,1.94,0,0,0,.47,1c.26.28.1.56.07.82.61-.24.71-.23,1.13.13h0a.21.21,0,0,1-.24.09c0,.11.21,0,.25.11a.55.55,0,0,0,.18,0c.39.61.39.61-.66.94.47,0,.8-.29,1.06,0a.94.94,0,0,1,.66,1c-.06.45-.07.73.45,1s0,.51-.14.73.1.25.24.31c0,.35.55.28.59.65-.42.41-.72.83,0,1.21.23.21.29.55.59.69s.73.19.43.8,0,1.18-.08,1.77a11,11,0,0,0,0-1.4c0-.2,0-.41.3-.34,0,.54,0,1.09,0,1.64a7.23,7.23,0,0,0,.22,1.66c-.44-.31-.69-.76-1.17-.55a2.89,2.89,0,0,0-1.94-.84,10.25,10.25,0,0,1-1-3.88c0-.22.2-.54-.21-.63-.95-.21-1.13-1.12-1.41-1.79a9.13,9.13,0,0,0-1.82-2.51,23.84,23.84,0,0,0-4.76-3.92,5.42,5.42,0,0,0-.69-.32c-.83-.4-.85-.64-.12-1.23a8.69,8.69,0,0,1-4.81-1.27,4.45,4.45,0,0,0-2.18-.36c-.83.07-1.58-.32-2.38-.17-.17,0-.52-.06-.41-.25.33-.54-.16-.66-.4-.74s-.6.15-.8.41-.23.4-.5.4a.24.24,0,0,1-.1-.14c0-.07,0-.14,0-.21a.16.16,0,0,1-.09.15,11.16,11.16,0,0,1-3.94-.87,8.25,8.25,0,0,0-1-.15C139,3,138.49,3.3,138,3.75c-.19-.37-.69-.15-.9-.48-.46-.22-.18.34-.4.38-.28.22-.5.23-.66-.16s-.21-.65-.57-.53-.64.28-.67.62a1,1,0,0,1-1.14,1c-1.62-.08-3,.9-4.59.88-1.19,0-1.87.9-2.88,1.16s-1.77,1.48-3.07,1.17c-.28-.06-.45.18-.57.43-.41.79-1.18,1-1.92,1.35s-2,.37-2.34,1.58c0,.06,0,.16-.07.17-1.87.32-2.09,2.29-3.28,3.33-1.74,1.53-2.06,4-3,6a8.41,8.41,0,0,0-.75,4.19c-.29.24-.29.24-.31,1,.14-.32-.28-.81.31-1-.11.62.18,1.28-.23,1.88-.15.21.1.3.21.45a1.44,1.44,0,0,1-.74,2c-.2.07-.27.25-.15.34.69.54.84,1,0,1.6,0,0,0,.52-.16.77.31.21.54-.51.83-.08a1.2,1.2,0,0,1,0,1.37,3.92,3.92,0,0,1-.68,2.08c.38-.11.71-.32.67.23-.31.54-.34,1,.32,1.32-.13.4-.54-.12-.62.2s.19.36.41.42.21.23.19.45c-.12,1,.06,2.12-1,2.77-.09.05-.12.2-.17.31.41.29.58-.46.93-.18a3.88,3.88,0,0,0,.24,3.71c-.19.25-.67,0-.77.52.32.07.75-.07,1,.33a1.34,1.34,0,0,1,0,1.11,6.25,6.25,0,0,0-.08.86c-.12.18,0,.44-.17.6-.4.47,0,1-.2,1.53.17.62-.25.55-.62.54a1,1,0,0,0-.48-.22c-.17,0-.44,0-.42-.13.17-.68-.71-.61-.79-1.16s-.22-1-.25-1.51a.33.33,0,0,0-.16-.23c.18-.44,0-.88,0-1.32,0-.16-.14-.38-.08-.46.59-.77-.19-1.6.15-2.44.17-.4-.16-1.11-.24-1.68a4.45,4.45,0,0,1,0-1.41,2.15,2.15,0,0,0-.16-1.81c-.5-.7.15-1.63-.29-2.39,0,0,0-.14.08-.16,1.51-.7.15-1.21-.11-1.79a2.33,2.33,0,0,1-.08-.46c.17-.17.45-.23.56-.48s.37-.24.19-.51c-1-.41-1.12-1.07-.79-2a5.88,5.88,0,0,0,0-1.63C107.66,27.82,108.08,27.84,108.22,27.49Z"></path><path class="cls-1" d="M174.65,69.55c-.8-1.16-1.2-2.54-2.09-3.65a.19.19,0,0,1,0-.09c.19-1.08-.58-1.88-.88-2.81a9.91,9.91,0,0,1-.49-3c0-.52-.68-.55-.75-1.06a16,16,0,0,1-.29-4.42c0-.23,0-.4-.21-.47-.94-.32-.92-1.06-.77-1.8.07-.36-.27-.69,0-1,.25-.15.32.14.49.19s.4,0,.45-.22-.14-.25-.3-.31A1.63,1.63,0,0,1,168.69,49a5.55,5.55,0,0,0-.34-3.17.53.53,0,0,1,0-.37,2.88,2.88,0,0,0-.1-2A1.11,1.11,0,0,1,169,42c-.89,0-.84-1-.81-1.09.37-1.49-.58-2.89-.23-4.35,0,0,.07-.1.11-.15.25-.59.86-.64,1.34-.9-.14-.25.1-1-.62-.47h-.13c-.17-.07-.18-.22-.19-.38s.18-.38,0-.58a2.6,2.6,0,0,1-.75-1.9c-.14-1.18.14-2.4-.33-3.57-.18-.46.62-.77.3-1.31a17.2,17.2,0,0,1,0-2.87c0-.43,0-1,.48-1.18s.79.26,1.12.55c.32.83,1.21,1.11,1.72,1.76.6.46-.19.64-.2,1s-.61,1,.15,1.35a.15.15,0,0,1-.11.26c-.67-.05-.29.4-.22.54a5.55,5.55,0,0,1,.37,2.19c.07,1.07.79,2.06.26,3.23-.2.45.62,1.07.13,1.7-.13.19-.22.41-.46.49,0,0-.22,0,0,0s0,0,.09,0c.57.31.38.92.58,1.38-.78,1.4.09,2.65.41,3.92.14.54,0,1.08.19,1.59.1.22,0,.24-.22.31-.79.3-.52.94-.18,1.27s.7.49-.12.6c-.37.05-.68.62-.21.73,1,.23.56.83.52,1.35,0,.1,0,.19,0,.29a.71.71,0,0,1-.8.6c.45.3.7-.19,1,0a11.45,11.45,0,0,0,.74,4.28c.38,1.24.57,2.53.93,3.77a22.36,22.36,0,0,1,.83,3.46c.08.61-.4.77-.88.86.17.44.42.22.61.22.46,0,.92.13,1,.61.15,1.65,1.17,3,1.63,4.48.16.51,1.23.81.4,1.56,0,0,.07.09.11.1,1.54.18,1.73,1.77,2.69,2.57.42.36-.32,1,.06,1.5.1.13,0,.37.06.56s.1.15,0,.22c-.23.39.19.81-.12,1.3-.11-.48-.25-.52-.75-.44a1.84,1.84,0,0,1-1.73-1,4.5,4.5,0,0,0-2.45-2.2C174.9,70.15,175.14,69.57,174.65,69.55Z"></path><path class="cls-1" d="M108.21,46.66c.19,0,.38-.14.39.2a2.85,2.85,0,0,0,.12,1c.22.59.27,1.35,1.22.92.15.51-.53.29-.4.69.34.17.65-.31,1-.07l-.4.33c.14.3.55.17.72.42s.48.7-.14.93c-.54-.36-.36.23-.48.39a.41.41,0,0,0,.13.66c1,.32,1.14.71.21,1.32,0,0,.1.21.15.33a.3.3,0,0,1,0,.41,7.06,7.06,0,0,1-1,2c-.14.28-.19.48.12.61s.85-.37.59.39.62,1.77-.73,2.05c-.27.06-.33.28-.37.51a.83.83,0,0,1-1.23.33,1.7,1.7,0,0,1-.14-.94.68.68,0,0,1,0-.14c-.54-.21-.42-.85-.78-1.19,0-.48,0-1,.59-1.14a.24.24,0,0,0,.4,0c.07-.53.07-.53-.93-.73.51-.31.94-.64.12-1.07l.8-.35c.12,0,0,0,.09,0l-.1,0c-.27-.26-.69-.41-.13-.91a1.76,1.76,0,0,0,.22-1.35,3.36,3.36,0,0,1,.12-1c.3-.31.83-.11,1.1-.49.42-.2.13-.45,0-.69h0c-.19-.22-.5-.16-.72-.31s-.19-.59-.31-.88.11-.55-.17-.75C108,47.73,108.25,47.19,108.21,46.66Z"></path><path class="cls-1" d="M169.25,23.79a1.26,1.26,0,0,1-.22.13c-.23-.27-.56-.67-.85-.49s-.25.68-.3,1c-.12.94.2,1.9-.19,2.82a1.27,1.27,0,0,1-.4-1.15,2.35,2.35,0,0,1,0-1.39l-.39-2.5a1.3,1.3,0,0,0,.08-.17c.43-.73.54-.73,1.29,0v.38c.12.24.11.63.43.65.51,0,.35.5.54.72Z"></path><path class="cls-1" d="M45.26,20.32a.51.51,0,0,1,.18.52,4.84,4.84,0,0,0,.25,3.45c-.58.18,0,1.08-.79,1.22-.37.06-.25.54,0,.77.83.64.73,1.47-.29,2.19a1.86,1.86,0,0,1-.15-.32c.92-.62.23-1.21,0-1.81a1.33,1.33,0,0,1,0-1l.39-2.67a1.46,1.46,0,0,1,.19-1.4C45,20.93,45.2,20.64,45.26,20.32Z"></path><path class="cls-1" d="M180.27,72.62V72.4c.4-.26.75-.73,1.3-.26a1.14,1.14,0,0,1,.14,1.81C181.41,73.37,180.55,73.32,180.27,72.62Z"></path><path class="cls-1" d="M168.27,22.05l-.56.36c-.23-.31.24-.5.08-.79-.4.07-.62.38-.89.63-.69-.15-.44-.75-.57-1.18.19,0,.41.1.49-.15s-.08-.57.24-.51,0,.49.17.77c1-.71.9.16,1,.73Z"></path><path class="cls-1" d="M89.24,78.63a8.44,8.44,0,0,1,2.71.59c-.69.21-1.39.63-2-.1a.26.26,0,0,0-.35-.05c-.32.24.24.42,0,.67-.39.08-.65-.22-1-.33C88.41,78.82,88.85,78.74,89.24,78.63Z"></path><path class="cls-1" d="M110.73,51.12c.34-.53.29-.91-.43-.93-.51,0-.32-.2-.15-.42.3-.06.72.14.78-.4.5,0,1,.31.88.74s-.16,1.23-1,1.24C110.8,51.35,110.76,51.2,110.73,51.12Z"></path><path class="cls-1" d="M110.91,35.42c-.52-.74-.3.5-.73.16-.29-.92.64-1.59.74-2.47,0,.52-.13,1.07.27,1.56C111.44,35,111.25,35.26,110.91,35.42Z"></path><path class="cls-1" d="M169.24,19.16c-.41.61-.11,1.3-.2,1.95,0,.18,0,.4-.2.49a.3.3,0,0,1-.26,0c-.17-.17-.08-.35,0-.51a2,2,0,0,0,.1-1.74c-.07-.31.24-.72-.25-.93a.76.76,0,0,1,.77,0A.48.48,0,0,1,169.24,19.16Z"></path><path class="cls-1" d="M169.23,18.38h-.77l-.59-.58c-.2-.43-.71-.91.2-1.15.31,0,.92.1.61.46C167.84,18.08,168.72,18.11,169.23,18.38Z"></path><path class="cls-1" d="M170.78,36.22c.2-.14.27-.43.57-.42.55.6.21,1.29.21,2-.3-.43-.3-1-.78-1.35-.06,0-.07-.09-.05-.12S170.76,36.22,170.78,36.22Z"></path><path class="cls-1" d="M172.13,48.43c-.15.11-.31.22-.45.34s-.37.31-.59.12a.52.52,0,0,1-.23-.58c.1-.27.31-.27.55-.18s.34-.23.52-.32Z"></path><path class="cls-1" d="M166.13,12.77c-.55,0-1.13.36-1.66-.16.17-.36.44-.16.71-.15.44,0,.93,0,.55-.66C166.39,11.91,166,12.43,166.13,12.77Z"></path><path class="cls-1" d="M165.56,11.6c-.47-.32-.88-.34-1.15.25-.07.14-.12.34-.32.2s-.25-.32,0-.47.33-.58.29-.93l.27-.08c-.12.81.5.59.92.69S166,11.48,165.56,11.6Z"></path><path class="cls-1" d="M53.79,67c.37-.07.32-.63.87-.67-.39.62-.51,1.18.09,1.65C54.2,67.87,53.71,67.7,53.79,67Z"></path><path class="cls-1" d="M168.07,16.65c-.6.29-.11.77-.2,1.15-.4-.1-.73-.35-.73-.74s.35-.57.73-.62c.07-.09.14-.08.2,0Z"></path><path class="cls-1" d="M103.57,65.07a4.19,4.19,0,0,0,1.29,1.18c-1,.24-1.2-.85-1.87-.78Z"></path><path class="cls-1" d="M168.07,16.45h-.2c-.19-.2-.53-.26-.58-.59-.07,0-.08-.08-.06-.12s0-.06.07-.06c.33,0,.62-.3,1-.1C168.4,15.89,167.94,16.1,168.07,16.45Z"></path><path class="cls-1" d="M169.63,35.63c-.49.33-1.18.22-1.57.76-.13-.59.89-.69.59-1.36h0C169.22,34.82,169.33,35.39,169.63,35.63Z"></path><path class="cls-1" d="M174.65,69.55l.66-.18c.25.34-.42.6-.09.93-.26,0-.56.23-.76-.11s.5,0,.32-.39C174.74,69.72,174.7,69.63,174.65,69.55Z"></path><path class="cls-1" d="M44.67,18h.93c.07.57-1,.29-.73,1C44.46,18.71,44.62,18.34,44.67,18Z"></path><path class="cls-1" d="M108.22,27.49c0,.5-.38.57-.77.59-.06-.2-.45-.24-.29-.53s.34-.19.53,0S108,27.53,108.22,27.49Z"></path><path class="cls-1" d="M109.55,50.92c-.13.83-.77.25-1.14.41.12-.71.73-.48,1.15-.6,0,.05.07.09,0,.13S109.57,50.92,109.55,50.92Z"></path><path class="cls-1" d="M108.6,49c.31.17.07.61.39.77a.28.28,0,0,1,0,.4c-.74.15-.5-.44-.58-.78C108.54,49.28,108.46,49.08,108.6,49Z"></path><path class="cls-1" d="M135.66,1c.4.54.14.8-.52,1C135.28,1.6,135.6,1.36,135.66,1Z"></path><path class="cls-1" d="M111.13,47.84c0-.22,0-.44.17-.6.17.27.62-.21.64.16S111.47,47.81,111.13,47.84Z"></path><path class="cls-1" d="M89.24,78.63c-.19.26-.63.34-.6.78l-.19.19C88.28,78.86,88.5,78.58,89.24,78.63Z"></path><path class="cls-1" d="M170.77,26.53c-.31-.4-.31-.42,0-.48.12,0,.26.09.26-.12a2.53,2.53,0,0,0-.07-.38C171.79,26.06,171.1,26.26,170.77,26.53Z"></path><path class="cls-1" d="M125.24,4.79l-.19.44c-.28-.1-.63.13-.89-.25C124.5,4.7,124.91,4.91,125.24,4.79Z"></path><path class="cls-1" d="M169.24,23.8c-.15-.57-1.13-.57-1-1.37C168.46,23,169.45,23,169.24,23.8Z"></path><path class="cls-1" d="M108.2,31.75c.32.2,0,.39,0,.59a.41.41,0,0,1-.57,0C107.08,31.4,108.22,32.15,108.2,31.75Z"></path><path class="cls-1" d="M111.08,55.89c-.16,0-.29-.14-.28-.33a.27.27,0,0,1,.3-.28c.17,0,.19.14.2.27S111.28,55.86,111.08,55.89Z"></path><path class="cls-1" d="M163.23,9.08c-.09,0-.21,0-.27-.08a.72.72,0,0,1-.27-.67.23.23,0,0,1,.21-.13c.41.08.09.43.21.63a2.06,2.06,0,0,1,.12.26Z"></path><path class="cls-1" d="M110.73,54.23v-.41c.3,0,.77,0,.65.44S111,54.29,110.73,54.23Z"></path><path class="cls-1" d="M136.67,3.65c0-.16,0-.31,0-.47s0-.61.32-.54,0,.42.06.63Z"></path><path class="cls-1" d="M97.37,76.11l-.08-1.24c.38.37.21.82.28,1.23Z"></path><path class="cls-1" d="M167.3,15.67a1.09,1.09,0,0,0,0,.18c-.28,0-.75.18-.71-.33,0-.36.33-.07.52,0Z"></path><path class="cls-1" d="M120.69,5.72c.28-.42.58-.33,1-.26A.9.9,0,0,1,120.69,5.72Z"></path><path class="cls-1" d="M157.78,5.19V4.83c.25,0,.68-.26.65.23S158,5.11,157.78,5.19Z"></path><path class="cls-1" d="M144.62,4.61c.06-.29-.11-.62.22-.92.34.4-.16.78,0,1.12Z"></path><path class="cls-1" d="M101.24,68.94c0,.34.36.64.08,1-.44-.25-.2-.69-.31-1Z"></path><path class="cls-1" d="M45.05,21.27a4.43,4.43,0,0,0-.19,1.4C44.57,22.15,44.51,21.67,45.05,21.27Z"></path><path class="cls-1" d="M168.47,34.07c.24.2.23.39,0,.58l-.38.21c-.16-.1-.07-.32-.22-.42C167.94,34.12,168.51,34.58,168.47,34.07Z"></path><path class="cls-1" d="M107.74,21.75c.06.07.17.15.19.26s-.08.22-.22.21a.23.23,0,0,1-.24-.24C107.46,21.85,107.54,21.75,107.74,21.75Z"></path><path class="cls-1" d="M154.92,3.67c-.18,0-.32-.08-.23-.23A.45.45,0,0,1,155,3.3a.16.16,0,0,1,.18.23C155.13,3.61,155,3.64,154.92,3.67Z"></path><path class="cls-1" d="M109.55,50.92a1.21,1.21,0,0,0,0-.19v-.58C109.58,50.41,110.64,50.67,109.55,50.92Z"></path><path class="cls-1" d="M109.55,18.59l-.18,0c0-.16-.24-.31-.06-.49a.21.21,0,0,1,.33,0C109.8,18.28,109.6,18.42,109.55,18.59Z"></path><path class="cls-1" d="M167.29,24.75v1.39A1.31,1.31,0,0,1,167.29,24.75Z"></path><path class="cls-1" d="M109.37,18.57a2.24,2.24,0,0,1-.77.79A.82.82,0,0,1,109.37,18.57Z"></path><path class="cls-1" d="M107.63,32.33h.57c0,.52-.47.33-.75.4Z"></path><path class="cls-1" d="M180.85,74.05c.14,0,.26.06.27.2a.22.22,0,0,1-.23.24.29.29,0,0,1-.19-.16A.2.2,0,0,1,180.85,74.05Z"></path><path class="cls-1" d="M142.7,1.21c-.06.09-.1.2-.16.22s-.22-.1-.2-.22a.2.2,0,0,1,.16-.16C142.56,1,142.62,1.14,142.7,1.21Z"></path><path class="cls-1" d="M85,80.17a.44.44,0,0,1,.41.22c-.31.28-.51.22-.59-.2C84.83,80.09,84.89,80.08,85,80.17Z"></path><path class="cls-1" d="M85,80.17l-.18,0c-.06-.3.24-.38.36-.57C85.93,80.08,84.84,79.93,85,80.17Z"></path><path class="cls-1" d="M152.73,3.29A1.06,1.06,0,0,1,152.5,3s.1-.16.16-.17a.22.22,0,0,1,.23.23C152.89,3.1,152.81,3.17,152.73,3.29Z"></path><path class="cls-1" d="M167.86,34.44c.18.09.2.25.22.42s-.1.39-.25.27S167.9,34.68,167.86,34.44Z"></path><path class="cls-1" d="M108.6,49a.43.43,0,0,1-.19.39c0-.39,0-.77,0-1.16C108.71,48.39,108.56,48.72,108.6,49Z"></path><path class="cls-1" d="M111.86,48.43c-.11.06-.18.14-.25.14s-.25-.08-.21-.23a.29.29,0,0,1,.23-.09C111.7,48.26,111.76,48.34,111.86,48.43Z"></path><path class="cls-1" d="M115.77,9.07c.22.19.8-.34.75.38C116.36,9.15,115.92,9.41,115.77,9.07Z"></path><path class="cls-1" d="M108.22,56.75c0,.18.07.5-.25.46s-.14-.3-.15-.47Z"></path><path class="cls-1" d="M169.79,24.24c.28-.3.59-.3.66-.14.13.32-.17.08-.27.13A1.44,1.44,0,0,1,169.79,24.24Z"></path><path class="cls-1" d="M46.8,52.67c.18.12.53.14.48.39s-.31,0-.47,0Z"></path><path class="cls-1" d="M165.55,11.79l-.61.16c0-.45.38-.3.6-.36Z"></path><path class="cls-1" d="M44.47,25.34v1A.69.69,0,0,1,44.47,25.34Z"></path><path class="cls-1" d="M111.66,51.94c.12,0,.14.11.1.2a1.63,1.63,0,0,1-.17.22c-.06-.07-.17-.13-.17-.19A.23.23,0,0,1,111.66,51.94Z"></path><path class="cls-1" d="M153.36,3.2c0-.12.06-.23.18-.16a.3.3,0,0,1,.12.21c0,.1-.07.18-.17.13S153.4,3.25,153.36,3.2Z"></path><path class="cls-1" d="M109,50.16v-.4a.57.57,0,0,1,.57.4Z"></path><path class="cls-1" d="M111.24,36.31c0-.11-.11-.19-.09-.24s.11-.12.16-.17.13.13.12.18S111.33,36.21,111.24,36.31Z"></path><path class="cls-1" d="M101.55,72.89c-.22.27-.26.73-.68.83-.2,0-.38-.16-.37-.36,0-.46.46-.55.79-.71C101.4,72.61,101.54,72.69,101.55,72.89Z"></path><path class="cls-1" d="M105.69,67.58c.11-.08.18-.16.25-.16s.13.08.19.13-.13.15-.2.17S105.8,67.65,105.69,67.58Z"></path><path class="cls-1" d="M111.13,24.78c-.49.44.07,1.15-.5,1.7a14.35,14.35,0,0,1,.12-1.72c.1-.51.27-.31.38,0Z"></path><path class="cls-1" d="M165.19,13.57a.75.75,0,0,1-.2.09c-.1,0-.18-.08-.12-.17a.26.26,0,0,1,.21-.11C165.16,13.37,165.26,13.41,165.19,13.57Z"></path><path class="cls-1" d="M169.63,35.63c-.55.18-.54-.59-1-.59a1.48,1.48,0,0,1,1.2-.73c-.29.38-.68.66,0,.91C170.13,35.34,169.88,35.57,169.63,35.63Z"></path><path class="cls-1" d="M170.78,36.22v.18c-.06.14-.13.29-.31.28s-.1-.12-.15-.19Z"></path><path class="cls-1" d="M107.6,57.75c.44.23.67.4.54.79C107.79,58.45,107.78,58.15,107.6,57.75Z"></path><path class="cls-1" d="M108.2,54.61c.19,0,.39-.33.56,0a.25.25,0,0,1-.07.25c-.3.18-.37-.1-.48-.28Z"></path><path class="cls-1" d="M108.21,60c-.3-.28-.14-.65-.2-1C108.35,59.33,108.16,59.71,108.21,60Z"></path><path class="cls-2" d="M97,62.71c0,.33-.31.48-.37.77a3.53,3.53,0,0,1-2.23.7c-1.92,0-3.85,0-5.78,0-.62,0-.85-.14-.8-.81.07-1,0-1.92,0-2.89,0-.33,0-.7-.52-.48a17.57,17.57,0,0,1-8.4,4.28,18.28,18.28,0,0,1-14-2.73,6.49,6.49,0,0,1-.79-.59h0a1.21,1.21,0,0,1-.6-.54,16.07,16.07,0,0,1-3.7-6c-.11-.33-.24-.66-.37-1a7.54,7.54,0,0,1-.55-2.52c-.15-2-.56-3.92-.54-5.93.07-8.16,0-16.33,0-24.49,0-1.19,0-2.41,1.1-3.26.45-.16.8-.56,1.33-.54,1.78-.09,3.56-.06,5.34-.06.37,0,.77-.1,1.09.2.08,1.23,0,2.45,0,3.68q0,11.6,0,23.21a8,8,0,0,1,0,1,6.35,6.35,0,0,0,0-1q0-12.87,0-25.74c0-.32-.29-.79.26-1a2,2,0,0,1,.1,1.05c0,8.91,0,17.82,0,26.73.3.43.14.89.17,1.34a2.61,2.61,0,0,0-.18-1.43q0-13.76,0-27.51a.26.26,0,0,1,.24-.24.32.32,0,0,1,.31.18c0,9.6,0,19.2,0,28.79A2.32,2.32,0,0,0,68.33,47a11.25,11.25,0,0,0,2.06,5.74c2.52,3.14,5.92,3.67,9.63,3.1a9,9,0,0,0,6.12-4,17.54,17.54,0,0,0,1-1.87c.64-1.16.35-2.39.57-3.56h0c.22-.33.11-.69.11-1q0-12.9,0-25.8a2.16,2.16,0,0,1,.08-1c.46-.21.55.11.57.43a8.15,8.15,0,0,1,0,1.21c0,.53,0,1.06,0,1.6V45.56c.13.7-.55,1.32-.25,2a1.5,1.5,0,0,1,.17-1.19,6.84,6.84,0,0,0,.08-1.63c0-7.85,0-15.7,0-23.56a6.66,6.66,0,0,0-.23-2.93c-.21-.49.41-.81.63-1.23a1.23,1.23,0,0,1,1-.37c1.91,0,3.82,0,5.73,0,.38,0,.78-.09,1.11.18a2.75,2.75,0,0,1,.2,1.6q0,20.73,0,41.47c0,.52,0,1,0,1.54a1.13,1.13,0,0,0,0,.32C97.18,62.05,96.9,62.39,97,62.71Z"></path><path class="cls-2" d="M26.54,54.8a7.73,7.73,0,0,0,2.11-1.48c1.33-1.09,2.25-1.07,3.47.09,1.44,1.36,2.86,2.74,4.3,4.1.32.3.39.53.06.87a18.52,18.52,0,0,1-11.36,6.05c-2.18.21-4.37.09-6.55.15-6.88-.72-12.13-3.95-15.49-10.09a4.23,4.23,0,0,1-.25-.62,1.37,1.37,0,0,0-.39-.82h0c-.15-.32-.09-.72-.4-1h0a3.15,3.15,0,0,0-.39-1,27.27,27.27,0,0,1-1.61-8.8A31.78,31.78,0,0,1,2.26,27.9c3.27-7.49,9.2-11.23,17.2-11.83A20.67,20.67,0,0,1,31.8,18.54a10,10,0,0,1,2.83,2.13c.78.64.29,1.46.29,2.21,0,.12.24,0,.12,0s0,0-.06,0c-.07-.41-.2-.85.46-.87h0a3.08,3.08,0,0,1-.22,2c-1.25,1.87-3.07,3.18-4.58,4.8-.26.28-.47.21-.71-.07s-.77-.77-1.16-1.16c-5.09-5.16-15.72-3.83-18.2,5A26.66,26.66,0,0,0,11,49.44c2.11,5.54,7.8,7.73,13.18,6.35A16.82,16.82,0,0,0,26.54,54.8Z"></path><path class="cls-2" d="M135,16.62l-.06.05a.63.63,0,0,1-.4.11l.18.06C135,16.94,135,16.73,135,16.62Z"></path><path class="cls-2" d="M135.58,16.53a1.09,1.09,0,0,0-.44,0A2.19,2.19,0,0,1,135.58,16.53Z"></path><path class="cls-2" d="M135.8,16.53h0Z"></path><path class="cls-2" d="M134.33,16.7a.6.6,0,0,0,.21.08Z"></path><path class="cls-2" d="M135.05,16.56a.1.1,0,0,0-.05.06.7.7,0,0,1,.14-.08Z"></path><path class="cls-2" d="M158.05,27.78a12,12,0,0,0-3-6.44c-3.47-3.82-8.05-5.06-13-5.33a61.65,61.65,0,0,0-6.66,0l-.38,0c-.14.13-.34.07-.49.16s-.36.12-.31.37a.61.61,0,0,0,.16.12l.21.08a.63.63,0,0,0,.4-.11l.06-.05a.1.1,0,0,1,.05-.06l.09,0a1.09,1.09,0,0,1,.44,0h0a2.19,2.19,0,0,0-.44,0,.7.7,0,0,0-.14.08c0,.11,0,.32-.28.22l-.18-.06a.6.6,0,0,1-.21-.08.52.52,0,0,0-.52.11.65.65,0,0,1-.31.11,1,1,0,0,1-.28,0l.28,0a.64.64,0,0,0,.35-.16.31.31,0,0,0-.06-.39,1.44,1.44,0,0,0-.46,0c-.6,0-1.15.24-1.73.26a14.56,14.56,0,0,0-7.29,3.54c-1.6,1.4-1.73,2.93-.38,4.65a2.52,2.52,0,0,0,.57.56h0c.6,1.18,1.89,1.66,2.71,2.62s1,.93,1.72-.18a8.1,8.1,0,0,1,4.34-3.06,18.54,18.54,0,0,1,9.75-.2c3.64.85,5.64,3.33,5.86,7.1.07,1.25,0,2.51.06,3.77.06.8-.24,1-1,1-3.93,0-7.87,0-11.8,0a20,20,0,0,0-10.72,2.74c-.33.18-.75.21-.94.6l-.21.18a1.64,1.64,0,0,0-.57.57h0a1.67,1.67,0,0,0-.57.58h0c-.36.18-.46.59-.77.8a4.11,4.11,0,0,1-.28.6,14,14,0,0,0-2,9.82c.73,5.5,3.48,9.47,8.88,11.33a24.94,24.94,0,0,0,10.41.95,14.67,14.67,0,0,0,8.22-3.28A6.69,6.69,0,0,1,149.13,60a3.52,3.52,0,0,1,.08,1.21,7.55,7.55,0,0,0,.17,2.42,2.46,2.46,0,0,0,1.23.16c1.83,0,3.66-.06,5.5,0a1.2,1.2,0,0,0,1.45-.91c.23-.37.53-.69.39-1.21a7.2,7.2,0,0,1,0-1.61c0-3.91,0-7.82,0-11.73a1.24,1.24,0,0,0-.09-.33,1.53,1.53,0,0,1,.07-1.82,25.84,25.84,0,0,0,0-4.31,4.14,4.14,0,0,1,0-3.29,3.64,3.64,0,0,0,.1-1V31.62c0-.41-.06-.84.29-1.17C158.55,29.54,158.06,28.67,158.05,27.78Zm-9.22,21.28c0,.06-.05.11-.08.17a7.32,7.32,0,0,1-6.18,7,19.38,19.38,0,0,1-8.06,0c-2.42-.52-4.35-1.74-5-4.3s-.37-5,1.66-7a1.19,1.19,0,0,1,.25-.13c.26-.21.71-.14.81-.56h0a6.43,6.43,0,0,1,1.37-.36c.4-.1.72-.43,1.18-.53,3.49-.74,7-.39,10.54-.46.91,0,1.81,0,2.71,0,.41,0,.82.08.82.6A50.46,50.46,0,0,1,148.83,49.06Z"></path><path class="cls-2" d="M133.22,16.9a1,1,0,0,0,.28,0Z"></path><path class="cls-2" d="M123.41,21.16s11.45-12.09,31.67-.05a41.4,41.4,0,0,1,3.25,7.79l.11,34.8h-5.37l2-20.7-.49-9.14-3.12-9.14-3.85-5.06-16.85.48Z"></path></g></g></svg> 