<?xml version="1.0" encoding="UTF-8"?> <svg xmlns="http://www.w3.org/2000/svg" viewBox="0 0 167.32 127.23"><defs><style>.cls-1{fill:#2846a0;}</style></defs><title>customer-logo-Government of South Australia</title><g id="Layer_2" data-name="Layer 2"><g id="Layer_1-2" data-name="Layer 1"><path class="cls-1" d="M38.56,105.07v.18c0,3.77-.09,3.85-4,3.92-5.54.1-8.5-3.68-6.95-8.89a5.7,5.7,0,0,1,4.29-4.12,12.71,12.71,0,0,1,5.14,0c1.31.18,1.12,1,1,1.81-.19,1.07-.87.38-1.35.29-2.13-.37-4.24-.51-5.69,1.48a4.73,4.73,0,0,0-.23,5.39A4.31,4.31,0,0,0,35.21,107c1.42-.42.52-1.6.71-2.42s-.45-1-1.09-.89c-1.11.13-1.76-.19-1.5-1.45,0-.06,0-.15,0-.17,1.33-1.15,2.91-.25,4.36-.5.91-.15.86.57.85,1.17Z"></path><path class="cls-1" d="M95.68,104.14c0-1.07,0-2.14,0-3.21,0-1.34,1.19-2.17,2.1-1.33.64.59.77.46,1.37.11a3,3,0,0,1,3.81.22c.54.49.8.5,1.42.07,2.64-1.82,5-.69,5.21,2.47.12,1.78,0,3.58.09,5.36.06,1.11-.6,1-1.36,1.09-.92,0-1.28-.23-1.23-1.2.07-1.54,0-3.09,0-4.64,0-.86-.1-1.73-1.25-1.83s-1.46.65-1.69,1.5c-.43,1.52-.14,3.08-.2,4.62,0,.83.17,1.59-1.2,1.58s-1.39-.68-1.36-1.67c0-1.49,0-3,0-4.47,0-.74-.2-1.45-1.13-1.55a1.5,1.5,0,0,0-1.71,1.24,17.18,17.18,0,0,0-.25,5.16c0,1.09-.44,1.27-1.38,1.26s-1.3-.23-1.24-1.2C95.73,106.53,95.68,105.34,95.68,104.14Z"></path><path class="cls-1" d="M71.3,118.22c3.87-2.18,6.2-.83,6.21,3.35,0,1.31-.06,2.63,0,3.93.07,1.08-.26,1.46-1.38,1.44s-1.32-.39-1.27-1.37c.08-1.42,0-2.85,0-4.28,0-1-.17-2-1.42-2.09a1.91,1.91,0,0,0-2,1.68,18.8,18.8,0,0,0-.17,4.62c0,.84,0,1.47-1.16,1.44s-1.46-.25-1.44-1.39c.08-3.75.07-7.51,0-11.25,0-1.06.35-1.27,1.31-1.28s1.36.25,1.28,1.27C71.23,115.54,71.3,116.79,71.3,118.22Z"></path><path class="cls-1" d="M31,113.81c.76.45,2.63-.73,2.5,1.56,0,.76-.24,1.1-1.06.84a3.72,3.72,0,0,0-2.28-.2c-.71.24-1.31.59-1.37,1.45s.5,1.17,1.11,1.45c.76.35,1.54.64,2.3,1a3.69,3.69,0,0,1-.55,6.92,9.8,9.8,0,0,1-4.41.07c-1.37-.21-1-1.09-.86-1.86.18-1.11.83-.4,1.32-.28.23,0,.46.1.7.13,1.23.19,2.63.26,3.05-1.1s-1-1.77-2-2.19c-2.67-1.14-3.58-2.21-3.42-4.17C26.16,115,27.84,113.78,31,113.81Z"></path><path class="cls-1" d="M109.18,122.19c0,1.13,0,2.26,0,3.39,0,.44.26,1.09-.36,1.23s-1.79.18-1.86,0c-.38-1.15-.81-.45-1.31-.18-2.68,1.44-5.14.05-5.23-3-.06-1.73,0-3.46,0-5.18-.06-1.12.56-1.07,1.33-1.08s1.37,0,1.31,1.1c-.08,1.55,0,3.1,0,4.65,0,.94.26,1.92,1.35,2a2,2,0,0,0,2-1.64,16.58,16.58,0,0,0,.23-5c0-1,.39-1.18,1.26-1.14s1.4,0,1.32,1.09S109.18,120.94,109.18,122.19Z"></path><path class="cls-1" d="M83.56,104.17c0-1.07,0-2.14,0-3.21,0-1.43,1-2.16,2.09-1.33.63.48.83.34,1.35.08,2.72-1.36,5-.21,5.26,2.78.18,1.77,0,3.57.13,5.35,0,1.1-.62,1-1.38,1.08-1,.08-1.23-.28-1.2-1.2,0-1.48,0-3,0-4.46-.06-1-.22-2-1.54-2a1.9,1.9,0,0,0-1.93,1.95,29,29,0,0,0-.08,4.27c0,1.08-.27,1.47-1.39,1.45s-1.35-.38-1.29-1.37S83.56,105.3,83.56,104.17Z"></path><path class="cls-1" d="M57.72,122.15c0,1.13,0,2.27,0,3.4s-1.26,2.06-2,1.19-1.13-.3-1.67,0c-2.47,1.16-4.68.07-5-2.62-.21-1.94-.09-3.92-.14-5.88,0-1.15.79-.79,1.36-.82s1.33-.17,1.28.91c-.06,1.61,0,3.22,0,4.83,0,1,.29,1.87,1.36,2s1.75-.61,2-1.64a17.87,17.87,0,0,0,.18-4.79c0-.93.13-1.36,1.23-1.36s1.45.36,1.36,1.44S57.72,121,57.72,122.15Z"></path><path class="cls-1" d="M123.62,104.22c0-1.07,0-2.14,0-3.21,0-1.47,1.11-2.28,2.19-1.37.73.61,1,.21,1.41,0,2.81-1.28,5.06.07,5.17,3.15.06,1.66,0,3.33,0,5,.05,1-.49,1.12-1.32,1.14s-1.29-.2-1.23-1.18c.07-1.36.06-2.73,0-4.1-.05-1,0-2.3-1.53-2.37s-1.92,1-2,2.23a31,31,0,0,0-.08,4.09c0,1-.29,1.34-1.31,1.34s-1.39-.29-1.32-1.32S123.62,105.35,123.62,104.22Z"></path><path class="cls-1" d="M16.7,112.83c.43.32,1.48-.29,1.54.86,0,.81,0,1.48-1.24,1.28-1-.16-.95.8-1,1.52-.08.93.51.92,1.14.87s1,.11,1,.86-.24,1.13-1,1c-1.07-.14-1.11.52-1.1,1.32,0,1.72,0,3.45,0,5.17,0,1-.36,1.2-1.25,1.19s-1.45-.08-1.39-1.23c.1-1.72,0-3.45,0-5.17,0-.82-.05-1.42-1.11-1.29-.83.09-.74-.53-.77-1.07s.27-.88.84-.8c1.15.18,1-.57,1-1.31Q13.56,112.81,16.7,112.83Z"></path><path class="cls-1" d="M57.27,106.16c.72-2.16,1.39-3.81,1.81-5.52.36-1.49,1.38-1.21,2.35-1.15.68,0,.46.51.32.91-.93,2.51-1.9,5-2.74,7.53-.38,1.13-1.19.91-2,1a1.44,1.44,0,0,1-1.75-1.06c-.8-2.3-1.7-4.56-2.48-6.87-.15-.43-.95-1.23,0-1.42s2-.74,2.52.78C55.84,102.15,56.5,103.93,57.27,106.16Z"></path><path class="cls-1" d="M114,127.11a11.22,11.22,0,0,1-1.68-.32c-.82-.27-.46-1-.39-1.53s.59-.43,1-.34.8.25,1.21.3c.75.08,1.55,0,1.78-.84.29-1-.62-1.12-1.26-1.39-.38-.15-.79-.24-1.18-.39a2.35,2.35,0,0,1-1.69-2.44,2.63,2.63,0,0,1,1.75-2.64,7.21,7.21,0,0,1,4-.16c.81.13.6.73.6,1.24,0,.66-.34.82-.93.65a4.84,4.84,0,0,0-1-.19c-.67,0-1.45,0-1.63.75s.61,1,1.23,1.18c1.41.5,2.87.94,2.87,2.9C118.61,126,117.12,127.17,114,127.11Z"></path><path class="cls-1" d="M136.15,104.28c0-.65,0-1.31,0-2s0-1.1-.84-1c-.63.06-1-.12-1-.87s.22-1,.92-1,1-.27.91-.95c-.15-1,.58-1.11,1.26-1.37.86-.34,1.41-.35,1.26.8s.18,1.71,1.44,1.53c.61-.09.79.31.81.89s-.22,1-.93.94c-1.2-.19-1.41.44-1.33,1.45s0,1.78,0,2.68.26,1.83,1.54,1.66c.84-.11.82.44.84,1s-.18.93-.88,1c-2.44.41-3.93-.75-4-3.25C136.13,105.36,136.15,104.82,136.15,104.28Z"></path><path class="cls-1" d="M122,122.24c0-.59,0-1.19,0-1.78.06-.77-.09-1.3-1-1.22s-.8-.46-.82-1,.2-.87.82-.83,1.15,0,1-.81c-.19-1.08.59-1.22,1.32-1.52,1-.39,1.33-.06,1.2.92s.08,1.63,1.29,1.43c.67-.12,1,.18.93.89s-.18,1.08-.89,1c-1.41-.23-1.37.66-1.33,1.62s0,1.9,0,2.85.43,1.58,1.42,1.37c.64-.13.87-.09.82.58s.26,1.15-.62,1.41A3.09,3.09,0,0,1,122,124.2C122,123.55,122,122.9,122,122.24Z"></path><path class="cls-1" d="M64.15,114.74c.07,1.44-.43,3.05,1.81,2.69.55-.08.37.61.41,1,.06.62-.27.91-.85.82-1.39-.22-1.39.63-1.34,1.61s0,1.91,0,2.85.45,1.6,1.45,1.39c.73-.16.95,0,.94.7s0,1.12-.83,1.3a3.08,3.08,0,0,1-4.06-2.8,36.77,36.77,0,0,1-.07-3.93c0-.69-.1-1.2-.94-1.11s-.85-.36-.87-1,.2-1,.91-.92c.4,0,.94.08.88-.57C61.43,114.91,63,115.22,64.15,114.74Z"></path><path class="cls-1" d="M150.41,120c0,1.9,0,3.81,0,5.71,0,.84-.1,1.35-1.13,1.27-.82-.07-1.48,0-1.46-1.18.07-3.86.08-7.72,0-11.58,0-1.25.66-1.07,1.45-1.14,1-.1,1.17.35,1.14,1.22C150.37,116.15,150.41,118.05,150.41,120Z"></path><path class="cls-1" d="M131.76,118.42a6.82,6.82,0,0,1,1.21-1c.45-.25,1.09-.51,1.49-.08s.19,1.25.18,1.89c0,.87-.68.4-1.06.43a1.82,1.82,0,0,0-1.78,1.87,35.86,35.86,0,0,0-.16,4.27c0,1-.45,1.16-1.29,1.15s-1.34-.09-1.3-1.14a55.89,55.89,0,0,0,0-6.6c-.14-1.72.54-2.07,2-1.77C131.52,117.57,130.82,118.59,131.76,118.42Z"></path><path class="cls-1" d="M75.44,104.24c0-1.19,0-2.38,0-3.57,0-.44-.19-1.06.49-1.16.51-.07,1.44-.09,1.51.1.55,1.57,1,.28,1.49,0a1.78,1.78,0,0,1,1.84-.29c.58.35.22,1.1.28,1.67s-.18.71-.74.67c-1.79-.12-2.19,1.11-2.27,2.52a29.49,29.49,0,0,0,0,3.39c.06,1-.23,1.38-1.28,1.35s-1.42-.25-1.34-1.3S75.44,105.37,75.44,104.24Z"></path><path class="cls-1" d="M153.63,122.12c0-1,0-2,0-3s-.17-1.78,1.36-1.79,1.26.83,1.26,1.7v6.24c0,.88.23,1.72-1.26,1.72s-1.38-.84-1.35-1.81S153.63,123.13,153.63,122.12Z"></path><path class="cls-1" d="M156.23,114.58c.25,1.12-.37,1.27-1.3,1.29s-1.35-.22-1.35-1.29.42-1.26,1.36-1.26S156.48,113.47,156.23,114.58Z"></path><path class="cls-1" d="M131.76,118.42c-.13.46-.36.79-.66.16a3,3,0,0,1-.07-1.16C131.76,117.4,131.22,118.3,131.76,118.42Z"></path><path class="cls-1" d="M167.26,122c0-4.1-1.43-5.24-5.56-4.66-1.64.23-2.19.92-1.65,2.71,1.32-.73,2.56-1.32,4-.72a1.24,1.24,0,0,1,.85,1.25c-.08.71-.75.38-1.17.43-.58.08-1.18.06-1.77.14a3.15,3.15,0,0,0-3,2.34,2.58,2.58,0,0,0,.9,2.88,3.52,3.52,0,0,0,4.18.27c.59-.34.77-.5,1.4.13.82.82,2,0,1.95-1.19S167.26,123.15,167.26,122Zm-2.37,1.26a2.15,2.15,0,0,1-2.14,2c-.82,0-1.56-.36-1.46-1.2.17-1.39,1.38-1.42,2.43-1.51C164.24,122.61,165,122.34,164.89,123.22Z"></path><path class="cls-1" d="M93.85,115.26a1.73,1.73,0,0,0-2-1.26c-1,0-1.61.15-2,1.23-1.21,3.34-2.58,6.62-3.83,10-.18.49-.9,1.18-.27,1.56a3.21,3.21,0,0,0,2.07.09c.66-.13.7-.9.85-1.44a1.63,1.63,0,0,1,2-1.41,6.24,6.24,0,0,0,1.78,0A1.88,1.88,0,0,1,95,125.73c.16,1,.82,1.36,1.85,1.13,1.54.36,1.46-.32,1-1.5C96.43,122,95.09,118.65,93.85,115.26Zm-2,6.72c-1.53,0-2-.37-1.24-1.78.47-.93.52-2,1.32-3.08A31.68,31.68,0,0,0,93,120.21C93.73,121.64,93.32,122,91.81,122Z"></path><path class="cls-1" d="M45.8,99.19a4.65,4.65,0,0,0-4.89,5c0,3,1.83,5,4.78,5a4.8,4.8,0,0,0,5.17-4.92A4.86,4.86,0,0,0,45.8,99.19Zm.06,7.92c-1.52,0-2.36-1.1-2.32-3.12,0-1.7.94-2.76,2.35-2.74s2.25,1.15,2.24,2.85C48.13,106,47.3,107.08,45.86,107.11Z"></path><path class="cls-1" d="M41.56,117.16a4.74,4.74,0,0,0-5.08,5,4.65,4.65,0,0,0,4.85,5,5,5,0,1,0,.23-10Zm-.06,8c-1.33,0-2.43-1.43-2.4-3.21a2.6,2.6,0,0,1,2.39-2.81c1.33,0,2.26,1.22,2.26,2.9S42.84,125.12,41.5,125.17Z"></path><path class="cls-1" d="M5.07,117.16a4.76,4.76,0,0,0-5.07,5,4.67,4.67,0,0,0,4.87,5,5,5,0,1,0,.2-10Zm-.15,8c-1.33,0-2.27-1.33-2.27-3.12,0-1.63,1-2.86,2.29-2.88s2.32,1.16,2.33,2.81C7.29,123.88,6.32,125.2,4.92,125.16Z"></path><path class="cls-1" d="M116.88,99.2a4.35,4.35,0,0,0-4.72,4.3c-.35,4.08,2.26,6.32,6.43,5.58,1.49-.26,2.27-.93,1.66-2.56a19.49,19.49,0,0,1-2.4.66,2.71,2.71,0,0,1-2.76-.88c-.23-.3-.58-.68-.35-1.12s.64-.2,1-.21c1.43,0,2.87,0,4.3,0,.69,0,1.08-.12,1.1-1C121.13,101.21,119.51,99.33,116.88,99.2Zm1,4c-1,0-2.09,0-3.2,0,.23-1.2.72-1.9,1.84-2a1.74,1.74,0,0,1,1.89,1C118.64,102.72,118.71,103.19,117.83,103.18Z"></path><path class="cls-1" d="M69.38,99.28a4.24,4.24,0,0,0-5.27,3.08c-1.32,4.27,1.35,7.33,5.88,6.75,1.52-.19,2.54-.7,1.93-2.66a8.44,8.44,0,0,1-2.93.78,2.44,2.44,0,0,1-2.08-.83,1.73,1.73,0,0,1-.47-1.1c.09-.53.68-.32,1.06-.33,1.44,0,2.87,0,4.3,0,.63,0,1-.15,1-.88A4.5,4.5,0,0,0,69.38,99.28Zm.81,3.46c-.1.76-.86.41-1.32.41a5.88,5.88,0,0,1-2.49-.16,1.94,1.94,0,0,1,2.73-1.7A1.35,1.35,0,0,1,70.19,102.74Z"></path><path class="cls-1" d="M144.7,120.56a3,3,0,0,0-1.82-3,7.39,7.39,0,0,0-3.68-.26c-1.63.18-2.2.91-1.68,2.53a16,16,0,0,1,2.5-.74c1-.13,2.15,0,2.2,1.23s-1.14.56-1.75.64c-1.62.22-3.26.32-4,2.13a2.6,2.6,0,0,0,.6,3.12,3.64,3.64,0,0,0,4.17.52c.52-.23.84-1,1.64,0s2,0,1.94-1.2C144.8,123.89,144.76,122.23,144.7,120.56Zm-2.38,2.68a2.1,2.1,0,0,1-2.13,2c-.79,0-1.57-.38-1.47-1.18.18-1.32,1.37-1.44,2.37-1.52C141.68,122.6,142.43,122.38,142.32,123.24Z"></path><path class="cls-1" d="M83.39,84.34c-17.76-.88-30.81-9-38.45-25.31a56.24,56.24,0,0,1-2.59-7.74c-.45-1.47-.29-1.6,1.26-1.84.73-.11,1.45-.27,2.18-.4s.89.12,1,.72A36.84,36.84,0,0,0,59.48,70.93a34.73,34.73,0,0,0,16.39,7.9c15.27,2.76,27.82-2,37.52-14.06a34.51,34.51,0,0,0,6.82-14.94c.13-.64.4-.91,1.05-.78l2.93.53c.9.16.68.81.56,1.35a42.5,42.5,0,0,1-3.2,9.37,41.81,41.81,0,0,1-22.48,21A40.79,40.79,0,0,1,83.39,84.34Z"></path><path class="cls-1" d="M123.11,27.17c-.25.08-.5.15-.74.24l-3.07,1.14c-.62.24-.84-.11-1-.62A36.76,36.76,0,0,0,109.38,15,35.72,35.72,0,0,0,91,5.44c-14.63-2.66-26.81,1.78-36.52,13a32.9,32.9,0,0,0-5.63,9.38c-.32.79-.68,1-1.44.61A21.63,21.63,0,0,0,45,27.5c-.7-.21-.83-.5-.54-1.19a42.09,42.09,0,0,1,7.87-12.49A41.17,41.17,0,0,1,73.05,1.31,42,42,0,0,1,120.2,21.46c.91,1.58,1.6,3.28,2.39,4.93.07.15.13.3.2.44Z"></path><path class="cls-1" d="M83.29,19.25c13.39-.25,23,11.13,23.18,22.12A23.09,23.09,0,0,1,83.34,65.11c-13.7.06-23.28-11.47-23.19-23.31C60.23,30.48,70,18.88,83.29,19.25Zm.13,45.35c11.8.3,22.61-9.65,22.63-22.8,0-11.79-10.55-22-22.14-22.2A22.89,22.89,0,0,0,60.58,41.86C60.56,53.71,70.34,65,83.42,64.6Z"></path><path class="cls-1" d="M102.92,24.47c1.4-.14,2-1.5,2.93-2.39.09-.09,0-.51-.15-.67a12.55,12.55,0,0,0-1.63-1.63,1,1,0,0,0-.94,0,13,13,0,0,0-1.76,1.79,4,4,0,0,0-.4,1.16l-1.64-2A6,6,0,0,0,100.6,20q1.92-1.83,3.73-3.77A6,6,0,0,0,105,15l1.83,1.83a4.43,4.43,0,0,0-2.67,2.11.77.77,0,0,0,.2.58q.8.86,1.65,1.62c.13.12.5.2.58.12.82-.82,2.23-1.22,2-2.86l1.83,2a9.31,9.31,0,0,0-1.44.95c-1.27,1.23-2.51,2.5-3.71,3.79a5.32,5.32,0,0,0-.65,1.19Z"></path><path class="cls-1" d="M86.37,72l2.85,4c-1.14.58-1.72.41-2.37-.68a15.57,15.57,0,0,0-1.42-2.17c-.26-.31-.81-.39-1.23-.57A4.49,4.49,0,0,0,84,73.69c0,1.89,0,1.89.89,2.68H82a8.68,8.68,0,0,0,.31-1.69c0-1.67-.08-3.35-.19-5a11.26,11.26,0,0,0-.41-1.78,41.63,41.63,0,0,1,4.46,0,2,2,0,0,1,2,1.8c.12,1.14-.6,1.68-1.48,2.11ZM83.82,70a9.21,9.21,0,0,1,0,1.05c0,.8.35,1,1.07.9,1.19-.15,1.79-1.4,1.29-2.76-.22-.61-1.3-1.31-1.85-1-.33.19-.4.85-.56,1.32A1.3,1.3,0,0,0,83.82,70Z"></path><path class="cls-1" d="M70.12,10.05a4.5,4.5,0,0,1,4.72,4.52,4.82,4.82,0,0,1-4.67,4.7,4.61,4.61,0,1,1,0-9.22Zm3.32,5.54A6.67,6.67,0,0,0,71,11.13a2.52,2.52,0,0,0-4,1.69A6.49,6.49,0,0,0,69.21,18a2.33,2.33,0,0,0,2.69.38A2.68,2.68,0,0,0,73.44,15.59Z"></path><path class="cls-1" d="M59.58,16.76l1.89,1.58-.12.21c-.56-.16-1.13-.33-1.7-.47a1.86,1.86,0,0,0-2.12.76,1.8,1.8,0,0,0-.16,1.48,1.74,1.74,0,0,0,1.24.66A3.52,3.52,0,0,0,60,20.65c.61-.2,1.2-.47,1.82-.65a2.34,2.34,0,0,1,2.75.81,2.67,2.67,0,0,1,0,3.23,9.54,9.54,0,0,1-1.38,1.31c-.38.33-.78.63-1.31,1l-2.26-2.08.13-.18c.71.26,1.39.57,2.11.76a2,2,0,0,0,2.31-1c.37-.54.58-1.19,0-1.66a2.26,2.26,0,0,0-1.54-.66,23.25,23.25,0,0,0-3.1,1,2.16,2.16,0,0,1-3-2.13,2.87,2.87,0,0,1,1.56-2.68C58.58,17.52,59,17.17,59.58,16.76Z"></path><path class="cls-1" d="M78,70.1a23,23,0,0,0-1.4-2.36c-.56-.7-.9-.59-1.2.22-.63,1.75-1.28,3.49-1.89,5.25-.2.57-.7,1.19.39,1.72l-.36.16-2.65-.9a21.75,21.75,0,0,0,1.31-2.31c.57-1.39,1-2.83,1.55-4.24.38-1.07.09-1.43-1-1.12-.78.21-1.48.66-2.4.9a22.77,22.77,0,0,1,1.27-1.92c.1-.13.52-.08.75,0,1.76.57,3.51,1.2,5.28,1.77.56.18.81.45.69,1S78.14,69.42,78,70.1Z"></path><path class="cls-1" d="M99,13.58a18.19,18.19,0,0,0-1.15-2.3c-.53-.76-.91-.71-1.27.13C95.74,13.27,95,15.14,94.27,17a4.31,4.31,0,0,0,.13,1.53l-2.83-1.2c.93-.21,1.16-.88,1.43-1.58.62-1.65,1.29-3.28,1.94-4.92.35-.88.08-1.29-.84-1.08s-1.53.58-2.5.78c.42-.63.83-1.27,1.3-1.86.07-.09.42,0,.61,0,1.61.63,3.19,1.35,4.84,1.88,1,.33,1.23.87,1,1.78C99.22,12.75,99.1,13.1,99,13.58Z"></path><path class="cls-1" d="M66.93,65.52c.08-.35.15-.7.25-1a2.12,2.12,0,0,0-1-2.71,1.62,1.62,0,0,0-1.3,0,1.56,1.56,0,0,0-.59,1.25,13.14,13.14,0,0,0,1,2.49c.81,1.8.4,3.13-1.22,3.82a2.42,2.42,0,0,1-2.69-.45c-.78-.7-1.48-1.49-2.31-2.34l1.87-2.16.24.14c-.11.3-.21.6-.33.9-.57,1.43-.31,2.56.75,3.24a1.37,1.37,0,0,0,1.85-.06A2.13,2.13,0,0,0,63.94,67,9.86,9.86,0,0,0,63,64.73c-.7-1.49-.56-2.53.48-3.25a2.78,2.78,0,0,1,3.66.54,18.58,18.58,0,0,1,1.21,1.45.48.48,0,0,1,.06.43c-.39.6-.82,1.17-1.24,1.75Z"></path><path class="cls-1" d="M117.57,47.52l-.13,2.63c-2.45-2.53-5.57-3.4-8.44-4.71l.11-.37,9.11-3-.32,2.53c-.74-.51-2.71-.38-2.92.27a4.37,4.37,0,0,0-.13,2.71C115.2,48.45,116.46,48.39,117.57,47.52Zm-3.6-.35a12.54,12.54,0,0,0,.29-1.52c0-.14-.27-.46-.34-.44-.68.2-1.34.46-2,.7.41.3.81.62,1.23.9A5,5,0,0,0,114,47.17Z"></path><path class="cls-1" d="M109,61.15c.5.69,1,1.36,1.48,2.07a.66.66,0,0,1-.09.6c-1.33,1.43-2.68,2.83-3.92,4.13a14.43,14.43,0,0,0-1.24-1.65q-1.78-1.77-3.65-3.44a8.24,8.24,0,0,0-1.4-.8l1.77-1.53a9.6,9.6,0,0,0,1,1.35c1.26,1.24,2.59,2.4,3.86,3.63.66.64,1.14.52,1.66-.15a3.2,3.2,0,0,0,.65-2.72c-.09-.46-.21-.91-.32-1.37Z"></path><path class="cls-1" d="M96.35,74l-1.91.87.35-4.22,2-.66.08-.35-2.07-1.8-.14,1.6-.1,0-.69-3.79.41-.26c1.2,1,2.39,2,3.6,3s2.41,2,3.76,3.09L99.2,72.68c.12-.85-.87-2.4-1.64-2.33a4.93,4.93,0,0,0-2.43,1.07C94.6,71.85,95.2,73,96.35,74Z"></path><path class="cls-1" d="M78.91,7.5h2.41A14.51,14.51,0,0,0,81,9.58c0,1.34.19,2.69.11,4s1.12,2.36,2.7,2.28a2.34,2.34,0,0,0,1.89-2.6,6.34,6.34,0,0,1,.11-1.68c.33,1.3.52,2.67-.35,3.77s-2.42,1.07-3.75.8a2.54,2.54,0,0,1-2.27-2.78c-.06-1.38,0-2.76-.14-4.14A12.09,12.09,0,0,0,78.91,7.5Z"></path><path class="cls-1" d="M58,59.47a3.26,3.26,0,0,1-3.48,1.14,3.57,3.57,0,0,1-2.26-3c-.34-1.62.06-2.31,1.53-3.14,1.23-.69,2.49-1.34,3.69-2.07a9.29,9.29,0,0,0,1.28-1.21L60,53.3a19.38,19.38,0,0,0-2.18.8c-1.2.61-2.37,1.29-3.53,2a2,2,0,0,0-1.07,2.67c.49,1.34,1.19,1.8,2.56,1.52A16.67,16.67,0,0,0,58,59.49Z"></path><path class="cls-1" d="M51.15,43.26c1.81.3,3.62.59,5.42.93a4.79,4.79,0,0,1,1.1.6l-8.42,5L49,47.22c1.13.6,1.84-.12,2.56-.61.54-.37.45-2.39,0-2.94-.13-.14-.24-.29-.35-.43Zm3.59,1.54-.09-.36A10.61,10.61,0,0,0,52.83,44c-.83-.06-.54.65-.49,1s.5.7.61.65A13.68,13.68,0,0,0,54.74,44.8Z"></path><path class="cls-1" d="M115.24,55.67l-1.09,2.43c-.84-1.24-6.6-3.93-8-3.69l1-2.29a24.85,24.85,0,0,0,2.15,1.31q2.07,1,4.2,1.9A8.92,8.92,0,0,0,115.24,55.67Z"></path><path class="cls-1" d="M119.56,30.92c-.13-.15-.37-.31-.42-.51s.07-.58.2-.63c1.19-.4,2.38-.76,3.59-1.07.17,0,.5.23.61.44s-.07.57-.2.61C122.13,30.17,120.9,30.52,119.56,30.92Z"></path><path class="cls-1" d="M48.11,30.29c-.53.26-.85.57-1.08.52a29.84,29.84,0,0,1-3.22-1c-.22-.08-.3-.5-.45-.77.25-.12.53-.38.74-.33,1.06.26,2.1.58,3.14.91A5,5,0,0,1,48.11,30.29Z"></path><path class="cls-1" d="M123.19,41.15a11.14,11.14,0,0,1-1.53,0c-.25,0-.45-.32-.68-.49.18-.22.35-.61.56-.63,1.14-.1,2.29-.14,3.44-.13.2,0,.47.36.53.6s-.3.48-.5.5a15.76,15.76,0,0,1-1.82,0Z"></path><path class="cls-1" d="M44.66,39.41c-.81-.09-1.65-.13-2.46-.3-.27,0-.47-.41-.71-.64.29-.17.59-.49.88-.48a26,26,0,0,1,3.05.3c.23,0,.41.35.62.53a3.78,3.78,0,0,1-.7.58C45.16,39.49,44.9,39.41,44.66,39.41Z"></path><path class="cls-1" d="M123.22,43a12.62,12.62,0,0,1-1.63,0c-.21,0-.56-.37-.53-.49s.32-.61.51-.62c1.18-.06,2.36-.06,3.54,0a.57.57,0,0,1,0,1.11,17.39,17.39,0,0,1-1.91,0Z"></path><path class="cls-1" d="M121.17,37.69c-.11-.1-.52-.31-.49-.46s.31-.66.54-.7a27.16,27.16,0,0,1,3.25-.37c.22,0,.47.3.7.47-.18.22-.34.59-.55.63C123.55,37.44,122.46,37.54,121.17,37.69Z"></path><path class="cls-1" d="M46.68,32.56c-1.28-.32-2.44-.59-3.58-.92a.65.65,0,0,1-.31-.57c.09-.22.41-.53.57-.5,1.22.25,2.44.56,3.64.9.13,0,.27.47.2.64S46.83,32.44,46.68,32.56Z"></path><path class="cls-1" d="M43.61,41A11.07,11.07,0,0,1,42,41c-.22,0-.39-.36-.59-.56.2-.19.4-.54.6-.55a32.5,32.5,0,0,1,3.27.13c.23,0,.42.37.63.57-.24.2-.47.52-.74.56a8.9,8.9,0,0,1-1.54-.06Z"></path><path class="cls-1" d="M46.28,34.22C45,34,44,33.82,42.9,33.55c-.24-.06-.39-.46-.59-.7.25-.14.52-.43.74-.4a33.32,33.32,0,0,1,3.28.64.8.8,0,0,1,.44.66C46.75,34,46.39,34.12,46.28,34.22Z"></path><path class="cls-1" d="M46,36c-1.29-.2-2.34-.32-3.37-.55-.23-.05-.39-.47-.57-.72.27-.14.56-.42.82-.39a25.7,25.7,0,0,1,3,.5.92.92,0,0,1,.58.65C46.47,35.65,46.08,35.87,46,36Z"></path><path class="cls-1" d="M120.86,36c-.11-.13-.43-.35-.46-.6s.33-.51.56-.56c1-.22,2.08-.39,3.13-.51.23,0,.49.23.74.36-.17.26-.3.7-.52.75C123.25,35.64,122.17,35.77,120.86,36Z"></path><path class="cls-1" d="M42.26,36.13c1.28.13,2.28.19,3.25.37.27,0,.48.46.71.7-.3.15-.61.43-.9.41a21.13,21.13,0,0,1-3-.34.91.91,0,0,1-.55-.68C41.8,36.4,42.2,36.19,42.26,36.13Z"></path><path class="cls-1" d="M120.22,32.56c-.16-.14-.51-.31-.53-.52a.86.86,0,0,1,.45-.67,26.65,26.65,0,0,1,3-.76c.27,0,.59.26.88.4-.21.24-.38.63-.65.71C122.42,32,121.4,32.26,120.22,32.56Z"></path><path class="cls-1" d="M43.6,43a9.84,9.84,0,0,1-1.63,0c-.25,0-.46-.37-.69-.57.21-.19.41-.54.63-.55a29.73,29.73,0,0,1,3.27,0c.22,0,.42.41.63.64-.22.17-.43.45-.67.49A11.27,11.27,0,0,1,43.6,43Z"></path><path class="cls-1" d="M122.14,39.41a2.17,2.17,0,0,1-.73,0c-.21-.1-.48-.34-.49-.52a.74.74,0,0,1,.42-.58c1.1-.15,2.22-.27,3.34-.31.23,0,.47.38.7.58-.21.19-.4.51-.64.55C123.86,39.27,123,39.33,122.14,39.41Z"></path><path class="cls-1" d="M120.56,34.23c-.1-.09-.38-.24-.39-.4s.13-.65.28-.69c1.18-.29,2.38-.52,3.58-.71.13,0,.47.29.46.44s-.2.61-.38.65C123,33.79,121.85,34,120.56,34.23Z"></path><path class="cls-1" d="M58,59.49A21.43,21.43,0,0,1,59.9,58.2c.79-.46,1.43-1,1.32-2l.26-.08,1.26,2.13-.1.24c-1.35-.76-2.33.09-3.39.61a9,9,0,0,1-1.24.4Z"></path><path class="cls-1" d="M85.78,10.22l-1-2.75h2Z"></path><path class="cls-1" d="M51.17,43.24c-.81.12-1.79-.21-2.22.92l-.26-.06-.37-2.42,2.82,1.58Z"></path><path class="cls-1" d="M79.75,38.43l1.48-.18-1-1c.28-.07.47-.18.62-.14a8.16,8.16,0,0,1,4.39,2.21A4.76,4.76,0,0,1,86,40.84c.4,1.09,1.52,1.42,2.18.46a10.6,10.6,0,0,0,1.43-3.2,21.57,21.57,0,0,0,.78-4.7c.07-2.18-.15-4.37-.24-6.55,0-.49-.05-.92.6-1.14.25-.08.3-.69.47-1.05s.33-.48.49-.73c.23.24.61.44.67.71a18.26,18.26,0,0,1,.19,2.19L94,25l.27.15a6.15,6.15,0,0,1-.7,3.9l.25.12c.25-.29.49-.58.75-.86A19.18,19.18,0,0,1,96,26.86c.15-.13.59-.21.68-.11a.84.84,0,0,1,.18.75c-.35.78-.78,1.52-1.27,2.45,1.2-.55,2-1.73,3.53-1.69L97.57,31.2l2.89-.86.24.42-1.82,1.78,2.52-.2.13.28-.91,1.26,1.68.43L101.75,36l.13,0c1.13.52,1.11.51.42,1.6-.09.14,0,.5.15.67s.43.27.63.42c.76.55.77.83,0,1.31-.61.35-.84.66-.18,1.19.45.37.24.7-.19.87-.75.31-1.23.6-.64,1.52.37.58-.07.88-.68.88s-1,.21-.7.95-.23.77-.72.82-1.12.18-1.23,1c0,.21-.35.4-.58.55a11.8,11.8,0,0,1-1.18.7,7.31,7.31,0,0,1-.78.29L95,49.19l-.75.3c-.3.13-.61.25-.91.39-.14.07-.23.26-.37.28a24.36,24.36,0,0,1-3.16.48c-1.89.07-1.9,0-2.6-1.94a1.39,1.39,0,0,0-.16-.35.9.9,0,0,0-.2-.19,2.29,2.29,0,0,0,0,3.18s.1.08.14.13c1.35,1.82,3.3,2.39,5.42,2.64.29,0,.55.4.82.62-.26.31-.47.82-.79.89-1.22.28-2.47.41-3.77.61a1.8,1.8,0,0,0,.17.42c.73,1.21.67,1.21-.21,2.22-1,1.17-2.54,1.39-3.83,2-.38.19-1.07-.06-1.54.36,0,0-.19,0-.28,0-1.31-.48-2.63-.94-3.92-1.48a5.37,5.37,0,0,1-1.33-.92c-.94-.81-.76-1.72.06-2.72l-3.47-.21c-.26,0-.57,0-.75-.1s-.74-.57-.73-.84a1.21,1.21,0,0,1,.76-.83c.86-.21,1.78-.2,2.64-.39a6.13,6.13,0,0,0,1.9-.75,9.59,9.59,0,0,0,1.39-1.32c1-1,1.13-2.34.09-3.74-.1.51-.19.89-.24,1.27-.1.68-.36,1.1-1.17,1.13s-1.39.5-2-.17c-.06-.05-.33,0-.43.11-.43.4-.72.15-1.17-.06a14.2,14.2,0,0,0-2.46-.7c-.09,0-.21,0-.28,0-.74-.45-1.46-.94-2.22-1.35a2.15,2.15,0,0,0-1.06-.22c-.63,0-1-.11-.86-.86.11-.49-.05-.73-.57-.73-.72,0-1.1-.33-.93-1.1.12-.57-.21-.74-.7-.77-.79-.07-1.24-.34-.86-1.24a.76.76,0,0,0-.26-.63c-1-.75-1-.74-.15-1.66a1.66,1.66,0,0,0,.23-.31c0-.05,0-.12.07-.24a3.76,3.76,0,0,0-.28-.32c-.93-.87-.94-.87,0-1.74.31-.29.55-.49.18-.94-.86-1-.84-1.06.3-1.71a4.08,4.08,0,0,0,.34-.25l-.65-1.25,2.09-.47c-1-1.82-1-1.82.87-1.78a6.46,6.46,0,0,1-.37-.76c-.11-.37-.17-.77-.25-1.15a5.52,5.52,0,0,1,1.23.16c.55.21,1.06.54,1.76.9-.23-1.11-1.5-1.53-1.14-2.9L71.82,30c-.09-1.25-1.37-2.18-.91-3.89l2.56,2.78c-.26-1.5-.89-2.73-.27-4.19,1.19.72,1.21,2,1.65,3.07,1-1.32-.37-3.12,1.29-4.44L76.62,26c.93-.25,1.11.43,1.06,1.12a29.06,29.06,0,0,1-.57,4.76,10,10,0,0,0,.38,6A15.25,15.25,0,0,0,79,41c.57.85,1.44.51,2.15.73.11,0,.49-.45.57-.74.22-.78-.22-1.26-.85-1.66A11.7,11.7,0,0,1,79.75,38.43Zm4.59,1.31a2.92,2.92,0,0,1-2.57,2.74c-.15,0-.32.36-.38.57-.29,1.15-.55,2.3-.81,3.45a2.63,2.63,0,0,0,.33,2.35,8.21,8.21,0,0,1,.77,2.6,9.74,9.74,0,0,0,.51,1.89c.67,1.3,1.31,1.3,2,0A18.38,18.38,0,0,0,85,51c.33-1,.71-2,1-3a1.34,1.34,0,0,0,0-.84,9.73,9.73,0,0,1-.5-5.39A1.78,1.78,0,0,0,84.34,39.74Zm-8.49.06-.09,1L76.21,42l2,1.19a1,1,0,0,0,.42-1.51c-.51-.91-1-1.81-1.54-2.7a.28.28,0,0,0-.2-.11Zm15,1.64.87-.29-1.3-2.29c-.08,0-.33.13-.43.3A31.54,31.54,0,0,0,88.42,42c-.13.27.11.7.16,1l1.52-.27.1-.57,1,.14Zm-3,12.37.16-.44c-.56-.37-1.11-.77-1.7-1.1-.42-.23-.86-.26-1.09.33a.75.75,0,0,0,.59,1.09A12.56,12.56,0,0,0,87.87,53.81Zm-9.72-.25A2.4,2.4,0,0,0,81,53.37a1.75,1.75,0,0,0,.2-.87c0-.08-.26-.29-.32-.26C80,52.64,79.15,53.06,78.15,53.56Zm5.68,2.25c-1,1-.85,2,.29,2.55Zm-1.91,2.43c1.07-.5,1.21-1.34.54-2.31Zm0-2-.29-.12-.85,2,.36.16Zm9.25-1.45.09.44L92.42,55c0-.16-.11-.45-.15-.45C91.9,54.63,91.53,54.72,91.16,54.79Z"></path></g></g></svg> 