<?xml version="1.0" encoding="UTF-8"?> <svg xmlns="http://www.w3.org/2000/svg" viewBox="0 0 168.43 33.61"><defs><style>.cls-1{fill:#8f9fce;}</style></defs><title>customer-logo-optus</title><g id="Layer_2" data-name="Layer 2"><g id="Layer_1-2" data-name="Layer 1"><path class="cls-1" d="M35.44,14.12c-1-6.34-4.62-10.62-10.59-12.89A20.22,20.22,0,0,0,14,.37,16.67,16.67,0,0,0,5.37,4.46c-4.71,4.36-6.16,9.82-5,16,1.33,6.93,6.69,11.51,13.29,12.79.8.15,1.6.26,2.39.39H19.5c.66-.1,1.32-.18,2-.3a16.83,16.83,0,0,0,10.09-5.37A16.24,16.24,0,0,0,35.44,14.12ZM17.89,26.18c-5.54,0-9.34-3.85-9.34-9.46a8.94,8.94,0,0,1,9.3-9.26,9,9,0,0,1,9.28,9.37A9,9,0,0,1,17.89,26.18Z"></path><path class="cls-1" d="M152,33.6a17.08,17.08,0,0,0-2.15-.28,26.89,26.89,0,0,1-10.13-3.47,1.28,1.28,0,0,1-.67-1.77,12.66,12.66,0,0,1,2.2-4.21c.73-.91,1.11-1,2.13-.42a26.5,26.5,0,0,0,7.32,2.77,12.78,12.78,0,0,0,6.47-.16,3,3,0,0,0,2.3-2.12,1.8,1.8,0,0,0-.82-2.11,8.82,8.82,0,0,0-3-1c-2.23-.49-4.51-.67-6.73-1.19a13.94,13.94,0,0,1-5.66-2.5,7.54,7.54,0,0,1-2.89-5.45,9.55,9.55,0,0,1,2-7.22,11.44,11.44,0,0,1,5.9-3.61,25,25,0,0,1,9.55-.61A25.73,25.73,0,0,1,166,2.39c1.2.55,1.38,1,.93,2.24a12.46,12.46,0,0,1-2.23,4A1.22,1.22,0,0,1,163,9a20.42,20.42,0,0,0-6.84-1.87,13.22,13.22,0,0,0-4.89.35,4.19,4.19,0,0,0-1.38.7,1.84,1.84,0,0,0,.25,3.21,14,14,0,0,0,3.91,1.18c2.21.46,4.46.71,6.63,1.36A13.44,13.44,0,0,1,166,16.6a7.16,7.16,0,0,1,2.36,4.32c0,.09,0,.2.1.26v2.74a9,9,0,0,1-.83,3.13,10.33,10.33,0,0,1-4.38,4.54,16.18,16.18,0,0,1-5.57,1.88c-.58.09-1.17,0-1.74.13Z"></path><path class="cls-1" d="M117.65,33.6c-.82-.13-1.63-.23-2.44-.39a12.58,12.58,0,0,1-7.71-4.42,12.77,12.77,0,0,1-2.58-6.59,31,31,0,0,1-.15-3.61V3.33c0-.52,0-1,0-1.57a1.12,1.12,0,0,1,1-1.23A9.18,9.18,0,0,1,108,.18a11.84,11.84,0,0,1,4,.35,1.13,1.13,0,0,1,1,1.25q0,.46,0,.93V19.78a7.9,7.9,0,0,0,.29,2.27,5.18,5.18,0,0,0,3.77,3.8,8.69,8.69,0,0,0,5.29-.11c2.45-.83,3.83-2.95,3.84-5.81V2.81c0-.34,0-.68,0-1,.05-.81.23-1,1-1.27a11.91,11.91,0,0,1,4.12-.33,8.55,8.55,0,0,1,2,.35,1.13,1.13,0,0,1,.94,1.2c0,.13,0,.26,0,.39,0,6,0,11.91,0,17.86A15.13,15.13,0,0,1,133,26.58a11.73,11.73,0,0,1-7.89,6.33,16.56,16.56,0,0,1-3.5.61,1.67,1.67,0,0,0-.32.08Z"></path><path class="cls-1" d="M68.61,10a9.82,9.82,0,0,0-5.48-7.82A15.79,15.79,0,0,0,55.94.67c-4.45,0-8.9,0-13.35,0-1,0-1.35.31-1.35,1.33V31.69c0,.85.24,1.21,1.06,1.4a12.65,12.65,0,0,0,5.9,0c1-.25,1.24-.54,1.24-1.61,0-2.56,0-5.12,0-7.68,0-.36.1-.46.46-.46,2,0,4,0,6.07,0a18,18,0,0,0,5.2-.73A10.11,10.11,0,0,0,68,16.52,12.8,12.8,0,0,0,68.61,10ZM60,14.08a3.92,3.92,0,0,1-3.73,2.38c-2.17.09-4.34,0-6.51,0-.34,0-.35-.15-.35-.41,0-1.34,0-2.67,0-4s0-2.64,0-4c0-.32,0-.46.41-.45,2,0,4.08,0,6.11,0a4.11,4.11,0,0,1,4.17,2.63A5,5,0,0,1,60,14.08Z"></path><path class="cls-1" d="M85.88.67c4,0,8,0,12,0,1.6,0,1.82.17,2.11,1.77a10.18,10.18,0,0,1-.14,4.36,1.24,1.24,0,0,1-1.45,1.12c-2.61,0-5.22,0-7.83,0-.48,0-.63.1-.62.61q0,11.44,0,22.89c0,1.2-.21,1.52-1.38,1.76a12.92,12.92,0,0,1-5.67-.06c-1-.23-1.16-.54-1.16-1.51q0-11.55,0-23.09c0-.46-.09-.6-.57-.6-2.47,0-4.93,0-7.39,0H73a1.1,1.1,0,0,1-1.07-.78,5.77,5.77,0,0,1-.32-1.47,10.68,10.68,0,0,1,.18-3.74C72,.91,72.37.67,73.4.67,77.56.66,81.72.67,85.88.67Z"></path></g></g></svg> 