<?xml version="1.0" encoding="UTF-8"?> <svg xmlns="http://www.w3.org/2000/svg" viewBox="0 0 89.09 101.86"><defs><style>.cls-1{fill:#2846a0;}.cls-2{fill:#8f9fce;}</style></defs><title>customer-logo-T</title><g id="Layer_2" data-name="Layer 2"><g id="Layer_1-2" data-name="Layer 1"><path class="cls-1" d="M64.65,101.86c-1.79-.34-3.61-.6-5.38-1A72.57,72.57,0,0,1,36,90.58C24.29,83,14.41,73.64,7.09,61.72A46.68,46.68,0,0,1,.34,44.55,18.9,18.9,0,0,1,1,34.85C3.14,29,7.64,26.14,13.63,25.33,20,24.47,26,26,31.94,28c1.13.38,2.22.85,3.34,1.23.66.23.84.53.71,1.27q-4.16,22.67-8.24,45.35a4.64,4.64,0,0,0-.05.61H48.33c6.61,0,9.68-2.72,10.74-9.31s2.19-13,3.32-19.57a3.12,3.12,0,0,1,.57.32c7.77,7.45,14.39,15.74,18.65,25.71a32.24,32.24,0,0,1,2.93,13.19c-.11,8.11-5.08,13.74-13.13,14.83a7.79,7.79,0,0,0-.92.24Z"></path><path class="cls-2" d="M89.09.44c-.44,2.14-.89,4.28-1.31,6.42-.44,2.3-.83,4.61-1.28,6.9a5.89,5.89,0,0,1-6.24,5.12c-4.9,0-9.8,0-14.7,0H64c-.38,2.16-.76,4.27-1.12,6.39Q59.7,44.18,56.49,63.06c-.31,1.81-.56,3.64-1,5.42a5.64,5.64,0,0,1-5.93,4.78c-5.73,0-11.46,0-17.19,0-.25,0-.49,0-.92-.06C34.76,55.13,38,37.13,41.32,19H18.37c.39-2.12.74-4.05,1.09-6C20,10.3,20.41,7.6,21,4.92A5.82,5.82,0,0,1,27,0q31,0,62.06,0Z"></path></g></g></svg> 