<?xml version="1.0" encoding="UTF-8"?> <svg xmlns="http://www.w3.org/2000/svg" viewBox="0 0 188.87 44.87"><defs><style>.cls-1{fill:#2846a0;}.cls-2{fill:#8999cb;}</style></defs><title>customer-logo-beyond bank</title><g id="Layer_2" data-name="Layer 2"><g id="Layer_1-2" data-name="Layer 1"><path class="cls-1" d="M57.71,13.22a6.69,6.69,0,0,0-1.13,2.36,5.62,5.62,0,0,0,5.77,6.84,5.56,5.56,0,0,0,5.11-4.36,1.82,1.82,0,0,1,.56-1c.49-.47,1-1,1.46-1.49l1.16,1.09a.33.33,0,0,1,.24.23h0A.18.18,0,0,1,71,17h0a.18.18,0,0,1,.12.12h0a.13.13,0,0,1,.12.12v0a.18.18,0,0,1,.12.12h0a.18.18,0,0,1,.12.15.28.28,0,0,0,0,.22c-.1.22,0,.48-.09.7a.05.05,0,0,0,0,.08c-.1.14,0,.32-.1.46a.05.05,0,0,0,0,.08c-.08.11,0,.25-.1.35a.05.05,0,0,0,0,.08c-.08.1,0,.26-.11.35h0c-.09.1,0,.25-.11.34h0c0,.07,0,.16-.09.23h0c-.11.08,0,.24-.13.32h0c0,.07,0,.17-.1.22h0c0,.06,0,.16-.11.22h0c0,.06,0,.16-.11.22h0c0,.07,0,.17-.12.22h0c0,.07,0,.18-.13.22v0c0,.07,0,.1-.09.14h0c-.06.05,0,.17-.13.21h0c0,.14-.07.27-.23.32h0c0,.07-.05.1-.1.14h0l-.1.12h0c-.07,0,0,.17-.15.2l0,0a.15.15,0,0,1-.11.13h0a.19.19,0,0,1-.11.12h0a.63.63,0,0,1-.11.12h0l-.11.12h0l-.1.12h0a.52.52,0,0,0-.1.11h0a.47.47,0,0,0-.1.1h0l-.11.1h0l-.11.11h0a.43.43,0,0,1-.12.11h0a.25.25,0,0,1-.12.11h0a.16.16,0,0,1-.13.11h0c-.07.13-.21.16-.31.25h0c-.09.18-.29.22-.44.32h0a.8.8,0,0,1-.54.33h0a1.58,1.58,0,0,1-.86.44h0c-.07.06-.16.05-.22.1h0c-.06.07-.16.06-.23.1h0c-.08.13-.24,0-.33.13h0c-.09.11-.24,0-.34.11h0c-.1.11-.25,0-.37.11l0,0,0,0c-.12.12-.31,0-.43.1h0c-.16.17-.38.06-.56.11l0,0,0,0c-.29.13-.62,0-.91.09a4.59,4.59,0,0,0-1,0c-.26-.11-.55,0-.81-.09l-.17,0c-.15-.08-.33,0-.48-.09l0,0,0,0c-.11-.07-.26,0-.36-.1l0,0h0c-.11-.07-.26,0-.36-.11h0c-.19-.06-.4,0-.56-.2h0c-.05-.07-.15-.05-.21-.1l0,0h0c-.09-.05-.19,0-.25-.12h0c-.07,0-.17,0-.23-.11h0c-.07-.05-.17,0-.22-.12h0c-.07-.05-.18,0-.22-.12h0c-.06,0-.09-.06-.13-.09h0a1.66,1.66,0,0,1-.53-.34h0a1.27,1.27,0,0,1-.12-.1h0c0-.08-.16-.05-.2-.14h0c-.25-.07-.38-.29-.55-.45h0a.24.24,0,0,1-.23-.2h0a.22.22,0,0,1-.13-.12h0a.19.19,0,0,1-.11-.12h0a.18.18,0,0,1-.12-.12h0a.18.18,0,0,1-.12-.12h0a.15.15,0,0,1-.12-.12h0c-.06,0-.11-.05-.11-.12h0c-.13-.06-.16-.21-.25-.3h0a.38.38,0,0,1-.1-.12h0a.19.19,0,0,1-.1-.13h0c-.12-.07-.16-.21-.24-.32h0a1.72,1.72,0,0,1-.22-.33h0c-.07-.05,0-.16-.12-.21h0s-.07-.08-.08-.14v0c-.09-.05-.07-.16-.13-.22h0c-.08,0-.06-.15-.12-.21h0c-.06-.06-.05-.16-.11-.22h0c-.06-.06-.05-.16-.1-.23h0c-.07-.06-.06-.16-.11-.23h0c-.08-.07-.08-.18-.11-.27v0l0,0c-.06-.07,0-.16-.09-.23h0c-.13-.08,0-.24-.12-.34h0c-.12-.09,0-.25-.12-.36l0,0,0,0c-.19-.28-.13-.61-.2-.92l0-.17c-.12-.25,0-.54-.09-.79V16.05c.1-.22,0-.47.09-.7l0-.17c.08-.15,0-.33.1-.48l0,0v0c.06-.12,0-.27.1-.38h0c.1-.09,0-.24.11-.33a0,0,0,0,0,0-.07c0-.08,0-.18.1-.26a.1.1,0,0,0,0-.09.23.23,0,0,1,.08-.23h0c0-.07,0-.16.1-.23h0c.07-.05.05-.15.1-.21l0,0v0a1.13,1.13,0,0,1,.31-.59h0c.06-.06,0-.17.12-.21h0c.06-.06,0-.18.14-.21l0,0a.21.21,0,0,1,.1-.14h0c.06,0,0-.17.13-.2h0c0-.07.05-.1.1-.13h0c.07-.1.08-.26.23-.31h0a.15.15,0,0,1,.11-.13h0a.28.28,0,0,1,.11-.13h0a.66.66,0,0,1,.21-.23h0a4.5,4.5,0,0,1,1-1h0a.19.19,0,0,1,.13-.1h0c.08-.12.21-.15.32-.24h0a.41.41,0,0,1,.13-.1h0c0-.09.15-.06.2-.13h0c.05,0,.08-.08.13-.1h0c.27-.19.47-.57.9-.32,0,.07,0,0,0,.05A15.43,15.43,0,0,1,57.71,13.22Z"></path><path class="cls-2" d="M87.09,44.76a11.6,11.6,0,0,0-1.56,0c-.17-.14-.09-.34-.09-.5,0-1.84,0-3.67,0-5.51a1.05,1.05,0,0,0-.05-.58h0a11.32,11.32,0,0,0-1.93-.05c-.31,0-.43-.1-.39-.4a4.17,4.17,0,0,1,.07-1.17l0,0c.13-.12.28-.07.42-.07,1.83,0,3.67,0,5.51,0,.4,0,.52.09.51.5,0,1.12,0,1.12-1.13,1.13a3.9,3.9,0,0,0-1.18.05,2.34,2.34,0,0,0,0,.26c0,2.07,0,4.15,0,6.22C87.21,44.73,87.14,44.74,87.09,44.76Z"></path><path class="cls-2" d="M121.39,43.15a0,0,0,0,0,.07,0,2.94,2.94,0,0,1,0,1.61c-1.66,0-3.32,0-5,0-.14,0-.1-.17-.1-.27,0-2.56,0-5.13,0-7.69a.29.29,0,0,1,.08-.25l0,0A5.69,5.69,0,0,1,118,36.5c.29,0,.24.21.24.38,0,1,0,2.09,0,3.14a29.54,29.54,0,0,0,.06,3.12c1,.06,1.94,0,2.91,0A.14.14,0,0,1,121.39,43.15Z"></path><path class="cls-2" d="M127.65,36.59v8.06a.47.47,0,0,1-.13.11,11.45,11.45,0,0,0-1.55,0c-.19-.14-.09-.33-.09-.5,0-2.41,0-4.82,0-7.23,0-.42.09-.61.53-.54S127.25,36.37,127.65,36.59Z"></path><path class="cls-1" d="M68.52,15.47a2.82,2.82,0,0,1-.64.65c-.25-.09-.22-.3-.24-.5-.12-1.86,0-3.72,0-5.58a.6.6,0,0,1,.18-.49.19.19,0,0,1,.19,0h0l.1.1h0c0,.07.15.05.2.12h0l.11.11h0l.11.11h0a.66.66,0,0,1,.09.19,2.06,2.06,0,0,1,.08.74c0,1.25,0,2.51,0,3.76A1.57,1.57,0,0,1,68.52,15.47Z"></path><path class="cls-1" d="M68.52,15.47V10.06a.07.07,0,0,1,.11,0h0l.11.11h0l.12.11h0l.11.11h0a.57.57,0,0,1,.11.11h0a.57.57,0,0,1,.11.11h0c.08.05,0,.15.12.21h0l.11.11h0l.1.11h0a.56.56,0,0,1,.09.17,17.8,17.8,0,0,1,.05,3,.49.49,0,0,1-.24.4A5,5,0,0,1,68.52,15.47Z"></path><path class="cls-1" d="M66.58,13.52l-.66-.76c-.11-1.24,0-2.48,0-3.72a.76.76,0,0,1,.2-.59c.09-.06.18-.09.27,0h0c.06.07.16.05.21.12h0c.06.06.16,0,.22.12h0a.69.69,0,0,1,.1.19A4.56,4.56,0,0,1,67,10.22c0,.93,0,1.86,0,2.79,0,.22.08.52-.27.61h0Z"></path><path class="cls-1" d="M67.87,9.51a1.1,1.1,0,0,0-.12.62q0,2.68,0,5.37a1,1,0,0,0,.13.62h0a.32.32,0,0,0-.11.12h0c-.32,0-.06-.33-.21-.44l0-.21c0-.06,0-.16-.09-.22-.08-.43-.33-.78-.44-1.2.11-1.52,0-3.05,0-4.58a2.44,2.44,0,0,1,0-.54A.12.12,0,0,1,67.21,9l.09,0,.13.1h0l.11.1h0c0,.07.15,0,.2.12h0a.57.57,0,0,1,.11.11h0s0,0,0,.06S67.88,9.51,67.87,9.51Z"></path><path class="cls-1" d="M69.38,14.61a1.24,1.24,0,0,0,.11-.47c0-1,0-2,0-3,0,0,.08,0,.11,0h0c.07,0,0,.16.11.21h0a.52.52,0,0,0,.1.11h0c.06.06,0,.16.11.21h0l.11.11h0c.07.05,0,.15.11.21h0l.1.12a.34.34,0,0,0,0,.1,1,1,0,0,0,.1.11.31.31,0,0,0,0,.1l.1.12v.1l.11.12a.33.33,0,0,0,0,.1.29.29,0,0,1,.05.18c0,.59,0,1.18,0,1.77,0,.2,0,.53-.36.42h0l-.11-.1C69.84,15,69.75,14.62,69.38,14.61Z"></path><path class="cls-1" d="M63.73,11.48a7,7,0,0,1-1.09-.22,1.13,1.13,0,0,0,.31-.88A24,24,0,0,1,63,7.7a.36.36,0,0,1,.11-.16.53.53,0,0,1,.39,0,.66.66,0,0,1,.52.71c0,.91,0,1.82,0,2.72C64,11.19,64.05,11.45,63.73,11.48Z"></path><path class="cls-1" d="M65.39,12.32l-.66-.43a30.61,30.61,0,0,0,0-3.71.47.47,0,0,1,.05-.26.17.17,0,0,1,.26,0h0c.09.1.24,0,.32.12h0a.92.92,0,0,1,.24.19.5.5,0,0,1,.08.14,25.66,25.66,0,0,1,0,3.72C65.72,12.21,65.67,12.44,65.39,12.32Z"></path><path class="cls-1" d="M64.84,7.9a24.36,24.36,0,0,1,.1,3.52.56.56,0,0,1-.21.47,2.1,2.1,0,0,1-.68-.31,23.84,23.84,0,0,0,.08-2.93,1.72,1.72,0,0,1,.11-.84.32.32,0,0,1,.38,0,.1.1,0,0,0,.09,0C64.76,7.82,64.83,7.83,64.84,7.9Z"></path><path class="cls-1" d="M59.88,7.68a.1.1,0,0,0,.09,0,.92.92,0,0,1,.4,0c.34,0,.39.21.4.45,0,1,0,1.91,0,2.87a.53.53,0,0,1-.38.53,1.25,1.25,0,0,1-.54.19,15.26,15.26,0,0,1,0-2.14c0-.55,0-1.11,0-1.66A.24.24,0,0,1,59.88,7.68Z"></path><path class="cls-1" d="M62.57,11.25h-.65a.53.53,0,0,1-.16-.39c0-1,0-2,0-3a.46.46,0,0,1,.11-.29.69.69,0,0,1,.72,0,.94.94,0,0,1,.13.57q0,1.26,0,2.52A.88.88,0,0,1,62.57,11.25Z"></path><path class="cls-1" d="M67.11,9a1.28,1.28,0,0,1,.11.58c0,1.38,0,2.77,0,4.15,0,.18.09.42-.21.47a1.87,1.87,0,0,1-.33-.54c.18-.15.11-.37.11-.55,0-1.44,0-2.88,0-4.31a.07.07,0,0,1,.11,0h0c0,.08.15.05.21.12h0s0,0,0,.06S67.12,9,67.11,9Z"></path><path class="cls-1" d="M59.33,11.91a.63.63,0,0,1-.33.2c-.22-.24-.15-.54-.17-.82a28.92,28.92,0,0,0-.07-3.09.21.21,0,0,1,0-.19h0c.09-.1.22,0,.32-.08a1.3,1.3,0,0,1,.34-.08.25.25,0,0,1,.16.1,2.67,2.67,0,0,1,.1,1.16c0,.67,0,1.35,0,2a1,1,0,0,1-.16.66h0C59.48,11.84,59.38,11.82,59.33,11.91Z"></path><path class="cls-1" d="M60.4,11.47a.64.64,0,0,0,.22-.52c0-1,0-1.91,0-2.87,0-.25,0-.43-.34-.41,0,0,0-.08,0-.09l.18,0a1,1,0,0,1,.47,0,.38.38,0,0,1,.18.09.78.78,0,0,1,.16.55c0,.85,0,1.71,0,2.56,0,.28,0,.55-.37.62A1.48,1.48,0,0,1,60.4,11.47Z"></path><path class="cls-1" d="M57.71,13.22c0-1.34,0-2.69,0-4,0-.18.07-.4-.13-.54,0-.05,0-.08,0-.1h0c.06-.07.16-.05.22-.12h0a.35.35,0,0,1,.3,0,.6.6,0,0,1,.18.49c0,1.16,0,2.32,0,3.47a.68.68,0,0,1-.08.31A3.12,3.12,0,0,1,57.71,13.22Z"></path><path class="cls-1" d="M65.39,12.32c.12,0,.2-.08.2-.21,0-1.25,0-2.5,0-3.74a.6.6,0,0,0-.1-.25s.07-.06.11,0a.15.15,0,0,0,.09,0,.91.91,0,0,1,.13.08.15.15,0,0,0,.09,0,.27.27,0,0,1,.08.07l.13.09,0,0a2.73,2.73,0,0,0-.12.85c0,.86,0,1.72,0,2.59a1.79,1.79,0,0,0,0,.69c.06.14,0,.19-.16.21Z"></path><path class="cls-1" d="M62.57,11.25V7.57a.55.55,0,0,1,.54,0c0,1.07,0,2.15,0,3.22,0,.39,0,.39-.46.46h-.07Z"></path><path class="cls-1" d="M70.24,15.24c.19,0,.22-.14.22-.3V13.87a2.48,2.48,0,0,1,.11-.9s.07,0,.1,0a.31.31,0,0,0,0,.1c.06.06,0,.16.1.22h0c.07.06,0,.16.11.22v.1c.07.06,0,.16.11.22V14c.07.06,0,.16.11.22a.17.17,0,0,0,0,.1c.09.09,0,.24.1.33a.31.31,0,0,0,0,.1c.11.13,0,.32.1.44v.21c.13.21,0,.45.1.66v.31a.13.13,0,0,1-.21,0h0l-.11-.11C70.88,15.84,70.47,15.62,70.24,15.24Z"></path><path class="cls-1" d="M58.25,12.67A24.7,24.7,0,0,1,58.13,9c0-.21.08-.44-.13-.6a.06.06,0,0,1,0-.09h0a.49.49,0,0,1,.2-.11.47.47,0,0,1,.33,0,.49.49,0,0,1,.11.14,29.37,29.37,0,0,1,0,4h0c-.1.08-.24.12-.31.25A.14.14,0,0,1,58.25,12.67Z"></path><path class="cls-1" d="M58.67,12.33a1.12,1.12,0,0,1-.11-.62q0-1.5,0-3c0-.17.06-.36-.11-.5,0-.23.16-.18.31-.11s.24.26.24.45v3.56A.83.83,0,0,1,58.67,12.33Z"></path><path class="cls-1" d="M64.3,7.76c0,1.13,0,2.25,0,3.37,0,.2,0,.41-.24.45a.42.42,0,0,1-.32-.1c.18-.13.13-.33.13-.5,0-.88,0-1.76,0-2.64a.69.69,0,0,0-.44-.76.14.14,0,0,1,.21,0l.2,0C64,7.71,64.23,7.49,64.3,7.76Z"></path><path class="cls-1" d="M59.54,11.8c0-1.13,0-2.25,0-3.38,0-.18.07-.39-.12-.54,0,0,0-.07,0-.09a.08.08,0,0,0,.09,0,.3.3,0,0,1,.29,0c.15.09.14.23.14.38v3.11a.8.8,0,0,1-.11.4A.47.47,0,0,1,59.54,11.8Z"></path><path class="cls-1" d="M61,11.34a.54.54,0,0,0,.21-.45c0-1,0-1.93,0-2.9a.71.71,0,0,0-.11-.4.57.57,0,0,1,.59,0,1,1,0,0,1,.11.57v2.49a.85.85,0,0,1-.16.61A1.56,1.56,0,0,1,61,11.34Z"></path><path class="cls-1" d="M61.59,11.25V7.57a.22.22,0,0,1,.33,0v3.67Z"></path><path class="cls-2" d="M87.24,38.17c.13-.15.31-.07.46-.08.5,0,1,0,1.51,0,.2,0,.27-.08.29-.28.11-1.25.12-1.26-1.15-1.25H83.11c.11-.18.29-.13.44-.13h5.56c.48,0,.48,0,.49.48v.81c0,.43,0,.43-.47.44Z"></path><path class="cls-2" d="M127.65,36.59a14,14,0,0,0-1.45,0c-.21,0-.29.09-.28.29a2.43,2.43,0,0,1,0,.27q0,3.56,0,7.11a1.37,1.37,0,0,0,0,.53c-.26-.14-.15-.39-.15-.58q0-3.42,0-6.84c0-.16,0-.32,0-.49,0-.39,0-.4.34-.41h1.18C127.47,36.44,127.6,36.44,127.65,36.59Z"></path><path class="cls-2" d="M118.26,43.14c-.2-.16-.1-.37-.1-.55,0-1.84,0-3.69,0-5.53,0-.5,0-.5-.49-.5h-1.24a.24.24,0,0,1,.22-.13c.43,0,.87,0,1.3,0,.23,0,.32.1.32.33,0,.41,0,.82,0,1.24Z"></path><path class="cls-2" d="M116.44,36.55q0,4,0,7.94a2.51,2.51,0,0,0,0,.27c-.25-.11-.16-.34-.16-.52V37C116.31,36.83,116.26,36.66,116.44,36.55Z"></path><path class="cls-2" d="M85.38,38.17c.16.17.08.38.08.57v5.38a1.38,1.38,0,0,0,.07.64c-.24-.13-.14-.35-.14-.53Q85.38,41.2,85.38,38.17Z"></path><path class="cls-2" d="M83.13,36.55c0,.41,0,.82,0,1.23,0,.24.09.31.32.31q.75,0,1.5,0c.15,0,.32-.06.45.08-.66,0-1.33,0-2,0-.27,0-.39-.09-.38-.37s0-.65,0-1A.29.29,0,0,1,83.13,36.55Z"></path><path class="cls-1" d="M56,9.63l-1,1a.61.61,0,0,1,.25-.4c.11-.12.26-.21.29-.39S55.8,9.6,56,9.63Z"></path><path class="cls-1" d="M61.92,7.57h-.33l-.54,0-.12,0s0-.08,0-.09l.51,0a3.89,3.89,0,0,1,1.18,0l.41,0s.05,0,.05,0,0,0,0,0l0,0H61.92Z"></path><path class="cls-1" d="M58.76,8.1a.39.39,0,0,0-.31.11h0c-.07.07-.17.06-.24.11H58c.26-.5.26-.5.76-.32Z"></path><path class="cls-2" d="M121.46,44.76a4,4,0,0,0,0-1.61.21.21,0,0,1,.14.2v1.21A.21.21,0,0,1,121.46,44.76Z"></path><path class="cls-1" d="M57.6,8.54l0,.1c-.28,0-.46.29-.73.35.06-.2.24-.3.37-.45S57.47,8.48,57.6,8.54Z"></path><path class="cls-1" d="M65.92,25.41a5.36,5.36,0,0,1,.86-.44A.7.7,0,0,1,65.92,25.41Z"></path><path class="cls-1" d="M66.78,25a1.48,1.48,0,0,1,.54-.33C67.19,25.12,67.19,25.12,66.78,25Z"></path><path class="cls-1" d="M62.67,7.45H61.49A1.6,1.6,0,0,1,62.67,7.45Z"></path><path class="cls-1" d="M52.74,18.33a3.22,3.22,0,0,1,.2.92C52.6,19,52.72,18.66,52.74,18.33Z"></path><path class="cls-1" d="M63.41,26.16a1,1,0,0,1,.56-.11C63.74,26.36,63.74,26.36,63.41,26.16Z"></path><path class="cls-1" d="M55.88,24a1.82,1.82,0,0,1,.55.45C56.06,24.49,56,24.21,55.88,24Z"></path><path class="cls-1" d="M62.41,26.26a2.32,2.32,0,0,1,.91-.09C63,26.38,62.71,26.24,62.41,26.26Z"></path><path class="cls-1" d="M64.3,7.76c-.12-.13-.34,0-.46-.18a.83.83,0,0,1,.78.2Z"></path><path class="cls-1" d="M60.62,26.17a2,2,0,0,1,.81.09C61.16,26.24,60.87,26.37,60.62,26.17Z"></path><path class="cls-1" d="M69.67,22.36A.57.57,0,0,1,69.9,22C70,22.36,70,22.36,69.67,22.36Z"></path><path class="cls-1" d="M53.81,12.22a2,2,0,0,1-.31.59A.49.49,0,0,1,53.81,12.22Z"></path><path class="cls-1" d="M56.73,24.64a1.42,1.42,0,0,1,.53.34A.49.49,0,0,1,56.73,24.64Z"></path><path class="cls-1" d="M52.63,17.37a2.09,2.09,0,0,1,.09.79C52.53,17.92,52.65,17.63,52.63,17.37Z"></path><path class="cls-1" d="M58.56,25.63a1.12,1.12,0,0,1,.56.2C58.9,25.85,58.68,25.88,58.56,25.63Z"></path><path class="cls-1" d="M67.31,24.64a1.16,1.16,0,0,1,.44-.32C67.72,24.59,67.52,24.62,67.31,24.64Z"></path><path class="cls-1" d="M71.43,16c-.18-.2-.08-.44-.1-.66C71.52,15.55,71.4,15.79,71.43,16Z"></path><path class="cls-1" d="M67.55,15.79c.16.1,0,.34.21.44-.12.12-.19.06-.21-.07S67.55,15.91,67.55,15.79Z"></path><path class="cls-1" d="M71.33,18.38a1.39,1.39,0,0,1,.09-.7C71.4,17.92,71.52,18.17,71.33,18.38Z"></path><path class="cls-1" d="M52.72,15.35a1.51,1.51,0,0,1-.09.7C52.65,15.82,52.53,15.57,52.72,15.35Z"></path><path class="cls-1" d="M54.59,11.05a.52.52,0,0,1-.23.31C54.35,11.19,54.34,11,54.59,11.05Z"></path><path class="cls-1" d="M55.66,23.77a.38.38,0,0,1,.23.2c-.09,0-.18.15-.27,0S55.64,23.84,55.66,23.77Z"></path><path class="cls-1" d="M63.12,7.55s0,0,0-.08c.19,0,.4-.08.56.09l-.21,0Z"></path><path class="cls-1" d="M67.75,24.33a.55.55,0,0,1,.31-.25C68,24.26,67.92,24.32,67.75,24.33Z"></path><path class="cls-1" d="M71.32,15.14c-.15-.12-.09-.28-.1-.44C71.38,14.82,71.31,15,71.32,15.14Z"></path><path class="cls-1" d="M52.84,14.7a.79.79,0,0,1-.1.48C52.74,15,52.67,14.83,52.84,14.7Z"></path><path class="cls-1" d="M58.36,12.58a.27.27,0,0,1,.31-.25A.64.64,0,0,1,58.36,12.58Z"></path><path class="cls-1" d="M61,7.47a.41.41,0,0,0,0,.09h-.42C60.64,7.41,60.82,7.47,61,7.47Z"></path><path class="cls-1" d="M64,26.05a.6.6,0,0,1,.43-.1C64.29,26.11,64.12,26,64,26.05Z"></path><path class="cls-1" d="M60,26.06a.73.73,0,0,1,.48.09C60.28,26.15,60.1,26.22,60,26.06Z"></path><path class="cls-1" d="M54.35,22.26a.58.58,0,0,1,.24.32C54.41,22.55,54.35,22.43,54.35,22.26Z"></path><path class="cls-1" d="M54.14,21.94a.54.54,0,0,1,.22.33A.3.3,0,0,1,54.14,21.94Z"></path><path class="cls-1" d="M71.22,18.92a.63.63,0,0,1,.1-.46C71.31,18.62,71.38,18.79,71.22,18.92Z"></path><path class="cls-1" d="M56.41,9.3a.58.58,0,0,1-.32.24A.28.28,0,0,1,56.41,9.3Z"></path><path class="cls-1" d="M54.78,22.82a.57.57,0,0,1,.25.3C54.85,23.1,54.79,23,54.78,22.82Z"></path><path class="cls-1" d="M71,19.78a.45.45,0,0,1,.11-.35C71.1,19.56,71.14,19.7,71,19.78Z"></path><path class="cls-1" d="M64.84,7.9l-.13-.11c.13,0,.26,0,.34.11Z"></path><path class="cls-1" d="M59.45,7.79l0,.09h0l0,0a.21.21,0,0,1-.19,0l0,0A.39.39,0,0,1,59.45,7.79Z"></path><path class="cls-1" d="M53.06,19.66a.42.42,0,0,1,.12.34C53,19.93,53.05,19.79,53.06,19.66Z"></path><path class="cls-1" d="M65.37,8c-.12,0-.24,0-.32-.12C65.17,7.9,65.3,7.87,65.37,8Z"></path><path class="cls-1" d="M59.07,8l-.29,0c.07-.14.2-.11.31-.13l0,0S59.13,8,59.07,8Z"></path><path class="cls-1" d="M53,19.31a.48.48,0,0,1,.12.36C52.91,19.59,53,19.44,53,19.31Z"></path><path class="cls-1" d="M70.88,16.89a.42.42,0,0,1-.24-.23C70.81,16.65,70.89,16.72,70.88,16.89Z"></path><path class="cls-1" d="M70.66,20.65a.39.39,0,0,1,.13-.32C70.78,20.45,70.8,20.58,70.66,20.65Z"></path><path class="cls-1" d="M70.88,20.11a.42.42,0,0,1,.11-.34C71,19.9,71,20,70.88,20.11Z"></path><path class="cls-1" d="M59.83,7.77h-.29c.09-.12.22-.09.34-.09A.41.41,0,0,0,59.83,7.77Z"></path><path class="cls-1" d="M64.82,25.83a.42.42,0,0,1,.34-.11C65.08,25.87,65,25.84,64.82,25.83Z"></path><path class="cls-1" d="M71.21,14.6c-.12-.08-.1-.21-.1-.33C71.24,14.35,71.21,14.48,71.21,14.6Z"></path><path class="cls-1" d="M53,14.27a.56.56,0,0,1-.1.38C52.84,14.51,52.8,14.37,53,14.27Z"></path><path class="cls-1" d="M53.05,14a.38.38,0,0,1-.11.33C52.94,14.16,52.92,14,53.05,14Z"></path><path class="cls-1" d="M65.15,25.73a.41.41,0,0,1,.33-.13C65.41,25.76,65.27,25.73,65.15,25.73Z"></path><path class="cls-1" d="M71.11,19.35a.41.41,0,0,1,.1-.35C71.21,19.13,71.24,19.26,71.11,19.35Z"></path><path class="cls-1" d="M59.11,25.83a.47.47,0,0,1,.36.11C59.34,25.94,59.19,26,59.11,25.83Z"></path><path class="cls-1" d="M64.46,25.94a.47.47,0,0,1,.37-.11C64.74,26,64.6,25.94,64.46,25.94Z"></path><path class="cls-1" d="M59.54,26a.43.43,0,0,1,.36.1C59.77,26.05,59.63,26.09,59.54,26Z"></path><path class="cls-1" d="M53.28,13.3a.27.27,0,0,1-.08.23C53,13.38,53.18,13.35,53.28,13.3Z"></path><path class="cls-1" d="M55,10.59a.37.37,0,0,1-.21.23A.21.21,0,0,1,55,10.59Z"></path><path class="cls-2" d="M87.09,44.76l.12-.11c.05,0,.13.07.06.14S87.15,44.77,87.09,44.76Z"></path><path class="cls-1" d="M60.33,7.58a.41.41,0,0,1,0,.09H60C60.07,7.54,60.2,7.57,60.33,7.58Z"></path><path class="cls-1" d="M66.35,8.44l-.21,0h0l0-.06,0,0A.22.22,0,0,1,66.35,8.44Z"></path><path class="cls-1" d="M69.34,22.8a.26.26,0,0,1,.15-.2C69.48,22.7,69.46,22.78,69.34,22.8Z"></path><path class="cls-1" d="M58,8.33l0,.09h-.19A.22.22,0,0,1,58,8.33Z"></path><path class="cls-1" d="M65.92,8.31a.29.29,0,0,0,0-.09.26.26,0,0,1,.24.1h0A.13.13,0,0,1,65.92,8.31Z"></path><path class="cls-2" d="M121.39,43.15h-.22C121.25,43,121.32,43,121.39,43.15Z"></path><path class="cls-1" d="M56.41,24.41a.23.23,0,0,1,.2.14C56.52,24.54,56.44,24.52,56.41,24.41Z"></path><path class="cls-1" d="M70.22,21.51a.27.27,0,0,1,.12-.22A.18.18,0,0,1,70.22,21.51Z"></path><path class="cls-1" d="M53.81,21.4a.25.25,0,0,1,.13.22A.2.2,0,0,1,53.81,21.4Z"></path><path class="cls-1" d="M70.56,20.86a.23.23,0,0,1,.1-.22C70.67,20.73,70.66,20.82,70.56,20.86Z"></path><path class="cls-1" d="M53.49,20.75a.24.24,0,0,1,.1.23A.21.21,0,0,1,53.49,20.75Z"></path><path class="cls-1" d="M70.45,21.08a.24.24,0,0,1,.11-.22C70.56,21,70.55,21,70.45,21.08Z"></path><path class="cls-1" d="M53.59,21a.24.24,0,0,1,.11.22A.22.22,0,0,1,53.59,21Z"></path><path class="cls-1" d="M70.34,21.3a.24.24,0,0,1,.11-.22A.2.2,0,0,1,70.34,21.3Z"></path><path class="cls-1" d="M53.7,21.19a.26.26,0,0,1,.12.21A.2.2,0,0,1,53.7,21.19Z"></path><path class="cls-1" d="M69.89,22.05a.28.28,0,0,1,.13-.21C70,21.93,70,22,69.89,22.05Z"></path><path class="cls-1" d="M70.1,21.72a.29.29,0,0,1,.13-.22C70.24,21.6,70.22,21.69,70.1,21.72Z"></path><path class="cls-1" d="M54,21.74a.26.26,0,0,1,.12.21A.22.22,0,0,1,54,21.74Z"></path><path class="cls-1" d="M57.81,25.29a.24.24,0,0,1,.23.11A.2.2,0,0,1,57.81,25.29Z"></path><path class="cls-1" d="M58,25.39a.29.29,0,0,1,.24.12C58.17,25.51,58.08,25.51,58,25.39Z"></path><path class="cls-1" d="M65.7,25.51a.26.26,0,0,1,.22-.1A.2.2,0,0,1,65.7,25.51Z"></path><path class="cls-1" d="M57.39,25.06a.25.25,0,0,1,.22.12C57.51,25.19,57.42,25.18,57.39,25.06Z"></path><path class="cls-1" d="M57.6,25.17a.25.25,0,0,1,.22.12C57.72,25.3,57.63,25.28,57.6,25.17Z"></path><path class="cls-1" d="M65.59,8.1l-.11,0L65.37,8A.23.23,0,0,1,65.59,8.1Z"></path><path class="cls-1" d="M58.35,25.53a.2.2,0,0,1,.21.1A.23.23,0,0,1,58.35,25.53Z"></path><path class="cls-1" d="M65.47,25.61a.23.23,0,0,1,.23-.1A.2.2,0,0,1,65.47,25.61Z"></path><path class="cls-1" d="M53.37,13.08a.21.21,0,0,1-.1.23A.23.23,0,0,1,53.37,13.08Z"></path><path class="cls-1" d="M70.78,13.3a.23.23,0,0,1-.1-.22A.23.23,0,0,1,70.78,13.3Z"></path><path class="cls-1" d="M70.89,13.52a.24.24,0,0,1-.11-.22A.22.22,0,0,1,70.89,13.52Z"></path><path class="cls-1" d="M71,13.84a.22.22,0,0,1-.11-.22A.22.22,0,0,1,71,13.84Z"></path><path class="cls-1" d="M53.16,13.62a.29.29,0,0,1-.1.26A.24.24,0,0,1,53.16,13.62Z"></path><path class="cls-1" d="M53.47,12.87a.2.2,0,0,1-.1.21A.23.23,0,0,1,53.47,12.87Z"></path><path class="cls-1" d="M67.44,15.36a.2.2,0,0,1,.09.22A.21.21,0,0,1,67.44,15.36Z"></path><path class="cls-1" d="M71.11,14.17A.22.22,0,0,1,71,14,.22.22,0,0,1,71.11,14.17Z"></path><path class="cls-1" d="M67.11,8.87a.22.22,0,0,1-.21-.12A.25.25,0,0,1,67.11,8.87Z"></path><path class="cls-1" d="M69.27,10.81a.26.26,0,0,1-.12-.21A.2.2,0,0,1,69.27,10.81Z"></path><path class="cls-1" d="M56.72,9.08a.24.24,0,0,1-.2.13A.18.18,0,0,1,56.72,9.08Z"></path><path class="cls-1" d="M69.7,11.35a.23.23,0,0,1-.11-.21A.2.2,0,0,1,69.7,11.35Z"></path><path class="cls-1" d="M67.75,9.31a.23.23,0,0,1-.2-.12A.19.19,0,0,1,67.75,9.31Z"></path><path class="cls-1" d="M68.29,9.74a.22.22,0,0,1-.2-.12C68.18,9.63,68.26,9.65,68.29,9.74Z"></path><path class="cls-1" d="M53.93,12a.26.26,0,0,1-.12.21C53.81,12.13,53.83,12,53.93,12Z"></path><path class="cls-1" d="M69.92,11.67a.2.2,0,0,1-.11-.21A.2.2,0,0,1,69.92,11.67Z"></path><path class="cls-1" d="M54.27,11.48a.24.24,0,0,1-.13.2C54.14,11.58,54.15,11.5,54.27,11.48Z"></path><path class="cls-1" d="M70.13,12a.26.26,0,0,1-.11-.21A.2.2,0,0,1,70.13,12Z"></path><path class="cls-1" d="M59.33,11.91c0-.11.12-.12.22-.12A.25.25,0,0,1,59.33,11.91Z"></path><path class="cls-1" d="M54.06,11.8a.26.26,0,0,1-.14.21C53.92,11.91,53.93,11.82,54.06,11.8Z"></path><path class="cls-1" d="M66.78,8.66a.25.25,0,0,1-.22-.12A.21.21,0,0,1,66.78,8.66Z"></path><path class="cls-1" d="M53.17,20a.23.23,0,0,1,.09.23A.21.21,0,0,1,53.17,20Z"></path><path class="cls-1" d="M57.81,8.43a.27.27,0,0,1-.22.12A.22.22,0,0,1,57.81,8.43Z"></path><path class="cls-1" d="M70.79,20.33a.23.23,0,0,1,.09-.23A.21.21,0,0,1,70.79,20.33Z"></path><path class="cls-1" d="M53.28,20.27a.32.32,0,0,1,.11.27C53.27,20.48,53.27,20.38,53.28,20.27Z"></path><path class="cls-1" d="M53.38,20.53a.24.24,0,0,1,.11.23A.22.22,0,0,1,53.38,20.53Z"></path><path class="cls-1" d="M66.56,8.55a.24.24,0,0,1-.21-.12A.2.2,0,0,1,66.56,8.55Z"></path><path class="cls-1" d="M71.22,16.32h.21Q71.32,16.5,71.22,16.32Z"></path><path class="cls-1" d="M69.16,10.6l-.11-.11Z"></path><path class="cls-1" d="M67.76,16.23l.11-.12Z"></path><path class="cls-1" d="M68.94,10.38l-.11-.11Z"></path><path class="cls-1" d="M69.05,10.49l-.11-.11Z"></path><path class="cls-1" d="M67.54,9.18l-.11-.1Z"></path><path class="cls-1" d="M71.11,16.21l.11.11Z"></path><path class="cls-1" d="M53.93,21.6a.12.12,0,0,1,.08.14Z"></path><path class="cls-1" d="M54.79,10.81a.15.15,0,0,1-.11.13A.18.18,0,0,1,54.79,10.81Z"></path><path class="cls-1" d="M69.38,10.92l-.11-.11Z"></path><path class="cls-1" d="M54.69,10.93a.15.15,0,0,1-.11.13A.14.14,0,0,1,54.69,10.93Z"></path><path class="cls-1" d="M69.48,11l-.1-.11Z"></path><path class="cls-1" d="M69.59,11.14h-.11V11Z"></path><path class="cls-1" d="M56.53,9.2a.12.12,0,0,1-.13.1A.17.17,0,0,1,56.53,9.2Z"></path><path class="cls-1" d="M56.1,9.53a.13.13,0,0,1-.13.1A.15.15,0,0,1,56.1,9.53Z"></path><path class="cls-1" d="M68.08,9.61l-.1-.1Z"></path><path class="cls-2" d="M127.53,44.76l.13-.11A.15.15,0,0,1,127.53,44.76Z"></path><path class="cls-1" d="M67.86,9.41l-.11-.11Z"></path><path class="cls-1" d="M67.87,9.51v-.1l.11.1Z"></path><path class="cls-1" d="M66.89,8.75h-.11s0-.07,0-.11Z"></path><path class="cls-1" d="M56.62,24.55a.12.12,0,0,1,.12.1Z"></path><path class="cls-1" d="M68.73,10.17l-.11-.11Z"></path><path class="cls-1" d="M68.84,10.27l-.12-.11Z"></path><path class="cls-1" d="M68.4,9.84l-.11-.11Z"></path><path class="cls-1" d="M68.51,10l-.11-.11Z"></path><path class="cls-1" d="M68.62,10.06h-.11V10Z"></path><path class="cls-1" d="M71.2,17.22a.18.18,0,0,1-.12-.12A.13.13,0,0,1,71.2,17.22Z"></path><path class="cls-1" d="M69.25,22.91a.15.15,0,0,1,.11-.13A.15.15,0,0,1,69.25,22.91Z"></path><path class="cls-1" d="M68.4,23.79a.13.13,0,0,1,.11-.11Z"></path><path class="cls-1" d="M69.15,23a.14.14,0,0,1,.11-.12A.14.14,0,0,1,69.15,23Z"></path><path class="cls-1" d="M70.67,13h-.1v-.1Z"></path><path class="cls-1" d="M71.1,17.11A.15.15,0,0,1,71,17,.15.15,0,0,1,71.1,17.11Z"></path><path class="cls-1" d="M67.11,9s0-.06,0-.09l.11.09h-.1Z"></path><path class="cls-1" d="M69.05,23.14a.12.12,0,0,1,.11-.12Z"></path><path class="cls-1" d="M54.58,22.57a.15.15,0,0,1,.1.13A.14.14,0,0,1,54.58,22.57Z"></path><path class="cls-1" d="M71.31,17.32a.15.15,0,0,1-.12-.12A.15.15,0,0,1,71.31,17.32Z"></path><path class="cls-1" d="M54.68,22.69a.14.14,0,0,1,.1.12Z"></path><path class="cls-1" d="M70.57,12.77l-.11-.12Z"></path><path class="cls-1" d="M68.74,23.47a.1.1,0,0,1,.1-.11Z"></path><path class="cls-1" d="M66.58,13.52l.09.1Z"></path><path class="cls-1" d="M55.33,23.44a.18.18,0,0,1,.12.12A.13.13,0,0,1,55.33,23.44Z"></path><path class="cls-1" d="M68.63,23.57a.11.11,0,0,1,.1-.1Z"></path><path class="cls-1" d="M55.44,23.55a.15.15,0,0,1,.11.12A.13.13,0,0,1,55.44,23.55Z"></path><path class="cls-1" d="M68.51,23.68a.11.11,0,0,1,.11-.1Z"></path><path class="cls-1" d="M65.81,8.2l-.13-.08Z"></path><path class="cls-1" d="M71,17a.13.13,0,0,1-.12-.12A.15.15,0,0,1,71,17Z"></path><path class="cls-1" d="M55,23.11a.14.14,0,0,1,.11.12A.11.11,0,0,1,55,23.11Z"></path><path class="cls-1" d="M68.94,23.25a.14.14,0,0,1,.11-.12Z"></path><path class="cls-1" d="M55.54,23.66a.15.15,0,0,1,.13.12A.16.16,0,0,1,55.54,23.66Z"></path><path class="cls-1" d="M55.12,23.22a.18.18,0,0,1,.12.12A.13.13,0,0,1,55.12,23.22Z"></path><path class="cls-1" d="M68.84,23.36a.13.13,0,0,1,.1-.12Z"></path><path class="cls-1" d="M55.22,23.33a.15.15,0,0,1,.12.12C55.27,23.44,55.24,23.4,55.22,23.33Z"></path><path class="cls-1" d="M54.14,11.68a.16.16,0,0,1-.1.14A.15.15,0,0,1,54.14,11.68Z"></path><path class="cls-1" d="M70,11.79l-.11-.11Z"></path><path class="cls-1" d="M67.43,9.08,67.3,9A.17.17,0,0,1,67.43,9.08Z"></path><path class="cls-1" d="M56.85,9c0,.07-.06.09-.13.1Z"></path><path class="cls-1" d="M54.36,11.36a.14.14,0,0,1-.1.13A.13.13,0,0,1,54.36,11.36Z"></path><path class="cls-1" d="M69.81,11.46l-.1-.11Z"></path><path class="cls-1" d="M68.05,24.09a.17.17,0,0,1,.13-.11A.13.13,0,0,1,68.05,24.09Z"></path><path class="cls-1" d="M70.13,15.14l.11.1Z"></path><path class="cls-1" d="M70,21.84a.17.17,0,0,1,.09-.14A.14.14,0,0,1,70,21.84Z"></path><path class="cls-1" d="M57.27,25a.12.12,0,0,1,.13.09A.16.16,0,0,1,57.27,25Z"></path><path class="cls-1" d="M69.58,22.49a.15.15,0,0,1,.1-.14A.15.15,0,0,1,69.58,22.49Z"></path><path class="cls-1" d="M70.35,12.33l-.1-.11Z"></path><path class="cls-1" d="M68.28,23.89a.15.15,0,0,1,.12-.11Z"></path><path class="cls-1" d="M71.42,17.46a.18.18,0,0,1-.12-.15A.17.17,0,0,1,71.42,17.46Z"></path><path class="cls-1" d="M69.49,22.6a.14.14,0,0,1,.1-.12Z"></path><path class="cls-1" d="M70.46,12.55l-.1-.12Z"></path><path class="cls-1" d="M68.17,24a.17.17,0,0,1,.12-.11A.15.15,0,0,1,68.17,24Z"></path><path class="cls-1" d="M70.24,12.12l-.1-.12Z"></path><path class="cls-1" d="M59.07,8l0-.08h.21C59.26,8,59.17,8,59.07,8Z"></path><path class="cls-1" d="M65.92,8.31l.21,0a.31.31,0,0,1,0,.1C66.05,8.43,66,8.42,65.92,8.31Z"></path><path class="cls-1" d="M58.22,8.32a.25.25,0,0,1,.24-.11A.24.24,0,0,1,58.22,8.32Z"></path><path class="cls-2" d="M61.06,42.37a.08.08,0,0,0,0-.09c-.1-1,0-2,0-3,0-.75,0-1.51,0-2.26,0-.45.14-.58.55-.52s.84-.12,1.23.11c0,1.68-.05,3.36,0,5,.1.14,0,.31.09.45h0a4.9,4.9,0,0,0,.77,1h0c.18.09.4.05.56.2h.18a.62.62,0,0,0,.5,0h.18c.1-.09.24,0,.34-.1h0c.06-.07.16-.06.23-.1h0c0-.09.15-.06.21-.13h0a.63.63,0,0,1,.12-.11h0a.63.63,0,0,1,.11-.12h0l.09-.12h0c.08,0,.05-.15.11-.2h0c.1-.09,0-.24.12-.32h0c.11-.17,0-.38.09-.55,0-1.64,0-3.28,0-4.93a4.63,4.63,0,0,1,1.7-.06c.06,0,.1.1.11.17-.07,1.16,0,2.33,0,3.49a9.35,9.35,0,0,0,0,1.4c-.11.25,0,.54-.1.8a0,0,0,0,0,0,.06c-.06.11,0,.27-.1.37h0c0,.07,0,.16-.09.22s0,0,0,.06a.28.28,0,0,1-.09.16h0c-.08.05-.05.15-.12.21h0c-.06.06,0,.18-.13.21h0a.18.18,0,0,1-.11.13h0a.25.25,0,0,1-.11.12h0a.32.32,0,0,1-.12.11h0a.32.32,0,0,1-.12.11h0a.2.2,0,0,1-.13.11h0c0,.09-.16.07-.21.13h0a.32.32,0,0,1-.13.1v0c-.37.48-.94.34-1.42.45H63.89c-.14-.09-.32,0-.46-.09l0,0h0a1,1,0,0,1-.56-.2l0,0h0a.37.37,0,0,1-.16-.09h0c-.05-.08-.16-.05-.21-.12h0c-.05-.06-.17,0-.2-.13h0A.2.2,0,0,1,62,44.1h0a.23.23,0,0,1-.12-.12h0a.25.25,0,0,1-.12-.11h0a.19.19,0,0,1-.11-.12h0a.15.15,0,0,1-.11-.12h0c-.28-.11-.22-.42-.35-.62h0c-.07-.08-.06-.17-.1-.25a.06.06,0,0,0,0-.08C61.07,42.61,61.14,42.47,61.06,42.37Z"></path><path class="cls-2" d="M75.54,43.24a.41.41,0,0,0,.29,0,.65.65,0,0,0,.51,0h.18a2.58,2.58,0,0,1,.55-.2h0a1.07,1.07,0,0,0,.23-1h0a.43.43,0,0,1-.12-.11h0c-.06-.06-.17,0-.22-.12h0c-.18-.09-.41,0-.55-.2l0,0h0c-.11-.07-.25,0-.35-.09l0,0h0c-.1-.07-.24,0-.35-.09l0,0h0c-.1-.09-.24,0-.34-.1l-.1,0c-.13,0-.25,0-.33-.11h0c-.07,0-.16,0-.23-.09l0,0h0c-.08,0-.19,0-.25-.12h0a1,1,0,0,1-.54-.34h0a.18.18,0,0,1-.13-.11h0a.19.19,0,0,1-.11-.12h0a.19.19,0,0,1-.11-.12h0c-.09,0-.06-.15-.13-.2h0a.32.32,0,0,1-.09-.16,0,0,0,0,0,0-.06c-.05-.07,0-.16-.09-.22h0c-.11-.14,0-.32-.1-.47v-.48c.09-.13,0-.31.09-.45a.08.08,0,0,0,0-.08c0-.08,0-.18.09-.25h0c.07-.05,0-.16.12-.21h0c.07-.06,0-.17.14-.21h0a.25.25,0,0,1,.11-.12h0a.34.34,0,0,1,.12-.12h0l.11-.11h0a.34.34,0,0,1,.12-.12h0a.19.19,0,0,1,.13-.1h0c0-.1.15-.07.22-.13h0c0-.07.16-.05.21-.12h0c.07-.06.16,0,.23-.1h0c.09-.1.24,0,.33-.11h0c.13-.12.32,0,.45-.1l.2,0a2.75,2.75,0,0,1,1.07,0l.19,0c.14.09.32,0,.46.09a.07.07,0,0,0,.08,0c.22.08.5,0,.67.22h0c.08,0,.18,0,.23.11h0c.07,0,.18,0,.22.12h0a.77.77,0,0,1,.34.22h0a.29.29,0,0,1,.12.1h0a.54.54,0,0,0,.12.09h0c.09.09.24.17.08.32h0a.41.41,0,0,1-.1.13h0c-.06.06,0,.17-.13.21h0c0,.06-.06.09-.1.13h0a1.06,1.06,0,0,1-.1.12h0c-.07,0,0,.17-.13.2h0a.27.27,0,0,1-.1.13h0s-.07.08-.09.12h0c-.09.08-.17.24-.32.08h0a2.09,2.09,0,0,1-.45-.33h0c-.07-.06-.17,0-.23-.12h0a7,7,0,0,1-1-.31l-.18,0a1,1,0,0,0-.62,0l-.18,0c-.21.1-.35.3-.56.4h0c-.18.51.31.63.55.9h0c.07,0,.16,0,.23.09a.08.08,0,0,0,.08,0c.11.07.25,0,.35.09a.06.06,0,0,0,.08,0c.29.1.63,0,.89.22h0c.07,0,.16,0,.23.08a.1.1,0,0,0,.09,0c.26.09.59,0,.78.32h0c.06.06.17,0,.22.12h0a.38.38,0,0,1,.12.1h0c.16.09.38.11.41.35h0c.24.1.26.34.34.54h0c.11.09,0,.25.11.35s0,.05,0,.08a2.32,2.32,0,0,1,0,1.08s0,0,0,.07,0,.26-.12.36h0c0,.07,0,.17-.11.23h0c-.06.06,0,.17-.13.22h0s-.07.08-.11.12h0c-.22.26-.37.59-.76.66h0a.34.34,0,0,1-.15.09h0l0,0c-.29.38-.74.18-1.1.31H75.25c-.14-.09-.32,0-.46-.08l-.11,0a.78.78,0,0,1-.65-.21h0c-.22-.1-.52,0-.65-.33h0c-.06-.06-.17,0-.21-.12h0a.29.29,0,0,1-.12-.1h0a2.37,2.37,0,0,1-.42-.35h0c-.17-.14,0-.22.07-.31h0c.08-.05,0-.16.13-.2h0s.07-.08.1-.13h0a1.53,1.53,0,0,1,.35-.53v0a.32.32,0,0,1,.1-.13h0c.15-.22.29-.22.43,0h0a1.27,1.27,0,0,1,.12.1h0c.15.15.39.18.53.36v0s.09.06.13.09,0,0,.06,0,.19,0,.26.11h0C75.1,43.12,75.35,43.09,75.54,43.24Z"></path><polygon class="cls-2" points="99.43 41.19 99.44 41.19 99.44 41.19 99.43 41.19"></polygon><path class="cls-2" d="M99.31,41.3h0v0Z"></path><path class="cls-2" d="M99.85,40.76h0Z"></path><polygon class="cls-2" points="99.76 43.69 99.76 43.69 99.76 43.69 99.76 43.69"></polygon><polygon class="cls-2" points="99.75 40.87 99.76 40.87 99.76 40.86 99.75 40.87"></polygon><polygon class="cls-2" points="98.67 41.62 98.67 41.62 98.67 41.62 98.67 41.62"></polygon><polygon class="cls-2" points="99 42.39 99 42.39 99 42.39 99 42.39"></polygon><path class="cls-2" d="M100,44Z"></path><polygon class="cls-2" points="98.89 42.19 98.89 42.18 98.88 42.18 98.89 42.19"></polygon><path class="cls-2" d="M100.29,44.6a.85.85,0,0,0-.21-.37h0c0-.06,0-.16-.11-.2h0a.43.43,0,0,0-.09-.13h0c-.08,0,0-.15-.12-.2h0c-.07-.11-.07-.26-.2-.33s0,0,0-.06,0-.11-.09-.16h0c-.07,0,0-.15-.12-.2h0a1.18,1.18,0,0,0-.32-.55h0c0-.06,0-.16-.11-.21h0l-.08-.11s0,0,0-.07a.25.25,0,0,0-.1-.15h0a.18.18,0,0,1,0-.23h0c.07,0,.17,0,.23-.1h0c.06-.06.16,0,.21-.11h0c.06,0,.17,0,.2-.11h0v0a.26.26,0,0,0,.12-.11h0a1.27,1.27,0,0,0,.12-.1h0a1.14,1.14,0,0,0,.11-.11h0l.11-.11h0a.29.29,0,0,0,.1-.12h0v0h0c.07,0,.06-.15.11-.2h0a1,1,0,0,0,.21-.48,0,0,0,0,1,0-.06c.1-.14,0-.33.09-.47v-.68c-.08-.15,0-.33-.09-.47a.05.05,0,0,1,0-.07.73.73,0,0,0-.09-.26h0c-.07-.06,0-.15-.11-.22h0c-.07-.05,0-.16-.12-.21h0a1.82,1.82,0,0,0-.52-.55h0a1.27,1.27,0,0,0-.12-.1h0a1.3,1.3,0,0,0-1.1-.42l-.3,0c-1-.1-2,0-2.94,0a2.49,2.49,0,0,0-1.05.06.43.43,0,0,0-.06.29q0,3.8,0,7.58c0,.11-.07.26.1.33a14.59,14.59,0,0,1,1.62,0c.19-.11.1-.29.1-.43,0-.68,0-1.36,0-2,0-.14,0-.37.13-.37.37,0,.78-.17,1.12.14h0c.05.06,0,.16.11.21h0c.05.07,0,.16.12.21h0c0,.07,0,.18.11.22h0a.81.81,0,0,0,.31.56h0c.06.06,0,.16.11.21h0c0,.07,0,.17.12.22h0c0,.16,0,.34.22.42h0c0,.06.06.09.09.14h0c.07.05,0,.16.11.21h0c.07.06,0,.16.12.21h0a.3.3,0,0,0,.14.11h1.87q.09,0,0-.09A0,0,0,0,1,100.29,44.6Zm-2.66-4.36a10.72,10.72,0,0,1-1.88.06c-.16,0-.21-.11-.21-.25v-.93c0-.28-.17-.72.1-1s.65-.06,1-.07a3.79,3.79,0,0,1,1,.06,1.07,1.07,0,0,1,0,2.09Z"></path><polygon class="cls-2" points="97.07 42.48 97.08 42.48 97.08 42.49 97.07 42.48"></polygon><polygon class="cls-2" points="97.61 43.46 97.61 43.46 97.61 43.47 97.61 43.46"></polygon><polygon class="cls-2" points="97.5 43.25 97.5 43.25 97.5 43.25 97.5 43.25"></polygon><polygon class="cls-2" points="99.97 40.55 99.97 40.55 99.98 40.54 99.97 40.55"></polygon><polygon class="cls-2" points="97.72 43.67 97.72 43.68 97.73 43.68 97.72 43.67"></polygon><polygon class="cls-2" points="99.22 36.99 99.21 36.98 99.21 36.98 99.22 36.99"></polygon><polygon class="cls-2" points="99.86 37.64 99.86 37.63 99.86 37.63 99.86 37.64"></polygon><polygon class="cls-2" points="96.96 42.27 96.96 42.27 96.97 42.27 96.96 42.27"></polygon><polygon class="cls-2" points="96.85 42.05 96.85 42.06 96.85 42.06 96.85 42.05"></polygon><polygon class="cls-2" points="99.32 42.94 99.32 42.94 99.32 42.93 99.32 42.94"></polygon><polygon class="cls-2" points="100.08 44.24 100.08 44.23 100.08 44.23 100.08 44.24"></polygon><path class="cls-2" d="M93.82,36.57h0Z"></path><polygon class="cls-2" points="55.42 39.91 55.42 39.9 55.42 39.9 55.42 39.91"></polygon><polygon class="cls-2" points="55.96 41.32 55.95 41.31 55.95 41.31 55.96 41.32"></polygon><polygon class="cls-2" points="54.77 38.18 54.77 38.17 54.76 38.17 54.77 38.18"></polygon><polygon class="cls-2" points="55.09 39.05 55.09 39.04 55.09 39.04 55.09 39.05"></polygon><polygon class="cls-2" points="50.88 44.65 50.88 44.65 50.88 44.66 50.88 44.65"></polygon><polygon class="cls-2" points="56.93 43.91 56.93 43.91 56.93 43.9 56.93 43.91"></polygon><polygon class="cls-2" points="54.11 36.56 54.12 36.56 54.13 36.56 54.11 36.56"></polygon><polygon class="cls-2" points="56.61 43.05 56.6 43.04 56.6 43.04 56.61 43.05"></polygon><polygon class="cls-2" points="51.09 44.11 51.09 44.11 51.09 44.1 51.09 44.11"></polygon><polygon class="cls-2" points="54.9 43.88 54.9 43.89 54.91 43.9 54.9 43.88"></polygon><polygon class="cls-2" points="51.76 36.98 51.76 36.99 51.76 36.99 51.76 36.98"></polygon><polygon class="cls-2" points="49.06 44.12 49.06 44.12 49.06 44.13 49.06 44.12"></polygon><path class="cls-2" d="M57.15,44.48c0-.08,0-.18-.1-.25h0c-.1-.09,0-.24-.12-.33h0c0-.06,0-.15-.09-.21a.07.07,0,0,1,0-.07c0-.09,0-.19-.1-.26h0c-.1-.08,0-.24-.11-.32h0c0-.07,0-.16-.09-.22s0,0,0-.07,0-.18-.1-.25h0c-.06-.06,0-.15-.09-.22a.07.07,0,0,1,0-.08c0-.08,0-.18-.09-.24s0,0,0-.07,0-.19-.1-.26h0c-.09-.09,0-.25-.12-.33h0c0-.07,0-.16-.09-.22h0c-.1-.08,0-.24-.12-.32h0c-.06-.06,0-.15-.1-.22a.08.08,0,0,1,0-.08c0-.08,0-.17-.09-.25h0c-.11-.08,0-.24-.12-.32h0c-.05-.06,0-.15-.09-.21a.06.06,0,0,1,0-.08c0-.08,0-.18-.1-.25h0c-.1-.08,0-.24-.12-.32h0c0-.07,0-.16-.09-.22a.06.06,0,0,1,0-.07c0-.08,0-.18-.1-.25h0c-.09-.09,0-.24-.11-.32h0c-.05-.07,0-.16-.09-.23s0,0,0-.06,0-.19-.1-.26h0c-.06-.07,0-.16-.09-.22a.08.08,0,0,1,0-.09c0-.07,0-.17-.09-.24s0,0,0-.06,0-.37-.21-.47a11,11,0,0,0-1.72-.07c-.4,0-.61.11-.64.5h0c-.11.08,0,.23-.12.32h0c-.07.07-.06.17-.1.25a.06.06,0,0,1,0,.07c-.19.14-.17.35-.21.54h0c-.06.07-.06.17-.1.25a.06.06,0,0,1,0,.08c-.05.06,0,.15-.09.22h0c-.07.07-.07.18-.1.26S51,39,51,39s-.05.16-.09.24a.07.07,0,0,1,0,.08c0,.07,0,.16-.09.22h0c-.08.07-.07.17-.11.25a0,0,0,0,1,0,.07c-.06.06-.05.15-.09.22h0c-.12.08,0,.24-.12.32h0c-.07.07-.07.17-.1.26s0,0,0,.07a1.87,1.87,0,0,0-.31.79s0,0,0,.07,0,.15-.09.22h0c-.11.08,0,.24-.11.32h0c-.19.14-.13.37-.21.55h0c-.11.08,0,.23-.12.31h0c-.06.06,0,.15-.09.22h0c-.12.08,0,.24-.12.32h0c-.07.07-.07.17-.1.26s0,0,0,.06,0,.15-.09.22h0c-.11.08,0,.24-.12.33h0a.21.21,0,0,0,0,.31h1.8a.28.28,0,0,0,.13-.11c.07-.07.06-.16.1-.24a.08.08,0,0,1,0-.08c.06-.06,0-.15.09-.22h0c.11-.08,0-.24.12-.32h0a.72.72,0,0,1,.76-.38c.76,0,1.53,0,2.3,0,.19,0,.4,0,.53.16h0c.09.09,0,.24.11.32h0c0,.07,0,.16.09.23s0,0,0,.06,0,.19.1.26h0c.07.11.06.28.23.32a15.1,15.1,0,0,1,1.78,0c.11,0,.1-.13.05-.21S57.14,44.51,57.15,44.48ZM52,41.81c-.13,0-.21-.07-.16-.2.36-1,.73-2.07,1.09-3.09.16,0,.17.1.19.16l1.12,3.13Z"></path><polygon class="cls-2" points="50.58 40.12 50.58 40.12 50.57 40.13 50.58 40.12"></polygon><polygon class="cls-2" points="49.92 41.85 49.92 41.85 49.92 41.86 49.92 41.85"></polygon><polygon class="cls-2" points="49.6 42.71 49.6 42.72 49.59 42.72 49.6 42.71"></polygon><polygon class="cls-2" points="49.39 43.26 49.39 43.26 49.38 43.27 49.39 43.26"></polygon><polygon class="cls-2" points="106.15 39.04 106.15 39.04 106.15 39.04 106.15 39.04"></polygon><polygon class="cls-2" points="104.96 42.17 104.96 42.17 104.96 42.18 104.96 42.17"></polygon><polygon class="cls-2" points="105.62 40.44 105.61 40.45 105.61 40.45 105.62 40.44"></polygon><polygon class="cls-2" points="104.43 43.58 104.43 43.58 104.42 43.59 104.43 43.58"></polygon><polygon class="cls-2" points="105.29 41.31 105.29 41.31 105.28 41.31 105.29 41.31"></polygon><polygon class="cls-2" points="104.76 42.72 104.75 42.72 104.75 42.73 104.76 42.72"></polygon><polygon class="cls-2" points="109.27 36.55 109.28 36.56 109.28 36.56 109.27 36.55"></polygon><path class="cls-2" d="M112.3,44.45h0c-.08-.18,0-.42-.21-.55h0c-.1-.08,0-.24-.12-.32h0c0-.07,0-.16-.09-.22s0,0,0-.07a.82.82,0,0,0-.19-.47.08.08,0,0,1,0-.08c-.05-.08,0-.17-.1-.24a0,0,0,0,1,0-.07c0-.08,0-.18-.1-.25h0a1.19,1.19,0,0,0-.21-.55h0c-.11-.08,0-.24-.12-.32h0c0-.06,0-.15-.09-.22s0,0,0-.07,0-.18-.1-.25h0c-.1-.09,0-.25-.12-.33h0c0-.06,0-.15-.09-.21a.08.08,0,0,1,0-.08.75.75,0,0,0-.09-.25h0a1.06,1.06,0,0,0-.21-.54s0,0,0-.07,0-.18-.1-.25h0a1.61,1.61,0,0,0-.21-.55s0,0,0-.06,0-.19-.1-.26h0c0-.07,0-.16-.09-.22a.08.08,0,0,1,0-.08c0-.08,0-.18-.1-.25h0c-.1-.09,0-.24-.11-.32h0c-.06-.06,0-.15-.09-.22a.07.07,0,0,1,0-.08c0-.08,0-.17-.09-.25h0c-.07,0,0-.15-.12-.2a7,7,0,0,0-2.15,0c-.06,0-.05.15-.11.21h0a1.17,1.17,0,0,0-.1.26s0,0,0,.07,0,.15-.09.22h0c-.11.08,0,.24-.12.32h0c-.05.06-.05.15-.09.22h0c-.12.08,0,.24-.12.33h0a2,2,0,0,0-.33.87h0c-.07.07-.07.17-.1.25s0,.05,0,.07,0,.17-.09.24a.08.08,0,0,1,0,.09c0,.06,0,.15-.09.21h0c-.06.07-.06.17-.1.26s0,.05,0,.07,0,.15-.09.21h0c-.11.08,0,.24-.11.33h0c-.07.07-.06.17-.1.25a.06.06,0,0,1,0,.07c0,.06,0,.15-.09.22h0c-.11.08,0,.24-.12.32h0a.85.85,0,0,0-.21.54h0a.7.7,0,0,0-.1.26s0,0,0,.07,0,.15-.09.22h0c-.11.08,0,.24-.12.32h0c-.07.07-.07.17-.1.26a0,0,0,0,1,0,.06c-.06.06,0,.15-.09.22h0c-.12.08,0,.24-.12.33h0c-.16.15-.14.37-.21.55h0c-.08.11-.11.22,0,.31a14.93,14.93,0,0,1,1.77,0,.45.45,0,0,0,.14-.1h0c.14-.15.14-.36.21-.55h0c.07-.07.06-.17.1-.26s0,0,0-.06.06-.17.1-.25,0,0,0-.07a29.72,29.72,0,0,1,3.13,0,.61.61,0,0,1,.34.14h0c0,.07,0,.17.1.23s0,0,0,.06,0,.19.1.26h0c.11.24-.06.66.43.65a13.61,13.61,0,0,1,1.69,0c.14-.1.11-.2,0-.31ZM107,41.75l1.17-3.31a25.49,25.49,0,0,1,1.2,3.29A8.44,8.44,0,0,1,107,41.75Z"></path><polygon class="cls-2" points="110.15 44.11 110.15 44.11 110.15 44.12 110.15 44.11"></polygon><polygon class="cls-2" points="106.25 44.12 106.25 44.11 106.25 44.11 106.25 44.12"></polygon><polygon class="cls-2" points="104.1 44.45 104.1 44.45 104.1 44.45 104.1 44.45"></polygon><polygon class="cls-2" points="110.58 39.9 110.58 39.9 110.58 39.9 110.58 39.9"></polygon><polygon class="cls-2" points="111.97 43.59 111.97 43.58 111.97 43.58 111.97 43.59"></polygon><polygon class="cls-2" points="111.44 42.18 111.44 42.18 111.43 42.17 111.44 42.18"></polygon><polygon class="cls-2" points="106.59 37.85 106.59 37.85 106.59 37.86 106.59 37.85"></polygon><polygon class="cls-2" points="107.12 36.56 107.12 36.56 107.13 36.55 107.12 36.56"></polygon><polygon class="cls-2" points="112.3 44.45 112.3 44.45 112.3 44.45 112.3 44.45"></polygon><polygon class="cls-2" points="106.8 37.31 106.8 37.31 106.8 37.31 106.8 37.31"></polygon><polygon class="cls-2" points="110.25 39.04 110.25 39.04 110.25 39.04 110.25 39.04"></polygon><polygon class="cls-2" points="110.79 40.45 110.78 40.44 110.78 40.44 110.79 40.45"></polygon><polygon class="cls-2" points="133.95 38.71 133.94 38.72 133.94 38.72 133.95 38.71"></polygon><polygon class="cls-2" points="132.97 41.31 132.97 41.31 132.97 41.31 132.97 41.31"></polygon><polygon class="cls-2" points="134.6 36.98 134.6 36.99 134.59 36.99 134.6 36.98"></polygon><polygon class="cls-2" points="134.27 37.85 134.27 37.85 134.27 37.86 134.27 37.85"></polygon><polygon class="cls-2" points="132.76 41.85 132.76 41.85 132.75 41.86 132.76 41.85"></polygon><polygon class="cls-2" points="133.81 44.44 133.81 44.43 133.82 44.43 133.81 44.44"></polygon><polygon class="cls-2" points="137.62 43.56 137.62 43.56 137.63 43.57 137.62 43.56"></polygon><polygon class="cls-2" points="132.11 43.58 132.11 43.58 132.1 43.59 132.11 43.58"></polygon><path class="cls-2" d="M139.77,43.9h0c-.09-.09,0-.25-.12-.33h0c0-.07,0-.16-.09-.22h0c-.08-.09,0-.24-.12-.32h0c-.05-.06,0-.15-.09-.22a.06.06,0,0,1,0-.07c0-.09,0-.18-.1-.25h0c-.1-.09,0-.24-.12-.33h0c0-.06,0-.15-.09-.21a.07.07,0,0,1,0-.07.73.73,0,0,0-.09-.26h0c-.1-.08,0-.24-.12-.32h0c0-.07,0-.16-.09-.22s0,0,0-.07,0-.18-.1-.25h0c-.06-.06,0-.15-.09-.22a.06.06,0,0,1,0-.08c-.05-.08,0-.18-.1-.24a.06.06,0,0,1,0-.07,1.31,1.31,0,0,0-.21-.57h0c0-.07,0-.17-.1-.23h0c-.1-.08,0-.24-.11-.32h0c-.05-.06,0-.15-.09-.22a.05.05,0,0,1,0-.08,1.3,1.3,0,0,0-.1-.25h0c-.1-.09,0-.25-.12-.33h0c0-.06,0-.15-.09-.21a.08.08,0,0,1,0-.08c0-.08,0-.18-.1-.25h0c-.1-.08,0-.24-.12-.32h0c0-.07,0-.16-.09-.22a0,0,0,0,1,0-.07c0-.08,0-.18-.11-.25h0c-.06-.06,0-.15-.11-.21a7.45,7.45,0,0,0-2.16,0,.23.23,0,0,0-.1.14s0,0,0,.06-.05.16-.09.23h0c-.12.08,0,.23-.12.32h0c-.07.07-.07.17-.1.25s0,0,0,.07,0,.15-.09.22h0c-.11.08,0,.24-.12.32h0c-.16.15-.13.36-.21.55h0c-.1.08,0,.23-.11.32h0c-.07.07-.06.17-.1.25s0,.05,0,.07c-.18.14-.17.35-.21.54h0c-.06.07-.05.17-.09.25a.07.07,0,0,1,0,.08c0,.06,0,.15-.09.22h0c-.1.08,0,.24-.11.32h0c-.15.16-.14.37-.21.55h0c-.07.07-.07.17-.1.25a.06.06,0,0,1,0,.07c-.06.06,0,.15-.09.22h0c-.12.08,0,.24-.12.33h0c-.07.07-.06.17-.1.26s0,0,0,.07c-.21.12-.12.36-.21.54h0a.75.75,0,0,0-.09.25.06.06,0,0,1,0,.07c-.06.07,0,.15-.09.22h0c-.12.08,0,.24-.12.32h0c-.19.14-.12.37-.21.55h0c-.08.11-.11.22,0,.31a14.93,14.93,0,0,1,1.77,0,.36.36,0,0,0,.14-.1h0c.06-.06.05-.16.09-.23h0c.12-.08,0-.23.12-.32h0c.12-.08,0-.23.12-.32h0c.07-.07.06-.17.1-.25s0-.06,0-.07a29.72,29.72,0,0,1,3.13,0,.58.58,0,0,1,.33.14h0c0,.07,0,.17.09.23s0,0,0,.07a1.39,1.39,0,0,0,.1.26h0c.1.09,0,.25.12.33h0c.06.12,0,.3.22.32H140C140.18,44.41,140,44.16,139.77,43.9Zm-5.11-2.14c.39-1.1.77-2.18,1.16-3.26h.11c.39,1.07.77,2.14,1.15,3.21A7.86,7.86,0,0,1,134.66,41.76Z"></path><polygon class="cls-2" points="137.28 37.32 137.28 37.31 137.27 37.31 137.28 37.32"></polygon><polygon class="cls-2" points="131.78 44.44 131.78 44.45 131.78 44.45 131.78 44.44"></polygon><polygon class="cls-2" points="139.65 43.59 139.65 43.59 139.65 43.58 139.65 43.59"></polygon><polygon class="cls-2" points="139.44 43.05 139.44 43.04 139.44 43.04 139.44 43.05"></polygon><path class="cls-2" d="M137,36.55h0Z"></path><polygon class="cls-2" points="134.8 36.56 134.8 36.56 134.81 36.55 134.8 36.56"></polygon><polygon class="cls-2" points="137.6 38.18 137.6 38.17 137.6 38.17 137.6 38.18"></polygon><polygon class="cls-2" points="138.79 41.32 138.79 41.31 138.79 41.31 138.79 41.32"></polygon><polygon class="cls-2" points="138.14 39.59 138.14 39.59 138.13 39.58 138.14 39.59"></polygon><polygon class="cls-2" points="139.12 42.18 139.11 42.17 139.11 42.17 139.12 42.18"></polygon><path class="cls-1" d="M16.7,16.26c-.08-.15,0-.33-.09-.47a.08.08,0,0,1,0-.09c-.08-.1,0-.24-.09-.35a.05.05,0,0,1,0-.08c-.08-.1,0-.25-.1-.35h0c-.1-.09,0-.25-.12-.33h0c-.06-.07,0-.16-.1-.23s0,0,0-.07,0-.18-.11-.25h0c0-.07,0-.16-.1-.22h0c0-.07,0-.17-.11-.22h0c-.05-.07,0-.16-.11-.21h0c0-.07,0-.17-.12-.21h0c0-.06,0-.09-.09-.13h0c-.06-.06,0-.16-.12-.21h0c0-.05-.05-.08-.09-.12h0a2.26,2.26,0,0,0-.23-.31h0a.29.29,0,0,0-.1-.12h0a3.38,3.38,0,0,0-.75-.76h0a1.27,1.27,0,0,0-.12-.1h0a.63.63,0,0,0-.12-.11h0a.17.17,0,0,0-.12-.1h0a2,2,0,0,0-.63-.44h0c-.1-.23-.56-.28-.33-.66h0A.19.19,0,0,0,13,10h0v0h0c.08,0,.06-.14.12-.2h0s.09-.07.09-.13h0c.09,0,.08-.14.12-.21h0c.08-.05.06-.14.11-.21h0c.07,0,.06-.15.11-.22h0c.08-.06.07-.16.1-.25a0,0,0,0,1,0-.06c.06-.07.05-.16.09-.23h0c.11-.09,0-.25.11-.36v0l0,0c.11-.14,0-.32.1-.46a.06.06,0,0,1,0-.08,7.09,7.09,0,0,0,0-1.84.06.06,0,0,1,0-.09c-.11-.14,0-.31-.1-.45s0-.05,0-.09,0-.24-.1-.34,0,0,0-.07a.8.8,0,0,0-.09-.26h0c-.11-.08,0-.24-.12-.32h0c-.05-.07,0-.16-.1-.22h0c-.06-.07,0-.17-.11-.22h0c-.06-.06,0-.16-.11-.22h0c-.05-.06,0-.16-.12-.2h0s-.06-.09-.09-.13h0c-.07,0,0-.16-.12-.2h0v0h0a.38.38,0,0,0-.1-.12h0c-.06-.05,0-.16-.13-.19h0a0,0,0,0,1,0,0,.14.14,0,0,0-.1-.12h0v0h0a.29.29,0,0,0-.1-.12h0A1,1,0,0,0,12,1.84h0a.27.27,0,0,0-.11-.1h0a.22.22,0,0,0-.12-.11h0c-.08-.1-.21-.14-.31-.22h0a.28.28,0,0,0-.14-.1h0A1.2,1.2,0,0,0,10.75,1h0c0-.08-.14-.07-.21-.11h0c-.06-.09-.16-.07-.24-.11a.07.07,0,0,1-.08,0c-.06-.05-.15,0-.21-.1h0C10,.59,9.86.59,9.79.55h0c-.08-.11-.24,0-.33-.11h0c-.1-.11-.25,0-.35-.11A.05.05,0,0,1,9,.31C8.93.24,8.79.3,8.69.22a.08.08,0,0,1-.09,0c-.14-.1-.31,0-.45-.1a.06.06,0,0,1-.09,0,.94.94,0,0,0-.47,0c-2.34,0-4.68,0-7,0C.12,0,0,.15,0,.61Q0,13,0,25.34c0,.45.12.57.57.56,2.81,0,5.61,0,8.42,0a1,1,0,0,0,.48,0l.18,0c.14-.08.32,0,.47-.09l0,0h.05a2.93,2.93,0,0,0,.77-.21l0,0h0a.8.8,0,0,0,.26-.09l0,0h0a.42.42,0,0,0,.26-.1h0c.17-.08.4,0,.52-.23h0a1.76,1.76,0,0,0,.77-.42h0a1.36,1.36,0,0,0,.32-.21h0s.08-.07.13-.09h0c0-.07.15,0,.19-.13h0a.17.17,0,0,0,.12-.1h0A.54.54,0,0,0,13.8,24h0a2,2,0,0,0,.41-.35h0a.52.52,0,0,0,.42-.43h0a1.53,1.53,0,0,0,.35-.41h0a.29.29,0,0,0,.1-.12h0v0h0a1.6,1.6,0,0,0,.22-.31h0s.09-.07.1-.13h0l0,0h0c.08,0,.07-.14.12-.2h0a1.16,1.16,0,0,0,.31-.55h0c.08-.05.07-.14.11-.21h0c.08-.05.07-.15.11-.22h0c.13-.07.05-.22.12-.31h0c.06-.06.06-.15.1-.23h0v0h0c.12-.08,0-.23.11-.33h0c.12-.09.05-.25.12-.36s0-.05,0-.06,0-.26.09-.38v0l0,0c.13-.17,0-.39.11-.56l0-.2a11,11,0,0,0,0-2.15ZM4.14,3.78c.53,0,1.05,0,1.57,0h0c.5,0,1,0,1.51,0A3.08,3.08,0,0,1,10,7.51,3.19,3.19,0,0,1,7.55,9.74a13.27,13.27,0,0,1-1.89.07H4.26c-.41,0-.42,0-.42-.42V4.91c0-.27,0-.54,0-.81S3.91,3.77,4.14,3.78Zm5,18.35-.21,0H4.15c-.32,0-.34-.15-.34-.4,0-1.4,0-2.81,0-4.21s0-2.77,0-4.16c0-.41,0-.41.42-.41,1.44,0,2.88,0,4.32,0a4.6,4.6,0,0,1,.56,9.16Z"></path><path class="cls-1" d="M36.93,16.27c-.11-.26,0-.55-.09-.81l0-.18c-.09-.15,0-.33-.09-.47a.05.05,0,0,1,0-.08c-.07-.1,0-.25-.09-.35a.06.06,0,0,1,0-.08c-.07-.1,0-.25-.1-.35h0c-.09-.09,0-.25-.12-.33h0c0-.07,0-.16-.09-.22s0,0,0-.06,0-.19-.1-.26h0a1,1,0,0,0-.22-.43h0c0-.07,0-.17-.11-.22h0c0-.06,0-.16-.11-.2h0a.24.24,0,0,0-.09-.13h0c-.07,0,0-.15-.12-.2h0a1.56,1.56,0,0,0-.44-.63h0a.19.19,0,0,0-.1-.13h0a.5.5,0,0,0-.1-.11h0c-.09-.09-.12-.23-.24-.3h0l0,0h0a.13.13,0,0,0-.1-.12h0a.17.17,0,0,0-.11-.11h0a.18.18,0,0,0-.1-.11h0a.23.23,0,0,0-.11-.11h0a.18.18,0,0,0-.11-.1h0v0h0a.2.2,0,0,0-.11-.11h0a.17.17,0,0,0-.12-.11v0h0a2.18,2.18,0,0,0-.4-.34h0a.54.54,0,0,0-.12-.09h0a.17.17,0,0,0-.12-.1h0v0h0c0-.09-.15-.07-.19-.13h0a.38.38,0,0,0-.12-.1h0c-.11-.21-.34-.24-.52-.34h0s-.08-.08-.13-.08h0c-.05-.09-.14-.08-.21-.12h0c-.05-.07-.15-.06-.21-.11h0c-.05-.07-.15-.06-.22-.11h0c-.05-.07-.15-.06-.21-.1h0c-.06-.08-.16-.07-.23-.11h0c-.14-.2-.38-.13-.56-.22a0,0,0,0,1-.07,0,2.5,2.5,0,0,0-.25-.09.05.05,0,0,1-.08,0A1.12,1.12,0,0,0,30,7.8s0,0-.06,0-.25,0-.36-.09a.07.07,0,0,1-.08,0c-.13-.1-.31,0-.45-.1a.06.06,0,0,1-.09,0c-.21-.11-.46,0-.68-.09a1.46,1.46,0,0,1-.51,0,.47.47,0,0,0-.43,0,1.39,1.39,0,0,1-.5,0c-.22.11-.47,0-.68.09l-.17,0c-.3.09-.65,0-.91.22h0c-.09.09-.24,0-.33.11h0c-.09.09-.24,0-.32.11h0c-.06.05-.16,0-.22.09s0,0-.07,0-.19,0-.25.11h0c-.07,0-.16,0-.22.1h0c-.06.06-.16,0-.22.11h0c-.07.06-.17,0-.22.11h0c-.07,0-.16,0-.21.11h0c-.07,0-.17,0-.21.12h0v0h0c-.05,0-.09.05-.13.09h0c-.05.06-.15,0-.2.12h0a.54.54,0,0,0-.12.09h0c-.05.07-.16,0-.2.13h0a1.21,1.21,0,0,0-.42.32h0a.19.19,0,0,0-.13.1h0a.38.38,0,0,0-.11.11h0l-.12.1h0a5,5,0,0,0-.86.86h0l-.1.11h0a.38.38,0,0,0-.1.12h0a.17.17,0,0,0-.1.12h0l0,0h0c-.09,0-.06.14-.14.18h0a1.27,1.27,0,0,1-.1.12h0a.17.17,0,0,0-.1.12h0v0h0c-.08,0-.06.15-.13.2h0a.38.38,0,0,0-.09.12h0v0h0c-.08,0-.06.15-.12.21h0a1.23,1.23,0,0,0-.32.55h0c-.07,0-.06.15-.1.21h0c-.08.06-.07.15-.11.22h0c-.08.07-.07.17-.11.25a0,0,0,0,1,0,.07c-.05.06,0,.16-.09.22h0c-.11.08,0,.23-.12.32h0c-.09.09,0,.24-.1.33h0c-.1.11,0,.25-.1.36a.06.06,0,0,1,0,.08c-.08.11,0,.25-.09.37l0,.17c-.1.17,0,.38-.09.56l0,.2a8.39,8.39,0,0,0,0,1.94V18c.1.18,0,.4.1.58,0,0,0,0,0,.07s0,.25.09.36a.07.07,0,0,1,0,.09c.08.1,0,.24.1.34s0,0,0,.07a1,1,0,0,0,.08.25.05.05,0,0,1,0,.08c0,.08,0,.18.1.25l0,0v0c0,.09,0,.19.1.26h0c.05.07,0,.16.1.22h0a1.19,1.19,0,0,0,.21.44h0c.07.05.05.15.11.21s.05.16.12.21h0c.05.06,0,.16.11.21h0a.54.54,0,0,0,.09.12h0c.07,0,.05.15.13.2h0a.94.94,0,0,0,.09.12h0c.07,0,0,.15.13.19h0a.24.24,0,0,0,.09.13h0c.11.14.13.36.33.42h0a.29.29,0,0,0,.11.11h0a.58.58,0,0,0,.1.12h0l.1.12h0l.1.11h0l.11.11h0l.1.1h0l.11.1h0a1.14,1.14,0,0,1,.11.11h0l.11.1h0a.35.35,0,0,0,.11.1h0a.19.19,0,0,0,.13.1h0v0h0c.07.12.2.15.3.24h0a.27.27,0,0,0,.12.09h0a1,1,0,0,0,.32.22h0a1.11,1.11,0,0,0,.32.21h0c0,.08.16.06.21.12h0a1.31,1.31,0,0,0,.86.44h0c.07.06.16.05.23.1h0c.13.22.37.13.55.21h0c.08.11.23,0,.33.11h0c.1.11.25,0,.37.11l0,0,0,0c.13.12.31,0,.44.1h0c.18.13.4,0,.57.11l.19,0a11.48,11.48,0,0,0,2.27,0l.18,0c.32-.11.72.08,1-.21h0c.09-.08.24,0,.33-.1h0c.29-.11.64-.06.87-.32h0c0-.07.15-.05.21-.1l0,0h0a1.5,1.5,0,0,0,.79-.43h0a1.17,1.17,0,0,0,.53-.33h0a.6.6,0,0,0,.13-.09h0c.05-.07.15-.05.19-.13h0a0,0,0,0,0,0,0,.15.15,0,0,0,.12-.1h0a1.27,1.27,0,0,0,.12-.1h0c.09-.09.23-.12.3-.24h0v0h0a.15.15,0,0,0,.12-.1h0a.27.27,0,0,0,.11-.1h0a.29.29,0,0,0,.11-.11h0a.29.29,0,0,0,.11-.11h0a.43.43,0,0,0,.11-.12h0a.43.43,0,0,0,.11-.12h0a.38.38,0,0,0,.11-.11h0a.29.29,0,0,0,.11-.11h0a.21.21,0,0,0,.1-.11h0a.16.16,0,0,0,.11-.13h0c.11-.06.15-.2.23-.29h0a.32.32,0,0,0,.1-.13h0a1.18,1.18,0,0,0,.44-.63h0a.25.25,0,0,0,.1-.16,0,0,0,0,1,0-.06l.07-.11h0c.08-.05.07-.16.12-.22h0c.07-.06,0-.16.11-.22h0c.07-.06,0-.16.11-.22h0c.07-.06,0-.16.11-.22h0c.06-.06,0-.15.1-.22h0c.11-.08,0-.24.12-.32h0c.13-.3,0-.38-.3-.38-.7,0-1.4,0-2.1,0a5.31,5.31,0,0,0-1.49.06h0a.25.25,0,0,0-.11.12h0v0h0a2.73,2.73,0,0,0-.56.74h0a.52.52,0,0,1-.1.11h0l-.11.11h0l-.11.1h0a.48.48,0,0,1-.11.09h0c-.08.1-.21.13-.29.23h0a.41.41,0,0,0-.13.1h0a1.21,1.21,0,0,0-.53.34h0c-.07,0-.17,0-.21.12h0a.57.57,0,0,0-.44.2h0c-.07,0-.16,0-.22.1h0c-.09.1-.24,0-.33.11h0c-.09.09-.24,0-.33.09s-.06,0-.09,0-.39,0-.56.1a.52.52,0,0,1-.39,0,.72.72,0,0,1-.52,0,.39.39,0,0,1-.28,0,1,1,0,0,0-.55-.09l-.1,0c-.11-.09-.25,0-.36-.09s-.06,0-.07,0a.89.89,0,0,0-.26-.09s0,0-.07,0-.15,0-.22-.09h0c-.05-.08-.15-.06-.22-.11h0c-.05-.07-.15-.06-.21-.11h0c-.05-.07-.16-.05-.21-.12h0a.34.34,0,0,0-.14-.09h0a3.41,3.41,0,0,0-.85-.66h0a.25.25,0,0,0-.12-.11h0a.27.27,0,0,0-.1-.11h0a.29.29,0,0,0-.11-.11h0a.38.38,0,0,0-.11-.11h0a.35.35,0,0,0-.1-.11h0c-.08-.1-.11-.23-.23-.3h0a.17.17,0,0,0-.1-.13h0a1.4,1.4,0,0,0-.22-.32h0c0-.07,0-.17-.12-.21h0c0-.08,0-.17-.1-.22h0c0-.07,0-.17-.1-.23h0c-.09-.09,0-.24-.11-.33h0c0-.07-.07-.14,0-.2a1.67,1.67,0,0,1,.59,0H35.9l.81,0,.12-.12a.09.09,0,0,1,0-.1c.12-.36,0-.74.09-1.1A3.39,3.39,0,0,1,36.93,16.27ZM22.29,14.89c.22-1.74,2.73-3.62,5-3.74,2.5-.13,5.07,1.57,5.58,3.74Z"></path><path class="cls-1" d="M45.81,26.92l0,0v0c0,.09,0,.2-.11.26h0c0,.07,0,.17-.1.23h0c0,.06,0,.16-.1.22h0c-.11.08,0,.25-.13.32h0c0,.07,0,.17-.1.23h0c-.06.07,0,.16-.1.23h0c-.11.08,0,.25-.13.31h0c0,.08,0,.18-.1.23h0c0,.06,0,.16-.1.22h0c-.07.05,0,.15-.09.21s0,0,0,.07,0,.19-.11.25h0c-.06.06,0,.16-.1.22h0c-.11.08,0,.25-.14.32h0c0,.07,0,.17-.1.23h0c-.05.07,0,.16-.1.23h0c-.1.08,0,.25-.13.31h0c0,.08,0,.18-.11.24h0c-.05.07,0,.16-.1.23h0c-.07.22-.22.27-.44.27H40c-.16,0-.45.11-.36-.26,0,0,0,0,0-.07s0-.19.11-.25h0c.05-.08,0-.17.1-.23h0c.06-.06,0-.16.1-.22s0,0,0-.06,0-.2.11-.26h0c.05-.07,0-.17.11-.23h0c.05-.06,0-.16.09-.22l0,0v0c0-.1,0-.2.12-.27h0c0-.07,0-.17.1-.23h0c.06-.07,0-.16.1-.23h0c.11-.08,0-.25.13-.31h0c0-.08,0-.17.1-.23h0c0-.06,0-.16.1-.22h0c.08-.18.06-.4.23-.54h0c.05-.07,0-.17.1-.23h0c.11-.08,0-.25.14-.31h0c0-.08,0-.18.1-.24h0c0-.07,0-.16.1-.23h0c.06-.06,0-.16.1-.22s0,0,0-.07,0-.19.11-.25h0c0-.07,0-.17.11-.23h0C42,26.11,42,26,42,26s0,0,0-.06,0-.19.11-.26h0c0-.07,0-.17.1-.23h0c.06-.07,0-.16.1-.23s0,0,0-.06,0-.19.11-.26v0c0-.08,0-.17.11-.24h0c.06-.06,0-.16.1-.22l0,0v0c0-.09.07-.19,0-.28h0c-.08-.07-.07-.17-.11-.25a.06.06,0,0,0,0-.08c0-.06,0-.15-.1-.2h0c-.06-.06-.05-.16-.1-.22h0c-.07-.06-.06-.16-.1-.23h0c-.13-.07,0-.24-.13-.31h0c0-.07,0-.16-.1-.23h0c-.07-.06-.06-.16-.11-.24v0c-.09-.07-.08-.18-.11-.27v0l0,0c-.06-.07,0-.16-.1-.23h0c-.07-.06-.06-.16-.1-.23h0c-.09-.07-.09-.17-.12-.26v0l0,0c-.06-.06,0-.16-.1-.22h0c-.07-.06-.06-.16-.11-.23h0c-.09-.06-.08-.17-.11-.26s0,0,0-.06-.13-.3-.2-.44h0c-.09-.07-.08-.18-.12-.26s0-.05,0-.06,0-.16-.1-.22h0c-.07-.06-.06-.16-.11-.23h0c-.09-.07-.08-.17-.11-.26s0-.05,0-.06,0-.16-.1-.22h0c-.07-.06,0-.16-.1-.23h0c-.09-.06-.08-.17-.11-.25s0-.05,0-.07,0-.16-.1-.22h0C40,18,40,17.9,40,17.83h0c-.18-.13-.16-.35-.23-.53h0c-.06-.06,0-.16-.1-.23h0c-.08-.07-.07-.17-.1-.25a.05.05,0,0,0,0-.07c-.05-.07,0-.16-.1-.22h0c-.06-.06-.05-.16-.1-.23h0c-.08-.06-.07-.15-.1-.23h0c-.13-.06,0-.24-.13-.32h0c-.06-.07-.05-.16-.1-.23h0c-.07-.06-.06-.16-.1-.24h0c-.14-.06,0-.23-.13-.31h0c-.06-.07,0-.16-.1-.23h0c-.08-.06-.07-.16-.1-.23h0c-.15-.05,0-.22-.13-.31h0c-.06-.06-.05-.16-.1-.22h0c-.07-.06-.06-.16-.1-.23h0c-.18-.14-.13-.37-.24-.54h0c-.08-.06-.06-.16-.11-.24h0c-.13-.06,0-.23-.13-.31h0c-.06-.07,0-.16-.1-.23h0c-.07-.06-.06-.16-.1-.23h0c-.13-.07,0-.24-.13-.32h0c0-.06,0-.16-.1-.22h0c-.07-.06-.06-.16-.11-.23h0c-.09-.06-.08-.17-.11-.26v0l0,0c-.06-.06,0-.16-.1-.22h0C37,11,37,10.87,37,10.79h0c-.09-.05-.08-.15-.11-.23h0c-.17,0-.06-.22-.13-.3h0c-.07-.06-.06-.16-.11-.23h0c-.09-.07-.08-.17-.11-.26s0,0,0-.06,0-.16-.1-.22h0c-.07-.06,0-.16-.1-.23h0c-.09-.06-.08-.17-.12-.26s0,0,0-.06,0-.16-.1-.22h0C36,8.69,36,8.6,36,8.53h0c-.09-.07-.08-.17-.11-.26s0,0,0-.07,0-.15-.1-.21h0c0-.22.16-.16.26-.16H39.6A.37.37,0,0,1,40,8h0c.06.06,0,.16.1.22h0c.08.06.06.16.11.23h0c.09.06.08.17.11.26v0l0,0c.06.06,0,.16.1.22h0c.07.06.06.15.1.23v0c.09.07.08.18.11.27v0l0,0c.06.07,0,.16.1.23h0c.06.06.05.16.1.23h0c.09.07.08.17.11.26a0,0,0,0,0,0,.06c.06.06,0,.16.1.22h0c.07.06.06.16.1.23h0c.08.06.07.15.1.23h0c.15.05.06.22.14.31h0c.06.06.05.15.1.22h0c.09.07.08.18.11.26a.06.06,0,0,0,0,.07c.06.06,0,.15.1.21h0c.07.06.06.16.1.23h0c.08.07.07.17.11.26s0,0,0,.06,0,.16.1.22h0a1.16,1.16,0,0,1,.2.47.05.05,0,0,0,0,.07c0,.06,0,.16.09.22h0c.07.06,0,.15.1.22h0c.08,0,.07.15.1.23h0c.14.06,0,.23.14.31h0c.06.07,0,.16.1.23h0c.08.06.07.16.11.24v0c.14.07,0,.24.13.32h0c.06.06,0,.16.1.23h0c.08.06.06.16.1.23h0c.14.07,0,.24.14.31h0c.06.06,0,.16.1.22h0c.17.13.15.36.23.53h0c.06.07,0,.16.1.23h0c.07.06.06.16.1.23h0c.13.06,0,.22.13.31h0c.06.06,0,.16.1.23h0c.08.06.07.16.11.23h0c.13.07,0,.24.13.31h0c.06.06.05.16.1.22h0c.07.06.06.15.1.23h0c.13.06,0,.23.13.31h0c.4.51.36-.16.55-.21h0c.05-.07,0-.17.11-.23h0c.06-.06,0-.15.09-.21s0,0,0-.07,0-.19.1-.26h0c0-.07,0-.16.1-.23h0c.06-.06,0-.16.1-.22a0,0,0,0,0,0-.07c0-.08,0-.19.11-.25h0c0-.07,0-.17.11-.23h0c.07-.06.05-.16.1-.22a0,0,0,0,0,0-.06c0-.09,0-.19.1-.26h0c0-.07,0-.17.1-.23h0c.06-.07,0-.16.1-.23s0,0,0-.06,0-.19.11-.26h0c0-.07,0-.16.11-.23h0c.06-.06,0-.16.1-.22s0,0,0-.06,0-.2.12-.26h0c0-.07,0-.17.1-.23h0c.06-.06,0-.16.1-.22l0,0v0c0-.09,0-.19.11-.26h0c0-.07,0-.17.11-.23h0c.06-.07,0-.16.1-.23l0,0v0c0-.09,0-.2.12-.27v0c0-.08,0-.17.1-.24h0c.06-.07,0-.16.1-.23h0c.11-.07,0-.24.13-.31h0c.05-.07,0-.17.11-.23h0c.06-.06,0-.16.1-.22h0c.06-.06,0-.15.09-.21a.07.07,0,0,0,0-.08c0-.08,0-.18.1-.25h0c.05-.07,0-.16.1-.23h0c.07,0,.05-.15.1-.21a.06.06,0,0,0,0-.08c0-.08,0-.18.11-.25h0c.06-.07,0-.16.11-.23h0c.1-.07,0-.24.13-.31h0c0-.08,0-.17.1-.23h0c0-.07,0-.17.1-.23h0c.11-.08,0-.25.13-.32h0c0-.07,0-.17.1-.23h0c.06-.07,0-.17.11-.23h0c.1-.08,0-.25.13-.31h0c0-.08,0-.18.1-.24h0c0-.07,0-.16.1-.23h0c.06-.06,0-.16.1-.22s0,0,0-.07c.06-.25.26-.2.43-.2,1.15,0,2.29,0,3.43,0,.15,0,.46-.13.33.26h0c-.1.17-.06.4-.23.54h0c0,.07,0,.17-.1.23h0c0,.07,0,.17-.1.23h0c-.11.08,0,.25-.13.32h0c0,.07,0,.17-.11.23h0c0,.07,0,.16-.1.23h0c-.11.08,0,.25-.14.31h0c0,.08,0,.18-.1.23h0c0,.07,0,.16-.1.22h0c-.1.08,0,.25-.13.32h0c0,.08,0,.17-.11.23h0c0,.07,0,.17-.1.23h0c-.07.06,0,.15-.1.22s0,0,0,.06,0,.19-.11.26h0c-.05.07,0,.17-.1.23h0a.72.72,0,0,1-.23.53h0c-.05.07,0,.16-.1.22h0c-.06.06,0,.16-.1.22a0,0,0,0,0,0,.07c0,.08,0,.19-.11.25h0c0,.07,0,.17-.1.23h0c-.06.06,0,.15-.09.22a0,0,0,0,0,0,.06c0,.09,0,.19-.11.26h0c-.05.07,0,.17-.1.23h0c-.06.07,0,.16-.1.22s0,0,0,.07,0,.19-.11.26h0c0,.07,0,.16-.1.22h0c-.06.06,0,.16-.09.22a0,0,0,0,0,0,.06c0,.09,0,.2-.11.26h0c0,.07,0,.17-.1.23h0c-.06.06,0,.16-.1.22l0,0v0c0,.09,0,.19-.11.26h0c0,.07,0,.17-.1.23h0c0,.07,0,.16-.1.23h0c-.11.08,0,.25-.13.31h0c0,.08,0,.17-.1.23h0c-.06.06,0,.16-.1.22h0c-.11.07,0,.24-.13.31h0c0,.07,0,.17-.1.23h0c0,.06,0,.16-.1.22h0c-.07.06,0,.15-.09.21a.07.07,0,0,0,0,.08c0,.08,0,.18-.11.25h0c-.06.07,0,.16-.1.23h0c-.11.08,0,.25-.14.31h0c0,.08,0,.18-.1.23h0c0,.07,0,.16-.1.22h0c-.1.07,0,.24-.13.31h0c0,.07,0,.17-.11.23h0c0,.07,0,.17-.1.23h0c-.11.08,0,.25-.14.32v0c0,.08,0,.18-.1.24h0c-.05.07,0,.17-.1.23h0c-.06.05,0,.15-.09.21s0,0,0,.07,0,.19-.11.26h0c-.05.07,0,.16-.1.22h0c-.07.06,0,.16-.1.22a0,0,0,0,0,0,.07c0,.08,0,.19-.11.25h0c-.05.07,0,.17-.1.23h0c-.06.06,0,.15-.09.22a0,0,0,0,0,0,.06c0,.17,0,.36-.2.48h0c-.06.06,0,.15-.1.21s0,0,0,.07,0,.19-.11.26h0c0,.07,0,.16-.1.23h0c-.06.06,0,.16-.09.22a.05.05,0,0,0,0,.07c0,.08,0,.19-.11.25h0c0,.07,0,.17-.1.23h0c-.06.06,0,.16-.1.22s0,0,0,.06,0,.19-.11.26h0c0,.07,0,.17-.1.23h0c-.06.07,0,.16-.1.23l0,0v0c0,.09,0,.2-.11.27v0c0,.08,0,.17-.1.23h0C45.85,26.76,45.87,26.86,45.81,26.92Z"></path><path class="cls-1" d="M79.25,7.69a.06.06,0,0,0,.08,0c.11-.08.25,0,.37-.09l.17,0c.18-.1.4,0,.59-.09a2,2,0,0,0,.6,0,.31.31,0,0,1,.32,0,1.46,1.46,0,0,0,.51,0c.22.11.47,0,.68.09a.06.06,0,0,0,.09,0c.13.11.32,0,.45.11l0,0h0c.12.06.26,0,.37.1h0c.09.1.23,0,.33.11s0,0,.07,0a.75.75,0,0,1,.25.09h0c.08.11.25,0,.32.12h0c.07.05.17,0,.23.1h0c.06.06.16,0,.22.11h0c.06.06.16,0,.21.11h0c.06.07.17.05.22.12h0c.07,0,.18,0,.22.12h0a.34.34,0,0,1,.14.09h0c.05.08.16.05.21.13h0c.06,0,.09.07.13.1h0c0,.07.17,0,.2.14h0a.19.19,0,0,1,.13.1h0a1.33,1.33,0,0,1,.43.35v0c.07,0,.1.05.12.12h0a.15.15,0,0,1,.12.11h0a.28.28,0,0,1,.22.22h0a.18.18,0,0,1,.12.12h0c.07,0,.11,0,.12.12h0c.12.06.14.21.25.3h0a1.27,1.27,0,0,0,.1.12h0a.24.24,0,0,1,.11.13l0,0c.1,0,.07.16.14.2h0s.07.07.09.12h0a1.59,1.59,0,0,1,.45.76h0c.07.05,0,.15.11.22h0c.07.06,0,.16.11.23h0c.08.07.08.17.11.26s0,0,0,.06.05.17.09.25a.05.05,0,0,0,0,.08.79.79,0,0,1,.08.26v0l0,0c.11.13,0,.32.1.45s0,.06,0,.09,0,.4.08.58a.48.48,0,0,0,0,.29c.13.69,0,1.4.09,2.09,0,.45,0,.9,0,1.35q0,3.88,0,7.78c-.25.16-.53.06-.79.07H86.05c-.14,0-.32.09-.44-.09s0-.36,0-.53V16.1c0-.25,0-.5,0-.75s0-.46-.09-.68c0,0,0-.05,0-.07s0-.25-.1-.36a.05.05,0,0,0,0-.08c-.05-.07,0-.16-.09-.23h0c-.08-.06-.07-.15-.1-.23h0c-.1-.05-.08-.15-.11-.23h0c-.1,0-.08-.15-.13-.21h0a3,3,0,0,1-.33-.44h0a.34.34,0,0,1-.12-.12h0a.22.22,0,0,1-.11-.12h0a.19.19,0,0,1-.12-.11h0a.29.29,0,0,1-.12-.1h0c-.1-.09-.26-.09-.32-.24h0a.24.24,0,0,1-.13-.09h0c-.05-.07-.16,0-.21-.13h0c-.07-.05-.18,0-.22-.12h0c-.08,0-.18,0-.23-.11h0c-.07,0-.17,0-.23-.11h0c-.07-.05-.16,0-.23-.09l0,0H82.6c-.1-.08-.25,0-.35-.11h0c-.13-.1-.3,0-.43-.09a.42.42,0,0,0-.29,0,1.35,1.35,0,0,0-.72,0l-.19,0c-.13.1-.31,0-.44.09h0c-.12.15-.31,0-.43.13h0c-.07.06-.16,0-.24.09h0c-.13.18-.37.12-.53.24h0a3.87,3.87,0,0,1-.34.21h0a1.35,1.35,0,0,1-.45.33h0a.14.14,0,0,1-.13.11h0a10.69,10.69,0,0,1-.75.89h0c-.05.06,0,.17-.12.22h0c-.05.07,0,.17-.11.23h0c-.06.06,0,.16-.1.22s0,0,0,.08,0,.25-.1.36h0c-.1.13,0,.3-.09.44a.39.39,0,0,0,0,.28,1.46,1.46,0,0,0,0,.59q0,4.79,0,9.56c0,.41-.07.57-.53.56-1,0-1.9,0-2.86,0-.24,0-.4,0-.4-.34,0-3,0-6.09,0-9.13a.21.21,0,0,1,0-.1,3.21,3.21,0,0,0,0-.76c.1-.46,0-.94.09-1.41V14c.09-.15,0-.33.1-.47a.07.07,0,0,0,0-.09c.08-.1,0-.24.09-.35s0,0,0-.07a2.5,2.5,0,0,1,.09-.25.06.06,0,0,0,0-.08c0-.08,0-.17.09-.25h0c.11-.08,0-.25.14-.31h0c0-.08,0-.18.11-.23h0c.05-.07,0-.18.12-.23h0c0-.07,0-.18.13-.22l0,0a.34.34,0,0,1,.09-.14h0c.07,0,.05-.16.13-.21h0a1.09,1.09,0,0,1,.23-.33h0a.41.41,0,0,1,.1-.13h0c.09-.09.12-.23.24-.31h0a1.93,1.93,0,0,1,.86-.88h0a.19.19,0,0,1,.12-.11h0a.14.14,0,0,1,.13-.11h0c0-.1.15-.07.19-.14h0a.94.94,0,0,1,.12-.09h0a.21.21,0,0,1,.14-.1h0c0-.1.15-.07.21-.13h0a.22.22,0,0,1,.13-.1h0c0-.09.16-.07.22-.13h0c0-.08.16-.05.21-.12h0s.08-.09.14-.09v0c0-.11.16-.09.24-.13a.05.05,0,0,0,.07,0s.07-.08.14-.07h0c.06-.16.22-.06.31-.14h0c.07-.06.16-.06.24-.1h0c.08-.13.24,0,.33-.12h0c.1-.11.25,0,.36-.1s.06,0,.07,0S79.14,7.76,79.25,7.69Z"></path><path class="cls-1" d="M109.45,0h-3.71c-.14.1-.08.26-.08.39,0,.58,0,1.15,0,1.73V8.8c0,.29,0,.54-.38.29h0c0-.05-.07-.09-.13-.09h0V9h0c0-.09-.14-.08-.2-.12h0c0-.08-.16-.06-.21-.12h0s-.08-.08-.13-.08h0c0-.11-.14-.08-.21-.11h0c0-.08-.14-.07-.21-.11h0c0-.08-.15-.07-.22-.11h0c-.06-.09-.17-.08-.25-.11s0,0-.06,0-.16,0-.23-.1h0c-.07-.08-.18-.08-.26-.11h0l0,0a.86.86,0,0,0-.27-.09h0l0,0c-.09-.09-.24,0-.33-.1h0c-.12-.15-.32,0-.45-.11a.05.05,0,0,1-.08,0c-.18-.11-.4,0-.57-.09l-.19,0a9.37,9.37,0,0,0-2,0l-.19,0c-.18.1-.39,0-.57.09a.06.06,0,0,1-.09,0c-.14.1-.32,0-.45.1a.05.05,0,0,1-.08,0c-.11.08-.25,0-.36.1l0,0h0a1.29,1.29,0,0,0-.26.08A.05.05,0,0,1,97,8c-.2,0-.43,0-.56.22h0c-.07,0-.16,0-.22.09h0c-.06.07-.16,0-.22.11h0c-.13.09-.3.1-.42.22h0c-.06.06-.16,0-.21.12h0c-.07.05-.16,0-.21.11h0A.27.27,0,0,0,95,9h0c-.06.07-.16,0-.2.13h0v0h0a.24.24,0,0,0-.13.09h0c-.42.3-.92.49-1.17,1h0a.17.17,0,0,0-.11.11h0a.13.13,0,0,0-.1.12h0a1.47,1.47,0,0,0-.45.51h0a.32.32,0,0,0-.1.13h0c-.11.08-.15.21-.23.3h0a.38.38,0,0,0-.1.12h0c-.07,0,0,.15-.12.2h0a1,1,0,0,0-.09.13h0c-.08,0-.06.15-.12.2h0a.24.24,0,0,0-.09.13,0,0,0,0,1,0,0v0h0c-.09,0-.07.14-.12.21h0c-.07,0-.06.14-.11.21h0c-.07,0-.06.15-.11.21h0c-.07.06-.06.15-.1.22h0c-.08.07-.08.17-.11.26s0,0,0,.06,0,.15-.09.22h0c-.11.08,0,.24-.11.33h0c-.11.09,0,.24-.11.34a.06.06,0,0,1,0,.09c-.07.1,0,.24-.09.33h0c-.12.13,0,.32-.1.46a.06.06,0,0,1,0,.08c-.13.21,0,.46-.1.67l0,.19a6.27,6.27,0,0,0,0,1.62.48.48,0,0,1,0,.29c.1.18,0,.4.09.58l0,.16c.06.12,0,.26.09.38a.07.07,0,0,1,0,.09c.08.1,0,.24.1.34a.06.06,0,0,1,0,.08c.08.1,0,.26.11.35h0c.09.09,0,.25.12.33h0a.73.73,0,0,0,.09.23h0c.1.07,0,.24.12.31h0c0,.07,0,.16.11.22h0c0,.07,0,.16.1.22h0c0,.06,0,.16.12.21h0c0,.06,0,.16.11.2h0a.29.29,0,0,0,.08.13h0c.07.05,0,.15.13.2h0a1.36,1.36,0,0,0,.21.32h0a.54.54,0,0,0,.09.12h0c.07,0,0,.15.13.19h0a.22.22,0,0,0,.09.12h0l.1.11h0c.1.08.12.23.24.29h0a.14.14,0,0,0,.11.12h0a.16.16,0,0,0,.1.11h0a.2.2,0,0,0,.11.11h0a.16.16,0,0,0,.11.1h0a.15.15,0,0,0,.11.11h0v0h0a.14.14,0,0,0,.11.11h0a1.9,1.9,0,0,0,.41.34h0a.38.38,0,0,0,.12.1h0a.17.17,0,0,0,.12.1h0c0,.08.14.06.19.13h0s.08.08.13.09h0a1,1,0,0,0,.32.22h0a.79.79,0,0,0,.33.2h0c0,.09.14.08.21.12h0c0,.08.14.07.21.11h0c0,.08.15.06.22.11h0c.05.07.14.06.22.1h0c.06.09.17.08.25.11h0l0,0c.06.06.15.05.22.09h0c.08.12.24,0,.33.12h0c.09.1.24,0,.33.11h0c.1.11.25,0,.36.11h0l0,0a3,3,0,0,0,1,.2.21.21,0,0,1,.17,0,8.79,8.79,0,0,0,2,0h.2c.18-.05.38,0,.56-.1l0,0h0c.14-.1.33,0,.46-.11h0c.09-.08.24,0,.33-.09l0,0h0c.08,0,.17,0,.25-.09l0,0h0c.08,0,.18,0,.25-.09l0,0h0c.09,0,.19,0,.26-.1h0c.07-.05.16,0,.22-.1h0c.23-.08.53,0,.65-.32h0c0-.07.15-.05.21-.12h0c.06-.06.17,0,.21-.11h0c.07-.05.17,0,.21-.12h0a.24.24,0,0,0,.13-.09h0c0-.06.16,0,.2-.13h0a1.85,1.85,0,0,0,.85-.64h0v0a.15.15,0,0,0,.12-.11h0a.23.23,0,0,0,.12-.1h0a.38.38,0,0,0,.11-.11h0a.34.34,0,0,0,.12-.12h0a.38.38,0,0,0,.11-.11h0a.38.38,0,0,0,.11-.11h0a.21.21,0,0,0,.1-.11h0a.22.22,0,0,0,.11-.12h0v0h0a.13.13,0,0,0,.1-.11h0c.09,0,.06-.15.14-.19h0a1.27,1.27,0,0,1,.1-.12h0s.09-.07.1-.13h0a1,1,0,0,0,.22-.31h0A.19.19,0,0,0,108,22h0c.09,0,.07-.14.12-.2h0c.07,0,0-.15.12-.2h0c0-.05.08-.08.09-.13h0v0h0c.08-.05.07-.14.11-.21h0c.08-.05.07-.15.11-.21h0c.08-.06.06-.15.11-.22h0a.7.7,0,0,0,.21-.47s0-.05,0-.06.05-.16.09-.22h0c.12-.09,0-.24.12-.33h0c.11-.09,0-.24.11-.35a.06.06,0,0,1,0-.08c.08-.1,0-.24.09-.34a.08.08,0,0,1,0-.09c.1-.13,0-.31.09-.45a.08.08,0,0,1,0-.09c.12-.22,0-.46.1-.68a.78.78,0,0,1,0-.4.69.69,0,0,0,0-.32q0-8.3,0-16.58C109.54.27,109.62.1,109.45,0Zm-9.37,22.42a5.55,5.55,0,1,1,5.6-5.56A5.63,5.63,0,0,1,100.08,22.43Z"></path><path class="cls-1" d="M165.08,11.57l0,0h0a.79.79,0,0,1-.26-.08l0,0h-.05c-.14-.09-.32,0-.46-.09l-.19,0a.45.45,0,0,0-.39,0,.34.34,0,0,0-.28,0c-.23.23-.53,0-.77.12h0c-.1.11-.25,0-.36.1h0l0,0c-.07.06-.16,0-.23.1h0c-.06.08-.16.07-.24.11h0c0,.09-.15.08-.22.11h0c0,.1-.15.08-.23.13h0c0,.09-.15.06-.21.13h0a.19.19,0,0,1-.13.1h0c0,.1-.15.07-.19.14h0a1.27,1.27,0,0,1-.12.1h0a.25.25,0,0,1-.12.11h0a.22.22,0,0,1-.13.12h0a.18.18,0,0,1-.12.12v0a.24.24,0,0,1-.11.13h0a.29.29,0,0,1-.1.12h0a6.26,6.26,0,0,1-.56,1h0c0,.07,0,.17-.09.23s0,0,0,.06,0,.27-.1.38l0,0v0c-.09.19,0,.41-.08.59a3.28,3.28,0,0,0,0,.43v9.86a2.45,2.45,0,0,0,0,.27s0,.08-.06.08c-1.17,0-2.34,0-3.5,0-.33,0-.27-.23-.27-.42,0-1.43,0-2.87,0-4.31,0-1.18-.05-2.36,0-3.54a8,8,0,0,0,0-1.47c.13-.55,0-1.12.1-1.67a.39.39,0,0,0,0-.28c.1-.19,0-.41.1-.59,0,0,0,0,0-.07s0-.25.09-.36,0,0,0-.07,0-.26.11-.36h0c0-.07,0-.16.08-.23a.05.05,0,0,0,0-.07c0-.08,0-.18.1-.25h0c0-.06,0-.16.1-.22h0c.07-.06,0-.16.11-.22h0c.07,0,0-.16.11-.21h0c.06-.06,0-.16.12-.21h0c0-.07,0-.19.13-.22v0c0-.07,0-.1.09-.14h0a1.23,1.23,0,0,1,.23-.33h0a.29.29,0,0,1,.1-.12h0c.09-.1.11-.25.25-.31h0a.13.13,0,0,1,.12-.12h0a.22.22,0,0,1,.12-.13h0a.25.25,0,0,1,.11-.12h0a.25.25,0,0,1,.12-.11h0a.23.23,0,0,1,.12-.12h0a.2.2,0,0,1,.12-.12h0a.15.15,0,0,1,.13-.11h0c.25-.27.46-.59.87-.66h0c0-.08.16-.05.2-.13h0s.07-.08.13-.09h0c0-.09.15-.07.21-.12h0c0-.07.16-.05.21-.12h0c.06-.06.16,0,.21-.11h0c.06-.06.16,0,.22-.1h0c.07-.07.16-.05.23-.1h0c.07-.08.18-.08.27-.11h0l0,0c.07-.06.17-.06.25-.1s0,0,.07,0a1.29,1.29,0,0,1,.26-.08h0l0,0c.25-.26.6-.09.89-.21a.06.06,0,0,0,.09,0c.21-.11.46,0,.67-.09a1.51,1.51,0,0,0,.52,0,.31.31,0,0,1,.32,0,2,2,0,0,0,.6,0c.19.09.4,0,.59.09l.17,0c.11.06.26,0,.37.09a.06.06,0,0,0,.08,0c.1.07.25,0,.35.09s0,0,.07,0,.27,0,.36.11h0c.07,0,.16,0,.23.09s0,0,.07,0a1.28,1.28,0,0,1,.69.31l0,0h0a.28.28,0,0,1,.17.09h0c.05.07.16.05.21.11h0c.06.07.16,0,.21.12h0c.06.05.17,0,.21.13h0c.06,0,.09.05.13.09h0c.05.06.17,0,.2.14V9a.19.19,0,0,1,.13.1h0a.57.57,0,0,1,.13.1h0c.09.09.23.12.31.24h0c.07,0,.1.06.13.11h0a.43.43,0,0,1,.12.11h0a.25.25,0,0,1,.12.11h0l.11.11h0a1.14,1.14,0,0,1,.11.11h0a.52.52,0,0,1,.1.11h0a.43.43,0,0,1,.11.12h0a.22.22,0,0,1,.11.12h0a.15.15,0,0,1,.11.13h0c.13.06.16.21.25.31h0a.19.19,0,0,1,.1.12h0a.91.91,0,0,1,.35.53h0s.09.08.09.14h0c.11,0,.09.14.13.22h0c.1,0,.08.15.12.22h0c.1.06.08.17.12.25s0,.06,0,.07,0,.16.1.22h0a.74.74,0,0,1,.1.26v0l0,0c.1.09,0,.24.11.32h0c.09.11,0,.26.09.37s0,.05,0,.06c.13.18,0,.4.11.57v.19c.13.48,0,1,.09,1.45a3.62,3.62,0,0,0,0,.93.51.51,0,0,1,0,.27c0,2.84,0,5.69,0,8.53,0,.37-.11.46-.46.45-.95,0-1.91,0-2.86,0-.4,0-.47-.13-.47-.49,0-3.17,0-6.34,0-9.51a1.46,1.46,0,0,0,0-.59.39.39,0,0,0,0-.28c-.09-.15,0-.33-.09-.48l0,0,0,0a3.89,3.89,0,0,1-.21-.66h0c-.07-.06-.05-.16-.11-.23h0c-.08,0-.06-.16-.12-.22h0s-.09-.08-.09-.14h0c-.1,0-.07-.15-.14-.2h0a.38.38,0,0,1-.1-.12h0a.2.2,0,0,1-.11-.13h0a.15.15,0,0,1-.12-.12h0a.13.13,0,0,1-.12-.12h0a.13.13,0,0,1-.12-.12h0a.16.16,0,0,1-.13-.11h0a1.59,1.59,0,0,1-.44-.33h0c-.06,0-.18,0-.21-.13h0c-.06,0-.09-.05-.14-.08h0c-.16-.12-.38-.11-.53-.25h0C165.24,11.62,165.14,11.63,165.08,11.57Z"></path><path class="cls-1" d="M173.41,0h3.65c.14.18.07.38.07.58v14c0,3.59,0,7.19,0,10.78,0,.41-.07.57-.52.56-1,0-1.91,0-2.87,0-.15,0-.32.08-.44-.09s0-.36,0-.54V.67c0-.18,0-.36,0-.54A.69.69,0,0,1,173.41,0Z"></path><path class="cls-1" d="M133.92,16.91c-.11-.26,0-.55-.1-.8a0,0,0,0,1,0-.07c-.08-.14,0-.33-.1-.47h0c-.12-.12,0-.31-.12-.43h0c-.08-.1,0-.25-.1-.34h0c-.1-.09,0-.25-.12-.33h0c0-.07,0-.16-.09-.22h0c-.11-.08,0-.24-.13-.31h0c0-.07,0-.17-.11-.22h0c0-.07,0-.16-.11-.2h0c0-.06-.05-.09-.08-.14h0c-.08-.05-.05-.16-.12-.21h0c-.06-.06,0-.16-.12-.2h0a.63.63,0,0,0-.22-.31h0a.17.17,0,0,0-.1-.13h0a1.33,1.33,0,0,0-.33-.41h0a.14.14,0,0,0-.11-.12h0l0,0h0a.16.16,0,0,0-.1-.11h0a.2.2,0,0,0-.11-.11h0a.16.16,0,0,0-.11-.1h0a.15.15,0,0,0-.12-.11h0c-.07-.12-.21-.15-.29-.24h0l-.11-.1h0a.27.27,0,0,0-.13-.1v0h0c0-.08-.14-.06-.19-.12h0a.54.54,0,0,0-.12-.09h0c0-.07-.15,0-.2-.12h0c-.12-.21-.45-.31-.32-.64h0l.09-.12h0a.19.19,0,0,0,.1-.13h0c.08,0,.07-.14.12-.19h0c.07-.05,0-.16.12-.21h0s.07-.08.08-.13h0c.09-.06.08-.16.12-.24a0,0,0,0,1,0-.07c.05-.06,0-.16.1-.21h0c.06-.07,0-.16.09-.23h0c.12-.09,0-.25.11-.35a.06.06,0,0,1,0-.08c.08-.1,0-.25.09-.36a0,0,0,0,1,0-.07c.13-.22,0-.47.1-.69a4.41,4.41,0,0,1,0-.89c-.11-.22,0-.47-.09-.69a.05.05,0,0,1,0-.08c-.11-.14,0-.32-.11-.46h0c-.09-.09,0-.24-.1-.33s0,0,0-.07a.89.89,0,0,0-.09-.26h0c-.1-.08,0-.24-.13-.31h0c0-.07,0-.17-.1-.22h0c0-.07,0-.16-.11-.21h0c0-.07,0-.17-.11-.21h0v0h0c0-.06-.06-.09-.09-.13h0c-.07-.05,0-.16-.12-.2h0a.54.54,0,0,0-.09-.12h0c-.08,0-.05-.15-.13-.19h0v0h0a.24.24,0,0,0-.1-.12h0l-.1-.12h0a4.15,4.15,0,0,0-.75-.76h0l-.11-.1h0a.38.38,0,0,0-.12-.1h0a1.4,1.4,0,0,0-.32-.22h0c-.12-.21-.34-.25-.54-.32h0c-.05-.07-.15-.06-.22-.11h0c-.06-.07-.15-.06-.22-.11h0c0-.09-.14-.06-.22-.09h0c-.07-.13-.23,0-.32-.13h0a.74.74,0,0,0-.26-.1h0l0,0c-.09-.09-.24,0-.33-.1h0c-.11-.1-.26,0-.38-.1h0l0,0c-.17-.13-.39,0-.56-.11a.08.08,0,0,1-.1,0,.94.94,0,0,0-.47,0c-2.35,0-4.69,0-7,0-.46,0-.56.14-.56.58q0,12.36,0,24.71c0,.56,0,.56.6.56h8.33a1.2,1.2,0,0,0,.53,0l.19,0c.18-.11.4,0,.57-.1l0,0h0c.12-.06.26,0,.37-.09l0,0h0a1.21,1.21,0,0,0,.25-.08l0,0h.05c.1-.08.25,0,.34-.12h0c.07,0,.16,0,.22-.09h0c.07-.1.24,0,.31-.12h0c.07,0,.16,0,.22-.11h0c.07,0,.16,0,.21-.1h0c.07,0,.17,0,.22-.12h0c.06,0,.16,0,.2-.11h0a.24.24,0,0,0,.13-.09h0c.05-.06.16,0,.2-.12h0a.6.6,0,0,0,.13-.09h0c0-.07.15-.05.19-.13h0c.06,0,.09,0,.13-.1h0l.11-.09h0c0-.08.15-.05.18-.14h0a.15.15,0,0,0,.12-.1h0a.22.22,0,0,0,.11-.1h0a.29.29,0,0,0,.11-.11h0a.29.29,0,0,0,.11-.11h0a.43.43,0,0,0,.11-.12h0a.43.43,0,0,0,.11-.12h0a.29.29,0,0,0,.11-.11h0a.23.23,0,0,0,.11-.11h0A.17.17,0,0,0,132,23h0c.11-.08.15-.21.23-.3h0a.6.6,0,0,0,.09-.13h0a1.6,1.6,0,0,0,.22-.31h0a.19.19,0,0,0,.1-.13h0l0,0h0c.08,0,.07-.14.11-.2h0c.08-.05.06-.15.12-.21h0c.07-.05,0-.16.12-.21h0c.05-.06,0-.16.1-.21h0c0-.06,0-.16.1-.21h0c.06-.06,0-.16.1-.22h0c.17-.14.14-.37.21-.56a.08.08,0,0,1,0-.08,2.5,2.5,0,0,0,.09-.25.05.05,0,0,1,0-.08c.08-.1,0-.24.09-.34a.06.06,0,0,1,0-.09c.09-.14,0-.31.09-.45a.06.06,0,0,1,0-.09c.13-.25,0-.53.1-.78ZM121.33,3.78c1,0,2,0,3,0a3,3,0,0,1,2.77,3.86,3,3,0,0,1-2.42,2.07,4,4,0,0,1-.91.08h-2.16c-.73,0-.65,0-.65-.63s0-1.58,0-2.38,0-1.76,0-2.64C121,3.89,121,3.77,121.33,3.78Zm4.9,18.36h-4.86c-.41,0-.42,0-.42-.42V13.36c0-.38,0-.39.38-.39,1.48,0,3,0,4.43,0a4.61,4.61,0,0,1,4.47,4.36A4.67,4.67,0,0,1,126.23,22.14Z"></path><path class="cls-1" d="M153.93,16.14c-.12-.25,0-.54-.1-.79,0,0,0,0,0-.07s0-.33-.1-.47a0,0,0,0,1,0-.07c-.07-.11,0-.25-.09-.36l0,0v0a1.12,1.12,0,0,0-.08-.26.05.05,0,0,1,0-.08,2.5,2.5,0,0,0-.09-.25,0,0,0,0,1,0-.07c0-.08,0-.18-.1-.25h0c-.06-.06,0-.16-.1-.22s0,0,0-.06,0-.19-.11-.25h0v0h0c0-.07,0-.17-.11-.22h0c0-.07,0-.17-.11-.21h0a1.9,1.9,0,0,0-.2-.34h0c-.06,0,0-.16-.12-.2h0a.6.6,0,0,0-.09-.13h0c-.07,0-.05-.15-.13-.2h0a.34.34,0,0,0-.09-.12h0c-.11-.38-.44-.57-.68-.85h0a.15.15,0,0,0-.1-.12h0a.2.2,0,0,0-.11-.11h0a.23.23,0,0,0-.11-.11h0a.19.19,0,0,0-.1-.1h0a.22.22,0,0,0-.12-.11h0a.17.17,0,0,0-.11-.11v0l0,0h0c-.07-.11-.21-.14-.3-.23h0a1.27,1.27,0,0,0-.12-.1h0a.17.17,0,0,0-.12-.1h0c-.09-.23-.34-.24-.51-.34h0s-.07-.07-.12-.09h0c-.05-.07-.15-.05-.2-.12h0s-.08-.08-.13-.09h0c0-.08-.14-.07-.21-.11h0c0-.08-.15-.06-.21-.12h0c-.05-.07-.15-.05-.21-.12h0c-.06-.06-.16,0-.22-.1h0c-.06-.07-.15-.06-.22-.11h0c-.06-.07-.16-.06-.25-.1s-.05,0-.07,0-.16,0-.22-.09h0c-.07-.07-.17-.07-.26-.1h0l0,0c-.09-.1-.24,0-.33-.11h0c-.1-.1-.25,0-.36-.11a.05.05,0,0,1-.08,0c-.13-.11-.31,0-.44-.1a.09.09,0,0,1-.1,0c-.17-.11-.38,0-.56-.1h-.19a7.55,7.55,0,0,0-1.84,0l-.18,0c-.18.1-.4,0-.58.09a.05.05,0,0,1-.08,0c-.14.1-.32,0-.46.11h0c-.13.12-.32,0-.44.12h0c-.09.08-.24,0-.33.11h0c-.18.08-.41,0-.55.21h0c-.05.06-.15,0-.21.09s0,0-.07,0-.19,0-.25.11h0c-.07,0-.16,0-.21.11h0c-.07,0-.17,0-.22.11h0c-.06,0-.16,0-.2.11h0c-.06,0-.09.05-.13.09h0c-.06.06-.16,0-.21.12h0c-.05,0-.08.06-.12.08h0c0,.07-.15.05-.19.12h0a.38.38,0,0,0-.12.1h0c-.38.11-.58.44-.85.68v0a.15.15,0,0,0-.12.11h0a.2.2,0,0,0-.11.11h0a.17.17,0,0,0-.11.11h0a.16.16,0,0,0-.1.11h0a.14.14,0,0,0-.11.11h0a.13.13,0,0,0-.11.11h0l0,0h0c-.12.07-.14.21-.23.3h0a.83.83,0,0,0-.43.55h0a1.36,1.36,0,0,0-.21.32h0c-.07.05-.05.16-.12.2h0a.29.29,0,0,0-.08.13h0c-.08,0-.07.14-.11.2h0c-.08.06-.07.15-.11.22h0c-.08,0-.06.15-.11.21h0c-.07.06-.06.15-.11.22h0c-.08.07-.07.17-.1.26a0,0,0,0,1,0,.06c-.06.06,0,.15-.09.22h0c-.12.08,0,.24-.12.33h0c-.1.09,0,.24-.1.34h0c-.14.12,0,.31-.12.43h0c-.11.13,0,.32-.1.46a.05.05,0,0,1,0,.08c-.11.18,0,.4-.1.59a.36.36,0,0,1,0,.27,7.55,7.55,0,0,0,0,1.84V18c.11.17,0,.39.09.57a.08.08,0,0,1,0,.09c.1.13,0,.31.09.45s0,0,0,.07,0,.26.1.36h0c.1.09,0,.23.1.32l0,0v0a1.75,1.75,0,0,0,.22.59h0c.05.07,0,.17.11.23h0c.05.07,0,.16.1.23h0c.06.06,0,.16.11.22h0c.06.06,0,.16.11.22h0c.05.06,0,.16.12.2h0a1.38,1.38,0,0,0,.2.33h0c.06.06,0,.16.13.2h0a.18.18,0,0,0,.09.13h0a.54.54,0,0,1,.09.12h0a1.66,1.66,0,0,0,.56.72h0a.15.15,0,0,0,.11.12h0a.18.18,0,0,0,.1.11h0a.2.2,0,0,0,.11.11h0a.2.2,0,0,0,.11.11h0a.23.23,0,0,0,.11.11h0a.18.18,0,0,0,.11.1h0a.17.17,0,0,0,.11.11h0c0,.06.05.1.12.1h0a2.17,2.17,0,0,0,.84.66h0a1.46,1.46,0,0,0,.33.22h0c0,.07.15.05.2.12h0a.28.28,0,0,0,.17.09h0l0,0s.07.07.13.08h0c0,.08.14.07.21.1h0c.06.09.16.08.25.12h0l0,0c.06,0,.16,0,.22.1h0c.12.22.36.13.54.2h0c.09.11.25,0,.35.11h0l0,0c.1.08.24,0,.34.09h.05l0,0c.11.07.25,0,.36.09l0,0,0,0c.18.12.4,0,.58.09l.18,0a10.77,10.77,0,0,0,2.27,0l.17,0c.18-.1.41,0,.59-.1h0c.13-.11.31,0,.44-.1h0c.09-.1.23,0,.32-.1l0,0h0c.08,0,.17,0,.25-.09l0,0h0c.08,0,.18,0,.25-.1h0c.06-.06.15,0,.22-.09l0,0h0c.08,0,.18,0,.25-.1h0c.07,0,.16,0,.21-.11h0c.07-.05.17,0,.22-.11h0c.06,0,.16,0,.2-.11h0c.06,0,.09-.06.13-.09h0c.12-.1.31-.08.4-.24h0a.24.24,0,0,0,.13-.09h0c.06-.06.16,0,.19-.13h0a.15.15,0,0,0,.13-.09h0a.09.09,0,0,1,.12,0h0a1.15,1.15,0,0,1,.05.58c0,.88,0,.88.91.88h2.25c.19,0,.4.09.56-.08Zm-8.35,6.4a7.66,7.66,0,0,1-1,.1A5.62,5.62,0,0,1,139,17.81a5.79,5.79,0,0,1,3.77-6.32,5.62,5.62,0,0,1,7.12,3.88A5.72,5.72,0,0,1,145.58,22.54Z"></path><path class="cls-1" d="M178.81,18a.12.12,0,0,0-.09-.12.51.51,0,0,0-.23-.32.13.13,0,0,0-.08-.13.27.27,0,0,0-.14-.19.12.12,0,0,0-.09-.12,2.56,2.56,0,0,0-.54-.76.25.25,0,0,0-.13-.2.12.12,0,0,0-.09-.12.15.15,0,0,0-.09-.13c-.12-.19.06-.33.1-.49a.13.13,0,0,0,.09-.12.26.26,0,0,0,.13-.19,1,1,0,0,0,.31-.45.12.12,0,0,0,.09-.12.25.25,0,0,0,.14-.19,3.09,3.09,0,0,0,.54-.76.14.14,0,0,0,.09-.13.52.52,0,0,0,.22-.32.12.12,0,0,0,.09-.12.27.27,0,0,0,.14-.19.12.12,0,0,0,.08-.13,1.74,1.74,0,0,0,.45-.63.13.13,0,0,0,.09-.13.22.22,0,0,0,.14-.19.13.13,0,0,0,.09-.12,2.06,2.06,0,0,0,.45-.64.13.13,0,0,0,.09-.12.6.6,0,0,0,.22-.32.12.12,0,0,0,.09-.12.27.27,0,0,0,.14-.2.11.11,0,0,0,.08-.12.25.25,0,0,0,.14-.19.15.15,0,0,0,.09-.13.12.12,0,0,0,.09-.12.24.24,0,0,0,.13-.2.12.12,0,0,0,.09-.12.25.25,0,0,0,.14-.19A.14.14,0,0,0,182,9a.14.14,0,0,0,.09-.12.24.24,0,0,0,.13-.2.12.12,0,0,0,.09-.12.25.25,0,0,0,.14-.19,1,1,0,0,0,.31-.44,2.37,2.37,0,0,1,.75,0h3.32c.14,0,.4-.09.33.24a.14.14,0,0,0-.09.12.23.23,0,0,0-.13.19.13.13,0,0,0-.09.13.25.25,0,0,0-.14.19.13.13,0,0,0-.08.13.13.13,0,0,0-.1.12.24.24,0,0,0-.13.19.14.14,0,0,0-.09.13.21.21,0,0,0-.13.19.12.12,0,0,0-.09.12.57.57,0,0,0-.23.32.6.6,0,0,0-.22.32.12.12,0,0,0-.09.12.57.57,0,0,0-.23.32.14.14,0,0,0-.09.12.24.24,0,0,0-.13.2.12.12,0,0,0-.09.12.27.27,0,0,0-.14.19.14.14,0,0,0-.08.13.14.14,0,0,0-.1.12.26.26,0,0,0-.13.2.13.13,0,0,0-.09.12.27.27,0,0,0-.14.19.13.13,0,0,0-.08.13.51.51,0,0,0-.23.32c-.06,0-.08.06-.09.12a.23.23,0,0,0-.13.19.13.13,0,0,0-.09.13.47.47,0,0,0-.22.31.15.15,0,0,0-.1.13.23.23,0,0,0-.13.19.12.12,0,0,0-.09.13.47.47,0,0,0-.22.31.13.13,0,0,0-.09.13,1.32,1.32,0,0,0-.36.51.12.12,0,0,0-.09.12.14.14,0,0,0-.1.12.31.31,0,0,0-.13.2.13.13,0,0,0-.09.12.24.24,0,0,0-.13.2.12.12,0,0,0-.09.12c-.11.08-.13.16,0,.24a.57.57,0,0,0,.23.32.12.12,0,0,0,.08.12.27.27,0,0,0,.14.2.12.12,0,0,0,.09.12.28.28,0,0,0,.13.2.14.14,0,0,0,.1.12.11.11,0,0,0,.08.12.22.22,0,0,0,.14.19.12.12,0,0,0,.09.13,1.87,1.87,0,0,0,.45.63.13.13,0,0,0,.09.13.23.23,0,0,0,.13.19.13.13,0,0,0,.09.13.52.52,0,0,0,.23.31.13.13,0,0,0,.08.13.27.27,0,0,0,.14.19.12.12,0,0,0,.09.12,1.07,1.07,0,0,0,.31.45.25.25,0,0,0,.14.19.12.12,0,0,0,.09.12A5.83,5.83,0,0,0,185.5,21a.57.57,0,0,0,.23.32.11.11,0,0,0,.08.12.24.24,0,0,0,.14.19.12.12,0,0,0,.09.13.6.6,0,0,0,.22.32.13.13,0,0,0,.09.12.22.22,0,0,0,.14.19.13.13,0,0,0,.09.13.5.5,0,0,0,.22.31.14.14,0,0,0,.09.13.23.23,0,0,0,.14.19.13.13,0,0,0,.09.13.23.23,0,0,0,.13.19.12.12,0,0,0,.09.12.57.57,0,0,0,.22.32.14.14,0,0,0,.09.13.27.27,0,0,0,.14.19.12.12,0,0,0,.09.12.57.57,0,0,0,.22.32.13.13,0,0,0,.09.12.25.25,0,0,0,.14.2.12.12,0,0,0,.09.12.49.49,0,0,0,.22.32.15.15,0,0,0,.09.13.25.25,0,0,0,.14.19c-.06.16-.21.12-.32.12h-3.77a.48.48,0,0,1-.5-.24.86.86,0,0,0-.27-.33.14.14,0,0,0-.08-.13.27.27,0,0,0-.14-.19.12.12,0,0,0-.09-.12.28.28,0,0,0-.13-.2,1.07,1.07,0,0,0-.32-.44.12.12,0,0,0-.09-.12,1.87,1.87,0,0,0-.45-.63.13.13,0,0,0-.09-.13.51.51,0,0,0-.22-.32,2,2,0,0,0-.45-.63.14.14,0,0,0-.09-.13.26.26,0,0,0-.13-.19.14.14,0,0,0-.09-.12.14.14,0,0,0-.09-.13.27.27,0,0,0-.14-.19.12.12,0,0,0-.09-.12.24.24,0,0,0-.13-.2.13.13,0,0,0-.09-.12.57.57,0,0,0-.23-.32.12.12,0,0,0-.09-.12.24.24,0,0,0-.13-.2.12.12,0,0,0-.09-.12,1,1,0,0,0-.31-.44.24.24,0,0,0-.14-.19.12.12,0,0,0-.09-.13.6.6,0,0,0-.22-.32.13.13,0,0,0-.09-.12.22.22,0,0,0-.14-.19.13.13,0,0,0-.09-.13.23.23,0,0,0-.13-.19.14.14,0,0,0-.09-.13.52.52,0,0,0-.23-.31.13.13,0,0,0-.09-.13A.23.23,0,0,0,178.81,18Z"></path></g></g></svg> 