<?xml version="1.0" encoding="UTF-8"?> <svg xmlns="http://www.w3.org/2000/svg" viewBox="0 0 133.98 39.28"><defs><style>.cls-1{fill:#2846a0;}.cls-2{fill:#8f9fce;}</style></defs><title>customer-logo-supercheap</title><g id="Layer_2" data-name="Layer 2"><g id="Layer_1-2" data-name="Layer 1"><path class="cls-1" d="M128.52.47c-3.13-.22-6.29-.06-9.43-.09-.44,0-.46.26-.52.56-.37,1.78-.75,3.55-1.13,5.33l-1,4.47-.34,0c0-2.56,0-5.12,0-7.68,0-.57-.11-.8-.75-.78-2.23,0-4.45,0-6.68,0a.89.89,0,0,0-1,.64c-.82,1.89-1.69,3.76-2.54,5.63-.06.05-.1.16-.15.17s0-.1-.06-.15a.9.9,0,0,1,0-.4.69.69,0,0,1,0-.13c.34-1.64.64-3.3,1-4.93.19-.74,0-.83-.7-.83-7.84,0-15.68,0-23.52,0-1.45,0-1.45,0-1.74,1.47,0,0-.07.06-.14.13C78.36,2,76.15,1.89,73.9,2A7.26,7.26,0,0,0,68,4.81c-.94-1.89-2.56-2.46-4.46-2.52l-1.06,0H45.14c-1.48,0-1.48,0-1.88,1.41,0,0-.08.06-.14.11a6,6,0,0,0-4.41-1.5l-19.86,0c-.41,0-.66.11-.74.67A5.56,5.56,0,0,0,13.57.11,14.66,14.66,0,0,0,11.7,0C6.8,0,3.62,2.3,2.41,6.77c-.12.47-.21,1-.29,1.44A5,5,0,0,0,4.4,13.7c.22.15.51.24.67.6H2.88c-2.4,0-2.4,0-2.77,2.38-.62,3.95,1.32,6.39,5.33,6.69a19.37,19.37,0,0,0,2.85,0c3.12-.2,5.81-1.21,7.52-4.12,1.27,2.25,3.4,2.5,5.59,2.53a8.31,8.31,0,0,0,6.15-2.21c-1.41,6.73-2.77,13.18-4.14,19.69h1l15-.51q30.3-1.05,60.59-2.08c.9,0,1.23-.28,1.41-1.16.88-4.47,1.85-8.92,2.76-13.38.12-.54.34-.7.87-.66s1.19,0,1.79,0a.63.63,0,0,0,.72-.49c.2-.58.46-1.15.67-1.74.11-.31.32-.32.57-.31s.26.28.26.47a14.42,14.42,0,0,1,0,1.47c0,.46.11.61.58.6,1,0,2.06,0,3.09,0,1.5,0,1.5,0,1.27,1.55h.81c2.2,0,4.4,0,6.6,0,.76,0,1.06-.19,1.2-1,.36-2,.84-4,1.24-6,.09-.48.26-.6.73-.61,5.3-.12,8.44-2.83,9.34-8C134.54,3.41,132.67.77,128.52.47ZM34.88,20.21c.33-1.5.66-3,1-4.52.07-.37.27-.4.56-.4a8.64,8.64,0,0,0,4.7-1.4c-.45,2.13-.89,4.16-1.3,6.19a.44.44,0,0,1-.5.4l-4,.13C34.94,20.63,34.8,20.57,34.88,20.21Zm43.61-9.08c.07.66-.2.84-.79.82-1.48,0-3,0-4.43,0-.07-.66.18-.84.78-.82C75.53,11.16,77,11.13,78.49,11.13ZM16.41,11a11.54,11.54,0,0,0-2.35-2.14c.82,0,1.63,0,2.45,0,.33,0,.34.15.29.41C16.68,9.79,16.56,10.32,16.41,11Z"></path><path class="cls-1" d="M105.23,8.53a1.15,1.15,0,0,1-.44.81A3.11,3.11,0,0,1,105.06,8C105.14,8.18,105,8.42,105.23,8.53Z"></path><path class="cls-2" d="M62.46,36.55,27.57,37.78c-.62,0-1.25,0-1.87.06-.41,0-.57,0-.46-.53q1.55-7.23,3-14.48a.66.66,0,0,1,.75-.62c6.45-.2,12.9-.43,19.35-.65l40.67-1.42c4.5-.15,9-.28,13.5-.46.66,0,.64.24.54.7q-1.17,5.49-2.33,11c-.23,1.08-.49,2.16-.68,3.26-.08.51-.28.65-.78.67-3.55.11-7.1.26-10.65.38Z"></path><path class="cls-2" d="M4.37,15.69c.73,0,1.47,0,2.2,0,.45,0,.58.15.48.57a6.1,6.1,0,0,0-.14.72c0,.48,0,.95.47,1.21a1.36,1.36,0,0,0,1.46-.12,2.13,2.13,0,0,0-.11-3.51c-1-.58-2.08-1.07-3.07-1.68-2.12-1.32-2.62-2.57-2.08-5A8.2,8.2,0,0,1,15,1.89c1.72.7,2.4,2.27,2.1,4.55-.12.88-.44,1.17-1.33,1.11-1.19-.09-2.39,0-3.58,0-.42,0-.62-.08-.46-.55a2.73,2.73,0,0,0,.07-.64c0-.44,0-.91-.44-1.13A1.32,1.32,0,0,0,10,5.42a2,2,0,0,0,0,3.07,9.25,9.25,0,0,0,1.86,1c.64.29,1.29.57,1.9.92a3.88,3.88,0,0,1,2.12,4c-.29,2.63-1.05,5.06-3.51,6.54a8.22,8.22,0,0,1-3.32,1,14.33,14.33,0,0,1-4.53-.11c-2.31-.47-3.34-2-3.06-4.5.18-1.64.18-1.64,1.82-1.64Z"></path><path class="cls-2" d="M124.27,1.73c1.27.05,2.79-.05,4.31.11,2.82.29,4.18,1.74,4,4.56s-1.15,5.25-3.74,6.74a9,9,0,0,1-5,1c-.8,0-1.12.19-1.26,1-.34,1.94-.81,3.86-1.2,5.8-.1.5-.28.73-.85.71-1.38-.05-2.76,0-4.14,0-.56,0-.78-.1-.64-.73q2-9.19,3.91-18.41c.14-.66.4-.88,1.07-.85C121.8,1.77,122.92,1.73,124.27,1.73Z"></path><path class="cls-2" d="M63.5,11.91a2.47,2.47,0,0,1,1.63,3.18,21.72,21.72,0,0,0-.7,4.23c0,.31-.15.29-.34.3-1.27.05-2.55.08-3.82.15-.51,0-.52-.28-.47-.62.19-1.15.39-2.3.58-3.45a8.85,8.85,0,0,0,.12-.88,1.11,1.11,0,0,0-1.56-1.2c-.39.13-.31.49-.37.75-.36,1.61-.72,3.22-1,4.84-.1.55-.33.71-.86.71-1.13,0-2.27.06-3.41.13-.59,0-.69-.17-.57-.7q1.62-7.55,3.21-15.09a.64.64,0,0,1,.75-.62c2.31,0,4.61,0,6.92,0,2.51,0,3.6,1.35,3.24,3.83C66.53,9.5,65.78,11.21,63.5,11.91Z"></path><path class="cls-2" d="M21.69,3.65h1.22c1.13,0,1.13,0,.89,1.13L21.49,15.65a5.83,5.83,0,0,0-.1.73c0,.39,0,.8.46.92A1,1,0,0,0,23,17a3.29,3.29,0,0,0,.52-1.27c.8-3.76,1.62-7.51,2.39-11.27.12-.6.32-.82.94-.79,1.08,0,2.17,0,3.25,0,.49,0,.61.16.51.62-.81,3.7-1.54,7.42-2.43,11.1-.82,3.42-3,5-6.51,5.06a9,9,0,0,1-2.73-.3,2.72,2.72,0,0,1-2.16-2.78,22.36,22.36,0,0,1,.85-5.52c.51-2.49,1.08-5,1.57-7.47.12-.59.37-.75.92-.71S21.18,3.65,21.69,3.65Z"></path><path class="cls-2" d="M86.2,9.55c.79.24,1-.25,1.16-1.05.25-1.44.61-2.86.89-4.29.09-.44.26-.58.7-.57,1,0,2.11.06,3.17,0,.73-.05.9.12.74.87-.92,4.15-1.79,8.31-2.68,12.47-.38,1.78-.39,1.77-2.23,1.82-.7,0-1.41.05-2.11.12s-.7-.17-.58-.7c.32-1.35.57-2.7.89-4,.12-.52,0-.73-.56-.73-1.46,0-1.46,0-1.77,1.36-.25,1.17-.51,2.33-.72,3.5-.09.47-.26.7-.79.7-1.13,0-2.27.06-3.41.12-.45,0-.63-.05-.52-.56q1.56-7.23,3.08-14.46c.08-.4.28-.45.61-.45,1.2,0,2.39,0,3.58,0,.46,0,.54.13.44.58-.33,1.42-.61,2.86-.91,4.29C85,9.55,85,9.55,86.2,9.55Z"></path><path class="cls-2" d="M112.74,20.1c-.57,0-1.14,0-1.71,0s-.63-.19-.63-.67c0-1.82,0-1.77-1.88-1.84-.9,0-1.44.18-1.63,1.1a4,4,0,0,1-.32.83,1.67,1.67,0,0,1-1.86.51c-.25-.22,0-.5,0-.75.19-1.12.43-1-.84-1-1.52,0-1.51,0-.89-1.35,1.87-4.15,3.75-8.29,5.59-12.45a1.14,1.14,0,0,1,1.25-.85c1.4.07,2.81.05,4.22,0,.63,0,.77.19.78.78,0,3.68.12,7.37.2,11.05,0,1.33.06,2.66.13,4,0,.5-.12.69-.63.66S113.33,20.1,112.74,20.1Z"></path><path class="cls-2" d="M46.65,16.35c1.62,0,3.19,0,4.76,0,.6,0,.75.13.59.71-.2.78-.35,1.58-.51,2.38-.08.45-.25.68-.79.68-3,0-5.91,0-8.86,0-.56,0-.61-.2-.51-.68Q43,11.86,44.55,4.27c.1-.49.33-.63.82-.63,2.85,0,5.7,0,8.54,0,.61,0,.74.14.57.73A22.84,22.84,0,0,0,54,6.83a.58.58,0,0,1-.7.57c-1.36,0-2.72,0-4.07,0-.5,0-.7.13-.8.65C48,9.88,48,9.88,49.91,9.88c.79,0,1.57,0,2.36,0,.48,0,.7.08.56.63-.21.84-.37,1.69-.53,2.55-.07.39-.29.51-.68.51-1.22,0-2.44,0-3.66,0-.58,0-.82.17-.89.75S46.8,15.61,46.65,16.35Z"></path><path class="cls-2" d="M69.88,19.48a13.35,13.35,0,0,0-1.79,0,1.25,1.25,0,0,1-1.45-.88,5.37,5.37,0,0,1-.26-3.19,54.67,54.67,0,0,1,1.53-7.14C69.07,4.19,71.69,3,76.05,3.4a4.82,4.82,0,0,1,1.65.41,2.7,2.7,0,0,1,1.67,2.4A11.75,11.75,0,0,1,79,9.34a.5.5,0,0,1-.57.45c-1.16,0-2.33,0-3.49,0-.5,0-.53-.24-.44-.62a7.09,7.09,0,0,0,.31-1.83c0-.36,0-.76-.4-.89a1,1,0,0,0-1.17.36,3.77,3.77,0,0,0-.6,1.41c-.64,2.46-1.15,4.95-1.58,7.45a3.63,3.63,0,0,0,0,.57c0,.44,0,.92.5,1.07a1.05,1.05,0,0,0,1.27-.64A8.61,8.61,0,0,0,73.58,14c.09-.63.39-.78,1-.75,1,0,2.06,0,3.09,0,.31,0,.64,0,.53.45a9.57,9.57,0,0,1-2.29,5,1.53,1.53,0,0,1-1.21.52c-1.6,0-3.2,0-4.79,0Z"></path><path class="cls-2" d="M36.07,3.66c1,0,2.07,0,3.1,0,2.86.1,4.17,1.76,3.66,4.58-.7,3.8-2.9,5.64-6.76,5.65-.24,0-.49,0-.73,0-.4,0-.56.11-.64.52-.33,1.67-.73,3.33-1.06,5-.09.48-.24.7-.77.68-1.14,0-2.28,0-3.42,0-.49,0-.57-.14-.46-.62q1.62-7.54,3.19-15.1c.12-.59.36-.79,1-.75,1,0,2,0,2.92,0Z"></path><path class="cls-2" d="M104.54,3.65c-.24,1.14-.47,2.2-.67,3.26-.08.4-.3.5-.68.49-1.38,0-2.77,0-4.15,0-.43,0-.6.12-.7.56-.48,1.94-.5,1.94,1.44,1.94.82,0,1.63,0,2.45,0,.46,0,.65.12.54.61-.2.84-.4,1.68-.55,2.54-.08.45-.31.54-.72.54-1.22,0-2.45,0-3.67,0-.47,0-.7.1-.82.62-.52,2.2-.54,2.19,1.71,2.19.89,0,1.79,0,2.68,0,.56,0,.67.2.53.67,0,0,0,0,0,.08,0,.92-.45,1.33-1.45,1.34-2.82,0-5.64.13-8.46.23-.81,0-.46-.49-.4-.79.76-3.66,1.55-7.31,2.33-11,.19-.9.39-1.8.57-2.7.06-.32.14-.55.54-.55C98.18,3.66,101.32,3.65,104.54,3.65Z"></path><path class="cls-1" d="M83.88,32.4A11.3,11.3,0,0,1,80.21,32a2.79,2.79,0,0,1-2.11-3.49,5.25,5.25,0,0,1,3.25-4.17,15.33,15.33,0,0,1,9.25-.63,2.75,2.75,0,0,1,2.17,3.58c-.54,2.68-2.43,4.3-5.62,4.83A32,32,0,0,1,83.88,32.4Z"></path><path class="cls-1" d="M55.67,33.39a12.3,12.3,0,0,1-3.35-.28,2,2,0,0,1-1.77-2.69c.33-1.73.79-3.43,1.18-5.15.09-.37.32-.43.65-.44,1,0,2,0,3-.08.52,0,.61.16.49.61-.34,1.39-.68,2.79-1,4.19-.27,1.15,0,1.57,1.21,1.62a6.14,6.14,0,0,0,1.54-.1,1.89,1.89,0,0,0,1.56-1.56c.33-1.45.71-2.89,1-4.34.1-.45.28-.64.75-.64,1,0,2.06,0,3.09-.08.35,0,.48.05.38.46-.43,1.7-.79,3.43-1.26,5.12a3.91,3.91,0,0,1-2.58,2.63A16.69,16.69,0,0,1,55.67,33.39Z"></path><path class="cls-1" d="M34.67,33.67,37,30.58c1.24-1.61,2.48-3.22,3.7-4.85a1,1,0,0,1,.93-.5c1.36,0,2.71-.08,4.07-.14a.57.57,0,0,1,.68.49q1.08,3.62,2.19,7.23c.12.39,0,.53-.38.54-1.17,0-2.33.07-3.49.11-.22,0-.49,0-.5-.28,0-.69-.45-.65-.95-.62-.79.06-1.58.07-2.36.07s-1.42,0-1.76.8a.4.4,0,0,1-.39.24Z"></path><path class="cls-1" d="M72.09,24c1.76,0,3.52,0,5.28,0,.53,0,.64.11.52.62-.34,1.49-.32,1.48-1.84,1.53-.78,0-1.73-.25-2.3.2s-.47,1.44-.67,2.19q-.47,1.72-.84,3.48a.57.57,0,0,1-.64.54c-1,0-2.06,0-3.09.11-.53,0-.55-.15-.44-.6.42-1.65.78-3.32,1.21-5,.15-.56.11-.76-.54-.7-.89.09-1.79.05-2.69.09-.37,0-.5-.09-.38-.46a.76.76,0,0,0,0-.16c.31-1.49.31-1.5,1.84-1.52A29.38,29.38,0,0,0,72.09,24Z"></path><path class="cls-1" d="M124.17,10.15c-.44.09-.53-.1-.41-.58.24-1,.41-1.95.63-2.92.09-.35-.06-.9.6-.87s1.26.06,1.57.75A2.74,2.74,0,0,1,124.17,10.15Z"></path><path class="cls-1" d="M60.74,7c1.09.05,1.45.5,1.29,1.42-.25,1.4-.89,2.07-2,2.15-.44,0-.6-.12-.51-.55.18-.84.36-1.69.53-2.53A.55.55,0,0,1,60.74,7Z"></path><path class="cls-1" d="M111,9.06c-.07,1.37-.13,2.75-.23,4.12,0,.26.07.68-.33.73a3.2,3.2,0,0,1-1.6-.05c-.24-.09,0-.44.09-.64.62-1.72,1.27-3.44,1.91-5.16C111.24,8.33,111,8.72,111,9.06Z"></path><path class="cls-1" d="M111,9.06c-.1-.33.12-.7-.16-1a.72.72,0,0,1,.31-.6A4.14,4.14,0,0,1,111,9.06Z"></path><path class="cls-1" d="M38,8.09c0,1.56-.7,2.39-2,2.49-.53,0-.53-.17-.44-.57.19-.76.35-1.53.49-2.3.09-.44.2-.75.76-.69s1,.16,1.11.74A2.63,2.63,0,0,1,38,8.09Z"></path><path class="cls-2" d="M86.16,25.47c2,0,2.66,1,1.92,2.85A3.75,3.75,0,0,1,83.23,30a1.36,1.36,0,0,1-.67-1.3C82.55,26.76,84,25.49,86.16,25.47Z"></path><path class="cls-2" d="M41.19,30.53a2.09,2.09,0,0,1,.15-.3c.53-.81,1.07-1.61,1.73-2.59.19,1,.34,1.78.5,2.57.08.37-.19.32-.39.32Z"></path></g></g></svg> 