<?xml version="1.0" encoding="UTF-8"?> <svg xmlns="http://www.w3.org/2000/svg" viewBox="0 0 100.63 38.35"><defs><style>.cls-1{fill:#2846a0;}</style></defs><title>customer-logo-bhp</title><g id="Layer_2" data-name="Layer 2"><g id="Layer_1-2" data-name="Layer 1"><path class="cls-1" d="M100.63,12.08A12,12,0,0,1,88.56,24.15H80.28V38.24h-9.5V0H88.45A12.12,12.12,0,0,1,100.63,12.08ZM87,7.94h-6.6v7.94H87a4,4,0,0,0,0-7.94ZM55.8,0V15.54H42.6V0H33.1V38.35h9.5V24.26H55.8V38.35h9.5V0ZM29.41,28c0,6.38-5.71,10.4-11.74,10.4H0V0H17.11c6.26,0,11.4,4.58,11.4,10.29,0,4.47-2.12,6.93-5,8.72C26.84,20.46,29.41,22.59,29.41,28Zm-13.64-5H9.5V30.3h6.27a3.55,3.55,0,0,0,3.8-3.69A3.82,3.82,0,0,0,15.77,22.92Zm-.9-15H9.5v7.94h5.37A3.72,3.72,0,0,0,18.67,12,3.75,3.75,0,0,0,14.87,7.94Z"></path></g></g></svg> 