<?xml version="1.0" encoding="UTF-8"?> <svg xmlns="http://www.w3.org/2000/svg" viewBox="0 0 105.59 67.31"><defs><style>.cls-1{fill:#2846a0;}</style></defs><title>customer-logo-lunapark</title><g id="Layer_2" data-name="Layer 2"><g id="Layer_1-2" data-name="Layer 1"><path class="cls-1" d="M5.19.79A57.34,57.34,0,0,1,11.07.74a1.6,1.6,0,0,1,1.55,1.54c.08,2.22.41,6.87.41,8.65,0,2.51.2,8.83.2,8.83s2.5-.26,4.34-.26a20,20,0,0,1,3,.23.28.28,0,0,1,.21.18,17.32,17.32,0,0,1,.87,4.46c.1,2,.2,4.81.24,5.92a.55.55,0,0,1-.45.56,70.65,70.65,0,0,1-7.7.9,72.39,72.39,0,0,1-8.37-.07A1.19,1.19,0,0,1,4.3,30.8,114.68,114.68,0,0,1,1.37,17.06C.64,11.67.21,5.07,0,2.81A1.16,1.16,0,0,1,.87,1.58,27.19,27.19,0,0,1,5.19.79Z"></path><path class="cls-1" d="M27.06,0a42.88,42.88,0,0,1,5.51.45.61.61,0,0,1,.53.63c-.06,1.8-.24,7.58-.24,10.78,0,3.82,1,7.37,2.5,7.51s2.77-3.17,2.24-7.12c-.44-3.31-1.16-7.91-1.38-9.32a.61.61,0,0,1,.33-.64,10.67,10.67,0,0,1,4.08-1.1c1.93-.11,4.42-.05,5.45,0a.65.65,0,0,1,.61.48A53.38,53.38,0,0,1,48.6,16.2c-.26,8.5-2.44,15.55-12.06,15.68S21.72,25.23,21.59,14.43A92.28,92.28,0,0,1,22.09,1a.76.76,0,0,1,.63-.64A27.23,27.23,0,0,1,27.06,0Z"></path><path class="cls-1" d="M56.44.59c3.16.15,4.61.33,4.61.33a86.39,86.39,0,0,1,5.4,8.83c.22-2.48.61-6.38.74-7.71a.55.55,0,0,1,.51-.49c.74-.05,2.28-.13,4.15-.17a19.65,19.65,0,0,1,5.8.66s-.13,9.55-.66,15.48c-.45,5-1.32,11.62-1.58,13.51a.64.64,0,0,1-.6.56c-.83.06-2.5.16-4,.16a30.25,30.25,0,0,1-4.61-.46s-3.16-5.2-4.48-8c-.27,5.27-.92,7.51-1.32,7.64a58.69,58.69,0,0,1-6.32.4,29.57,29.57,0,0,1-3.44-.23.38.38,0,0,1-.33-.36c0-1.68-.21-9.49.14-15.69S51.43,3,51.59,1.52A.53.53,0,0,1,52,1.08,13.78,13.78,0,0,1,56.44.59Z"></path><path class="cls-1" d="M101.5,15.94c-2-6.27-4.06-11.22-4.83-13a1.45,1.45,0,0,0-1.1-.86,31,31,0,0,0-6.06-.38,12.42,12.42,0,0,0-5.29,1.08.65.65,0,0,0-.36.37C82.78,5.69,80.91,13,80,16.47a100.8,100.8,0,0,0-2.74,14.85.91.91,0,0,0,.8,1A41.7,41.7,0,0,0,88.36,32a.28.28,0,0,0,.2-.19,13.22,13.22,0,0,0,.29-3.22s2.9,0,4.35-.13a18.4,18.4,0,0,0,1.14,3.18,1.09,1.09,0,0,0,1,.63,36,36,0,0,0,5.22-.52,13.21,13.21,0,0,0,4.58-1.9.51.51,0,0,0,.21-.55C105,28,103.64,22.72,101.5,15.94ZM89.37,25.36a60.66,60.66,0,0,0,1.19-7.57H91a32.62,32.62,0,0,0,.53,3.68c.33,1.39.92,3.76.92,3.76A11.11,11.11,0,0,1,89.37,25.36Z"></path><path class="cls-1" d="M16.52,44.86c0,1.65.39,10.28.59,12.71s1.39,6.85.73,7.12a25.79,25.79,0,0,1-6.06.92,31.4,31.4,0,0,1-5.27-.4S5.52,56.12,5.19,51a138.5,138.5,0,0,1-.11-14.55A.56.56,0,0,1,5.45,36,32.6,32.6,0,0,1,17,34.32c5.2.2,11.92,1.78,12.19,7.9.22,5.28-2.9,9.49-8,11.73s-7.78,2.44-7.78,2.44l-.19-5.93A6.18,6.18,0,0,0,17.51,50a3.35,3.35,0,0,0,1.58-4C18.63,44.93,17.9,44.53,16.52,44.86Z"></path><path class="cls-1" d="M39.11,51.84a59.78,59.78,0,0,1-1.38,6,67,67,0,0,1-2.57,7c-.46.86-.26,1.38-4.74.79s-5.6-.73-6.26-1.19a117.32,117.32,0,0,1,4.22-14.09c1.58-4.18,4.86-11.87,6.22-14.4a.61.61,0,0,1,.49-.33,50.37,50.37,0,0,1,11,.63c.79.33,2.17,5.2,4.08,13.17s3,13.84,3.16,14.83.33,1.18-1.25,1.71-6.46.86-9.35,1c-.73,0-.93-.13-1.19-2.24S39.64,52.5,39.64,51.84,39.18,51.12,39.11,51.84Z"></path><path class="cls-1" d="M42.34,58s-5.66.33-7,.13-1,3.36-1,3.36,7.71.33,8.23.33S42.34,58,42.34,58Z"></path><path class="cls-1" d="M78.31,59.55c-.79-.73-3.3-3.16-4.09-3.89s-.72-.79-.39-1c2.7-2,6.52-6.39,4-12.38S68.43,35.11,64.34,35a42.23,42.23,0,0,0-8.69.79c-1.32.27-1.45,1.19-1.45,2.31s.06,7.58.06,10.74.14,11.39.27,14c0,0-.07,2,.59,2.7a18.76,18.76,0,0,0,5.8.6c3.88,0,4.81-1.06,4.81-1.72s0-.85-.07-1.91.13-1.25.46-.85c.92,1,3.69,4,4.74,4.87s1.45.92,2,.59,2-1.77,3.16-2.76a17,17,0,0,0,2.44-2.77C79,60.8,79.1,60.27,78.31,59.55Zm-12.19-6a.6.6,0,0,1-1-.13L65,46.77a1,1,0,0,1,1.32-.13,4.44,4.44,0,0,1,1.51,3.49A5.58,5.58,0,0,1,66.12,53.55Z"></path><path class="cls-1" d="M85.09,36.16a26.14,26.14,0,0,1,5,.27c.72.13,1.45.33,1.32,2s-.14,3.23-.2,4,.2,1,.59.52a41.34,41.34,0,0,1,2.57-3.49C95.5,38.14,97,36,97.87,36.63a42.85,42.85,0,0,1,3.69,2.7c1.06.92,2.9,2.76,3.23,3.09.53.53.39,1.12,0,1.71S102.35,47,101,48.48s-2,2.24-2.44,2.64-.33.79.33,1.31,2.83,2.57,3.69,3.36a30.23,30.23,0,0,1,2.57,2.64c.39.53.72.59.2,1.51a20.93,20.93,0,0,1-2.31,3.5c-1,1.12-2.63,2.76-3.1,3.16s-.85.59-1.77-.33S95.7,64,94.78,63s-2.77-3-3-3.29-.33-.06-.33.4.13,4.15.13,4.54S89.44,66,86.48,66.14a35,35,0,0,1-5.27-.07c-.53-.07-.4-.2-.46-1.25s-.8-8.7-.86-13.57,0-12.46.13-13.5c.07-.6.33-1,.79-1.06A24.38,24.38,0,0,1,85.09,36.16Z"></path></g></g></svg> 