<?xml version="1.0" encoding="UTF-8"?> <svg xmlns="http://www.w3.org/2000/svg" viewBox="0 0 239.52 52.03"><defs><style>.cls-1,.cls-2{fill:#2846a0;}.cls-2{opacity:0.55;}.cls-3{fill:#536bb3;}.cls-4{fill:#7e90c6;}</style></defs><title>customer-logo-tattsgroup</title><g id="Layer_2" data-name="Layer 2"><g id="Layer_1-2" data-name="Layer 1"><path class="cls-1" d="M.75,23.92c-.34.1-.49-.23-.75-.32V22.1c.7-.9.65-2.05,1-3.06A33,33,0,0,1,2.74,15c1-.28,1.47.49,2,1,1.69,1.55,3.23,3.26,5,4.76.42.36,1.23.82.51,1.63-1.71.43-3.48.47-5.21.79a4,4,0,0,1-.84.15A15,15,0,0,0,.75,23.92Z"></path><path class="cls-1" d="M14.59,52c-1.67-1.36-3.69-2.24-5.26-3.75-.54-.51-1.11-1-1.65-1.52-.28-.27-.25-.53.1-.74,2.46-1.46,5.06-2.66,7.53-4.09a1,1,0,0,1,1.35.11,2.42,2.42,0,0,1,.12,1.81c-.64,2.57-.64,5.26-1.47,7.8l0,.38Z"></path><path class="cls-1" d="M38.91,52c0-.11,0-.23,0-.34A2.39,2.39,0,0,1,38.56,50c0-.53.68-.86.39-1.87.08.67.13,1-.34.93a17.93,17.93,0,0,1-1.4-7,.72.72,0,0,1,.69-.42C40.79,43,43.61,44.52,46.41,46c.69.45.08.73-.18,1a29.68,29.68,0,0,1-5.5,4.14c-.4.23-1,.27-1.08.88Z"></path><path class="cls-1" d="M107.37,26.91c0,2.95,0,5.74,0,8.53,0,1.08.59,1.51,1.67,1.6a12.06,12.06,0,0,0,2.78-.54c0,1.17,0,2.29,0,3.4a1.25,1.25,0,0,1-1,1.36,8.67,8.67,0,0,1-6,.24,4,4,0,0,1-2.71-3.08,11.12,11.12,0,0,1-.34-2.77c0-2.55,0-5.11,0-7.66,0-.76-.14-1.21-1-1.08a5.23,5.23,0,0,1-.56,0c-.69.05-1-.21-1-1,0-.93,0-1.87,0-2.8,0-.69.21-1.06,1-1,.48,0,1,0,1.62,0,0-1.37,0-2.6,0-3.82,0-.75.1-1.18,1-1.13,1.25.07,2.5,0,3.74,0,.68,0,.86.27.84.89,0,1.12,0,2.24,0,3.37,0,.45.16.68.65.68,2.12,0,4.24,0,6.35,0,.57,0,.77-.25.76-.79,0-1.06,0-2.13-.06-3.18-.08-.8.24-1,.94-1,1.18,0,2.36,0,3.55,0,.69,0,1,.14,1,.92-.06,1,0,2,0,3s.3,1.08,1.08,1,1.74,0,2.61,0c.65,0,.89.25.87.88,0,1,0,2,0,3,0,.79-.36.94-1,.92-.81,0-1.63,0-2.43,0s-1.14.11-1.12,1c.06,2.36,0,4.73,0,7.1,0,1.6.82,2.22,2.43,2a16.64,16.64,0,0,0,1.92-.5,22,22,0,0,1,.12,3.8c0,.54-.4.73-.82.9a8.29,8.29,0,0,1-6.19.26A4.11,4.11,0,0,1,115.23,38a18.93,18.93,0,0,1-.12-2.61c0-2.49,0-5,0-7.48,0-.53,0-1-.75-1C112.08,26.92,109.79,26.91,107.37,26.91Z"></path><path class="cls-1" d="M98,28.68a6.63,6.63,0,0,0-5.88-6.49,16.81,16.81,0,0,0-8.83.79c-1.6.63-1.37.2-.87,2,.19.65.45,1.29.64,1.94s.37.9,1,.56a3.91,3.91,0,0,1,1.07-.33c1.76-.34,3.52-.8,5.33-.19s2.24,1.4,2.19,3.5l-1-.26a12.51,12.51,0,0,0-7.7.3c-2.51,1-3.58,2.85-3.59,5.72a5.45,5.45,0,0,0,3.91,5.32A8,8,0,0,0,92,40.25c.21-.17.35-.52.75-.34a2,2,0,0,1,0,.54c-.16.95.29,1.18,1.16,1.13,1.11-.06,2.24,0,3.36,0,.54,0,.79-.18.78-.75C98.06,36.77,98.17,32.72,98,28.68Zm-6.46,8.6a4.66,4.66,0,0,1-4.25.61,2.15,2.15,0,0,1-1.64-2,2.26,2.26,0,0,1,1.43-2.37A4.55,4.55,0,0,1,89.43,33,8.15,8.15,0,0,1,92,33.4a1,1,0,0,1,.91,1.18A3,3,0,0,1,91.53,37.28Z"></path><path class="cls-1" d="M72.76,16.18h9.35c1.08,0,1.07,0,1.07,1.14s0,2.12.06,3.18c.05.69-.24.88-.85.87-1.87,0-3.74,0-5.6,0-1.34,0-1.25.16-1.24,1.23,0,5.67,0,11.34,0,17a10.46,10.46,0,0,0,0,1.12c.07.68-.26.86-.87.85-1.25,0-2.5,0-3.74,0-.88,0-1-.37-1-1.12,0-5.67,0-11.34,0-17,0-.37,0-.75,0-1.12.08-.71-.19-1-.94-1-1.86,0-3.73,0-5.6,0-1.2,0-1.2,0-1.22-1.26,0-.93,0-1.87,0-2.8,0-1.09,0-1.12,1.21-1.12C66.53,16.17,69.65,16.18,72.76,16.18Z"></path><path class="cls-2" d="M164.11,21.31a11.07,11.07,0,0,0-6.85-2.89,9.31,9.31,0,0,0-9.66,6.41,11.32,11.32,0,0,0,1.24,10.67,8.92,8.92,0,0,0,7.1,3.85,11.65,11.65,0,0,0,7.27-1.81,1.76,1.76,0,0,0,1-1.79c-.11-1.3,0-2.61,0-3.92,0-1.13,0-1.15-1.1-1.17-1.75,0-3.49,0-5.23,0-.48,0-1.18.26-1.36-.28a5.48,5.48,0,0,1,0-2c0-.25.36-.29.62-.29h9.15c.5,0,.63.29.63.72q0,4.38,0,8.78c0,.76-.58,1.07-1.06,1.43a13.77,13.77,0,0,1-6.4,2.81,14,14,0,0,1-10.19-2,11.72,11.72,0,0,1-5.1-8.12,13.59,13.59,0,0,1,2.31-10.81c3.15-4.18,7.39-5.62,12.46-5a13.23,13.23,0,0,1,6.29,2.58c.77.57.78.73.15,1.49C165,20.41,164.59,20.8,164.11,21.31Z"></path><path class="cls-1" d="M128.9,35.41a13.91,13.91,0,0,0,5.44,2.26,4.26,4.26,0,0,0,2-.21,1.24,1.24,0,0,0,1-1,1.13,1.13,0,0,0-.64-1.24,11.6,11.6,0,0,0-1.7-.73c-1.17-.41-2.38-.72-3.54-1.17-2.83-1.1-4.07-3.05-3.85-5.89a6,6,0,0,1,4.82-5.27,12,12,0,0,1,9.41,2.09c-.14.26-.27.54-.43.79-.58.88-.76,2.25-1.66,2.6s-1.75-.68-2.68-1a7.79,7.79,0,0,0-2.75-.46c-.81,0-1.54.26-1.76,1.09s.51,1.22,1.12,1.5c1,.45,2.08.81,3.13,1.2a21.82,21.82,0,0,1,3,1.38c3.68,2,2.95,7.8-.29,9.51a10,10,0,0,1-5.6,1.06,13.73,13.73,0,0,1-6.61-2.34c-.58-.39-.7-.75-.26-1.36C127.67,37.35,128.22,36.45,128.9,35.41Z"></path><path class="cls-2" d="M238.89,28.71c-2.13-6.59-10.31-8.46-14.56-3.35-.24.28-.39.78-1,.68,0-.83,0-1.63,0-2.44,0-.56-.25-.78-.79-.75a10.46,10.46,0,0,1-1.12,0c-.52,0-.84.15-.8.73V24q0,11.4-.1,22.79a.68.68,0,0,0,.12.49,4.75,4.75,0,0,0,2.36.2c.47-.28.31-.77.31-1.18,0-2.62,0-5.23,0-8a3,3,0,0,1,.52.38,8.38,8.38,0,0,0,12.73.78A10,10,0,0,0,238.89,28.71Zm-2.44,3.72a7.48,7.48,0,0,1-.49,3.09c-1.84,4.65-8.24,5.19-11.15,1.36a7.75,7.75,0,0,1,.51-9.89,6.31,6.31,0,0,1,6.84-1.59c2.66.86,3.85,2.93,4.28,5.54A9.25,9.25,0,0,1,236.45,32.43Z"></path><path class="cls-2" d="M189.27,22.47a9.77,9.77,0,1,0,9.8,9.73A9.75,9.75,0,0,0,189.27,22.47Zm2.79,16.42a6.72,6.72,0,0,1-9.44-5.18,7.28,7.28,0,0,1,1.46-6.31c2.16-2.56,4.6-2.75,7.21-2.16s4.62,3.39,4.78,6c0,.31,0,.62,0,.93C196.08,35.24,195,37.73,192.06,38.89Z"></path><path class="cls-2" d="M214.69,38.39c-1.36,1.61-2.49,2.79-4.22,3.26-4.43,1.2-8.84-1-9.29-6-.35-3.86-.11-7.71-.19-11.57,0-1.09.11-1.15,1.18-1.19a5.23,5.23,0,0,1,.56,0c1.11,0,1.14,0,1.14,1.12,0,3.06,0,6.11,0,9.17a8.37,8.37,0,0,0,.24,2.58c.7,2.19,2,3.41,4,3.61,2.33.22,4.33-.32,5.6-2.49a7.46,7.46,0,0,0,1-3.92q0-4.4,0-8.79c0-1.28,0-1.28,1.36-1.28s1.31,0,1.32,1.33q0,8,0,16.08c0,.41.22,1-.24,1.19a3.8,3.8,0,0,1-2.19,0c-.27-.08-.24-.4-.24-.65C214.68,40.13,214.69,39.45,214.69,38.39Z"></path><path class="cls-2" d="M172.43,27.11c1.44-2.12,3-3.77,5.49-4.36.18-.05.35-.16.53-.2,1.28-.25,1.5-.06,1.52,1.25,0,.31,0,.63,0,.94,0,.54-.22.72-.76.79a7.82,7.82,0,0,0-3,.89,7.55,7.55,0,0,0-3.74,6.47c-.13,2.48,0,5,0,7.46,0,1.19,0,1.19-1.25,1.21H171c-1.44,0-1.46,0-1.46-1.37q0-8,0-16c0-1.28,0-1.28,1.36-1.29.12,0,.25,0,.37,0,1.13,0,1.15,0,1.17,1.1S172.43,26.06,172.43,27.11Z"></path><path class="cls-1" d="M27.26,10.25a.84.84,0,0,0-.27,0A53.84,53.84,0,0,1,22.41.76c.31-.68,1-.42,1.47-.49a20.18,20.18,0,0,1,7.74.22c.07,0,.1.19.15.29-.44,1.84-1.67,3.32-2.34,5.05C28.54,7.22,28.39,9,27.26,10.25Z"></path><path class="cls-1" d="M50.1,15c.49-.43,1-.59,1.35.1A21.86,21.86,0,0,1,54,23.54a.78.78,0,0,1-.16.06c-3.3.26-6.43-.79-9.65-1.14-1.2-.89-.1-1.36.41-1.79,1.72-1.44,3.2-3.11,4.8-4.66C49.72,15.72,50.08,15.44,50.1,15Z"></path><path class="cls-3" d="M15.31,51.65c-.09-.08-.27-.17-.26-.22.48-2.67.57-5.4,1.37-8a6,6,0,0,0,0-1.48c-.22-.69.34-.53.68-.62L23.72,37C23.73,39.27,19.24,47,15.31,51.65Z"></path><path class="cls-3" d="M22.41.76c.65.35.74,1.09,1,1.66,1,1.94,2,3.92,3,5.89a4,4,0,0,1,.58,1.9A82.33,82.33,0,0,0,24.15,18c-.76-.23-.51-.84-.62-1.27-1.19-5-1.26-10.17-1.34-15.31A.71.71,0,0,1,22.41.76Z"></path><path class="cls-3" d="M43.74,22.05A61.59,61.59,0,0,1,53.85,23.6c-1.93,1.13-4.13,1.5-6.22,2.13a59.84,59.84,0,0,1-9.77,1.91c-.32,0-.71.19-1.07-.2a82.35,82.35,0,0,0,6.59-5.32A.27.27,0,0,1,43.74,22.05Z"></path><path class="cls-4" d="M10.49,22.09C8.16,20,6,17.81,3.8,15.61c-.3-.3-.56-.67-1.06-.64a.38.38,0,0,1,.53-.34A67.76,67.76,0,0,1,18.48,21a.89.89,0,0,1,.51.68c-2.74.21-5.5-.08-8.2.45C10.68,22.2,10.58,22.2,10.49,22.09Z"></path><path class="cls-4" d="M37.46,41.89a59.66,59.66,0,0,1,1.1,6.77c0,.14.22.26.34.39a.49.49,0,0,1,0,.73l0,1.91a54.61,54.61,0,0,1-5.78-8.31,36.48,36.48,0,0,1-3.26-6.75c.58.35,1,.56,1.33.81l5.71,4s.14-.17.22-.26a.32.32,0,0,1,.42,0A.59.59,0,0,1,37.46,41.89Z"></path><path class="cls-4" d="M43.74,22.05a2.29,2.29,0,0,0-.36.07c-2.76-.53-5.57-.31-8.36-.44,0-.4.34-.5.57-.64A59.51,59.51,0,0,1,50.1,15c.17.16.88,0,.53.37A61.48,61.48,0,0,1,45,20.94,6.07,6.07,0,0,0,43.74,22.05Z"></path><path class="cls-3" d="M37.39,41.22a1.37,1.37,0,0,0-.28,0,58.93,58.93,0,0,0-2.34-8.42A59.74,59.74,0,0,1,46.41,46c-.08.08-.21.25-.23.24-2.69-1.44-5.61-2.43-8-4.34A1.43,1.43,0,0,0,37.39,41.22Z"></path><path class="cls-4" d="M17.15,41.31c-.1.35-.63.22-.68.62a22,22,0,0,0-3.53,1.85A16,16,0,0,1,7.78,46c0-.84.78-1.23,1.19-1.82a61.67,61.67,0,0,1,8.49-9.83c.43-.39.76-1,1.63-1-.6,2.11-1.2,4.09-1.72,6.09A2.86,2.86,0,0,0,17.15,41.31Z"></path><path class="cls-3" d="M10.49,22.09a.61.61,0,0,0,.3,0,37.71,37.71,0,0,0,5.11,4.24l1.36,1C14.76,27.93,6.65,26,.75,23.92c0-.23,0-.6.24-.6,1.08,0,2-.63,3.13-.46A2.63,2.63,0,0,0,5.7,23a.93.93,0,0,1-.85-.17c.07-.09.14-.26.21-.27C6.88,22.5,8.65,21.92,10.49,22.09Z"></path><path class="cls-4" d="M31.79,1.9,31.61,2l.18-.09c0-.37,0-.74,0-1.12a16.4,16.4,0,0,0-2.6,4.86,10.91,10.91,0,0,0-1.91,4.61l2.92,8.18A54.9,54.9,0,0,0,31.79,1.9Z"></path><path class="cls-1" d="M4.85,22.84c.45.09,1-.17,1.5.32-.85,0-1.6.43-2.23-.3Z"></path><path class="cls-1" d="M37.39,41.22c.19-.55.45-.21.59,0s.8.35.16.73l-.68,0Z"></path><path class="cls-1" d="M38.91,49.78v-.73c.07-.33-.15-.72.33-1.07C39.18,48.65,39.59,49.28,38.91,49.78Z"></path></g></g></svg> 