<?xml version="1.0" encoding="UTF-8"?> <svg xmlns="http://www.w3.org/2000/svg" viewBox="0 0 126.69 41.1"><defs><style>.cls-1{fill:#2846a0;}</style></defs><title>customer-logo-rebel</title><g id="Layer_2" data-name="Layer 2"><g id="Layer_1-2" data-name="Layer 1"><path class="cls-1" d="M126.69,40.28H116.34V0h10.35Z"></path><path class="cls-1" d="M19.88,20.89l-1.46.1c-4.87.37-7.61,3.05-7.87,8-.17,3.2-.09,6.41-.13,9.62v1.79H0V10.47H10.41v5l.29,0c.37-.59.72-1.2,1.11-1.78,1.67-2.53,5.08-4,8.07-4.11Z"></path><path class="cls-1" d="M81.88,16.37c-4-7.65-14.54-9.09-19.65-2.59-.07.08-.21.1-.5.23V0H51.35V40.35H61.83V36.93a4.61,4.61,0,0,1,.5.39c4.49,5.35,14.58,5.2,19.06-2.22A18.18,18.18,0,0,0,81.88,16.37Zm-12,15.34a5.64,5.64,0,0,1-6.27-1.23,7.5,7.5,0,0,1-1.17-8.66,5.5,5.5,0,0,1,5.1-3.25A6.32,6.32,0,0,1,74,25.35C73.69,28.39,72.25,30.82,69.84,31.71Z"></path><path class="cls-1" d="M114.45,20.46A14.65,14.65,0,0,0,99.74,9.72a15,15,0,0,0-14.49,18.6H105a5.73,5.73,0,0,1-3.61,4.32c-3.65,1.33-6.71.07-9.41-2.51L86.18,34.9c4.64,6.5,15.28,8.18,22.22,3.64C114.13,34.79,116.58,27.44,114.45,20.46ZM95.26,21.59a4.59,4.59,0,0,1,4.22-4c2.59-.19,4.42,1.16,5.28,4Z"></path><path class="cls-1" d="M49.94,23.27c-1.29-10-8.37-14.69-17.31-13.35-13.17,2-15.83,17.92-9.17,25.79,4.35,5.15,12.86,6.89,19.51,4a15.08,15.08,0,0,0,6-4.76l-5.79-4.79c-2,1.89-4.29,3.19-7.17,3-3.06-.21-5.29-2-5.76-4.89H50A41.11,41.11,0,0,0,49.94,23.27Zm-19.55-1.7a4.75,4.75,0,0,1,4.77-4,4.69,4.69,0,0,1,4.72,4Z"></path></g></g></svg> 