<?xml version="1.0" encoding="UTF-8"?> <svg xmlns="http://www.w3.org/2000/svg" viewBox="0 0 158.54 39"><defs><style>.cls-1{fill:#2b499e;}</style></defs><title>customer-logo-ubet</title><g id="Layer_2" data-name="Layer 2"><g id="Layer_1-2" data-name="Layer 1"><path class="cls-1" d="M158.54.18c-.76,3.52-1.51,7-2.26,10.5a1,1,0,0,1-1.22.88,11,11,0,0,0-1.15,0q-33.06,0-66.1,0c-1.78,0-2.19-.33-1.7-2.1.74-2.65,1.22-5.37,1.74-8.07C88,.47,88.33,0,89.44,0q34.2.06,68.41,0A5.38,5.38,0,0,1,158.54.18Z"></path><path class="cls-1" d="M12.14.06c1.6,0,3.22.11,4.81,0s2.2.24,1.78,2c-1.68,7.11-3.16,14.26-4.83,21.36-.39,1.64-.13,2,1.55,1.8,7.66-.75,15.33-1.34,23-2.07,1.75-.17,1.94.31,1.34,1.83-3.3,8.4-9.62,12.61-18.39,13.7A34.58,34.58,0,0,1,11,38.52C2.55,37-1.36,31.06.42,22.48c1.44-7,3-13.9,4.44-20.85A1.68,1.68,0,0,1,6.93,0C8.66.15,10.4.06,12.14.06Z"></path><path class="cls-1" d="M80.05,38.24c.61-4.58,1.91-9,2.77-13.54.35-1.88.37-4.2,1.5-5.45s3.52-.6,5.36-.78l27.68-2.61c-.54,2.58-1,5-1.53,7.38-.22,1.05-1,.77-1.69.77-5.34,0-10.67,0-16,0-.76,0-1.51-.14-1.78.94s-.26,1.82,1.32,1.8c5.2-.1,10.41,0,15.61-.07,1.32,0,1.82.16,1.46,1.62-.83,3.3-1.53,6.62-2.28,9.94a2,2,0,0,1-1.3.19q-14.91,0-29.81,0A2,2,0,0,1,80.05,38.24Z"></path><path class="cls-1" d="M41.08,38.27c.27-3.78,1.39-7.39,2.16-11.07,1-4.7,1.07-4.67,5.81-5.09l24.52-2.24c4-.36,6.34,1.7,6.43,5.76s-2,6.9-5.12,9.16S68,37.66,64.23,38.27a11.88,11.88,0,0,1-3.62.16c-5.88,0-11.76,0-17.65,0A3.76,3.76,0,0,1,41.08,38.27Z"></path><path class="cls-1" d="M64.33,11.56c-5.27,0-10.53-.09-15.79,0-1.75,0-1.85-.62-1.54-2,.65-2.8,1.27-5.62,1.83-8.44C49,.32,49.36.05,50.23.05c7.51,0,15,0,22.53.07a12.62,12.62,0,0,1,6.94,2,6.87,6.87,0,0,1,2.44,8.5c-.4.91-1,1-1.83,1C75,11.54,69.65,11.56,64.33,11.56Z"></path><path class="cls-1" d="M124.82,38.22q2.37-11.26,4.76-22.53c.1-.49.22-1,.92-1,4.34-.37,8.66-.78,13.22-1.2-1.84,8.41-3.63,16.58-5.41,24.75-3.62.5-7.25.12-10.87.21A4.88,4.88,0,0,1,124.82,38.22Z"></path><path class="cls-1" d="M35.92,11.57c-1.86,0-3.72,0-5.58,0-1,0-1.21-.29-1-1.27.72-3,1.37-6,2-9C31.51.37,31.87,0,32.83,0,36.56.09,40.28.1,44,0c1.18,0,1.47.42,1.22,1.49q-1,4.39-1.94,8.81a1.35,1.35,0,0,1-1.58,1.25C39.78,11.53,37.85,11.57,35.92,11.57Z"></path></g></g></svg> 