<?xml version="1.0" encoding="UTF-8"?> <svg xmlns="http://www.w3.org/2000/svg" viewBox="0 0 166.36 64.28"><defs><style>.cls-1{fill:#2846a0;}</style></defs><title>customer-logo-mob</title><g id="Layer_2" data-name="Layer 2"><g id="Layer_1-2" data-name="Layer 1"><path class="cls-1" d="M12.44,30.45v9.93c0,7-.07,14,.05,21.06,0,2-.66,2.45-2.49,2.55-10,.56-10,.6-10-9.27Q0,29.6.05,4.45C.05,3.25-.21,2,.45.82c1.49.27,2.06,1.5,2.86,2.38C12.16,12.91,21,22.6,29.75,32.4c1.6,1.79,2.41,1.89,4.07,0,8.72-10,17.6-19.8,26.44-29.66C60.91,2,61.48.64,62.52,1c1.36.44.7,2,.7,3,0,18.91,0,37.81.09,56.72,0,2.75-.85,3.57-3.44,3.32-2.92-.29-6.69,1.17-8.56-.6s-.58-5.56-.58-8.45c0-7.24-.29-14.49.31-21.73A2.06,2.06,0,0,0,50.32,31a125.09,125.09,0,0,1-9.54,11.7c-2.45,2.67-4.9,5.34-7.21,8.13-1.48,1.79-2.56,1.68-4,0C24,44.28,17.87,38.24,12.44,30.45Z"></path><path class="cls-1" d="M154.74,27.78c10.74,5.28,14.24,13.9,9.63,23.93-3.41,7.43-9.78,10.52-17.45,10.87-8.24.38-16.51.07-24.77.18-1.91,0-2.21-.81-2.2-2.44q0-29,0-58c0-1.83.65-2.31,2.35-2.29,8.26.12,16.53-.14,24.77.31,9.45.51,15.64,7.76,15.13,17C162,21.47,160.84,23,154.74,27.78ZM140,51.24c1.81,0,3.62.09,5.42,0a7.59,7.59,0,0,0,7.25-5.6c1.87-5.93-1.64-11.14-7.85-11.37-3.83-.14-8.58-1.27-11.21.54-2.39,1.63-.65,6.72-.73,10.28C132.77,51.27,132.86,51.27,140,51.24Zm-.91-40c-6.25.1-6.25.1-6.25,6.27,0,1.36,0,2.71,0,4.07,0,1.14.5,1.65,1.62,1.61,3.5-.11,7,.37,10.48-.39a5.28,5.28,0,0,0,4.55-5.5c0-3.07-1.47-5.22-4.67-5.68C143,11.32,141,11.34,139.11,11.22Z"></path><path class="cls-1" d="M112.92,24.4a21.27,21.27,0,0,1-42.54.07,21.27,21.27,0,1,1,42.54-.07Zm-8.75.06c0-7.94-5.17-13.55-12.48-13.55s-12.53,5.6-12.57,13.5S84.34,37.94,91.64,38,104.17,32.37,104.17,24.46Z"></path><rect class="cls-1" x="70.95" y="52.69" width="43.24" height="10.18"></rect></g></g></svg> 