<?xml version="1.0" encoding="UTF-8"?> <svg xmlns="http://www.w3.org/2000/svg" viewBox="0 0 96.56 109.38"><defs><style>.cls-1{fill:#2846a0;}.cls-2{fill:#8999cb;}.cls-3{fill:#fefefe;}</style></defs><title>customer-logo-boq</title><g id="Layer_2" data-name="Layer 2"><g id="Layer_1-2" data-name="Layer 1"><path class="cls-1" d="M11.64,3.62,25.53,16.15C35.08,24.78,86.17,70.86,91,75.25c1.84,1.68,5.6,5.82,5.6,9.64q0,11.85,0,23.69v.8H14c-.2-.25-.09-.57-.1-.86V83.69c0-.33,0-.66,0-1s0-.66,0-1c-.08-10.48.16-20.95-.13-31.43-.08-2.81,0-5.63.09-8.44a116.09,116.09,0,0,0-.1-11.65c-.09-1,.11-2,.12-3,0-4.35,0-8.7,0-13a27.43,27.43,0,0,0-.55-5.71A13.34,13.34,0,0,0,12,4.54,3.5,3.5,0,0,1,11.64,3.62Zm7.63,101.1a1.8,1.8,0,0,0,.33.06c4.41,0,8.81.15,13.21-.12,3.65-.22,6.22-2.1,7.25-5.22a6.6,6.6,0,0,0-3.27-8.39s-.07-.12-.11-.17a14.74,14.74,0,0,0,1.31-1c2.42-2.2,2.09-7-.59-9.12a8.73,8.73,0,0,0-5.66-1.72c-3.92,0-7.84,0-11.76,0a1.21,1.21,0,0,0-.71.11Zm69.34-4.15a15.69,15.69,0,0,0,1.27-2.23,17.57,17.57,0,0,0,.59-11.23,9.68,9.68,0,0,0-3-5c-3.61-3.13-7.77-3.72-12.23-2.36a10.07,10.07,0,0,0-7,7.09,18.16,18.16,0,0,0-.5,7.93,11.12,11.12,0,0,0,2.54,6.11c3.16,3.56,7.2,4.42,11.73,3.63a15.25,15.25,0,0,0,3.57-1.29l2.87,2.68a32.21,32.21,0,0,0,2.57-2.69Zm-34.95,4.2c.6,0,1.06,0,1.52-.1a10.67,10.67,0,0,0,9.33-6.84,16.65,16.65,0,0,0,.78-9,11.11,11.11,0,0,0-2.72-6.12c-3-3.2-6.81-4.12-11-3.46A10.43,10.43,0,0,0,44,84a13.32,13.32,0,0,0-1.88,6.14,16.48,16.48,0,0,0,1.13,8.16C45.27,102.87,49.1,104.55,53.66,104.77Z"></path><path class="cls-2" d="M11.64,3.62a11.22,11.22,0,0,1,2.22,7.46c0,3.26,0,71.29,0,71.62H0V0C4.35-.06,8.52,0,11.64,3.62Z"></path><path class="cls-3" d="M19.27,104.72V79.18a1.21,1.21,0,0,1,.71-.11c3.92,0,7.84,0,11.76,0A8.73,8.73,0,0,1,37.4,80.8c2.68,2.13,3,6.92.59,9.12a14.74,14.74,0,0,1-1.31,1c0,.05.06.14.11.17a6.6,6.6,0,0,1,3.27,8.39c-1,3.12-3.6,5-7.25,5.22-4.4.27-8.8.08-13.21.12A1.8,1.8,0,0,1,19.27,104.72Zm5.15-4.35c2.66-.08,5.23.17,7.79-.14a3.24,3.24,0,0,0,2.88-3.48,3,3,0,0,0-2.63-3.15,6.06,6.06,0,0,0-1.21-.12c-2.08,0-4.17,0-6.26,0-.2,0-.41,0-.57.16Zm0-11.29c2.44,0,4.78,0,7.11,0a3.38,3.38,0,0,0,1.39-.37A2.57,2.57,0,0,0,34.46,86a2.34,2.34,0,0,0-2-2.31,7.06,7.06,0,0,0-1.89-.19c-1.65,0-3.31,0-5,0a3.06,3.06,0,0,0-1.23.1Z"></path><path class="cls-3" d="M88.61,100.57l2.47,2.59a32.21,32.21,0,0,1-2.57,2.69l-2.87-2.68a15.25,15.25,0,0,1-3.57,1.29c-4.53.79-8.57-.07-11.73-3.63a11.12,11.12,0,0,1-2.54-6.11,18.16,18.16,0,0,1,.5-7.93,10.07,10.07,0,0,1,7-7.09c4.46-1.36,8.62-.77,12.23,2.36a9.68,9.68,0,0,1,3,5,17.57,17.57,0,0,1-.59,11.23A15.69,15.69,0,0,1,88.61,100.57ZM84.82,97a1.45,1.45,0,0,0,.47-.8,12.82,12.82,0,0,0,.09-8.32,6.29,6.29,0,0,0-12.09,0,13.11,13.11,0,0,0-.28,7,6.52,6.52,0,0,0,3.18,4.72,6.33,6.33,0,0,0,5.87.2l-2.48-2.45,2.82-2.51C83.2,95.47,83.88,96.38,84.82,97Z"></path><path class="cls-3" d="M53.66,104.77c-4.56-.22-8.39-1.9-10.43-6.44a16.48,16.48,0,0,1-1.13-8.16A13.32,13.32,0,0,1,44,84a10.43,10.43,0,0,1,7.57-4.79c4.21-.66,8,.26,11,3.46a11.11,11.11,0,0,1,2.72,6.12,16.65,16.65,0,0,1-.78,9,10.67,10.67,0,0,1-9.33,6.84C54.72,104.72,54.26,104.73,53.66,104.77ZM60.4,92A13.6,13.6,0,0,0,60,88.49a6.34,6.34,0,0,0-6.1-5.14,6.15,6.15,0,0,0-6.21,4.58,13,13,0,0,0,.13,8.32,6.11,6.11,0,0,0,7.52,4,6.82,6.82,0,0,0,4.81-5.51A15.63,15.63,0,0,0,60.4,92Z"></path><path class="cls-1" d="M24.42,100.37V93.64c.16-.21.37-.16.57-.16,2.09,0,4.18,0,6.26,0a6.06,6.06,0,0,1,1.21.12,3,3,0,0,1,2.63,3.15,3.24,3.24,0,0,1-2.88,3.48C29.65,100.54,27.08,100.29,24.42,100.37Z"></path><path class="cls-1" d="M24.42,89.08V83.64a3.06,3.06,0,0,1,1.23-.1c1.65,0,3.31,0,5,0a7.06,7.06,0,0,1,1.89.19,2.34,2.34,0,0,1,2,2.31,2.57,2.57,0,0,1-1.54,2.66,3.38,3.38,0,0,1-1.39.37C29.2,89.09,26.86,89.08,24.42,89.08Z"></path><path class="cls-1" d="M84.82,97c-.94-.6-1.62-1.51-2.42-2.12l-2.82,2.51,2.48,2.45a6.33,6.33,0,0,1-5.87-.2A6.52,6.52,0,0,1,73,94.9a13.11,13.11,0,0,1,.28-7,6.29,6.29,0,0,1,12.09,0,12.82,12.82,0,0,1-.09,8.32A1.45,1.45,0,0,1,84.82,97Z"></path><path class="cls-1" d="M60.4,92a15.63,15.63,0,0,1-.22,2.73,6.82,6.82,0,0,1-4.81,5.51,6.11,6.11,0,0,1-7.52-4,13,13,0,0,1-.13-8.32,6.15,6.15,0,0,1,6.21-4.58A6.34,6.34,0,0,1,60,88.49,13.6,13.6,0,0,1,60.4,92Z"></path></g></g></svg> 