<?xml version="1.0" encoding="UTF-8"?> <svg xmlns="http://www.w3.org/2000/svg" viewBox="0 0 188.83 48.45"><defs><style>.cls-1{fill:#8f9fce;}</style></defs><title>customer-logo-lorna jane</title><g id="Layer_2" data-name="Layer 2"><g id="Layer_1-2" data-name="Layer 1"><path class="cls-1" d="M52.3,21.33c1.27-3.2,2.46-6.15,3.62-9.13,1.09-2.8,2-5.68,3.27-8.4A6.13,6.13,0,0,1,65.05,0C70.17,0,75.3,0,80.42,0c.78,0,.93.16.59.92C80.39,2.25,79.89,3.64,79.36,5q-.89,2.3-1.75,4.61c-.77,2.06-1.58,4.11-2.3,6.19-1.16,3.36-3.57,5.59-7.51,5.59H53.48C53.15,21.4,52.81,21.36,52.3,21.33Zm10-2.33h0c1.7,0,3.4,0,5.09,0a8.11,8.11,0,0,0,2.25-.39c2.39-.84,3.07-3,3.87-5.08s1.6-4.11,2.4-6.16c.52-1.34,1-2.68,1.53-4,.21-.58.09-1.07-.69-1.06-3.82,0-7.64,0-11.46.06a4.21,4.21,0,0,0-3.69,2.26c-1,1.92-1.76,3.95-2.57,5.95-1,2.44-1.89,4.9-2.87,7.33-.4,1-.37,1.12.73,1.13C58.73,19,60.54,19,62.34,19Z"></path><path class="cls-1" d="M106.18,21.32c.37-1,.67-1.88,1-2.75,1-2.54,2-5.09,3-7.63a81.43,81.43,0,0,1,3.19-7.64A5.85,5.85,0,0,1,118.65,0q7.74,0,15.47,0a7.19,7.19,0,0,1,.95.12c-.91,2.34-1.79,4.58-2.64,6.82-.76,2-1.43,4-2.24,6a38.45,38.45,0,0,1-2.64,5.71,5.9,5.9,0,0,1-5.1,2.71c-5.16.07-10.32,0-15.47,0C106.77,21.4,106.56,21.36,106.18,21.32ZM116.45,19c1.73,0,3.47,0,5.19,0a6.16,6.16,0,0,0,1.94-.4c2-.73,2.79-2.47,3.48-4.25,1.4-3.58,2.74-7.19,4.11-10.78.46-1.21.43-1.29-.84-1.29-3.46,0-6.92,0-10.38,0a5.07,5.07,0,0,0-4.87,2.92c-.84,1.72-1.43,3.56-2.14,5.35-1,2.44-2,4.88-2.93,7.32-.32.8-.09,1.18.83,1.17C112.71,19,114.58,19,116.45,19Z"></path><path class="cls-1" d="M108.28.1c-1.12,2.95-2.2,5.76-3.27,8.57q-1.5,4-3,8a7,7,0,0,1-6.16,4.73c-5.29.17-10.59,0-15.89,0a3.54,3.54,0,0,1-.52-.13c.34-.9.66-1.78,1-2.66.78-2.1,1.54-4.21,2.35-6.31q1-2.75,2.18-5.46a25.17,25.17,0,0,1,1.61-3.63A6.39,6.39,0,0,1,92.36,0c5,0,10,0,15,0C107.58,0,107.86.06,108.28.1ZM89.61,19h0c1.66,0,3.32,0,5,0A4.65,4.65,0,0,0,99,16.7a56.47,56.47,0,0,0,2.71-6.22c1-2.36,1.82-4.76,2.77-7.13.34-.86.27-1.07-.68-1.08-3.64,0-7.28,0-10.91,0a4.85,4.85,0,0,0-4.57,2.85C87.44,7.05,86.64,9,85.85,11c-.91,2.28-1.74,4.59-2.62,6.88C82.89,18.78,83,19,84,19Z"></path><path class="cls-1" d="M27.1,34.61h6.47c1.87,0,2.62.77,2.62,2.64,0,2.62,0,5.23,0,7.85,0,2.39-.43,3.13-2.74,3.17-4.55.1-9.11,0-13.66-.14a1.62,1.62,0,0,1-1.55-1.77c0-3.14,0-6.29,0-9.43,0-1.67.65-2.29,2.31-2.31C22.72,34.59,24.91,34.61,27.1,34.61Zm0,11.22c1.55,0,3.11,0,4.66,0,.88,0,1.27-.34,1.24-1.28C33,42.41,33,40.25,33,38.1c0-.79-.31-1.13-1-1.13-3.18,0-6.36,0-9.54,0-.81,0-1.09.4-1.07,1.21q.06,3.22,0,6.47c0,.89.36,1.21,1.2,1.2C24.08,45.82,25.61,45.83,27.13,45.83Z"></path><path class="cls-1" d="M57.63,48.42c-1.91-.46-4.07.76-5.77-1.37a36,36,0,0,0-3.73-3.44c-1.08-1-2.37-.65-3.6-.53-.19,0-.44.61-.45.94-.06,1.09,0,2.19,0,3.28,0,.78-.1,1.28-1,1h-.1c-2-.09-2-.09-2-2.17,0-3.54,0-7.07,0-10.6,0-.74.21-1,1-1,4.06,0,8.12,0,12.19,0,2.12,0,2.57.46,2.55,2.54,0,1.21,0,2.41,0,3.61a1.91,1.91,0,0,1-2,2.17c-.63,0-1.27,0-1.9,0a2.06,2.06,0,0,0-.7.31,2.08,2.08,0,0,0,.37.57c1.61,1.26,3.22,2.51,4.85,3.75a4,4,0,0,0,.76.34Zm-8.88-7.73h1.8c.63,0,1.27,0,1.91,0a1.1,1.1,0,0,0,1.23-.91c.51-2-.06-3.08-2.2-3.23-1.62-.12-3.25,0-4.87,0-2.56,0-2.63-.3-2.56,2.49a4.61,4.61,0,0,1,0,.53c-.07.81.28,1.17,1.1,1.15C46.34,40.67,47.55,40.7,48.75,40.69Z"></path><path class="cls-1" d="M150.77,48.33a3.34,3.34,0,0,1-.09-.52q0-6.21,0-12.41c0-.58.18-.78.79-.81a4.28,4.28,0,0,1,3.24,1.16c2.55,2.15,5.26,4.11,7.9,6.16.45.34.84.76,1.29,1.09a4.27,4.27,0,0,0,.81.37,2.9,2.9,0,0,0,.32-.84c0-2.27,0-4.53,0-6.79,0-.84.13-1.2,1.09-1.15,1.92.1,1.92,0,1.92,2,0,3.36,0,6.72,0,10.08a9.86,9.86,0,0,1-.27,1.7,9.24,9.24,0,0,1-2.68-.51,18,18,0,0,1-2.74-2.15l-7.59-6.07c-.21-.17-.45-.31-.86-.58-.06.54-.13.93-.14,1.32,0,2.33,0,4.67,0,7,0,.78-.22,1.1-1.06,1A12,12,0,0,0,150.77,48.33Z"></path><path class="cls-1" d="M76.7,43.57a7.48,7.48,0,0,0,.24-1.36c0-2.3,0-4.59-.08-6.89,0-.11,0-.25,0-.31.68-.89,1.64-.2,2.45-.38.12,0,.53.48.54.75,0,4,0,8.06,0,12.09a4.87,4.87,0,0,1-.12.8c-1.66.47-2.76-.28-3.9-1.22-2.84-2.35-5.77-4.6-8.65-6.9-.41-.32-.79-.69-1.41-1.25a8.26,8.26,0,0,0-.32,1.41c0,2.3,0,4.6,0,6.89,0,.38,0,.75-.08,1.21a14.33,14.33,0,0,1-2.29,0,1.08,1.08,0,0,1-.6-.85c0-3.71,0-7.43,0-11.14,0-1.81,0-1.78,1.8-1.78,1.33,0,2.06,1,3,1.69,3,2.33,6,4.77,9,7.16A1.94,1.94,0,0,0,76.7,43.57Z"></path><path class="cls-1" d="M188.8,48.35h-14c-.69,0-.89-.31-.89-1,0-4,0-8,0-12,0-.88.5-.78,1-.78H186.2c.5,0,1,0,1.49,0,.83-.07,1.09.26,1.08,1.1s-.27,1.19-1.16,1.18c-3,0-6.08,0-9.11,0-1,0-1.47.24-1.35,1.28a3.05,3.05,0,0,1,0,.74c-.09.9.25,1.27,1.21,1.23,1.51-.08,3,0,4.55,0,1.17,0,.92.78,1,1.45.09.83-.45.81-1,.8-1.56,0-3.11,0-4.66-.06-.79,0-1.06.28-1.09,1-.11,2.61-.13,2.62,2.49,2.62s5.3.06,8,0c1,0,1.32.32,1.22,1.25A9.92,9.92,0,0,0,188.8,48.35Z"></path><path class="cls-1" d="M103.39,48.42a21.36,21.36,0,0,1-3.14-.05,1.7,1.7,0,0,1-1.08-1c-.58-1.75-1.72-2.21-3.47-2.06a30.73,30.73,0,0,1-5.51,0,2.27,2.27,0,0,0-2.39,1.44c-1,1.69-1.91,2-4,1.37C84.39,47,85,46,85.56,44.92c1.87-3.13,3.78-6.23,5.62-9.37a1.9,1.9,0,0,1,1.68-1c1.87-.25,2.79.59,3.67,2.15,2,3.65,4.29,7.17,6.45,10.75A9.76,9.76,0,0,1,103.39,48.42ZM93.3,43v0h2.11c1,0,1.18-.32.68-1.19l-2.25-3.91c-.12-.19-.26-.37-.39-.55-.2.16-.48.28-.61.49C92,39.19,91.22,40.58,90.47,42c-.28.53-.11,1,.6,1Z"></path><path class="cls-1" d="M146.93,48.4a5.58,5.58,0,0,0-1,0c-2,.31-3.38-.29-4.09-2.3a1.65,1.65,0,0,0-1.28-.68c-2.5-.07-5-.08-7.52,0a2.48,2.48,0,0,0-1.41.83c-.37.36-.47,1-.83,1.33a2.71,2.71,0,0,1-1.33.78,15.2,15.2,0,0,1-2.37,0c.56-1,1-1.84,1.55-2.69q2.45-4.12,4.9-8.23a4.2,4.2,0,0,0,.56-.88c.54-2,2.05-2.17,3.71-1.93a2,2,0,0,1,1.26.71c2.6,4.19,5.15,8.43,7.71,12.65A1.41,1.41,0,0,1,146.93,48.4ZM139.85,43c0-.3.07-.42,0-.5-.81-1.59-1.62-3.18-2.48-4.75a.69.69,0,0,0-1.24.17c-.17.38-.33.78-.53,1.14-.5.92-1.06,1.81-1.52,2.75-.22.44-.49,1.14.41,1.17C136.27,43,138,43,139.85,43Z"></path><path class="cls-1" d="M113.14,41.79c0,1.11,0,2.09,0,3.07,0,.82.29,1.11,1.15,1.07,1.55-.08,3.11-.07,4.66,0,.89,0,1.18-.28,1.17-1.16,0-3,0-6.08,0-9.12,0-.82.27-1,1-1,2.36,0,2.36-.06,2.36,2.33,0,2.76,0,5.51,0,8.27a3.69,3.69,0,0,1-.12,1.15c-.55,1.61-1.07,2-2.92,2q-3.7,0-7.42,0a3,3,0,0,1-1.55-.23,2.78,2.78,0,0,1-1.29-1.41,23.66,23.66,0,0,1-.24-3.48c0-.81.55-1,1.13-1.17A17.09,17.09,0,0,1,113.14,41.79Z"></path><path class="cls-1" d="M7.31,48.34c-2,0-4.1,0-6.15,0C.31,48.37,0,48.1,0,47.19c0-3.89,0-7.77,0-11.66,0-.73.24-.93.91-.92,3.05,0,2.43-.32,2.46,2.32s0,5.23,0,7.84c0,.9.34,1.17,1.2,1.16,3,0,5.94,0,8.9-.06,1,0,1.06.47,1.07,1.23s-.1,1.28-1.07,1.26C11.41,48.3,9.36,48.34,7.31,48.34Z"></path></g></g></svg> 