<?xml version="1.0" encoding="UTF-8"?> <svg xmlns="http://www.w3.org/2000/svg" viewBox="0 0 273.91 45.57"><defs><style>.cls-1{fill:#8f9fce;}.cls-2{fill:#2846a0;}</style></defs><title>customer-logo-michael hill</title><g id="Layer_2" data-name="Layer 2"><g id="Layer_1-2" data-name="Layer 1"><path class="cls-1" d="M21.86,45.57V40.78c0-.6.2-1,.89-1.07s1.1.35,1.11,1.07c0,1.6,0,3.19,0,4.79Z"></path><path class="cls-2" d="M59.05,26c0-2.89,0-5.78,0-8.67,0-1,.16-1.58,1.41-1.56,5.18.06,10.38-.2,15.55.14a28.74,28.74,0,0,0,6.08,0,58.24,58.24,0,0,1,9.25-.09c2.65.07,4,1.56,4,4.24,0,4.77,0,9.55,0,14.32,0,1.25-.33,1.58-1.57,1.57-3,0-3,0-3-2.91,0-3.57,0-7.13,0-10.69,0-2.72-.6-3.31-3.31-3.32-1.68,0-3.36,0-5,0-2,0-2.79.73-2.8,2.78,0,4-.11,8.07,0,12.09.07,1.77-.53,2.27-2.13,2a4.46,4.46,0,0,0-1.21,0c-1.19.17-1.46-.38-1.45-1.48.05-4,0-8.07,0-12.1,0-2.81-.5-3.3-3.27-3.31-1.75,0-3.5,0-5.24,0s-2.57.88-2.57,2.61c0,4.17,0,8.34,0,12.5,0,1.36-.26,2-1.74,1.79a5.79,5.79,0,0,0-1.61,0C59.39,36,59,35.62,59,34.45,59.1,31.63,59.05,28.81,59.05,26Z"></path><path class="cls-2" d="M178.41,21c0-2.95-1.5-4.38-4.52-4.41-2.28,0-4.57,0-6.85,0s-4.71,0-7.06,0c-1.17,0-2-.06-2,1.61s.72,1.75,1.95,1.64c.87-.07,1.75,0,2.62-.05,2.89,0,5.78-.06,8.67,0,1.89,0,2.52,1,2.58,3.08s-1.47,1.29-2.37,1.31c-3.36.09-6.72,0-10.08.05A3.79,3.79,0,0,0,157.44,28c-.41,4.76.48,7.21,2.84,7.79a4.79,4.79,0,0,0,1.2.08c5.15.08,10.3-.17,15.45,0,1.32,0,1.53-.44,1.51-1.61C178.38,29.88,178.43,25.44,178.41,21Zm-4.6,8.24c-.2,2.89-.43,3.45-2.65,3.48s-4.28,0-6.42,0c-1.85,0-2.69-.91-2.64-2.73.06-1.64.74-2.66,2.57-2.59,1.27.05,2.54,0,3.81,0,.94,0,1.88,0,2.81,0C172.55,27.43,174,27,173.81,29.24Z"></path><path class="cls-2" d="M189.59,27.41c4.09,0,8.19-.09,12.28,0,1.23,0,1.67-.31,1.59-1.57-.11-1.74,0-3.49-.06-5.23a3.78,3.78,0,0,0-4-3.87q-6.45-.06-12.89,0a3.49,3.49,0,0,0-3.8,3.58q-.19,5.94,0,11.88a3.64,3.64,0,0,0,3.93,3.7c2.42,0,4.84,0,7.25,0s4.84-.06,7.25,0c1.19,0,1.64-.21,1.63-1.52s-.37-1.73-1.7-1.69c-3.69.08-7.39.06-11.08,0-2.14,0-2.52-.82-2.72-3.52C187.08,27,188.37,27.42,189.59,27.41Zm-2.31-4.24c0-1.49,0-3.11,1.84-3.27a41.59,41.59,0,0,1,7.81,0c1.82.18,1.8,1.86,1.73,3.32-.09,1.69-1.37.82-2.12.91a27.53,27.53,0,0,1-3.4,0,37.22,37.22,0,0,1-3.81,0C188.6,24.08,187.31,24.92,187.28,23.17Z"></path><path class="cls-2" d="M231,17.31a5.83,5.83,0,0,1,3.58-.73c2.89,0,5.78,0,8.66,0,2.54.06,4.13,1.51,4.18,4,.09,4.76,0,9.53.05,14.3,0,.93-.39,1.06-1.2,1.11-3.48.2-3.48.22-3.48-3.29,0-3.23,0-6.45,0-9.67,0-2.59-.67-3.19-3.25-3.2h-5.64c-2.45,0-3,.52-3,2.91,0,3.69-.13,7.39.05,11.07.09,1.89-.58,2.11-2.24,2.16-2,.07-2.69-.41-2.65-2.59.15-7.38.1-14.77,0-22.15,0-1.43.41-1.83,1.81-1.81,3,0,3,0,3,3v4.23C230.89,16.72,230.91,16.85,231,17.31Z"></path><path class="cls-2" d="M136.68,17A58.28,58.28,0,0,1,150,16.75c2,.11,3.25,1.7,3.3,3.95.11,4.7,0,9.4.06,14.11,0,.88-.35,1.1-1.18,1.16-3.61.27-3.61.3-3.61-3.32,0-3.36,0-6.72,0-10.08,0-2.07-.7-2.74-2.8-2.76s-4.17,0-6.25,0-2.78.56-2.81,2.73c-.05,3.83-.08,7.66,0,11.48,0,1.5-.35,2-1.89,1.9-2.8-.12-2.8,0-2.8-2.91,0-7.26.08-14.52-.06-21.77,0-1.88.84-1.9,2.16-1.81s2.81-.53,2.59,1.82C136.53,13.17,136.68,15.12,136.68,17Z"></path><path class="cls-2" d="M119.35,35.88c-2.29,0-4.58,0-6.86,0s-3.72-1.17-3.92-3.47a71.94,71.94,0,0,1,0-12.28,3.57,3.57,0,0,1,3.9-3.53c4.71-.06,9.41,0,14.12-.05,1.31,0,1.35.64,1.36,1.62s0,1.64-1.35,1.6c-3.42-.09-6.85,0-10.28,0-2.51,0-3.18.69-3.19,3.25,0,2.15,0,4.31,0,6.46,0,2.68.6,3.25,3.36,3.26,3.29,0,6.59.05,9.88,0,1.26,0,1.6.39,1.6,1.61s-.25,1.67-1.56,1.61C124.06,35.81,121.7,35.88,119.35,35.88Z"></path><path class="cls-2" d="M212.25,22.77c0,3.77-.09,7.53,0,11.3.06,1.58-.47,2-1.93,1.83a7.88,7.88,0,0,0-1.61,0c-.8,0-1.23-.15-1.23-1.09q0-12.1,0-24.21c0-.89.37-1.2,1.2-1.16a7.37,7.37,0,0,0,1.41,0c1.62-.23,2.23.3,2.16,2.06C212.15,15.24,212.25,19,212.25,22.77Z"></path><path class="cls-2" d="M260.4,22.68c0-3.75.08-7.51,0-11.26-.05-1.57.46-2.06,1.93-1.84a7.13,7.13,0,0,0,1.6,0c1-.09,1.24.39,1.23,1.3,0,7.92,0,15.83,0,23.74,0,1.09-.4,1.43-1.41,1.34a9,9,0,0,0-1.8,0c-1.29.17-1.57-.42-1.55-1.61C260.44,30.46,260.4,26.57,260.4,22.68Z"></path><path class="cls-2" d="M269.21,22.57c0-3.49.16-7-.06-10.48-.14-2.22.66-2.62,2.66-2.57,1.67,0,2.14.47,2.1,2.15-.11,5.64,0,11.29,0,16.94v4.44c0,2.75-1.39,3.72-4.07,2.9-.91-.28-.57-1-.57-1.47C269.19,30.51,269.21,26.54,269.21,22.57Z"></path><path class="cls-2" d="M251.52,26.2c0-2.69.06-5.38,0-8.06,0-1.26.37-1.73,1.6-1.57a6.67,6.67,0,0,0,1.61,0c1.3-.18,1.57.42,1.56,1.61-.06,5.37-.07,10.75,0,16.12,0,1.34-.39,1.84-1.7,1.66a9.12,9.12,0,0,0-1.81,0c-1,.09-1.26-.37-1.25-1.3C251.55,31.84,251.52,29,251.52,26.2Z"></path><path class="cls-2" d="M104.24,26.24c0,2.69-.07,5.37,0,8.06,0,1.31-.35,1.84-1.68,1.66a8.42,8.42,0,0,0-1.81,0c-.91.08-1.13-.35-1.12-1.19,0-5.64,0-11.28,0-16.92,0-.94.27-1.25,1.25-1.3,3.33-.15,3.33-.2,3.33,3Z"></path><path class="cls-1" d="M3.74,29.3c-.88.13-1.1-.44-1.33-1.14s-.3-1.21.44-1.51A20.29,20.29,0,0,1,9.22,25c1.11-.07,1.35.58,1.6,1.38.33,1.05-.56,1-1.1,1.31A23.92,23.92,0,0,1,3.74,29.3Z"></path><path class="cls-1" d="M9.23,20.54a33.24,33.24,0,0,1-5.94-1.61c-.89-.37-1.13-.82-.87-1.82s.9-1.1,1.63-.95A26.64,26.64,0,0,1,10,17.83c.67.32,1.1.65.77,1.53S10.21,20.73,9.23,20.54Z"></path><path class="cls-1" d="M36.53,20.56c-1,.18-1.28-.4-1.56-1.18s.08-1.23.76-1.54a27.56,27.56,0,0,1,6-1.69c1-.21,1.37.4,1.67,1.29s-.27,1.18-.88,1.46A34.11,34.11,0,0,1,36.53,20.56Z"></path><path class="cls-1" d="M29.45,41.74a1.11,1.11,0,0,1-1.05,1.39c-.67.12-1.28.3-1.63-.59a23.32,23.32,0,0,1-1.69-6.14c-.1-1,.41-1.46,1.3-1.67s1.2.39,1.44,1A32.56,32.56,0,0,1,29.45,41.74Z"></path><path class="cls-1" d="M20.61,36.45A24.4,24.4,0,0,1,19.1,42.2a1.49,1.49,0,0,1-2,.88c-1-.24-1-1-.78-1.75a27.8,27.8,0,0,1,1.53-5.58c.34-.73.74-1.28,1.68-1S20.86,35.49,20.61,36.45Z"></path><path class="cls-1" d="M20.65,9c.21,1.1-.44,1.33-1.33,1.59s-1.23-.29-1.42-.93Q17,6.8,16.29,3.89c-.16-.66-.19-1.36.8-1.51.71-.11,1.39-.54,1.82.5A24.45,24.45,0,0,1,20.65,9Z"></path><path class="cls-1" d="M14.51,12.69c0,.74-.59,1-1,1.45s-.82.19-1.23-.1A18.94,18.94,0,0,1,7.66,9.39c-.51-.72-.22-1.18.26-1.74s1-.61,1.68-.12A29.6,29.6,0,0,1,14,11.84,4.21,4.21,0,0,1,14.51,12.69Z"></path><path class="cls-1" d="M32.78,14.4c-.6,0-.86-.55-1.24-.89s-.33-1,0-1.43a23.5,23.5,0,0,1,4.68-4.61c.48-.34.89-.57,1.36,0s1.12.92.61,1.69a17.48,17.48,0,0,1-5,5.07A2.4,2.4,0,0,1,32.78,14.4Z"></path><path class="cls-1" d="M36.83,25a28.35,28.35,0,0,1,5.92,1.59c1,.4.56,1.05.48,1.66-.09.81-.54,1.21-1.37,1a24.52,24.52,0,0,1-5.76-1.6c-.58-.3-1.54-.27-1.17-1.44C35.23,25.26,35.68,24.69,36.83,25Z"></path><path class="cls-1" d="M38.32,36.71a1.6,1.6,0,0,1-2.18,1.15,17.4,17.4,0,0,1-4.65-4.64,1,1,0,0,1,0-1.44c.41-.44.86-1,1.52-.6a16.88,16.88,0,0,1,5.22,5.15A1.12,1.12,0,0,1,38.32,36.71Z"></path><path class="cls-1" d="M14.54,32.69a10.15,10.15,0,0,1-.92,1.4,21.62,21.62,0,0,1-3.74,3.6c-.71.5-1.18.65-1.87,0s-.75-1.25-.19-1.91a25.57,25.57,0,0,1,4.43-4.33,1.12,1.12,0,0,1,1.47-.13A1.59,1.59,0,0,1,14.54,32.69Z"></path><path class="cls-1" d="M25.1,8.59a35.85,35.85,0,0,1,1.62-5.66c.29-.86.79-.89,1.56-.63s1.33.45,1.14,1.34a37.82,37.82,0,0,1-1.51,5.83c-.34.86-.73,1.27-1.79,1.07C24.89,10.3,25.1,9.52,25.1,8.59Z"></path><path class="cls-2" d="M253.81,12.89c-1.09-.08-2.36.51-2.37-1.61s1.34-1.67,2.5-1.68,2.35-.47,2.37,1.61C256.34,13.46,254.94,12.79,253.81,12.89Z"></path><path class="cls-2" d="M102,12.88c-1.27,0-2.43.4-2.42-1.66,0-2.28,1.45-1.51,2.54-1.63,1.3-.13,2.2-.11,2.19,1.78C104.31,13.58,102.87,12.69,102,12.88Z"></path><path class="cls-1" d="M4.16,10.82a11.21,11.21,0,0,1,4.13,2.52c.36.37-.08.74-.25,1.08a.61.61,0,0,1-.83.33,14.93,14.93,0,0,1-4.15-2.43c-.39-.35-.23-.73,0-1.07S3.37,10.61,4.16,10.82Z"></path><path class="cls-1" d="M14.93,38.27a14.67,14.67,0,0,1-2.39,4.15c-.31.37-.66.34-1.07.11s-.71-.6-.5-1.14a14.23,14.23,0,0,1,2.31-4c.34-.42.68-.27,1-.06S15,37.76,14.93,38.27Z"></path><path class="cls-1" d="M34.71,41.33a.87.87,0,0,1-.45,1.18.78.78,0,0,1-1.2-.19,17,17,0,0,1-2.19-3.81c-.23-.54,0-.87.47-1.12s.72-.38,1.07,0A13.85,13.85,0,0,1,34.71,41.33Z"></path><path class="cls-1" d="M38.53,30.66A15,15,0,0,1,42.6,33c.39.32.29.69.07,1.07s-.6.73-1.14.49a17.24,17.24,0,0,1-3.81-2.2.78.78,0,0,1-.2-1.19C37.76,30.84,38,30.56,38.53,30.66Z"></path><path class="cls-1" d="M8.49,31.85a4.42,4.42,0,0,1-.52.54,16.44,16.44,0,0,1-3.61,2.14A.9.9,0,0,1,3,34.12a.89.89,0,0,1,.38-1.35c1.15-.69,2.29-1.37,3.48-2C7.88,30.27,8.13,31.11,8.49,31.85Z"></path><path class="cls-1" d="M42.88,11.9a4.69,4.69,0,0,1-2.48,1.89c-.88.35-2,1.91-2.8.35s1-1.6,1.79-2.22a7.45,7.45,0,0,1,2.13-1.06C42.43,10.51,42.66,11.2,42.88,11.9Z"></path><path class="cls-1" d="M31.9,8.25c-.54-.28-1.41-.37-1-1.33A14.13,14.13,0,0,1,33.17,3a.72.72,0,0,1,1.06-.11c.34.23.72.47.56,1A12.72,12.72,0,0,1,32.28,8.1C32.21,8.18,32.05,8.19,31.9,8.25Z"></path><path class="cls-1" d="M11.85,2.69c.49-.09.72.29,1,.59a18.23,18.23,0,0,1,2,3.46A.86.86,0,0,1,14.33,8a.84.84,0,0,1-1.21-.23A17.77,17.77,0,0,1,11,4.18C10.65,3.34,11.16,3,11.85,2.69Z"></path><path class="cls-1" d="M43.19,21.73c.65.41,2.44-.88,2.4,1,0,1.64-1.65.82-2.57,1a9.58,9.58,0,0,1-2,0c-.65,0-1.2-.19-1.22-1s.5-1,1.17-1Z"></path><path class="cls-1" d="M24.15,2.69c-.75,1,.63,2.95-1.36,2.9-1.64,0-1-1.77-.93-2.7S21,.07,22.82,0C24.83-.07,23.25,2,24.15,2.69Z"></path><path class="cls-1" d="M2.91,21.69a5.45,5.45,0,0,1,1,0c.72.15,1.93-.44,1.87,1s-1.22.94-2,1a18.54,18.54,0,0,1-2.58,0c-.74,0-1.28-.27-1.21-1.19s.75-.76,1.31-.81,1.06,0,1.59,0Z"></path><path class="cls-1" d="M15.29,27.54A4,4,0,0,1,13,28.92c-.36.11-.73-.26-.59-.56a3.14,3.14,0,0,1,2.24-1.48C15,26.78,15.25,27.1,15.29,27.54Z"></path><path class="cls-1" d="M30.41,27.44c.14-.4.33-.71.73-.55.85.34,1.82.58,2.18,1.56.08.23-.33.64-.71.47C31.8,28.55,30.84,28.34,30.41,27.44Z"></path><path class="cls-1" d="M22.23,33c.16-.51-.22-1.47.7-1.34s.5,1.09.53,1.7.13,1.31-.58,1.25C21.89,34.49,22.4,33.53,22.23,33Z"></path><path class="cls-1" d="M33.32,17.09a3.81,3.81,0,0,1-2.27,1.4c-.24.08-.63-.11-.56-.4.25-1.07,1.24-1.26,2.09-1.56C32.94,16.4,33.19,16.67,33.32,17.09Z"></path><path class="cls-1" d="M33.35,22.1c.48.2,1.42-.26,1.34.68s-.92.55-1.47.55-1.42.21-1.36-.66S32.81,22.24,33.35,22.1Z"></path><path class="cls-1" d="M12.51,22.1c.52.15,1.44-.2,1.36.68s-.93.56-1.48.55S11,23.56,11,22.67,12,22.26,12.51,22.1Z"></path><path class="cls-1" d="M18.61,31.11c-.37.67-.49,1.64-1.44,1.93-.33.1-.62-.27-.5-.65a2.78,2.78,0,0,1,1.45-2C18.45,30.22,18.65,30.64,18.61,31.11Z"></path><path class="cls-1" d="M27.69,30.33a4,4,0,0,1,1.36,2.09c.14.38-.2.75-.52.62a2.56,2.56,0,0,1-1.42-2C27,30.65,27.2,30.36,27.69,30.33Z"></path><path class="cls-1" d="M13.22,16.52a3.23,3.23,0,0,1,2,1.39c.14.28-.27.66-.6.56-.85-.28-1.83-.48-2.16-1.46C12.36,16.71,12.79,16.5,13.22,16.52Z"></path><path class="cls-1" d="M27.67,15.1c-.38-.12-.67-.35-.56-.71.26-.86.48-1.82,1.51-2.07.3-.08.57.38.42.72A3.8,3.8,0,0,1,27.67,15.1Z"></path><path class="cls-1" d="M17.28,12.25a3.8,3.8,0,0,1,1.32,2.29c0,.3-.31.7-.64.49a3.54,3.54,0,0,1-1.29-2.12C16.56,12.55,16.86,12.33,17.28,12.25Z"></path><path class="cls-1" d="M22.24,12.3c.14-.5-.26-1.39.68-1.36.72,0,.56.81.54,1.3s.27,1.4-.66,1.37C22.06,13.58,22.33,12.8,22.24,12.3Z"></path></g></g></svg> 