<?xml version="1.0" encoding="UTF-8"?> <svg xmlns="http://www.w3.org/2000/svg" viewBox="0 0 190.78 49.53"><defs><style>.cls-1{fill:#536bb3;}.cls-2{fill:#8f9fce;}.cls-3{fill:#2846a0;}</style></defs><title>customer-logo-carzoos</title><g id="Layer_2" data-name="Layer 2"><g id="Layer_1-2" data-name="Layer 1"><path class="cls-1" d="M54.92,44.14a132.69,132.69,0,0,1-35.94,0c-.07.56-.09,1-.19,1.52a4.92,4.92,0,0,1-4.7,3.84c-2.18,0-4.36,0-6.54,0a4.76,4.76,0,0,1-4.7-4.29c-.17-2.26-.07-4.53-.11-6.79a2.23,2.23,0,0,0-.2-1.07A17.77,17.77,0,0,1,0,28.26a30.68,30.68,0,0,1,.5-7.43C1.63,16,4.88,13,9.69,11.68a1.74,1.74,0,0,0,.92-.71c1.24-1.86,2.33-3.82,3.65-5.61A11.27,11.27,0,0,1,23,.63,162.14,162.14,0,0,1,44.48.19c2.75.15,5.49.45,8.23.7a8.45,8.45,0,0,1,4.95,2.35,25.85,25.85,0,0,1,5.44,7.47,1.92,1.92,0,0,0,1.37,1.08c4.76,1.28,7.9,4.34,9,9.13a24.8,24.8,0,0,1-.73,13.65,7.46,7.46,0,0,1-.82,1.79,4.76,4.76,0,0,0-.75,3c.07,1.69,0,3.38,0,5.08a5,5,0,0,1-5,5.07c-2,0-3.9,0-5.85,0A5,5,0,0,1,55,44.56C55,44.45,55,44.34,54.92,44.14ZM14.8,14.88c1.09-.09,2-.12,2.95-.25q6.75-1,13.48-2.06a38.55,38.55,0,0,1,11.45-.09c4.64.66,9.26,1.44,13.9,2.14.94.14,1.89.17,2.93.25a3.41,3.41,0,0,0-.1-.67,28.86,28.86,0,0,0-4.74-7.44,3.83,3.83,0,0,0-2.61-1.34c-4.34-.28-8.68-.78-13-.8C34,4.61,29,5,24,5.25c-1.73.08-3.37.36-4.6,1.87A34.11,34.11,0,0,0,15,14.17,5,5,0,0,0,14.8,14.88Zm2.61,7.52a11.93,11.93,0,0,0,.86,4.52,5.56,5.56,0,0,0,4,3.79,45.94,45.94,0,0,0,11.69,1.65c4,.06,8-.09,11.93-.36a48.56,48.56,0,0,0,6.4-1.16A3,3,0,0,0,54.49,29c.67-1.73,1.28-3.49,1.9-5.24a3.39,3.39,0,0,0,0-.93C43.36,26.21,30.42,26.76,17.41,22.4Zm-7.29,3a3.55,3.55,0,0,0,.23-7.09,3.55,3.55,0,1,0-.23,7.09Zm54.06,0a3.55,3.55,0,1,0-3.59-3.58A3.53,3.53,0,0,0,64.18,25.38Zm-54,3.07a1.81,1.81,0,0,0-1.89,1.78,1.87,1.87,0,0,0,1.91,1.88A1.83,1.83,0,0,0,12,30.25,1.79,1.79,0,0,0,10.18,28.45Zm54,0a1.81,1.81,0,0,0-1.9,1.78,1.87,1.87,0,0,0,1.91,1.88,1.85,1.85,0,0,0,1.85-1.85A1.8,1.8,0,0,0,64.21,28.45Z"></path><path class="cls-2" d="M168.91,33.53a8,8,0,1,1,8-8A7.94,7.94,0,0,1,168.91,33.53Zm-4.74-7.93a5.35,5.35,0,0,0,1,3.21,4.44,4.44,0,0,0,7.56-.14,5.78,5.78,0,0,0-.09-6.39,4.45,4.45,0,0,0-7.1-.47A5.47,5.47,0,0,0,164.17,25.6Z"></path><path class="cls-3" d="M126.9,28.44l3.31,4.92c-1.29,0-2.44,0-3.59,0-.16,0-.34-.27-.46-.45-.68-1-1.39-2-2-3a1.42,1.42,0,0,0-1.54-.79c-.47,0-1,0-1.54,0v4.22H117.8V17.76c2.42,0,4.8-.17,7.15,0a5.35,5.35,0,0,1,4.74,4.34,5.65,5.65,0,0,1-2.37,6Zm-5.78-2.11c1,0,2,0,2.9,0a2.66,2.66,0,0,0,2.48-2.78,2.76,2.76,0,0,0-2.18-3.06c-1-.1-2.1,0-3.2,0Z"></path><path class="cls-2" d="M159.34,25.61a7.75,7.75,0,0,1-8,7.83,7.84,7.84,0,0,1-7.79-7.95,7.91,7.91,0,0,1,15.82.12Zm-12.74-.1a5.73,5.73,0,0,0,1.31,3.72,4.55,4.55,0,0,0,6.93.21,5.88,5.88,0,0,0,.44-7.23,4.33,4.33,0,0,0-3.43-2A5,5,0,0,0,146.6,25.51Z"></path><path class="cls-3" d="M101.37,33.38c.57-1.41,1.09-2.67,1.61-3.94,1.51-3.67,3-7.34,4.52-11,.28-.71.71-.75,1.31-.72s1.14-.13,1.48.71c1.89,4.76,3.86,9.48,5.8,14.21.09.21.17.42.3.76-1.14,0-2.18,0-3.22,0a.77.77,0,0,1-.46-.29,2.17,2.17,0,0,1-.22-.46c-.33-.73-.48-1.71-1-2.1s-1.49-.12-2.26-.12c-1,0-2.09-.31-2.78.12s-.83,1.59-1.27,2.4a.89.89,0,0,1-.6.45C103.54,33.4,102.54,33.38,101.37,33.38ZM108.89,23l-1.59,4.51h3.19C110,26.05,109.46,24.66,108.89,23Z"></path><path class="cls-3" d="M138.81,20.45H131V17.74h11.76c0,1.45.24,2.78-.87,4.09-2.38,2.78-4.56,5.73-6.93,8.74h7.78v2.76H130.93c0-1.42-.22-2.73.88-4,2.27-2.62,4.33-5.41,6.47-8.14C138.42,21,138.55,20.82,138.81,20.45Z"></path><path class="cls-3" d="M190.78,20.4l-2.14,2.17c-.64-.54-1.28-1.16-2-1.66a3.15,3.15,0,0,0-2.94-.46,1.43,1.43,0,0,0-.49,2.56,10.6,10.6,0,0,0,2.14,1c1.1.49,2.26.85,3.29,1.44a4,4,0,0,1,2.06,4.2,4.07,4.07,0,0,1-2.91,3.4,8.09,8.09,0,0,1-9.23-2.46l1.94-2c.53.38,1.05.72,1.53,1.11a4,4,0,0,0,4.1.8,2.38,2.38,0,0,0,1.17-1.19,1.34,1.34,0,0,0-.69-1.69c-.74-.42-1.56-.69-2.33-1.05A19.52,19.52,0,0,1,180.9,25a3.87,3.87,0,0,1,.4-6.6,6.69,6.69,0,0,1,5.15-.66A8.38,8.38,0,0,1,190.78,20.4Z"></path><path class="cls-3" d="M98.51,28.73l2.1,2.12c-2.32,3.26-8,3.66-11.39.8a8.14,8.14,0,0,1-.42-11.8c3.28-3.25,8.94-3.07,11.77.32l-2.18,2.12c-2.32-2.37-4.8-2.7-6.86-.81a5.7,5.7,0,0,0-.35,7.78C93.12,31.45,95.47,31.28,98.51,28.73Z"></path></g></g></svg> 