<?xml version="1.0" encoding="UTF-8"?> <!-- Generator: Adobe Illustrator 22.1.0, SVG Export Plug-In . SVG Version: 6.00 Build 0) --> <svg xmlns="http://www.w3.org/2000/svg" xmlns:xlink="http://www.w3.org/1999/xlink" id="Layer_1" x="0px" y="0px" viewBox="0 0 126.9 85.1" style="enable-background:new 0 0 126.9 85.1;" xml:space="preserve"> <style type="text/css"> .st0{fill:#D4F2F8;} .st1{fill:#FFD20A;} .st2{fill:#2846A0;} .st3{fill:#66FFC4;} .st4{fill:#28BDDB;} </style> <polygon class="st0" points="56.7,46.7 0,46.7 7,31.6 0,17.6 56.7,17.6 47.7,31.6 "></polygon> <polygon class="st0" points="126.9,46.7 90.1,46.7 97.1,31.6 90.1,17.6 126.9,17.6 117.9,31.6 "></polygon> <g> <g> <path class="st1" d="M40.6,83.6l-2.8,1.5c-0.2,0.1-0.3-0.1-0.3-0.2l0.5-3.2l-2.3-2.2c-0.1-0.1-0.1-0.3,0.1-0.4l3.2-0.5l1.4-2.9 c0.1-0.2,0.3-0.2,0.4,0l1.4,2.9l3.2,0.5c0.2,0,0.3,0.2,0.1,0.4l-2.3,2.2l0.5,3.2c0,0.2-0.2,0.3-0.3,0.2L40.6,83.6z"></path> </g> <g> <path class="st1" d="M53.5,83.6l-2.8,1.5c-0.2,0.1-0.3-0.1-0.3-0.2l0.5-3.2l-2.3-2.2c-0.1-0.1-0.1-0.3,0.1-0.4l3.2-0.5l1.4-2.9 c0.1-0.2,0.3-0.2,0.4,0l1.4,2.9l3.2,0.5c0.2,0,0.3,0.2,0.1,0.4l-2.3,2.2l0.5,3.2c0,0.2-0.2,0.3-0.3,0.2L53.5,83.6z"></path> </g> <g> <path class="st1" d="M66.4,83.6l-2.8,1.5c-0.2,0.1-0.3-0.1-0.3-0.2l0.5-3.2l-2.3-2.2c-0.1-0.1-0.1-0.3,0.1-0.4l3.2-0.5l1.4-2.9 c0.1-0.2,0.3-0.2,0.4,0l1.4,2.9l3.2,0.5c0.2,0,0.3,0.2,0.1,0.4L69,81.7l0.5,3.2c0,0.2-0.2,0.3-0.3,0.2L66.4,83.6z"></path> </g> <g> <path class="st1" d="M79.3,83.6l-2.8,1.5c-0.2,0.1-0.3-0.1-0.3-0.2l0.5-3.2l-2.3-2.2c-0.1-0.1-0.1-0.3,0.1-0.4l3.2-0.5l1.4-2.9 c0.1-0.2,0.3-0.2,0.4,0l1.4,2.9l3.2,0.5c0.2,0,0.3,0.2,0.1,0.4L82,81.7l0.5,3.2c0,0.2-0.2,0.3-0.3,0.2L79.3,83.6z"></path> </g> <g> <path class="st1" d="M92.3,83.6l-2.8,1.5c-0.2,0.1-0.3-0.1-0.3-0.2l0.5-3.2l-2.3-2.2c-0.1-0.1-0.1-0.3,0.1-0.4l3.2-0.5l1.4-2.9 c0.1-0.2,0.3-0.2,0.4,0l1.4,2.9l3.2,0.5c0.2,0,0.3,0.2,0.1,0.4l-2.3,2.2l0.5,3.2c0,0.2-0.2,0.3-0.3,0.2L92.3,83.6z"></path> </g> </g> <g> <path class="st2" d="M34.8,55.8V27.6c-0.4,0.5-1,1.2-1.5,1.6l-5,5L17.9,25L37.9,5.3h13.3v50.5H34.8z"></path> <path class="st3" d="M74.2,56.5c-15.8,0-32.3-8.8-32.3-25.5c0-17.9,16.5-26.6,32.3-26.6c15.7,0,32.2,8.6,32.2,26.6 C106.4,47.7,89.9,56.5,74.2,56.5z M74.2,18.5c-9.4,0-15.4,5.3-15.4,12.5c0,6.8,6,11.5,15.4,11.5S89.6,37.5,89.6,31 C89.6,23.8,83.6,18.5,74.2,18.5z"></path> </g> <g> <path class="st4" d="M61.9,27.6l1.5,2.8l0.3,0.6h0l0.3-0.6l1.5-2.8h0.6l-2.1,3.9v2.1h-0.5v-2.1l-2.1-3.9H61.9z"></path> <path class="st4" d="M70.9,33.1l0,0.5h-3.7v-6h3.5l0,0.5h-3v2.1h2.6v0.4h-2.6v2.4H70.9z"></path> <path class="st4" d="M75.5,32h-2.9l-0.6,1.6h-0.6l2.3-6h0.6l2.3,6h-0.6L75.5,32z M73.9,28.6l-1.1,2.9h2.5l-1-2.9L74.1,28h0 L73.9,28.6z"></path> <path class="st4" d="M80.2,30.8l1.7,2.8h-0.6l-1.5-2.7h-1.4v2.7h-0.5v-6h1.9c1.2,0,1.8,0.5,1.8,1.6C81.5,30.2,81,30.7,80.2,30.8z M79.7,28h-1.4v2.4h1.4c0.9,0,1.3-0.4,1.3-1.2C80.9,28.4,80.6,28,79.7,28z"></path> <path class="st4" d="M84.3,33.7c-0.7,0-1.2-0.2-1.7-0.5l0.1-0.5c0.5,0.3,1,0.5,1.6,0.5c1,0,1.4-0.5,1.4-1.2c0-1.6-3.1-0.9-3.1-2.9 c0-0.9,0.6-1.6,1.9-1.6c0.6,0,1.1,0.1,1.5,0.3l-0.1,0.5C85.5,28.1,85,28,84.5,28c-1,0-1.4,0.5-1.4,1.1c0,1.5,3.1,0.8,3.1,2.9 C86.2,33,85.5,33.7,84.3,33.7z"></path> </g> <g> <path class="st2" d="M35.7,67.3c0-2.2,0.9-3.4,2.8-3.4c1.6,0,2.7,1,2.7,3.3c0,0.1,0,0.3,0,0.4h-4.8c0,2.3,0.8,3,2.5,3 c0.7,0,1.4-0.2,2-0.5l0.1,0.6c-0.6,0.3-1.3,0.6-2.1,0.6C36.6,71.2,35.7,70.1,35.7,67.3z M40.6,67c0-1.8-0.9-2.5-2-2.5 c-1.4,0-2,0.8-2.1,2.5H40.6z"></path> <path class="st2" d="M45.2,67.9l-2,3.2h-0.9l2.4-3.6L42.4,64h0.9l2,3.1l2-3.1h0.9l-2.3,3.5l2.4,3.6h-0.9L45.2,67.9z"></path> <path class="st2" d="M52.8,71.2c-0.8,0-1.6-0.3-2.1-0.9l0,0l0,1v1.5H50v-8.8l0.5,0l0.2,0.8h0c0.5-0.6,1.3-0.9,2.2-0.9 c1.7,0,2.7,0.9,2.7,3.6C55.6,70.2,54.5,71.2,52.8,71.2z M52.7,64.6c-0.9,0-1.6,0.3-2,1v4c0.3,0.5,1,1,1.9,1c1.3,0,2.2-0.6,2.2-3 C54.8,65.2,54.1,64.6,52.7,64.6z"></path> <path class="st2" d="M57,67.3c0-2.2,0.9-3.4,2.8-3.4c1.6,0,2.7,1,2.7,3.3c0,0.1,0,0.3,0,0.4h-4.8c0,2.3,0.8,3,2.5,3 c0.7,0,1.4-0.2,2-0.5l0.1,0.6c-0.6,0.3-1.3,0.6-2.1,0.6C57.9,71.2,57,70.1,57,67.3z M61.8,67c0-1.8-0.9-2.5-2-2.5 c-1.4,0-2,0.8-2.1,2.5H61.8z"></path> <path class="st2" d="M64.3,71.1v-7l0.6,0l0,0.8l0,1h0c0.4-1.1,1.2-1.8,2.3-1.8c0.2,0,0.5,0,0.7,0.1l-0.1,0.8 c-0.2-0.1-0.4-0.1-0.6-0.1c-1.2,0-2.2,1.1-2.2,2.8v3.6H64.3z"></path> <path class="st2" d="M70.2,62.6c-0.4,0-0.6-0.1-0.6-0.5c0-0.3,0.2-0.5,0.6-0.5c0.4,0,0.6,0.2,0.6,0.5 C70.8,62.4,70.6,62.6,70.2,62.6z M69.9,71.1v-7l0.7-0.1v7.1H69.9z"></path> <path class="st2" d="M72.8,67.3c0-2.2,0.9-3.4,2.8-3.4c1.6,0,2.7,1,2.7,3.3c0,0.1,0,0.3,0,0.4h-4.8c0,2.3,0.8,3,2.5,3 c0.7,0,1.4-0.2,2-0.5l0.1,0.6c-0.6,0.3-1.3,0.6-2.1,0.6C73.7,71.2,72.8,70.1,72.8,67.3z M77.6,67c0-1.8-0.9-2.5-2-2.5 c-1.4,0-2,0.8-2.1,2.5H77.6z"></path> <path class="st2" d="M84.6,71.1v-4.8c0-1.2-0.7-1.7-1.9-1.7c-0.7,0-1.5,0.3-1.9,1v5.5h-0.7V64l0.5,0l0.1,0.9h0 c0.5-0.6,1.3-0.9,2.1-0.9c1.5,0,2.4,0.8,2.4,2.4v4.8H84.6z"></path> <path class="st2" d="M91.7,65c-0.4-0.2-1-0.4-1.6-0.4c-1.7,0-2.3,0.9-2.3,2.9c0,2.3,0.8,3.1,2.3,3.1c0.6,0,1.2-0.2,1.6-0.5l0.1,0.6 c-0.4,0.3-1.1,0.5-1.8,0.5c-1.9,0-2.9-1.1-2.9-3.8c0-2.4,0.9-3.6,2.9-3.6c0.7,0,1.3,0.2,1.8,0.4L91.7,65z"></path> <path class="st2" d="M92.9,67.3c0-2.2,0.9-3.4,2.8-3.4c1.6,0,2.7,1,2.7,3.3c0,0.1,0,0.3,0,0.4h-4.8c0,2.3,0.8,3,2.5,3 c0.7,0,1.4-0.2,2-0.5l0.1,0.6c-0.6,0.3-1.3,0.6-2.1,0.6C93.8,71.2,92.9,70.1,92.9,67.3z M97.7,67c0-1.8-0.9-2.5-2-2.5 c-1.4,0-2,0.8-2.1,2.5H97.7z"></path> </g> <g> <path class="st2" d="M59,6.1c-1.7,0-2.5-0.9-2.5-3.1C56.5,0.9,57.3,0,59,0c1.7,0,2.5,0.9,2.5,3.1C61.5,5.3,60.7,6.1,59,6.1z M59,5.6c1.3,0,1.8-0.7,1.8-2.5c0-1.8-0.5-2.5-1.8-2.5c-1.3,0-1.9,0.7-1.9,2.5C57.1,4.9,57.7,5.6,59,5.6z"></path> <path class="st2" d="M67.8,0.1L65.4,6h-0.7l-2.4-5.9H63l1.7,4.6L65,5.4h0l0.3-0.8l1.7-4.6H67.8z"></path> <path class="st2" d="M68.6,2.8C68.6,1,69.4,0,71,0c1.3,0,2.3,0.8,2.3,2.7c0,0.1,0,0.2,0,0.3h-4c0,1.9,0.7,2.5,2.1,2.5 c0.6,0,1.1-0.1,1.6-0.4L73,5.7c-0.5,0.3-1.1,0.5-1.8,0.5C69.4,6.1,68.6,5.1,68.6,2.8z M72.7,2.6c0-1.5-0.7-2-1.7-2 c-1.2,0-1.7,0.7-1.7,2H72.7z"></path> <path class="st2" d="M74.7,6V0.1l0.5,0l0,0.7l0,0.8h0c0.3-0.9,1-1.5,1.9-1.5c0.2,0,0.4,0,0.6,0.1l0,0.6c-0.2-0.1-0.3-0.1-0.5-0.1 c-1,0-1.8,0.9-1.8,2.3v3H74.7z"></path> </g> </svg> 