<?xml version="1.0" encoding="UTF-8"?> <!-- Generator: Adobe Illustrator 22.1.0, SVG Export Plug-In . SVG Version: 6.00 Build 0) --> <svg xmlns="http://www.w3.org/2000/svg" xmlns:xlink="http://www.w3.org/1999/xlink" id="Layer_1" x="0px" y="0px" viewBox="0 0 80.5 86.2" style="enable-background:new 0 0 80.5 86.2;" xml:space="preserve"> <style type="text/css"> .st0{filter:url(#Adobe_OpacityMaskFilter);} .st1{mask:url(#SVGID_1_);} .st2{fill:#29499F;} .st3{fill:#FFFFFF;stroke:#29499F;stroke-width:0.5;stroke-miterlimit:10;} .st4{fill:#F0F0F8;} .st5{fill:#9699CC;} .st6{fill:#979ACC;} .st7{fill:#D5D6EC;} .st8{fill:#2B499E;} </style> <g> <g> <g> <defs> <filter id="Adobe_OpacityMaskFilter" x="0.2" y="6.2" width="80" height="80"> <feFlood style="flood-color:white;flood-opacity:1" result="back"></feFlood> <feBlend in="SourceGraphic" in2="back" mode="normal"></feBlend> </filter> </defs> <mask maskUnits="userSpaceOnUse" x="0.2" y="6.2" width="80" height="80" id="SVGID_1_"> <g class="st0"> <image style="overflow:visible;" width="351" height="351" xlink:href="769CB6B60C7C89EE.jpg" transform="matrix(0.24 0 0 0.24 -1.7692 4.0663)"> </image> </g> </mask> <g class="st1"> <circle class="st2" cx="40.2" cy="46.2" r="40"></circle> </g> </g> <circle class="st3" cx="40.2" cy="40.2" r="40"></circle> </g> <g> <path class="st4" d="M61.8,70.3H21.2l0.5-7.1c0.1-1.4,0.1-2.8,0.1-4.3l-1.2-34.8c-0.1-1.7,0-3.4,0.1-5.2l0.5-6.1h40.6l-0.5,5.5 c-0.2,1.8-0.2,3.6-0.2,5.4l1.2,34.8c0,1.4,0,2.7-0.1,4.1L61.8,70.3z"></path> <path class="st5" d="M61.1,69.3H20.5l0.5-7.1c0.1-1.4,0.1-2.8,0.1-4.3l-1.2-34.8c-0.1-1.7,0-3.4,0.1-5.2l0.5-6.1h40.6l-0.5,5.5 c-0.2,1.8-0.2,3.6-0.2,5.4l1.2,34.8c0,1.4,0,2.7-0.1,4.1L61.1,69.3z"></path> <path class="st6" d="M62.7,63.2c1.4-1.9,2.3-4.3,2.3-6.8c0-6.2-5-11.3-11.3-11.3c-6.2,0-11.3,5-11.3,11.3c0,2.6,0.9,4.9,2.3,6.8 l-5,9.9l6.5-0.1l3.7,5.3l3.8-7.4l3.4,6.6l0.4,0.8l3-4.2l0.8-1.1l4.3,0.1l2.2,0L62.7,63.2z"></path> <g> <polygon class="st2" points="51,77.4 47.2,72.1 40.7,72.2 49.3,55.5 54.7,58.3 54.9,58.4 59.5,60.7 "></polygon> <polygon class="st2" points="54.7,70.1 53.6,72.2 50,60.9 "></polygon> <polygon class="st2" points="68.7,72.2 66.5,72.2 62.2,72.1 61.5,73.2 58.5,77.4 58.1,76.7 54.7,70.1 50,60.9 50,60.7 54.7,58.3 60.2,55.5 "></polygon> <g> <circle class="st5" cx="54.7" cy="55.5" r="10.8"></circle> <path class="st7" d="M54.7,66.8c-6.2,0-11.3-5-11.3-11.3s5-11.3,11.3-11.3S66,49.3,66,55.5S60.9,66.8,54.7,66.8z M54.7,45.2 c-5.7,0-10.3,4.6-10.3,10.3S49,65.9,54.7,65.9s10.3-4.6,10.3-10.3S60.4,45.2,54.7,45.2z"></path> </g> <polygon class="st2" points="54.7,60 50.3,62.4 51.1,57.4 47.5,53.9 52.5,53.2 54.7,48.7 56.9,53.2 61.9,53.9 58.3,57.4 59.2,62.4 "></polygon> </g> <polygon class="st2" points="33.2,60.5 30.3,59.8 36.2,35.4 42.4,40.7 47.3,23.1 50.2,23.9 44.1,46 38,40.8 "></polygon> <polygon class="st2" points="50.4,18.4 45.6,23 52,24.9 "></polygon> <g> <path class="st8" d="M28.3,26.1v2.4h-2.5v-2.4h-2.4v-2.5h2.4v-2.4h2.5v2.4h2.4v2.5H28.3z"></path> </g> <g> <path class="st8" d="M28.3,38.1v2.4h-2.5v-2.4h-2.4v-2.5h2.4v-2.4h2.5v2.4h2.4v2.5H28.3z"></path> </g> <g> <path class="st8" d="M28.3,51.7v2.4h-2.5v-2.4h-2.4v-2.5h2.4v-2.4h2.5v2.4h2.4v2.5H28.3z"></path> </g> </g> </g> </svg> 