<?xml version="1.0" encoding="UTF-8"?> <!-- Generator: Adobe Illustrator 22.1.0, SVG Export Plug-In . SVG Version: 6.00 Build 0) --> <svg xmlns="http://www.w3.org/2000/svg" xmlns:xlink="http://www.w3.org/1999/xlink" id="Layer_1" x="0px" y="0px" viewBox="0 0 80.5 86.2" style="enable-background:new 0 0 80.5 86.2;" xml:space="preserve"> <style type="text/css"> .st0{filter:url(#Adobe_OpacityMaskFilter);} .st1{mask:url(#SVGID_1_);} .st2{fill:#CCCCCC;} .st3{fill:#FFFFFF;stroke:#29499F;stroke-width:0.5;stroke-miterlimit:10;} .st4{fill:#F04935;} .st5{fill:#29499F;} .st6{fill:#FEECB7;} .st7{fill:#FBD013;} .st8{fill:#FFFFFF;} .st9{fill:#F0F0F8;} .st10{fill:#2B499E;} .st11{fill:#9194C9;} .st12{fill:#BDBEE0;} .st13{fill:#FEE69B;} .st14{fill:#8085C1;} .st15{fill:#9FA2D1;} </style> <g> <g> <g> <defs> <filter id="Adobe_OpacityMaskFilter" x="0.2" y="6.2" width="80" height="80"> <feFlood style="flood-color:white;flood-opacity:1" result="back"></feFlood> <feBlend in="SourceGraphic" in2="back" mode="normal"></feBlend> </filter> </defs> <mask maskUnits="userSpaceOnUse" x="0.2" y="6.2" width="80" height="80" id="SVGID_1_"> <g class="st0"> <image style="overflow:visible;" width="351" height="351" xlink:href="865525E5B3162F7.jpg" transform="matrix(0.24 0 0 0.24 -1.981 4.2367)"> </image> </g> </mask> <g class="st1"> <circle class="st2" cx="40.2" cy="46.2" r="40"></circle> </g> </g> <circle class="st3" cx="40.2" cy="40.2" r="40"></circle> </g> <g> <g> <polygon class="st4" points="41.1,31.1 29.1,70.1 32.9,71.2 41.1,44.4 49.4,71.3 53.1,70.3 "></polygon> <path class="st5" d="M28,73.9c-0.3,1,0.3,2.1,1.3,2.4c0.2,0.1,0.4,0.1,0.6,0.1c0.8,0,1.6-0.5,1.9-1.4l1.2-3.9l-3.7-1L28,73.9z"></path> <path class="st5" d="M53.1,70.3l-3.7,1l1.1,3.7c0.3,1,1.4,1.6,2.4,1.3c1-0.3,1.6-1.4,1.3-2.4L53.1,70.3z"></path> </g> <path class="st4" d="M45.4,18.9h-9.2V9.6h9.2V18.9z M38.1,16.9h5.3v-5.3h-5.3V16.9z"></path> <g> <path class="st6" d="M71.3,57.4H10.2c-1.1,0-2-0.9-2-2V16c0-1.1,0.9-2,2-2h61.1c1.1,0,2,0.9,2,2v39.4 C73.3,56.5,72.4,57.4,71.3,57.4z"></path> <path class="st7" d="M71.9,14.5c0.5,0,0.9,0.4,0.9,0.9V56c0,0.5-0.4,0.9-0.9,0.9H9.6c-0.5,0-0.9-0.4-0.9-0.9V15.4 c0-0.5,0.4-0.9,0.9-0.9H71.9 M71.9,13.9H9.6c-0.8,0-1.5,0.7-1.5,1.5V56c0,0.8,0.7,1.5,1.5,1.5h62.2c0.8,0,1.5-0.7,1.5-1.5V15.4 C73.3,14.6,72.7,13.9,71.9,13.9L71.9,13.9z"></path> </g> <rect x="10.5" y="16.2" class="st8" width="60.6" height="39"></rect> <path class="st4" d="M68.7,58.8H12.8c-0.5,0-1-0.4-1-1s0.4-1,1-1h55.9c0.5,0,1,0.4,1,1S69.3,58.8,68.7,58.8z"></path> <polygon class="st9" points="37.1,55.3 10.5,55.3 10.5,16.2 30.3,16.2 "></polygon> <g> <path class="st10" d="M20.1,28.4c0,0.2-0.1,0.3-0.3,0.2c-0.2,0-0.4-0.1-0.6-0.2C19.1,28.4,19,28.2,19,28c0.1-0.8,0.4-2.6,0.6-3.9 c-0.3-0.1-0.4-0.2-0.3-0.5c0.1-0.3,0.3-0.7,0.5-0.9c0.1-0.2,0.2-0.3,0.4-0.2c0.2,0,0.4,0.1,0.6,0.3c0.2,0.1,0.2,0.2,0.2,0.4 C20.8,24.5,20.3,27.1,20.1,28.4z"></path> <path class="st10" d="M24.1,28.1c-0.2,0.3-0.5,0.4-0.9,0.4c-0.2,0-0.2-0.1-0.1-0.3c1-1.5,1.5-4.3,0.9-6.2 c-0.1-0.2-0.1-0.4,0.2-0.3c0.6,0.1,1,0.4,1.1,1C25.7,24.3,25.2,26.8,24.1,28.1z"></path> <path class="st10" d="M22.8,38.4c0.2,0,0.3,0,0.4,0.2c0.1,0.1,0.2,0.3,0.2,0.5c0.1,0.2,0,0.2-0.2,0.3c-0.6,0.1-1.7,0.4-2.2,0.6 c-0.3,0.1-0.5,0.1-0.6,0c-0.1-0.1-0.4-0.4-0.5-0.5c-0.1-0.1-0.2-0.3,0-0.6c1.4-1.4,3-3.8,2.8-4c-0.2-0.1-0.6,0.3-1,0.8 c-0.3,0.3-0.7,0.3-1.1,0.2c-0.2-0.1-0.3-0.2,0-0.7c0.4-0.7,0.9-1.3,1.5-1.5c0.7-0.2,1.3,0.2,1.5,0.6c0.3,0.6,0.2,1.1-0.1,1.8 c-0.4,0.8-1.2,1.8-1.9,2.6C22.1,38.5,22.5,38.4,22.8,38.4z"></path> <path class="st10" d="M26.8,39.2c-0.2,0.3-0.5,0.4-0.9,0.4c-0.2,0-0.2-0.1-0.1-0.3c1-1.5,1.5-4.3,0.9-6.2 c-0.1-0.2-0.1-0.4,0.2-0.3c0.6,0.1,1,0.4,1.1,1C28.4,35.4,27.9,37.9,26.8,39.2z"></path> <path class="st10" d="M24.6,48.2c0.7,0.5,0.6,1.3,0.2,1.9c-0.4,0.7-1,1-1.7,1.1c-0.5,0.1-1.1-0.1-1.7-0.6 c-0.3-0.3-0.3-0.5-0.1-0.6c0.2-0.2,0.6-0.2,0.9-0.1c0.7,0.3,1.1,0.2,1.4-0.2c0.3-0.4,0.3-0.9,0.1-1c-0.2-0.2-0.3-0.2-0.7-0.1 c-0.3,0.1-0.7,0-0.9-0.4c-0.1-0.2-0.1-0.3,0.1-0.4c1.3-0.7,2-1.2,1.9-1.6c0-0.1-0.1-0.2-0.2-0.1c-0.2,0-0.5,0.2-0.7,0.4 c-0.3,0.3-0.8,0.2-1.1,0c-0.1-0.1-0.1-0.3,0-0.4c0.2-0.4,0.8-0.9,1.3-1.1c0.4-0.1,0.9-0.2,1.4,0.4c0.6,0.7,0.4,1.4,0,1.9 c-0.2,0.3-0.5,0.5-0.9,0.7C24.2,48,24.4,48,24.6,48.2z"></path> <path class="st10" d="M28.3,50.4c-0.2,0.3-0.5,0.4-0.9,0.4c-0.2,0-0.2-0.1-0.1-0.3c1-1.5,1.5-4.3,0.9-6.2 c-0.1-0.2-0.1-0.4,0.2-0.3c0.6,0.1,1,0.4,1.1,1C29.9,46.7,29.4,49.1,28.3,50.4z"></path> </g> <g> <path class="st10" d="M39.5,46.9L39.5,46.9l6.1-0.7l0,0C43.8,47.4,41.5,47.7,39.5,46.9z"></path> <path class="st10" d="M43.1,46.5l-1.2,0.1c-1.8,0.2-3.4-1.1-3.6-2.9v0l7.7-0.9v0C46.2,44.6,44.9,46.3,43.1,46.5z"></path> <path class="st11" d="M49.1,30.1c-0.5-4.6-4.7-7.9-9.3-7.4c-4.6,0.5-7.9,4.7-7.4,9.3c0.4,3.1,2.4,5.7,5.1,6.8L38,43l8.2-0.9 l-0.5-4.2C48.1,36.2,49.5,33.2,49.1,30.1z"></path> <path class="st10" d="M40.9,41.1c-0.1,0-0.2,0-0.2-0.1c-0.5-1-4.6-9.7-3.7-11.7c0.1-0.2,0.3-0.4,0.5-0.4c1.3-0.3,2.8,1.3,3.3,1.8 c0,0,0.1,0.1,0.1,0.1c0.5-1.3,1.5-2.4,2.5-2.6c0.3,0,0.5,0.1,0.7,0.3c1.5,1.6-0.3,11.1-0.5,12.2c0,0.1-0.1,0.2-0.3,0.2 c-0.1,0-0.2-0.1-0.2-0.3c0.5-2.9,1.7-10.5,0.6-11.8c-0.1-0.1-0.2-0.1-0.3-0.1c-1,0.1-1.8,1.3-2.3,2.5c0.8,1,1.3,2.1,1.1,2.8 c-0.1,0.2-0.3,0.4-0.7,0.5c-0.3,0-0.6-0.1-0.8-0.3c-0.2-0.2-0.3-0.5-0.3-0.9c-0.1-0.6,0-1.3,0.3-2c-0.1-0.1-0.2-0.2-0.2-0.3 c-1.1-1.2-2.2-1.8-2.9-1.7c-0.1,0-0.1,0-0.2,0.2c-0.7,1.5,2.5,8.6,3.7,11.3C41.1,40.9,41.1,41,40.9,41.1 C40.9,41.1,40.9,41.1,40.9,41.1z M40.9,31.7c-0.2,0.6-0.2,1.1-0.2,1.5c0,0.3,0.1,0.5,0.2,0.6c0.1,0.1,0.3,0.2,0.5,0.1 c0.2,0,0.3-0.1,0.3-0.2C41.9,33.4,41.6,32.5,40.9,31.7z"></path> <path class="st10" d="M46.2,42.9l-8,0.9c-0.2,0-0.5-0.1-0.5-0.4l0,0c0-0.2,0.1-0.5,0.4-0.5l8-0.9c0.2,0,0.5,0.1,0.5,0.4l0,0 C46.6,42.6,46.4,42.9,46.2,42.9z"></path> </g> <rect x="55.5" y="21.5" class="st12" width="12.9" height="11.7"></rect> <path class="st13" d="M69.9,32.5H56.3l-0.3-1.7c0-0.3-0.1-0.7-0.1-1l-0.6-10.9h13.6l0.6,10.9c0,0.3,0.1,0.7,0.1,1L69.9,32.5z"></path> <polygon class="st12" points="68.5,49.1 56.3,49.1 56.3,36.9 68,38.4 "></polygon> <g> <path class="st13" d="M67.8,48.2H55.2l0.1-0.7c0.1-0.3,0.1-0.7,0.1-1v-11h12.7v10.9c0,0.3,0,0.6-0.1,0.9L67.8,48.2z"></path> </g> <g> <path class="st10" d="M60.4,50.2L60.4,50.2c-0.3-0.3-0.3-0.7,0-1l1.2-1.3l1,0.9l-1.2,1.3C61.1,50.5,60.7,50.5,60.4,50.2z"></path> <polygon class="st14" points="65.3,49 61.4,45.3 75.8,30.1 80,34.2 "></polygon> <path class="st10" d="M63.3,49.1l-1.8-1.8c-0.6-0.6-0.6-1.5,0-2.1l0,0l3.9,3.8v0C64.8,49.6,63.8,49.6,63.3,49.1z"></path> <polygon class="st15" points="62.2,49.7 60.8,48.4 61.5,47.4 63.2,49 "></polygon> <rect x="75.2" y="31.5" transform="matrix(0.7191 0.6949 -0.6949 0.7191 44.0969 -45.325)" class="st10" width="5.8" height="0.7"></rect> <path class="st10" d="M80.1,33.3L76.6,30l0,0c0.2-0.2,0.6-0.2,0.8,0l2.6,2.5C80.3,32.7,80.3,33.1,80.1,33.3L80.1,33.3z"></path> </g> </g> </g> </svg> 