<?xml version="1.0" encoding="UTF-8"?> <!-- Generator: Adobe Illustrator 22.1.0, SVG Export Plug-In . SVG Version: 6.00 Build 0) --> <svg xmlns="http://www.w3.org/2000/svg" xmlns:xlink="http://www.w3.org/1999/xlink" id="Layer_1" x="0px" y="0px" viewBox="0 0 80.5 86.2" style="enable-background:new 0 0 80.5 86.2;" xml:space="preserve"> <style type="text/css"> .st0{filter:url(#Adobe_OpacityMaskFilter);} .st1{mask:url(#SVGID_1_);} .st2{fill:#29499F;} .st3{fill:#FFFFFF;stroke:#29499F;stroke-width:0.5;stroke-miterlimit:10;} .st4{fill:#AFB1D9;} .st5{opacity:0.2;fill:none;stroke:#29499F;stroke-miterlimit:10;} .st6{fill:#7B81BE;} .st7{fill:#797FBE;} .st8{fill:#8E92C8;} </style> <g> <g> <g> <defs> <filter id="Adobe_OpacityMaskFilter" x="0.2" y="6.2" width="80" height="80"> <feFlood style="flood-color:white;flood-opacity:1" result="back"></feFlood> <feBlend in="SourceGraphic" in2="back" mode="normal"></feBlend> </filter> </defs> <mask maskUnits="userSpaceOnUse" x="0.2" y="6.2" width="80" height="80" id="SVGID_1_"> <g class="st0"> <image style="overflow:visible;" width="351" height="351" xlink:href="2D2EA1A7D158D3F6.jpg" transform="matrix(0.24 0 0 0.24 -1.7609 4.0663)"> </image> </g> </mask> <g class="st1"> <circle class="st2" cx="40.2" cy="46.2" r="40"></circle> </g> </g> <circle class="st3" cx="40.2" cy="40.2" r="40"></circle> </g> <g> <path class="st4" d="M17,28.3c-4.3,0-7.7-3.4-7.7-7.7v36.5c0,4.3,3.4,7.7,7.7,7.7h48c4.3,0,7.7-3.4,7.7-7.7V20.6 c0,4.3-3.4,7.7-7.7,7.7H17z"></path> <path class="st2" d="M16.8,49.5c-4.2,0-7.6,3.4-7.6,7.6V21.2c0-4.2,3.4-7.6,7.6-7.6V49.5z"></path> <polygon class="st5" points="36.4,35.3 53.8,59.2 52.2,35.3 22,42.6 36.4,59.8 55.2,42.6 26.6,33 27.9,37.3 "></polygon> <g> <path class="st6" d="M24.4,45.3l19-3.4L25,54.2L24.4,45.3 M20.2,42l1.2,19.2l40.1-26.5L20.2,42L20.2,42z"></path> <g> <line class="st2" x1="22.8" y1="57.6" x2="23.8" y2="59.1"></line> <path class="st2" d="M23.9,59.3c-0.1,0.1-0.2,0-0.3-0.1l-1-1.5c-0.1-0.1,0-0.2,0.1-0.3c0.1-0.1,0.2,0,0.3,0.1l1,1.5 C24,59.1,24,59.2,23.9,59.3z"></path> </g> <g> <line class="st2" x1="24.1" y1="57.4" x2="24.8" y2="58.5"></line> <path class="st2" d="M24.9,58.6c-0.1,0.1-0.2,0-0.3-0.1l-0.7-1c-0.1-0.1,0-0.2,0.1-0.3s0.2,0,0.3,0.1l0.7,1 C25,58.4,25,58.6,24.9,58.6z"></path> </g> <g> <line class="st2" x1="25.1" y1="56.8" x2="25.7" y2="57.8"></line> <path class="st2" d="M25.9,58c-0.1,0.1-0.2,0-0.3-0.1l-0.7-1c-0.1-0.1,0-0.2,0.1-0.3c0.1-0.1,0.2,0,0.3,0.1l0.7,1 C26,57.8,25.9,57.9,25.9,58z"></path> </g> <g> <line class="st2" x1="25.7" y1="55.7" x2="26.7" y2="57.2"></line> <path class="st2" d="M26.8,57.4c-0.1,0.1-0.2,0-0.3-0.1l-1-1.5c-0.1-0.1,0-0.2,0.1-0.3s0.2,0,0.3,0.1l1,1.5 C26.9,57.2,26.9,57.3,26.8,57.4z"></path> </g> <g> <line class="st2" x1="27" y1="55.5" x2="27.7" y2="56.5"></line> <path class="st2" d="M27.8,56.7c-0.1,0.1-0.2,0-0.3-0.1l-0.7-1c-0.1-0.1,0-0.2,0.1-0.3c0.1-0.1,0.2,0,0.3,0.1l0.7,1 C27.9,56.5,27.9,56.6,27.8,56.7z"></path> </g> <g> <line class="st2" x1="28" y1="54.9" x2="28.6" y2="55.9"></line> <path class="st2" d="M28.7,56.1c-0.1,0.1-0.2,0-0.3-0.1l-0.7-1c-0.1-0.1,0-0.2,0.1-0.3c0.1-0.1,0.2,0,0.3,0.1l0.7,1 C28.9,55.9,28.8,56,28.7,56.1z"></path> </g> <g> <line class="st2" x1="28.6" y1="53.8" x2="29.6" y2="55.3"></line> <path class="st2" d="M29.7,55.4c-0.1,0.1-0.2,0-0.3-0.1l-1-1.5c-0.1-0.1,0-0.2,0.1-0.3c0.1-0.1,0.2,0,0.3,0.1l1,1.5 C29.8,55.2,29.8,55.4,29.7,55.4z"></path> </g> <g> <line class="st2" x1="29.9" y1="53.6" x2="30.6" y2="54.6"></line> <path class="st2" d="M30.7,54.8c-0.1,0.1-0.2,0-0.3-0.1l-0.7-1c-0.1-0.1,0-0.2,0.1-0.3s0.2,0,0.3,0.1l0.7,1 C30.8,54.6,30.8,54.7,30.7,54.8z"></path> </g> <g> <line class="st2" x1="30.8" y1="53" x2="31.5" y2="54"></line> <path class="st2" d="M31.6,54.2c-0.1,0.1-0.2,0-0.3-0.1l-0.7-1c-0.1-0.1,0-0.2,0.1-0.3c0.1-0.1,0.2,0,0.3,0.1l0.7,1 C31.8,54,31.7,54.1,31.6,54.2z"></path> </g> <g> <line class="st2" x1="31.5" y1="51.9" x2="32.5" y2="53.3"></line> <path class="st2" d="M32.6,53.5c-0.1,0.1-0.2,0-0.3-0.1l-1-1.5c-0.1-0.1,0-0.2,0.1-0.3s0.2,0,0.3,0.1l1,1.5 C32.7,53.3,32.7,53.4,32.6,53.5z"></path> </g> <g> <line class="st2" x1="32.8" y1="51.7" x2="33.4" y2="52.7"></line> <path class="st2" d="M33.6,52.9c-0.1,0.1-0.2,0-0.3-0.1l-0.7-1c-0.1-0.1,0-0.2,0.1-0.3s0.2,0,0.3,0.1l0.7,1 C33.7,52.7,33.7,52.8,33.6,52.9z"></path> </g> <g> <line class="st2" x1="33.7" y1="51" x2="34.4" y2="52.1"></line> <path class="st2" d="M34.5,52.2c-0.1,0.1-0.2,0-0.3-0.1l-0.7-1c-0.1-0.1,0-0.2,0.1-0.3c0.1-0.1,0.2,0,0.3,0.1l0.7,1 C34.6,52,34.6,52.2,34.5,52.2z"></path> </g> <g> <line class="st2" x1="34.4" y1="50" x2="35.4" y2="51.4"></line> <path class="st2" d="M35.5,51.6c-0.1,0.1-0.2,0-0.3-0.1l-1-1.5c-0.1-0.1,0-0.2,0.1-0.3s0.2,0,0.3,0.1l1,1.5 C35.6,51.4,35.6,51.5,35.5,51.6z"></path> </g> <g> <line class="st2" x1="35.7" y1="49.8" x2="36.3" y2="50.8"></line> <path class="st2" d="M36.4,51c-0.1,0.1-0.2,0-0.3-0.1l-0.7-1c-0.1-0.1,0-0.2,0.1-0.3s0.2,0,0.3,0.1l0.7,1 C36.6,50.8,36.5,50.9,36.4,51z"></path> </g> <g> <line class="st2" x1="36.6" y1="49.1" x2="37.3" y2="50.1"></line> <path class="st2" d="M37.4,50.3c-0.1,0.1-0.2,0-0.3-0.1l-0.7-1c-0.1-0.1,0-0.2,0.1-0.3s0.2,0,0.3,0.1l0.7,1 C37.5,50.1,37.5,50.3,37.4,50.3z"></path> </g> <g> <line class="st2" x1="37.3" y1="48" x2="38.3" y2="49.5"></line> <path class="st2" d="M38.4,49.7c-0.1,0.1-0.2,0-0.3-0.1l-1-1.5c-0.1-0.1,0-0.2,0.1-0.3s0.2,0,0.3,0.1l1,1.5 C38.5,49.5,38.5,49.6,38.4,49.7z"></path> </g> <g> <line class="st2" x1="38.5" y1="47.8" x2="39.2" y2="48.9"></line> <path class="st2" d="M39.3,49c-0.1,0.1-0.2,0-0.3-0.1l-0.7-1c-0.1-0.1,0-0.2,0.1-0.3s0.2,0,0.3,0.1l0.7,1 C39.5,48.8,39.4,49,39.3,49z"></path> </g> <g> <line class="st2" x1="39.5" y1="47.2" x2="40.2" y2="48.2"></line> <path class="st2" d="M40.3,48.4c-0.1,0.1-0.2,0-0.3-0.1l-0.7-1c-0.1-0.1,0-0.2,0.1-0.3s0.2,0,0.3,0.1l0.7,1 C40.4,48.2,40.4,48.3,40.3,48.4z"></path> </g> <g> <line class="st2" x1="40.2" y1="46.1" x2="41.1" y2="47.6"></line> <path class="st2" d="M41.3,47.8c-0.1,0.1-0.2,0-0.3-0.1l-1-1.5c-0.1-0.1,0-0.2,0.1-0.3s0.2,0,0.3,0.1l1,1.5 C41.4,47.6,41.4,47.7,41.3,47.8z"></path> </g> <g> <line class="st2" x1="41.4" y1="45.9" x2="42.1" y2="46.9"></line> <path class="st2" d="M42.2,47.1c-0.1,0.1-0.2,0-0.3-0.1l-0.7-1c-0.1-0.1,0-0.2,0.1-0.3c0.1-0.1,0.2,0,0.3,0.1l0.7,1 C42.3,46.9,42.3,47.1,42.2,47.1z"></path> </g> <g> <line class="st2" x1="42.4" y1="45.3" x2="43.1" y2="46.3"></line> <path class="st2" d="M43.2,46.5c-0.1,0.1-0.2,0-0.3-0.1l-0.7-1c-0.1-0.1,0-0.2,0.1-0.3s0.2,0,0.3,0.1l0.7,1 C43.3,46.3,43.3,46.4,43.2,46.5z"></path> </g> <g> <line class="st2" x1="43.1" y1="44.2" x2="44" y2="45.7"></line> <path class="st2" d="M44.1,45.8c-0.1,0.1-0.2,0-0.3-0.1l-1-1.5c-0.1-0.1,0-0.2,0.1-0.3c0.1-0.1,0.2,0,0.3,0.1l1,1.5 C44.3,45.6,44.2,45.8,44.1,45.8z"></path> </g> <g> <line class="st2" x1="44.3" y1="44" x2="45" y2="45"></line> <path class="st2" d="M45.1,45.2c-0.1,0.1-0.2,0-0.3-0.1l-0.7-1c-0.1-0.1,0-0.2,0.1-0.3s0.2,0,0.3,0.1l0.7,1 C45.2,45,45.2,45.1,45.1,45.2z"></path> </g> <g> <line class="st2" x1="45.3" y1="43.4" x2="46" y2="44.4"></line> <path class="st2" d="M46.1,44.6c-0.1,0.1-0.2,0-0.3-0.1l-0.7-1c-0.1-0.1,0-0.2,0.1-0.3c0.1-0.1,0.2,0,0.3,0.1l0.7,1 C46.2,44.4,46.2,44.5,46.1,44.6z"></path> </g> <g> <line class="st2" x1="45.9" y1="42.3" x2="46.9" y2="43.7"></line> <path class="st2" d="M47,43.9c-0.1,0.1-0.2,0-0.3-0.1l-1-1.5c-0.1-0.1,0-0.2,0.1-0.3s0.2,0,0.3,0.1l1,1.5 C47.2,43.7,47.1,43.9,47,43.9z"></path> </g> <g> <line class="st2" x1="47.2" y1="42.1" x2="47.9" y2="43.1"></line> <path class="st2" d="M48,43.3c-0.1,0.1-0.2,0-0.3-0.1l-0.7-1c-0.1-0.1,0-0.2,0.1-0.3s0.2,0,0.3,0.1l0.7,1 C48.1,43.1,48.1,43.2,48,43.3z"></path> </g> <g> <line class="st2" x1="48.2" y1="41.4" x2="48.8" y2="42.5"></line> <path class="st2" d="M49,42.6c-0.1,0.1-0.2,0-0.3-0.1l-0.7-1c-0.1-0.1,0-0.2,0.1-0.3s0.2,0,0.3,0.1l0.7,1 C49.1,42.4,49.1,42.6,49,42.6z"></path> </g> <g> <line class="st2" x1="48.8" y1="40.4" x2="49.8" y2="41.8"></line> <path class="st2" d="M49.9,42c-0.1,0.1-0.2,0-0.3-0.1l-1-1.5c-0.1-0.1,0-0.2,0.1-0.3s0.2,0,0.3,0.1l1,1.5 C50,41.8,50,41.9,49.9,42z"></path> </g> <g> <line class="st2" x1="50.1" y1="40.2" x2="50.8" y2="41.2"></line> <path class="st2" d="M50.9,41.4c-0.1,0.1-0.2,0-0.3-0.1l-0.7-1c-0.1-0.1,0-0.2,0.1-0.3s0.2,0,0.3,0.1l0.7,1 C51,41.2,51,41.3,50.9,41.4z"></path> </g> <g> <line class="st2" x1="51.1" y1="39.5" x2="51.7" y2="40.5"></line> <path class="st2" d="M51.9,40.7c-0.1,0.1-0.2,0-0.3-0.1l-0.7-1c-0.1-0.1,0-0.2,0.1-0.3s0.2,0,0.3,0.1l0.7,1 C52,40.5,51.9,40.7,51.9,40.7z"></path> </g> <g> <line class="st2" x1="51.7" y1="38.4" x2="52.7" y2="39.9"></line> <path class="st2" d="M52.8,40.1c-0.1,0.1-0.2,0-0.3-0.1l-1-1.5c-0.1-0.1,0-0.2,0.1-0.3s0.2,0,0.3,0.1l1,1.5 C52.9,39.9,52.9,40,52.8,40.1z"></path> </g> <g> <line class="st2" x1="53" y1="38.2" x2="53.7" y2="39.3"></line> <path class="st2" d="M53.8,39.4c-0.1,0.1-0.2,0-0.3-0.1l-0.7-1c-0.1-0.1,0-0.2,0.1-0.3c0.1-0.1,0.2,0,0.3,0.1l0.7,1 C53.9,39.2,53.9,39.4,53.8,39.4z"></path> </g> <g> <line class="st2" x1="53.9" y1="37.6" x2="54.6" y2="38.6"></line> <path class="st2" d="M54.7,38.8c-0.1,0.1-0.2,0-0.3-0.1l-0.7-1c-0.1-0.1,0-0.2,0.1-0.3s0.2,0,0.3,0.1l0.7,1 C54.9,38.6,54.8,38.7,54.7,38.8z"></path> </g> <g> <line class="st2" x1="54.6" y1="36.5" x2="55.6" y2="38"></line> <path class="st2" d="M55.7,38.2c-0.1,0.1-0.2,0-0.3-0.1l-1-1.5c-0.1-0.1,0-0.2,0.1-0.3c0.1-0.1,0.2,0,0.3,0.1l1,1.5 C55.8,38,55.8,38.1,55.7,38.2z"></path> </g> </g> <g> <path class="st7" d="M60,58.5l2.6-2.3l1.5,1.7c0.6,0.7,0.5,1.8-0.2,2.4v0c-0.7,0.6-1.8,0.5-2.4-0.2L60,58.5z"></path> <g> <rect x="50.5" y="34.8" transform="matrix(-0.7584 0.6518 -0.6518 -0.7584 122.4117 48.3851)" class="st2" width="3.5" height="24.1"></rect> <rect x="50.8" y="35.5" transform="matrix(-0.7584 0.6518 -0.6518 -0.7584 121.4435 50.1332)" class="st2" width="1.3" height="24.1"></rect> <g> <polygon class="st8" points="40.8,33.6 43.1,38.9 45.7,36.6 "></polygon> <polygon class="st2" points="40.8,33.6 41.8,35.9 43,34.9 "></polygon> </g> </g> <rect x="59.2" y="55.7" transform="matrix(-0.7584 0.6518 -0.6518 -0.7584 144.2927 60.435)" class="st2" width="3.5" height="2.5"></rect> </g> </g> </g> </svg> 