<?xml version="1.0" encoding="UTF-8"?> <!-- Generator: Adobe Illustrator 22.1.0, SVG Export Plug-In . SVG Version: 6.00 Build 0) --> <svg xmlns="http://www.w3.org/2000/svg" xmlns:xlink="http://www.w3.org/1999/xlink" id="Layer_1" x="0px" y="0px" viewBox="0 0 80.5 86.2" style="enable-background:new 0 0 80.5 86.2;" xml:space="preserve"> <style type="text/css"> .st0{filter:url(#Adobe_OpacityMaskFilter);} .st1{mask:url(#SVGID_1_);} .st2{fill:#CCCCCC;} .st3{fill:#FFFFFF;stroke:#29499F;stroke-width:0.5;stroke-miterlimit:10;} .st4{fill:#B4B4B4;} .st5{fill:#FBD013;} .st6{fill:#1A1A1A;} .st7{fill:#676767;} .st8{fill:#FEEDBA;} </style> <g> <g> <g> <defs> <filter id="Adobe_OpacityMaskFilter" x="0.2" y="6.2" width="80" height="80"> <feFlood style="flood-color:white;flood-opacity:1" result="back"></feFlood> <feBlend in="SourceGraphic" in2="back" mode="normal"></feBlend> </filter> </defs> <mask maskUnits="userSpaceOnUse" x="0.2" y="6.2" width="80" height="80" id="SVGID_1_"> <g class="st0"> <image style="overflow:visible;" width="351" height="351" xlink:href="65EB2763CB38C194.jpg" transform="matrix(0.24 0 0 0.24 -1.9237 4.2367)"> </image> </g> </mask> <g class="st1"> <circle class="st2" cx="40.2" cy="46.2" r="40"></circle> </g> </g> <circle class="st3" cx="40.2" cy="40.2" r="40"></circle> </g> <g> <g> <g> <path class="st4" d="M56.1,19.9c-0.2-0.2-0.4-0.4-0.5-0.6l-3.3,4.6c0.3,0,0.5,0.1,0.8,0.3c0.2,0.2,0.4,0.4,0.5,0.6l3.3-4.6 C56.6,20.2,56.3,20.1,56.1,19.9z"></path> <path class="st4" d="M56.3,20l-3,4.3c0.1,0.1,0.2,0.3,0.3,0.5l3.3-4.6C56.7,20.2,56.5,20.1,56.3,20z"></path> </g> <g> <path class="st4" d="M29.5,9.5c0-1,0.8-1.8,1.8-1.8c2.1,0,4.2,0.2,6.3,0.7c2.7,0.6,5.3,1.7,7.7,3.1l-3.5,5 c-1.7-1.5-3.6-2.7-5.6-3.6c-1.6-0.7-3.3-1.3-5.1-1.6C30.1,11.1,29.4,10.4,29.5,9.5L29.5,9.5z"></path> <path class="st4" d="M45.2,11.5l-3.5,5c-0.2-0.2-0.4-0.4-0.7-0.6l3.4-4.8C44.7,11.2,45,11.4,45.2,11.5z"></path> </g> <rect x="30.2" y="7.6" transform="matrix(0.8175 0.5759 -0.5759 0.8175 27.988 -13.202)" class="st5" width="9.3" height="59.9"></rect> <g> <rect x="54.5" y="19.7" transform="matrix(0.8175 0.5759 -0.5759 0.8175 24.3 -28.625)" class="st4" width="5.6" height="8.8"></rect> <rect x="52.5" y="26" transform="matrix(0.8175 0.5759 -0.5759 0.8175 25.5802 -26.942)" class="st4" width="5.6" height="1.8"></rect> <rect x="56.5" y="20.3" transform="matrix(0.8175 0.5759 -0.5759 0.8175 23.0198 -30.3079)" class="st4" width="5.6" height="1.8"></rect> </g> <g> <path class="st4" d="M48.1,22.9L44,20c-2-1.4-2.4-4.1-1.1-6.1l0,0c1.4-2,4.1-2.4,6.1-1.1l4.1,2.9c2,1.4,2.4,4.1,1.1,6.1l0,0 C52.8,23.8,50.1,24.3,48.1,22.9z"></path> <path class="st4" d="M52.8,23.9l-0.6,0.8c-0.3,0.4-0.9,0.5-1.3,0.2L41.2,18c-0.4-0.3-0.5-0.9-0.2-1.3l0.6-0.8 c-0.3,0.4-0.2,1,0.2,1.3l9.8,6.9C51.9,24.4,52.5,24.3,52.8,23.9z"></path> </g> </g> <g> <g> <path class="st6" d="M65,47.7l-9.1,15.9l0,0c3.4,1.9,7.8,0.7,9.7-2.7l2-3.6C69.6,53.9,68.4,49.6,65,47.7L65,47.7z"></path> <path class="st5" d="M35.4,58.1L54.3,71c1.1,0.7,2.6,0.4,3.2-0.8L68.7,50c0.6-1,0.3-2.3-0.7-3L51,35.3c-1-0.7-2.4-0.4-3.1,0.6 l-13,19C34.1,56,34.4,57.4,35.4,58.1z"></path> <circle class="st7" cx="51.7" cy="52.8" r="9.7"></circle> <polygon class="st8" points="24.6,22 46.7,37.6 47.5,36.4 25.4,20.8 "></polygon> <polygon class="st4" points="18,22.5 20.7,24.3 22.5,21.6 25.4,23.1 27,20.8 21.7,17.1 "></polygon> </g> <circle class="st4" cx="53.9" cy="49.6" r="2.2"></circle> </g> </g> </g> </svg> 