<?xml version="1.0" encoding="UTF-8"?> <!-- Generator: Adobe Illustrator 22.1.0, SVG Export Plug-In . SVG Version: 6.00 Build 0) --> <svg xmlns="http://www.w3.org/2000/svg" xmlns:xlink="http://www.w3.org/1999/xlink" id="Layer_1" x="0px" y="0px" viewBox="0 0 80.5 86.2" style="enable-background:new 0 0 80.5 86.2;" xml:space="preserve"> <style type="text/css"> .st0{filter:url(#Adobe_OpacityMaskFilter);} .st1{mask:url(#SVGID_1_);} .st2{fill:#CCCCCC;} .st3{fill:#FFFFFF;stroke:#29499F;stroke-width:0.5;stroke-miterlimit:10;} .st4{fill:#F04935;} .st5{fill:#E6E6E5;} .st6{opacity:0.5;fill:#818181;} </style> <g> <g> <g> <defs> <filter id="Adobe_OpacityMaskFilter" x="0.2" y="6.2" width="80" height="80"> <feFlood style="flood-color:white;flood-opacity:1" result="back"></feFlood> <feBlend in="SourceGraphic" in2="back" mode="normal"></feBlend> </filter> </defs> <mask maskUnits="userSpaceOnUse" x="0.2" y="6.2" width="80" height="80" id="SVGID_1_"> <g class="st0"> <image style="overflow:visible;" width="351" height="351" xlink:href="8CDBA735CF555840.jpg" transform="matrix(0.24 0 0 0.24 -1.8464 4.2367)"> </image> </g> </mask> <g class="st1"> <circle class="st2" cx="40.2" cy="46.2" r="40"></circle> </g> </g> <circle class="st3" cx="40.2" cy="40.2" r="40"></circle> </g> <g> <path class="st4" d="M40.2,68.2c-15.2,0-27.6-12.4-27.6-27.6S25,13,40.2,13s27.6,12.4,27.6,27.6S55.5,68.2,40.2,68.2z M40.2,25.8 c-8.1,0-14.8,6.6-14.8,14.8s6.6,14.8,14.8,14.8S55,48.7,55,40.6S48.4,25.8,40.2,25.8z"></path> <path class="st5" d="M40.2,26.4c1.8,0,3.4,0.3,5,0.9L46.3,13c-2-0.4-4-0.7-6.1-0.7s-4.1,0.2-6.1,0.7l1.1,14.3 C36.8,26.7,38.5,26.4,40.2,26.4z"></path> <path class="st5" d="M40.2,54.8c-1.8,0-3.4-0.3-5-0.9l-1.1,14.3c2,0.4,4,0.7,6.1,0.7s4.1-0.2,6.1-0.7l-1.1-14.3 C43.7,54.5,42,54.8,40.2,54.8z"></path> <path class="st5" d="M67.8,34.5l-14.3,1.1c0.6,1.6,0.9,3.2,0.9,5s-0.3,3.4-0.9,5l14.3,1.1c0.4-2,0.7-4,0.7-6.1 C68.5,38.5,68.2,36.5,67.8,34.5z"></path> <path class="st5" d="M26.1,40.6c0-1.8,0.3-3.4,0.9-5l-14.3-1.1c-0.4,2-0.7,4-0.7,6.1c0,2.1,0.2,4.1,0.7,6.1L27,45.6 C26.4,44,26.1,42.3,26.1,40.6z"></path> <path class="st6" d="M68.5,40.6c0,2.1-0.2,4.1-0.7,6.1l-0.6-0.1C64.9,57,56.7,65.2,46.3,67.5l0,0.6c-2,0.4-4,0.7-6.1,0.7 c-2.1,0-4.1-0.2-6.1-0.7l0.1-0.6c-5.6-1.2-10.5-4.2-14.3-8.2c3.8,1.3,7.9,2,12.2,2c0.9,0,1.7,0,2.6-0.1c3.8-0.3,7.5-1.1,10.9-2.4 c6.7-2.6,12.5-7,16.7-12.6c2.2-2.9,3.9-6,5.2-9.4v0l-0.4-2.2l0.6,0c0.2,0.7,0.3,1.4,0.4,2.1C68.4,37.9,68.5,39.3,68.5,40.6z"></path> </g> </g> </svg> 