<?xml version="1.0" encoding="UTF-8"?> <!-- Generator: Adobe Illustrator 22.0.1, SVG Export Plug-In . SVG Version: 6.00 Build 0) --> <svg xmlns="http://www.w3.org/2000/svg" xmlns:xlink="http://www.w3.org/1999/xlink" id="Layer_1" x="0px" y="0px" viewBox="0 0 149.3 89" style="enable-background:new 0 0 149.3 89;" xml:space="preserve"> <style type="text/css"> .st0{fill:#2846A0;} .st1{fill-rule:evenodd;clip-rule:evenodd;fill:#2846A0;} </style> <g> <polygon class="st0" points="83,27.7 75.9,27.7 75.9,58.4 97.7,58.4 97.7,52.4 83,52.4 "></polygon> <g> <path class="st0" d="M113.3,46.7h5.8V52c-1.1,0.4-3.1,0.8-5.1,0.8c-6.4,0-8.5-3.2-8.5-9.8c0-6.3,2-10,8.4-10 c3.5,0,5.6,1.1,7.2,3.2l4.4-4.1c-2.7-3.8-7.4-5-11.8-5c-9.9,0-15.1,5.4-15.1,15.8c0,10.3,4.7,15.9,15.1,15.9c4.8,0,9.4-1.2,12-3 V40.9h-12.3V46.7z"></path> </g> <path class="st0" d="M41.5,19.4c-13.1,0-23.7,10.6-23.7,23.7c0,13.1,10.6,23.7,23.7,23.7c13.1,0,23.7-10.6,23.7-23.7 C65.3,30,54.6,19.4,41.5,19.4z M47.2,51.7v1.9h-6.6V32.7h1.9v19H47.2z M55.6,57.2c-3.8,3.8-8.8,5.8-14.1,5.8 c-5.3,0-10.3-2.1-14.1-5.8c-3.8-3.8-5.8-8.7-5.8-14c0-11,8.9-19.9,19.9-19.9c0.2,0,0.7,0,0.9,0v1.9c-0.2,0-0.7,0-0.9,0 c-4.8,0-9.3,1.9-12.7,5.3c-3.4,3.4-5.3,7.9-5.3,12.7c0,4.8,1.9,9.3,5.3,12.7c3.4,3.4,7.9,5.3,12.7,5.3c9.5,0,17.4-7.4,18-16.8v-0.3 H47.2v-1.8h13.4l0.8,0v0.9C61.4,48.4,59.3,53.4,55.6,57.2z M36.8,35.6c0,1.6-1.3,2.8-2.9,2.8c-1.6,0-2.8-1.3-2.8-2.8 c0-1.6,1.3-2.8,2.8-2.8C35.5,32.7,36.8,34,36.8,35.6z"></path> </g> </svg> 