<?xml version="1.0" encoding="UTF-8"?> <!-- Generator: Adobe Illustrator 22.0.1, SVG Export Plug-In . SVG Version: 6.00 Build 0) --> <svg xmlns="http://www.w3.org/2000/svg" xmlns:xlink="http://www.w3.org/1999/xlink" id="Layer_1" x="0px" y="0px" viewBox="0 0 174.2 89" style="enable-background:new 0 0 174.2 89;" xml:space="preserve"> <style type="text/css"> .st0{fill:#2846A0;} .st1{fill-rule:evenodd;clip-rule:evenodd;fill:#2846A0;} </style> <g id="XMLID_1_"> <path id="XMLID_24_" class="st0" d="M37.6,37.2v4.4h10.6c-0.3,2.5-1.2,4.3-2.4,5.6c-1.6,1.6-4,3.2-8.2,3.2 c-6.5,0-11.6-5.3-11.6-11.8s5.1-11.8,11.6-11.8c3.5,0,6.1,1.4,8,3.2l3.1-3.1c-2.6-2.6-6.2-4.5-11.1-4.5c-9,0-16.5,7.3-16.5,16.2 s7.5,16.2,16.5,16.2c4.8,0,8.5-1.6,11.3-4.5c2.9-2.9,3.8-7.1,3.8-10.4c0-1-0.1-2-0.2-2.8H37.6z"></path> <path id="XMLID_14_" class="st0" d="M66.1,33.6c-5.8,0-10.5,4.4-10.5,10.5c0,6,4.7,10.5,10.5,10.5c5.8,0,10.5-4.4,10.5-10.5 C76.6,38,71.9,33.6,66.1,33.6z M66.1,50.4c-3.2,0-5.9-2.6-5.9-6.4c0-3.8,2.7-6.4,5.9-6.4c3.2,0,5.9,2.6,5.9,6.4 C72,47.8,69.3,50.4,66.1,50.4z"></path> <path id="XMLID_9_" class="st0" d="M117.7,35.9h-0.2c-1-1.2-3-2.3-5.5-2.3c-5.2,0-9.8,4.6-9.8,10.5c0,5.9,4.6,10.5,9.8,10.5 c2.5,0,4.5-1.1,5.5-2.4h0.2v1.5c0,4-2.1,6.2-5.6,6.2c-2.8,0-4.6-2-5.3-3.7l-4,1.7c1.2,2.8,4.2,6.2,9.3,6.2c5.4,0,10-3.2,10-10.9 V34.1h-4.4V35.9z M112.4,50.4c-3.2,0-5.6-2.7-5.6-6.4c0-3.7,2.4-6.4,5.6-6.4c3.1,0,5.6,2.7,5.6,6.4C118,47.8,115.5,50.4,112.4,50.4 z"></path> <path id="XMLID_6_" class="st0" d="M89.5,33.6C83.7,33.6,79,38,79,44.1c0,6,4.7,10.5,10.5,10.5c5.8,0,10.5-4.4,10.5-10.5 C100.1,38,95.3,33.6,89.5,33.6z M89.5,50.4c-3.2,0-5.9-2.6-5.9-6.4c0-3.8,2.7-6.4,5.9-6.4s5.9,2.6,5.9,6.4 C95.5,47.8,92.7,50.4,89.5,50.4z"></path> <path id="XMLID_5_" class="st0" d="M125.6,22.8h4.5v31.7h-4.5V22.8z"></path> <path id="XMLID_2_" class="st0" d="M144.2,50.4c-2.3,0-4-1.1-5.1-3.2l14-5.8l-0.5-1.2c-0.9-2.3-3.5-6.7-9-6.7 c-5.4,0-9.9,4.2-9.9,10.5c0,5.9,4.4,10.5,10.4,10.5c4.8,0,7.6-2.9,8.7-4.6l-3.6-2.4C148.1,49.3,146.5,50.4,144.2,50.4L144.2,50.4z M143.8,37.5c1.9,0,3.4,1,4,2.3l-9.5,3.9C138.3,39.3,141.5,37.5,143.8,37.5z"></path> </g> </svg> 