<?xml version="1.0" encoding="UTF-8"?> <!-- Generator: Adobe Illustrator 22.0.1, SVG Export Plug-In . SVG Version: 6.00 Build 0) --> <svg xmlns="http://www.w3.org/2000/svg" xmlns:xlink="http://www.w3.org/1999/xlink" id="Layer_1" x="0px" y="0px" viewBox="0 0 229.3 89" style="enable-background:new 0 0 229.3 89;" xml:space="preserve"> <style type="text/css"> .st0{fill:#2846A0;} .st1{fill-rule:evenodd;clip-rule:evenodd;fill:#2846A0;} </style> <g> <path class="st0" d="M18,22.5h19.6c0,6.5,0,13.1,0,19.6c-6.5,0-13.1,0-19.6,0V22.5L18,22.5z"></path> <path class="st0" d="M39.6,22.5h19.6c0,6.5,0,13.1,0,19.6c-6.5,0-13.1,0-19.6,0C39.6,35.6,39.6,29.1,39.6,22.5L39.6,22.5z"></path> <path class="st0" d="M194.9,30c1.8-1.2,4.1-1.3,6.2-0.7c0,1.2,0,2.4,0,3.6c-1-0.4-2.1-0.7-3.1-0.3c-0.8,0.3-1.3,1.2-1.4,2 c-0.2,1.1-0.1,2.1-0.1,3.2c2.1,0,4.1,0,6.2,0c0-1.3,0-2.7,0-4c1.4-0.4,2.8-0.8,4.2-1.3c0,1.8,0,3.5,0,5.3c1.4,0,2.8,0,4.2,0v3.4 c-1.4-0.1-2.8,0-4.2,0c0,2,0,4,0,5.9c0,1.1-0.1,2.2,0.1,3.3c0.1,0.6,0.3,1.4,0.9,1.7c1,0.6,2.3,0.3,3.2-0.3v3.5 c-1.2,0.5-2.6,0.7-3.9,0.6c-1.2-0.1-2.5-0.5-3.3-1.5c-0.9-1.1-1.2-2.6-1.2-4c0-3,0-6.1,0-9.1c-2.1,0-4.1,0-6.2,0 c0,4.8,0,9.5,0,14.3c-1.4,0-2.8,0-4.2,0c0-4.8,0-9.5,0-14.3c-1,0-2,0-3,0c0-1.1,0-2.3,0-3.4c1,0,2,0,2.9,0c0.1-1.5-0.2-3.1,0.3-4.5 C192.9,31.9,193.7,30.7,194.9,30L194.9,30z"></path> <path class="st0" d="M104.1,30.2c0.9-0.1,1.8,0.2,2.3,0.8c0.7,0.7,0.8,1.9,0.3,2.8c-0.5,1-1.8,1.4-2.8,1.2c-1.1-0.2-2-1.2-2-2.4 C101.9,31.5,102.9,30.4,104.1,30.2L104.1,30.2z"></path> <path class="st0" d="M71.5,30.8c2.1,0,4.1,0,6.2,0c1.9,4.9,3.9,9.8,5.8,14.6c0.5,1.2,1,2.5,1.5,3.7c2.5-6.1,5-12.2,7.4-18.3 c2,0,4,0,5.9,0c0,8.2,0,16.5,0,24.7c-1.4,0-2.9,0-4.3,0c0-6.1,0-12.2,0-18.3c0-0.3,0-0.5,0-0.8c-0.1,0.1-0.2,0.3-0.2,0.4 c-2.5,6.2-5,12.4-7.4,18.7c-1,0-2,0-3.1,0c-2.5-6.2-5-12.5-7.5-18.7c-0.1-0.1-0.1-0.3-0.2-0.4c-0.1,2.7,0,5.3,0,8 c0,3.7,0,7.4,0,11.1c-1.3,0-2.7,0-4,0C71.5,47.3,71.5,39,71.5,30.8L71.5,30.8z"></path> <path class="st0" d="M115.7,37.8c2-0.6,4.3-0.6,6.3,0c0.4,0.1,0.8,0.3,1.2,0.5c0,1.4,0,2.7,0,4.1c-1.4-1-3.1-1.7-4.8-1.5 c-1.4,0.1-2.7,0.8-3.5,2c-1.1,1.4-1.3,3.2-1.1,4.9c0.1,1.3,0.7,2.6,1.7,3.5c1.1,1,2.6,1.3,4,1.2c1.4-0.2,2.7-0.7,3.8-1.6 c0,1.3,0,2.6,0,3.8c-1.7,1-3.8,1.3-5.8,1.2c-2-0.1-4.1-0.9-5.5-2.3c-1.6-1.5-2.5-3.7-2.6-5.9c-0.1-2.3,0.4-4.7,1.7-6.6 C112.1,39.5,113.9,38.3,115.7,37.8L115.7,37.8z"></path> <path class="st0" d="M154.3,41.9c-0.7-1.6-2.1-3-3.7-3.7c-1.9-0.9-4-1-6.1-0.7c-2.1,0.3-4.2,1.3-5.6,3c-1.2,1.5-1.8,3.5-2,5.4 c-0.2,2.3,0.2,4.7,1.6,6.6c1.1,1.6,2.9,2.8,4.9,3.2c1.6,0.3,3.3,0.3,5,0c1.9-0.4,3.7-1.4,4.9-3c1.2-1.5,1.7-3.3,1.9-5.2 C155.2,45.6,155.1,43.7,154.3,41.9z M150.2,50.1c-0.4,0.9-1.1,1.7-2.1,2c-1.1,0.4-2.3,0.4-3.5,0.2c-1.2-0.3-2.1-1.1-2.7-2.2 c-0.7-1.4-0.8-2.9-0.6-4.4c0.1-1.4,0.6-2.8,1.6-3.7c0.8-0.7,1.8-1,2.8-1.1c1.3-0.1,2.6,0.3,3.5,1.2c1,1,1.4,2.4,1.5,3.7 C150.8,47.2,150.8,48.7,150.2,50.1z"></path> <path class="st0" d="M162.1,37.5c2-0.3,4-0.1,5.9,0.6c0,1.3,0,2.6,0,3.9c-1.3-0.9-2.9-1.4-4.5-1.3c-0.8,0-1.7,0.4-2,1.1 c-0.3,0.7-0.1,1.7,0.6,2.2c1.2,0.8,2.6,1.1,3.9,1.9c1,0.6,1.9,1.3,2.4,2.3c0.9,1.9,0.5,4.5-1.1,6c-1.6,1.5-3.8,1.9-5.9,1.8 c-1.5-0.1-3-0.4-4.3-1c0-1.4,0-2.7,0-4.1c1.1,0.8,2.5,1.4,3.9,1.7c1,0.2,2,0.2,2.9-0.3c0.9-0.4,1-1.7,0.5-2.4 c-0.5-0.6-1.2-0.9-1.9-1.2c-1.3-0.6-2.6-1-3.7-1.9c-0.8-0.6-1.4-1.5-1.6-2.4c-0.3-1.4-0.2-3,0.6-4.2 C158.8,38.7,160.4,37.8,162.1,37.5L162.1,37.5z"></path> <path class="st0" d="M188.3,42.4c-0.7-1.8-2-3.3-3.6-4.1c-1.9-1-4.2-1.1-6.3-0.9c-1.7,0.2-3.4,0.9-4.7,2c-1.6,1.4-2.5,3.4-2.8,5.4 c-0.3,2.1-0.2,4.2,0.7,6.2c0.8,1.9,2.4,3.4,4.3,4.2c1.9,0.7,4,0.8,6,0.5c2-0.3,4-1.4,5.2-3.1c1.3-1.7,1.9-3.9,1.9-6 C188.9,45.2,188.8,43.8,188.3,42.4z M184.4,48.5c-0.2,0.9-0.5,1.9-1.1,2.6c-0.6,0.7-1.5,1.2-2.5,1.3c-1,0.2-2.1,0.1-3-0.3 c-1-0.4-1.8-1.3-2.2-2.3c-0.5-1.2-0.6-2.6-0.5-3.9c0.1-1.3,0.5-2.6,1.3-3.5c0.8-0.9,1.9-1.4,3.1-1.5c1.2-0.1,2.5,0.2,3.4,1 c0.8,0.7,1.3,1.8,1.5,2.8C184.6,45.9,184.6,47.2,184.4,48.5z"></path> <path class="st0" d="M132.7,38.1c1.2-0.7,2.7-0.8,3.9-0.3c0,1.4,0,2.8,0,4.2c-0.8-0.5-1.9-0.8-2.9-0.7c-1.2,0.1-2.2,1.1-2.7,2.1 c-0.5,1.1-0.6,2.4-0.6,3.6c0,2.8,0,5.7,0,8.5c-1.4,0-2.8,0-4.2,0c0-5.9,0-11.8,0-17.7c1.4,0,2.8,0,4.2,0c0,1,0,2,0,3 C131,39.7,131.7,38.7,132.7,38.1L132.7,38.1z"></path> <path class="st0" d="M102.3,37.8c1.4,0,2.8,0,4.2,0c0,5.9,0,11.8,0,17.7c-1.4,0-2.8,0-4.2,0C102.3,49.6,102.3,43.7,102.3,37.8 L102.3,37.8z"></path> <path class="st0" d="M18,44.1c6.5,0,13.1,0,19.6,0c0,6.5,0,13.1,0,19.6H18V44.1L18,44.1z"></path> <path class="st0" d="M39.6,44.2c6.5,0,13.1,0,19.6,0c0,6.5,0,13.1,0,19.6H39.6C39.6,57.2,39.6,50.7,39.6,44.2L39.6,44.2z"></path> </g> </svg> 