<?xml version="1.0" encoding="UTF-8"?> <!-- Generator: Adobe Illustrator 22.0.1, SVG Export Plug-In . SVG Version: 6.00 Build 0) --> <svg xmlns="http://www.w3.org/2000/svg" xmlns:xlink="http://www.w3.org/1999/xlink" id="Layer_1" x="0px" y="0px" viewBox="0 0 155.3 89" style="enable-background:new 0 0 155.3 89;" xml:space="preserve"> <style type="text/css"> .st0{fill:#2846A0;} .st1{fill-rule:evenodd;clip-rule:evenodd;fill:#2846A0;} </style> <g> <g> <rect x="51.6" y="53.1" class="st0" width="5" height="19.9"></rect> <path class="st0" d="M97.3,58.8c-0.2-0.1-1.8-1.1-4.2-1.1c-3.3,0-5.5,2.3-5.5,5.3c0,3,2.2,5.3,5.5,5.3c2.4,0,4-0.9,4.2-1.1v5.4 c-0.6,0.2-2.3,0.7-4.6,0.7C87,73.4,82,69.5,82,63.1c0-6,4.5-10.3,10.6-10.3c2.4,0,4.1,0.6,4.6,0.7V58.8z"></path> <path class="st0" d="M44.7,58.8c-0.2-0.1-1.8-1.1-4.2-1.1c-3.3,0-5.5,2.3-5.5,5.3c0,3,2.2,5.3,5.5,5.3c2.4,0,4-0.9,4.2-1.1v5.4 c-0.6,0.2-2.3,0.7-4.6,0.7c-5.7,0-10.6-3.9-10.6-10.3c0-6,4.5-10.3,10.6-10.3c2.4,0,4.1,0.6,4.6,0.7V58.8z"></path> <path class="st0" d="M123.6,63.1c0,5.7-4.4,10.3-10.5,10.3c-6.1,0-10.5-4.6-10.5-10.3c0-5.7,4.4-10.3,10.5-10.3 C119.2,52.7,123.6,57.4,123.6,63.1 M113.1,57.8c-3,0-5.2,2.3-5.2,5.2c0,2.9,2.2,5.2,5.2,5.2c3,0,5.2-2.3,5.2-5.2 C118.3,60.2,116.1,57.8,113.1,57.8"></path> <path class="st0" d="M75.8,57.6c-0.1,0-2.2-0.6-3.9-0.6c-2,0-3.1,0.7-3.1,1.6c0,1.2,1.5,1.6,2.3,1.9l1.4,0.4 c3.3,1,4.8,3.3,4.8,5.7c0,5-4.4,6.7-8.3,6.7c-2.7,0-5.2-0.5-5.4-0.5v-4.6c0.4,0.1,2.6,0.7,4.8,0.7c2.5,0,3.7-0.7,3.7-1.9 c0-1-1-1.6-2.2-2c-0.3-0.1-0.8-0.2-1.1-0.3c-2.8-0.9-5.1-2.5-5.1-5.8c0-3.7,2.8-6.2,7.4-6.2c2.5,0,4.8,0.6,4.9,0.6V57.6z"></path> <path class="st0" d="M24.2,31.7c0-1.4-1.1-2.5-2.5-2.5c-1.4,0-2.5,1.1-2.5,2.5v5.2c0,1.4,1.1,2.5,2.5,2.5c1.4,0,2.5-1.1,2.5-2.5 V31.7z"></path> <path class="st0" d="M37.9,24.8c0-1.4-1.1-2.5-2.5-2.5c-1.4,0-2.5,1.1-2.5,2.5v12.1c0,1.4,1.1,2.5,2.5,2.5c1.4,0,2.5-1.1,2.5-2.5 V24.8z"></path> <path class="st0" d="M51.6,15.4c0-1.4-1.1-2.5-2.5-2.5c-1.4,0-2.5,1.1-2.5,2.5v26.5c0,1.4,1.1,2.5,2.5,2.5c1.4,0,2.5-1.1,2.5-2.5 V15.4z"></path> <path class="st0" d="M65.4,24.8c0-1.4-1.1-2.5-2.5-2.5c-1.4,0-2.5,1.1-2.5,2.5v12.1c0,1.4,1.1,2.5,2.5,2.5c1.4,0,2.5-1.1,2.5-2.5 V24.8z"></path> <path class="st0" d="M79.1,31.7c0-1.4-1.1-2.5-2.5-2.5c-1.4,0-2.5,1.1-2.5,2.5v5.2c0,1.4,1.1,2.5,2.5,2.5c1.4,0,2.5-1.1,2.5-2.5 V31.7z"></path> <path class="st0" d="M92.8,24.8c0-1.4-1.1-2.5-2.5-2.5c-1.4,0-2.5,1.1-2.5,2.5v12.1c0,1.4,1.1,2.5,2.5,2.5c1.4,0,2.5-1.1,2.5-2.5 V24.8z"></path> <path class="st0" d="M106.5,15.4c0-1.4-1.1-2.5-2.5-2.5c-1.4,0-2.5,1.1-2.5,2.5v26.5c0,1.4,1.1,2.5,2.5,2.5c1.4,0,2.5-1.1,2.5-2.5 V15.4z"></path> <path class="st0" d="M120.3,24.8c0-1.4-1.1-2.5-2.5-2.5c-1.4,0-2.5,1.1-2.5,2.5v12.1c0,1.4,1.1,2.5,2.5,2.5c1.4,0,2.5-1.1,2.5-2.5 V24.8z"></path> <path class="st0" d="M134,31.7c0-1.4-1.1-2.5-2.5-2.5c-1.4,0-2.5,1.1-2.5,2.5v5.2c0,1.4,1.1,2.5,2.5,2.5c1.4,0,2.5-1.1,2.5-2.5 V31.7z"></path> </g> </g> </svg> 