<?xml version="1.0" encoding="UTF-8"?> <!-- Generator: Adobe Illustrator 22.0.1, SVG Export Plug-In . SVG Version: 6.00 Build 0) --> <svg xmlns="http://www.w3.org/2000/svg" xmlns:xlink="http://www.w3.org/1999/xlink" id="Layer_1" x="0px" y="0px" viewBox="0 0 180.3 89" style="enable-background:new 0 0 180.3 89;" xml:space="preserve"> <style type="text/css"> .st0{fill:#2846A0;} .st1{fill-rule:evenodd;clip-rule:evenodd;fill:#2846A0;} </style> <g> <path class="st1" d="M98.7,42.4c0,0-1.4-0.9-2.2-1.2c0,0-2.6-1.2-3.2-1.8c0,0-1-1-0.4-2.1c0,0,0.3-0.7,1.3-0.7c0,0,1.4,0.1,1.4,1.2 v1.6h5.1l0-2.4c0,0,0.4-4-6-4.1c0,0-5-0.3-6.5,2.4c0,0-0.6,0.6-0.6,2.7v1.5c0,0-0.1,1.8,0.8,2.9c0,0,0.5,0.7,1.8,1.6 c0,0,2.5,1.4,4.1,2.1c0,0,1.5,0.9,1.3,2.3c0,0-0.1,1.4-1.6,1.4c0,0-1.4-0.1-1.4-1.5v-1.6h-5.4V49c0,0-0.2,4.6,6.8,4.6 c0,0,6.7,0.1,7-4.7v-1.9C101.1,46.9,101.3,44,98.7,42.4L98.7,42.4z"></path> <polygon class="st1" points="72.7,33.5 71,44.1 70.6,44.1 68.9,33.5 60.4,33.5 60,52.9 65,52.9 65.1,38.3 65.5,38.3 68.2,52.9 73.5,52.9 76.1,38.3 76.5,38.3 76.6,52.9 81.6,52.9 81.1,33.5 72.7,33.5 "></polygon> <polygon class="st1" points="42.7,33.5 39.3,52.9 44.8,52.9 46.7,37.9 47.2,37.9 49.2,52.9 54.6,52.9 51.2,33.5 42.7,33.5 "></polygon> <path class="st1" d="M156.4,42.1V45h1.4v3.1c0,1.5-1.3,1.5-1.3,1.5c-1.6,0-1.5-1.4-1.5-1.4V37.6c0-1.1,1.4-1.1,1.4-1.1 c1.3,0,1.3,1.3,1.3,1.3v1.6h5.1c0.2-3.1-0.5-3.9-0.5-3.9c-1.3-2.8-6.1-2.7-6.1-2.7c-7.4,0-6.5,5.6-6.5,5.6v10.2 c0.2,5.3,7.4,4.8,7.5,4.8c3.2-0.4,4.2-1.4,4.2-1.4c0.9-0.7,1.1-1.6,1.1-1.6c0.3-0.5,0.3-2.2,0.3-2.2v-6H156.4L156.4,42.1z"></path> <polygon class="st1" points="139.5,45.3 139.3,45.3 134.1,33.5 127.9,33.5 127.9,52.9 133,52.9 132.7,41.1 132.9,41.1 138.3,52.9 144.3,52.9 144.3,33.5 139.2,33.5 139.5,45.3 "></polygon> <path class="st1" d="M115.6,48.1c0,0,0.1,1.6-1.4,1.6c0,0-1.6,0.1-1.6-1.6l0-14.6h-5.5V48c0,0-0.6,5.5,7.2,5.5c0,0,6.7,0.1,6.7-5.2 V33.5h-5.4V48.1L115.6,48.1z"></path> <path class="st1" d="M32.1,42.4c0,0-1.4-0.9-2.2-1.2c0,0-2.6-1.2-3.2-1.8c0,0-1-1-0.4-2.1c0,0,0.3-0.7,1.3-0.7c0,0,1.4,0.1,1.4,1.2 v1.6h5.1l0-2.4c0,0,0.4-4-6-4.1c0,0-0.5,0-1.2,0c0,0-3.9,0.2-5.3,2.3c0,0,0,0,0,0c0,0-0.6,0.6-0.6,2.7v1.5c0,0-0.1,1.8,0.8,2.9 c0,0,0.5,0.7,1.8,1.6c0,0,2.5,1.4,4,2.1c0,0,1.5,0.9,1.3,2.3c0,0-0.1,1.4-1.6,1.4c0,0-1.4-0.1-1.4-1.5v-1.6h-5.4V49 c0,0-0.2,4.6,6.8,4.6c0,0,6.7,0.1,7-4.7v-1.9C34.5,46.9,34.7,44,32.1,42.4L32.1,42.4z"></path> </g> </svg> 