<?xml version="1.0" encoding="UTF-8"?> <!-- Generator: Adobe Illustrator 22.0.1, SVG Export Plug-In . SVG Version: 6.00 Build 0) --> <svg xmlns="http://www.w3.org/2000/svg" xmlns:xlink="http://www.w3.org/1999/xlink" id="Layer_1" x="0px" y="0px" viewBox="0 0 256.8 89" style="enable-background:new 0 0 256.8 89;" xml:space="preserve"> <style type="text/css"> .st0{fill:#2846A0;} .st1{fill-rule:evenodd;clip-rule:evenodd;fill:#2846A0;} </style> <g> <path class="st0" d="M53.4,30.7c-1.2,0-2.2,0.8-2.5,1.8l0,0l-27.3,2.3c-0.7-0.8-1.8-1.4-3-1.4c-2.2,0-3.9,1.8-3.9,3.9 s1.8,3.9,3.9,3.9c0.8,0,1.6-0.2,2.2-0.7l11.9,7.9c0.1,4,3.3,7.2,7.3,7.2c4,0,7.3-3.3,7.3-7.3S46.1,41,42.1,41c-1.6,0-3,0.5-4.2,1.3 l-13.4-4c0-0.1,0-0.1,0-0.2l26.8-3.4l0,0c0.5,0.7,1.3,1.1,2.1,1.1c1.4,0,2.6-1.2,2.6-2.6S54.9,30.7,53.4,30.7z"></path> <path class="st0" d="M128.5,51.4c0.1-0.7,0.7-1,1-1.4c0.3-0.5,0.6-0.9,1-1.4c0.6,0.2,1.1,0.5,1.6,0.8c0.2,0.1,0.5,0.1,0.7,0.3 c0.2,0.2,0.5,0.1,0.8,0.2c0,0.1,0.1,0.2,0.1,0.3c0.3,0,0.6,0,0.9,0c0,0.1,0.1,0.2,0.1,0.3c0.3,0,0.7,0,1,0c0.1,0.1,0.2,0.2,0.3,0.3 c0.6,0.1,1.2-0.2,1.7,0.4c1.6,0,3.2,0,4.8,0c0.2,0,0.5,0,0.7-0.2c0.4-0.3,1-0.1,1.4-0.3c0.4-0.1,0.7-0.2,1.1-0.3c0,0,0-0.1,0-0.2 c0.2-0.1,0.3-0.1,0.5-0.2c0.2-0.1,0.4-0.2,0.4-0.3c0-0.3,0.2-0.2,0.4-0.4c0-0.1,0-0.2,0-0.3c0.1-0.1,0.2-0.2,0.3-0.4 c0-0.6,0-1.2,0-1.9c-0.1,0-0.1,0-0.2-0.1c-0.1-0.2-0.2-0.4-0.3-0.6c-0.1-0.2-0.4-0.2-0.7-0.4c-0.1,0-0.2,0-0.4,0 c0-0.1-0.1-0.2-0.1-0.3c-1.8,0-3.5,0-5.3,0c-0.3,0-0.5,0.2-0.8,0.3c-0.5,0-1.1,0-1.6,0c-0.5,0-1.1-0.1-1.5,0.2 c-0.4-0.3-0.8-0.1-1.2-0.2c-0.4,0-0.8,0-1.3,0c-0.1-0.1-0.2-0.2-0.3-0.3c-0.2,0-0.4,0-0.5,0c-0.4-0.2-0.7-0.4-1-0.5 c-0.4-0.1-0.5-0.3-0.8-0.5c-0.3-0.2-0.5-0.4-0.7-0.7c-0.2-0.2-0.5-0.5-0.7-0.8c0-0.1,0-0.3,0-0.5c-0.1,0-0.2-0.1-0.3-0.1 c-0.1-0.4-0.2-0.7-0.3-1.1c-0.1-1.8-0.1-1.8,0.2-2.4c0-0.3,0-0.6,0-0.9c0.1,0,0.2-0.1,0.3-0.1c0.1-0.6,0.6-1,0.8-1.5 c0.3-0.5,0.9-0.7,1.3-1c0.4-0.4,1-0.6,1.5-0.8c0.5-0.1,1-0.6,1.6-0.4c0.1-0.1,0.2-0.2,0.3-0.3c0.4,0,0.8,0,1.3,0c0.4,0,0.7,0,1-0.2 c0.1-0.1,0.3-0.1,0.5-0.1c0.6,0,1.2,0,1.9,0c0.3,0,0.5,0.1,0.8,0.2c0.3,0,0.5,0.1,0.8,0.1c0.5,0.1,1.1,0,1.6,0c0.4,0,0.8,0,1.1,0.3 c0.4,0,0.8,0,1.2,0c0.1,0.1,0.2,0.2,0.3,0.3c0.4,0,0.7,0,1.1,0c0.1,0.1,0.2,0.2,0.4,0.4c0.2,0,0.5,0,0.7,0c0,0,0,0.1,0,0.1 c0.3,0.1,0.6,0.2,1.1,0.3c0,0,0,0.1,0.1,0.2c0.2,0,0.4,0,0.6,0c0,0.2,0,0.4,0,0.7c-0.1,0-0.2,0-0.2,0c-0.3,0.6-0.6,1.1-0.9,1.7 c-0.1,0-0.2,0-0.3,0.1c0,0.2,0,0.4,0,0.6c-0.4,0-0.9,0-1.3,0c0-0.1-0.1-0.2-0.1-0.3c-0.2,0-0.5,0-0.7,0c-0.1-0.1-0.2-0.2-0.4-0.4 c-0.5,0-1,0.1-1.4-0.3c-0.4,0-0.8,0-1.2,0c-0.3-0.3-0.6-0.4-1-0.3c-0.5,0-1,0-1.5,0c-0.3,0-0.7,0.1-1-0.1c-0.1-0.1-0.4-0.1-0.6,0 c-0.9,0.3-1.8,0.1-2.8,0.2c-0.1,0.1-0.2,0.2-0.2,0.3c-0.3,0-0.5,0-0.8,0c-0.2,0.3-0.5,0.5-0.8,0.3c-0.3,0.3-0.5,0.5-0.8,0.9 c0,0.1,0,0.3,0,0.4c-0.1,0-0.2,0.1-0.3,0.1c0,0.3,0,0.5,0,1c0,0,0.2,0.1,0.3,0.2c0.1,0.1,0,0.3,0.2,0.5c0.3,0.2,0.6,0.5,1,0.6 c0.3,0.1,0.4,0.2,0.6,0.4c1.3,0,2.6,0,3.9,0c0.3-0.3,0.7-0.4,1.1-0.3c0.2,0,0.5,0,0.7,0c0.6,0,1.2,0.1,1.8-0.2 c0.8-0.3,1.7-0.2,2.5,0c0.4,0.1,0.7,0.1,1.1,0.1c0.3,0,0.7,0,1,0c0.1,0.1,0.2,0.2,0.3,0.3c0.5,0,1,0.4,2,0.9c0.7,0.4,1,1,1.5,1.6 c0,0,0,0.2,0,0.4c0.1,0.1,0.2,0.2,0.3,0.3c0,1.2,0,2.5,0,3.8c-0.1,0-0.2,0-0.3,0.1c0,0.2,0,0.3,0,0.6c-0.1,0.1-0.2,0.2-0.3,0.2 c0,0.2,0,0.3,0,0.4c-0.5,0.3-0.7,0.7-1.1,1.1c-0.4,0.3-0.7,0.8-1.2,1c-0.5,0.2-1,0.4-1.5,0.8c-0.1,0-0.3,0-0.5,0 c-0.1,0.1-0.2,0.2-0.3,0.3c-0.3,0-0.6,0-0.9,0c0,0.1-0.1,0.2-0.1,0.3c-0.5,0-1,0-1.5,0c-0.3,0.3-0.7,0.4-1.1,0.4 c-1.7,0-3.5,0-5.2,0c-0.4,0-0.8,0-1.1-0.3c-0.4,0-0.7,0-1.1,0c-0.2,0-0.5,0-0.7-0.2c-0.4-0.3-0.9-0.1-1.3-0.2 c-0.1-0.1-0.2-0.2-0.3-0.3c-0.3,0-0.5,0-0.9,0c-0.1-0.1-0.2-0.3-0.2-0.3c-0.3,0-0.5,0-0.8,0c0-0.1-0.1-0.2-0.1-0.3 C130.2,52.4,129.4,51.9,128.5,51.4z"></path> <path class="st0" d="M220.3,54.2c0-6.7,0-13.3,0-20c5.8,0,11.6,0,17.5,0c0,1,0,2.1,0,3.1c-0.1,0.1-0.2,0.2-0.2,0.2 c-4.4,0-8.8,0-13.3,0c0,1.3,0,2.7,0,4c0.3,0.3,0.7,0.2,1,0.2c3.3,0,6.6,0,9.9,0c0.3,0,0.6,0,0.9,0c0,1.1,0,2.1,0,3.2 c-3.9,0-7.9,0-11.8,0c0,1.9,0,3.8,0,5.8c0.2,0,0.5,0,0.7,0c4,0,8.1,0,12.1,0c0.3,0,0.7,0.1,1,0.1c0,1.1,0,2.2,0,3.2 C232.2,54.2,226.3,54.2,220.3,54.2z"></path> <path class="st0" d="M120.3,34.2c0.1,0.1,0.2,0.2,0.3,0.3c0.3,0,0.7,0,1.1,0c0,0.1,0,0.2,0.1,0.3c0.8,0.1,1.5,0.5,2.2,1 c0.7,0.5,1.3,0.9,1.5,1.7c0.1,0,0.1,0,0.2,0.1c0.1,0.2-0.1,0.5,0.2,0.6c0.3,0.1,0.1,0.4,0.2,0.6c0.1,0.2,0.2,0.4,0.3,0.6 c0,1.3,0,2.6,0,4.1c-0.1,0.1-0.2,0.2-0.4,0.3c0.1,0.4-0.1,0.7-0.2,1c-0.1,0.4-0.5,0.5-0.5,1c-0.4,0.3-0.7,0.6-1.1,1 c-0.1,0.2-0.4,0.2-0.6,0.4c-0.2,0.1-0.3,0.2-0.5,0.3c-0.4,0.2-0.7,0.4-1.2,0.7c-0.1,0-0.3,0-0.6,0c-0.5,0.5-1.2,0.3-1.7,0.4 c-0.1,0.1-0.2,0.2-0.3,0.3c-2.9,0-5.9,0-8.9,0c0,1.8,0,3.6,0,5.4c-0.7,0-1.4,0-2.1,0c-0.6,0-1.3,0.2-2-0.2c0-6.6,0-13.2,0-19.8 C111,34.2,115.6,34.2,120.3,34.2z M119.6,37.6c-3.1,0-6.1,0-9.1,0c0,2.6,0,5.2,0,7.8c2.6,0,5.1,0,7.7,0c0.5,0,1.1,0.1,1.6-0.3 c0.1-0.1,0.4,0,0.5,0c0.2-0.5,0.7-0.5,1-0.8c0.3-0.3,0.5-0.8,0.8-1.2c0-0.3,0-0.8,0.3-1.1c0-0.4,0-0.8,0-1.1 c-0.1-0.3-0.3-0.5-0.3-0.7c0.1-0.5-0.5-0.7-0.4-1.1c-0.3-0.1-0.4-0.4-0.6-0.6c-0.2-0.2-0.7-0.1-0.8-0.5c0,0-0.1,0-0.1,0 c0,0,0,0,0,0c-0.2,0-0.3,0-0.5,0C119.7,37.8,119.6,37.7,119.6,37.6z"></path> <path class="st0" d="M103,44c-0.4,0.3-0.3,0.8-0.7,1c-0.6,1.2-0.8,1.4-1.9,2.1c-0.3,0.2-0.6,0.4-1,0.7c-0.1,0-0.3,0-0.5,0 c0,0.1,0,0.2-0.1,0.3c-0.2,0-0.5,0-0.7,0c-0.1,0.1-0.2,0.2-0.4,0.4c-0.6,0.1-1.2-0.2-1.7,0.3c-2.9,0-5.8,0-8.6,0 c-0.4,0.3-0.3,0.7-0.3,1.1c0,1.4,0,2.9,0,4.4c-1.3,0-2.6,0-3.9,0c0-6.7,0-13.3,0-20c0.2,0,0.5,0,0.7,0c4.1,0,8.1,0,12.2,0 c0.4,0,0.8,0,1,0.3c0.3,0,0.6,0,0.8,0c0,0,0,0,0,0.1c0.3,0.1,0.7,0.2,1.1,0.4c0,0,0,0.1,0.1,0.2c0.2,0,0.3,0,0.5,0 c0.1,0.1,0.2,0.3,0.2,0.3c0.2,0,0.3,0,0.4,0c-0.1,0.4,0.5,0.3,0.4,0.6c0.3,0.1,0.5,0.3,0.7,0.5c0.2,0.2,0.4,0.4,0.6,0.7 c0,0.1,0,0.3,0,0.5c0.1,0,0.2,0,0.3,0.1c0,0.2,0,0.4,0,0.6c0.1,0,0.2,0.1,0.3,0.1c0,0.3,0,0.6,0.1,1c0.1,0.3,0.2,0.6,0.3,0.9 c0,0.3,0,0.7,0,1c0,0.3,0,0.7,0,1.1C103,42.9,103,43.4,103,44z M97.2,37.9c-0.4,0.1-0.7,0-0.8-0.3c-3,0-6,0-8.9,0 c0,2.6,0,5.1,0,7.6c0,0,0,0.1,0,0.1c0,0,0,0,0.1,0.1c2.6,0,5.3,0,7.9,0c0.4,0,0.9,0,1.2-0.3C96.8,45,97,45,97.1,45 c0.6-0.6,1.5-0.8,1.5-1.6c0.1,0,0.2-0.1,0.3-0.1c0-0.5-0.1-1,0.3-1.3c0.1-0.1,0.1-0.3,0.1-0.4c0-0.3,0-0.6,0-0.8 c-0.1-0.1-0.2-0.2-0.3-0.3c0-0.2,0-0.5,0-0.7c-0.1,0-0.2,0-0.3-0.1c-0.1-0.2-0.1-0.5-0.3-0.7c-0.2-0.2-0.3-0.5-0.5-0.6 C97.6,38.2,97.3,38.2,97.2,37.9z"></path> <path class="st0" d="M154.7,34.2c0.7,0,1.4,0,2.1,0c3.6,0,7.2,0,10.8,0c0.4,0,0.8,0,1.1,0.3c0.4,0,0.9-0.1,1.3,0.3 c0.1,0.1,0.4,0.1,0.6,0.1c0,0.1,0,0.2,0.1,0.3c0.2,0,0.3,0,0.5,0c0.2,0.2,0.4,0.4,0.7,0.4c0,0.3,0.4,0.3,0.5,0.6 c0.3,0,0.4,0.3,0.6,0.5c0.2,0.2,0.4,0.4,0.6,0.7c0,0.1,0,0.3,0,0.5c0.1,0,0.2,0.1,0.3,0.1c0,0.2,0,0.4,0,0.5c0.1,0,0.2,0.1,0.3,0.1 c0,0.6,0.1,1.2,0.3,1.7c0.1,0.3,0,0.6,0,0.9c0,0.4,0,0.8,0,1.3c-0.4,0.4-0.4,0.8-0.3,1.2c-0.3,0.5-0.5,1-0.8,1.5c0,0-0.1,0-0.2,0.1 c-0.1,0.6-0.6,1-1,1.3c-0.5,0.4-1,0.6-1.6,1c-0.1,0-0.2,0-0.4,0c0,0.1,0,0.2-0.1,0.3c-0.2,0-0.5,0-0.7,0c-0.1,0.1-0.2,0.3-0.3,0.4 c-0.4,0-0.8,0-1.2,0c-0.3,0.3-0.7,0.3-1,0.3c-2.7,0-5.4,0-8.1,0c-0.2,0.3-0.3,0.7-0.3,1c0,1.4,0,2.9,0,4.4c-1.3,0-2.6,0-3.9,0 C154.7,47.5,154.7,40.9,154.7,34.2z M158.7,45.3C158.8,45.4,158.8,45.4,158.7,45.3c2.8,0.1,5.6,0.1,8.4,0.1c0.2,0,0.3-0.1,0.5-0.1 c0.3-0.1,0.6-0.2,1-0.3c0-0.4,0.4-0.3,0.6-0.5c0.3-0.2,0.5-0.5,0.7-0.7c0-0.1,0-0.3,0-0.4c0.1,0,0.2-0.1,0.3-0.1c0-0.3,0-0.6,0-0.9 c0.5-0.5,0.3-1.1,0.3-1.7c-0.1-0.1-0.2-0.2-0.3-0.3c0-0.2,0-0.5,0-0.7c-0.1,0-0.2,0-0.2,0c-0.1-0.2-0.3-0.4-0.3-0.6 c-0.1-0.3-0.4-0.3-0.5-0.6c-0.1-0.3-0.5,0-0.6-0.3c-0.1-0.3-0.5-0.1-0.8-0.3c0,0-0.1-0.1-0.1-0.2c-3,0-6,0-8.9,0 C158.7,40.2,158.7,42.8,158.7,45.3z"></path> <path class="st0" d="M77.6,49.3c0,0,0,0.2,0,0.4c0.1,0,0.2,0,0.3,0.1c0,0.2,0,0.4,0,0.6c0.1,0,0.2,0.1,0.3,0.1c0,0.2,0,0.4,0,0.6 c0.1,0,0.2,0.1,0.3,0.1c0,0.2,0,0.4,0,0.6c0.1,0,0.2,0.1,0.3,0.1c0,0.2,0,0.4,0,0.6c0.1,0,0.2,0.1,0.3,0.1c0,0.2,0,0.4,0,0.6 c0.1,0,0.2,0,0.3,0.1c0,0.2,0,0.4,0,0.6c0.1,0.1,0.3,0.2,0.4,0.3c-0.1,0.1-0.1,0.1-0.1,0.1c-1.3,0-2.6,0-4,0 c-0.1-0.1-0.2-0.2-0.4-0.5c0,0,0-0.2,0-0.4c-0.1,0-0.2-0.1-0.3-0.1c0-0.2,0-0.4,0-0.5c-0.1-0.1-0.2-0.1-0.3-0.1c0-0.2,0-0.4,0-0.6 c-0.1,0-0.2,0-0.3-0.1c0-0.2,0-0.4,0-0.5c-0.2-0.2-0.3-0.3-0.6-0.5c-3.9,0-7.9,0-12,0c0,0.1,0,0.2-0.1,0.3c-0.1,0-0.2,0.1-0.3,0.1 c0,0.2,0,0.4,0,0.6c-0.1,0-0.2,0.1-0.3,0.1c0,0.2,0,0.4,0,0.4c-0.3,0.7-0.6,1.3-0.9,1.9c-1.4,0-2.8,0-4.1,0 c-0.2-0.3,0.1-0.3,0.3-0.4c0-0.2,0-0.4,0-0.6c0.1,0,0.2,0,0.3-0.1c0-0.2,0-0.3,0-0.5c0.9-1.6,1.4-3.2,2.4-4.8c0-0.1,0-0.3,0-0.4 c0.1,0,0.2-0.1,0.3-0.1c0-0.2,0-0.4,0-0.6c0.1,0,0.2-0.1,0.3-0.1c0-0.2,0-0.4,0-0.6c0.1,0,0.2-0.1,0.3-0.1c0-0.2,0-0.3,0-0.4 c0.9-1.6,1.5-3.2,2.4-4.8c0-0.1,0-0.2,0-0.4c0.1,0,0.2-0.1,0.3-0.1c0-0.2,0-0.4,0-0.6c0.1,0,0.2-0.1,0.3-0.1c0-0.2,0-0.4,0-0.6 c0.1,0,0.2-0.1,0.3-0.1c0-0.2,0-0.3,0-0.4c0.5-0.7,0.7-1.4,1.1-2.1c0.3-0.7,0.7-1.4,1.1-2.1c1.4,0,2.8,0,4.3,0 c0.1,0.1,0.2,0.3,0.4,0.5c0,0,0,0.2,0,0.4c0.1,0,0.2,0,0.3,0.1c0,0.2,0,0.4,0,0.6c0.1,0,0.2,0.1,0.3,0.1c0,0.2,0,0.3,0,0.6 c0.1,0,0.2,0.1,0.3,0.1c0,0.2,0,0.4,0,0.6c0.1,0,0.2,0.1,0.3,0.1c0,0.2,0,0.4,0,0.6c0.1,0,0.2,0.1,0.3,0.1c0,0.2,0,0.4,0,0.4 C74,42,75.7,45.7,77.6,49.3z M64,46.7c-0.1,0.1-0.2,0.1-0.3,0.1c0,0.3,0,0.6,0,0.9c2.9,0,5.8,0,8.8,0c0-0.2,0-0.4,0-0.5 c-0.2-0.4-0.6-0.8-0.6-1.2c0-0.4-0.5-0.5-0.4-0.9c-0.4-0.6-0.5-1.2-0.9-1.8c-0.3-0.5-0.4-1.1-0.8-1.5c0,0,0-0.1,0-0.1c0,0,0,0,0,0 c0-0.2,0-0.3,0-0.5c-0.1,0-0.2-0.1-0.3-0.1c0-0.2,0-0.4,0-0.6c-0.1,0-0.2-0.1-0.3-0.1c0-0.2,0-0.4,0-0.6c-0.1,0-0.2,0-0.3-0.1 c0-0.2,0-0.4-0.1-0.6c-0.1,0-0.2,0-0.3-0.1c0-0.2,0-0.4,0-0.5c-0.2-0.2-0.4-0.4-0.5-0.5c-0.3,0.5-0.5,1-0.8,1.6c0,0,0,0.2,0,0.4 c-0.1,0-0.2,0.1-0.3,0.1c0,0.2,0,0.4,0,0.6c-0.1,0-0.2,0.1-0.3,0.1c0,0.2,0,0.4,0,0.6c-0.1,0-0.2,0.1-0.3,0.1c0,0.2,0,0.4,0,0.5 c-0.8,1.3-1.2,2.8-2,4.1C64,46.4,64,46.5,64,46.7z"></path> <path class="st0" d="M178.8,50.8c-0.3,0.4-0.4,0.8-0.6,1.2c-0.1,0.4-0.3,0.7-0.5,1.1c-0.2,0.4-0.4,0.8-0.5,1.1c-1.3,0-2.6,0-3.9,0 c0-0.2,0-0.4,0-0.5c0.6-1.1,1-2.3,1.7-3.3c0-0.1,0-0.3,0-0.5c0.1,0,0.2-0.1,0.3-0.1c0-0.2,0-0.4,0-0.6c0.1,0,0.2-0.1,0.3-0.1 c0-0.2,0-0.4,0-0.6c0.1,0,0.2-0.1,0.3-0.1c0-0.2,0-0.4,0-0.5c0.7-1.1,1-2.3,1.7-3.4c0-0.1,0-0.3,0-0.5c0.1,0,0.2-0.1,0.3-0.1 c0-0.2,0-0.4,0-0.6c0.1,0,0.2-0.1,0.3-0.1c0-0.2,0-0.4,0-0.6c0.1,0,0.2-0.1,0.3-0.1c0-0.2,0-0.3,0-0.4c0.7-1.1,1-2.3,1.7-3.4 c0-0.1,0-0.3,0-0.5c0.1,0,0.2-0.1,0.3-0.1c0-0.2,0-0.4,0-0.6c0.1,0,0.2-0.1,0.3-0.1c0-0.2,0-0.4,0-0.6c0.1,0,0.2,0,0.3-0.1 c-0.1-0.5,0.3-0.9,0.5-1.4c0.2-0.4,0.4-0.9,0.6-1.3c1.4,0,2.8,0,4.3,0c0.1,0.1,0.2,0.2,0.4,0.4c0,0.2,0,0.3,0,0.5 c0.1,0,0.2,0.1,0.3,0.1c0,0.2,0,0.4,0,0.6c0.1,0,0.2,0.1,0.3,0.1c0,0.2,0,0.4,0,0.5c0.1,0.1,0.2,0.1,0.3,0.1c0,0.2,0,0.4,0,0.6 c0.1,0,0.2,0,0.3,0.1c0,0.2,0,0.4,0,0.6c0.1,0,0.2,0.1,0.3,0.1c0,0.2,0,0.4,0,0.6c0.1,0,0.2,0.1,0.3,0.1c0,0.2,0,0.4,0,0.6 c0.1,0,0.2,0.1,0.3,0.1c0,0.2,0,0.4,0,0.6c0.1,0,0.2,0.1,0.3,0.1c0,0.2,0,0.4,0,0.6c0.1,0,0.2,0,0.3,0.1c0,0,0,0,0,0 c0,0.4,0.3,0.7,0.3,1c0,0.4,0.5,0.5,0.4,1c0.4,0.2,0.2,0.8,0.7,1c-0.1,0.4,0.5,0.6,0.4,1c0.5,0.5,0.5,1.1,0.8,1.7 c0.3,0.5,0.6,1.1,0.8,1.6c0.1,0.3,0.3,0.5,0.3,0.8c0,0.3,0.4,0.4,0.4,0.7c0,0.3,0.5,0.4,0.3,0.8c0.4,0.2,0.2,0.8,0.7,1 c0,0.2,0,0.4,0,0.6c0.1,0,0.2,0,0.3,0.1c0,0.2,0,0.4,0,0.6c0.1,0,0.2,0.1,0.3,0.1c0,0.2,0,0.4,0,0.6c0.1,0,0.2,0.1,0.3,0.1 c0,0.2,0,0.4,0,0.5c0.2,0.2,0.3,0.3,0.5,0.5c-1.5,0-2.8,0-4.2,0c0-0.1-0.1-0.2-0.1-0.2c-0.1,0-0.2-0.1-0.3-0.1c0-0.2,0-0.4,0-0.6 c-0.1,0-0.2,0-0.3-0.1c0-0.2,0-0.4,0-0.6c-0.1,0-0.2-0.1-0.3-0.1c0-0.2,0-0.3,0-0.4c-0.2-0.3-0.3-0.6-0.5-0.9 c-0.1-0.1-0.2-0.2-0.4-0.4C186.9,50.8,182.9,50.8,178.8,50.8z M184.6,38.2c-0.1,0.5-0.6,0.8-0.5,1.3c-0.1,0-0.2,0-0.3,0.1 c0,0.2,0,0.4,0,0.6c-0.1,0-0.2,0.1-0.3,0.1c0,0.2,0,0.4,0,0.6c-0.1,0-0.2,0.1-0.3,0.1c0,0.2,0,0.4,0,0.4c-0.6,1.2-1,2.4-1.7,3.5 c0,0.1,0,0.3,0,0.4c-0.1,0-0.2,0.1-0.3,0.1c0,0.2,0,0.4,0,0.6c-0.1,0-0.2,0.1-0.3,0.1c0,0.2,0,0.4,0,0.6c-0.1,0-0.2,0.1-0.3,0.1 c0,0.3,0,0.6,0,0.9c2.9,0,5.8,0,8.8,0c0-0.2,0-0.4,0-0.5c-0.7-1.4-1.2-2.8-2.1-4.1c0-0.1,0-0.3,0-0.4c-0.1,0-0.2,0-0.3-0.1 c0-0.2,0-0.4-0.1-0.6c-0.1,0-0.2,0-0.3-0.1c0-0.2,0-0.4,0-0.6c-0.1,0-0.2-0.1-0.3-0.1c0-0.2,0-0.4,0-0.6c-0.1,0-0.2-0.1-0.3-0.1 c0-0.2,0-0.4,0-0.6c-0.4-0.1-0.4-0.6-0.6-0.9C185.1,38.8,184.8,38.5,184.6,38.2z"></path> <path class="st0" d="M213.6,54.2c-0.3,0-0.6,0-0.8,0c-0.1,0-0.3,0-0.4,0.1c-0.4,0.4-0.9,0.3-1.4,0.3c-1.7,0-3.3,0-5,0 c-0.4-0.5-1-0.3-1.6-0.3c-0.1-0.1-0.2-0.2-0.2-0.3c-0.4,0-0.6,0-1,0c0-0.1-0.1-0.2-0.1-0.3c-0.8-0.1-1.4-0.5-2.1-0.9 c-0.7-0.4-1.2-0.9-1.8-1.4c-0.1-0.1-0.4-0.2-0.5-0.3c-0.3-0.5-0.7-0.9-1.1-1.4c-0.1-0.1,0-0.3,0-0.4c-0.1,0-0.2,0-0.3-0.1 c0-0.3,0-0.6-0.2-0.8c-0.2-0.2-0.3-0.5-0.5-0.7c0-0.2,0-0.5,0-0.7c-0.1,0-0.2,0-0.3-0.1c0,0-0.1-0.1-0.1-0.1c0-0.4,0-0.8,0-1.3 c-0.4-0.3,0-0.8-0.3-1c0.1-0.4,0-0.8,0.2-1.1c0.2-0.3,0.1-0.6,0.1-1c0-0.4,0-0.7,0.3-1c0-0.2,0-0.4,0-0.7c0.1-0.1,0.2-0.2,0.3-0.3 c0-0.2,0-0.4,0-0.6c0.1,0,0.1,0,0.2,0c0.3-0.5,0.6-1.1,1-1.6c0.3-0.3,0.5-0.7,0.9-1c0.4-0.3,0.7-0.6,1.1-0.9 c0.3-0.2,0.6-0.5,0.9-0.6c0.4-0.2,0.7-0.4,1.1-0.5c0.3-0.1,0.5-0.2,0.8-0.2c0.2,0,0.3-0.2,0.5-0.3c0.2,0,0.5,0,0.8,0 c0.1-0.1,0.2-0.2,0.3-0.3c0.6,0,1.3,0,1.9,0c0.3-0.3,0.7-0.4,1.1-0.4c0.3,0,0.6,0,0.8,0c0.6,0,1.2,0,1.7,0.2 c0.4,0.2,0.7,0.1,1.1,0.2c0.3,0,0.7,0,1,0c0.1,0.1,0.2,0.2,0.3,0.3c0.3,0,0.7,0,1,0c0.1,0.1,0.2,0.2,0.3,0.3c0.2,0,0.4,0,0.7,0 c0.2,0.4,0.7,0.3,1,0.6c0.3,0.2,0.7,0.2,1,0.5c-0.1,0.2-0.2,0.5-0.4,0.6c-0.2,0.2,0.1,0.6-0.4,0.6c-0.1,0.2-0.1,0.5-0.4,0.7 c-0.2,0.2-0.3,0.4-0.4,0.6c-0.2,0-0.4,0-0.6,0c-0.1-0.1-0.2-0.2-0.3-0.3c-0.2,0-0.4,0-0.7,0c-0.1-0.1-0.2-0.3-0.3-0.4 c-0.4,0-0.8,0-1.2-0.2c-0.1-0.1-0.3-0.1-0.5-0.1c-0.7,0.1-1.4-0.2-2.1-0.2c-0.1,0-0.2-0.1-0.3-0.2c-0.1,0.1-0.2,0.2-0.3,0.2 c-0.8,0-1.6,0.3-2.4,0.2c-0.3,0-0.6,0.1-0.8,0.2c-0.3,0.3-0.6,0-0.9,0.3c-0.2,0.2-0.5,0.2-0.9,0.3c0,0,0,0.1,0,0.2 c-0.6,0-0.9,0.7-1.5,0.9c-0.6,0.3-0.7,1-1.2,1.3c0,0.1,0,0.2,0,0.3c-0.1,0.1-0.2,0.2-0.3,0.4c0,0.2,0,0.3,0,0.5 c-0.1,0-0.2,0.1-0.3,0.1c-0.1,0.7,0.1,1.4-0.2,2.2c0.3,0.4,0.2,0.9,0.1,1.4c0,0.5,0.5,0.9,0.3,1.4c0.1,0.1,0.3,0.1,0.3,0.2 c0.1,0.5,0.5,0.8,0.7,1.2c0.3,0.4,0.7,0.6,1,1c0.2,0.3,0.6,0.3,0.9,0.5c0,0.1,0,0.2,0.1,0.3c0.2,0,0.4,0,0.6,0c0,0.1,0,0.2,0.1,0.3 c0.7,0,1.2,0.6,1.9,0.4c0.1,0.1,0.2,0.2,0.4,0.4c1.3,0,2.7,0,4,0c0.3,0,0.6-0.1,0.9-0.3c0.4,0,0.9,0.1,1.3-0.3 c0.6,0.1,1-0.5,1.6-0.4c0-0.1,0-0.2,0.1-0.3c0.3-0.1,0.5-0.1,0.9-0.2c0.1,0,0.2,0.1,0.4,0.2c0.2,0.3,0.2,0.8,0.7,1 c0,0.2,0,0.3,0,0.5c0.6,0.6,0.6,0.6,0.7,1c-0.3,0.1-0.5,0.5-0.8,0.6c-0.3,0.1-0.6,0.4-0.9,0.5c-0.5,0.1-0.8,0.3-1.3,0.4 C214.1,53.9,213.9,54,213.6,54.2C213.6,54.2,213.6,54.2,213.6,54.2z"></path> </g> </svg> 